<svg width="351" height="462" viewBox="0 0 351 462" fill="none" xmlns="http://www.w3.org/2000/svg">
<g clip-path="url(#clip0_573_8055)">
<path d="M323.736 125.205C327.556 123.857 333.697 122.359 333.472 117.416C333.922 116.966 339.838 121.385 340.063 122.958L340.213 183.022C343.957 183.322 342.984 185.344 343.208 185.494C333.997 180.251 325.009 176.956 314.974 173.81C317.82 159.356 312.877 143.479 318.868 129.998C319.617 129.249 319.692 128.2 319.842 128.051C320.591 127.377 321.864 127.002 323.736 125.13V125.205Z" fill="#F4F9F9"/>
<path d="M168.033 387.032H163.165V388.005H168.033V387.032Z" fill="#C3D973"/>
<path d="M157.323 377.296V379.243C152.83 379.992 145.34 378.269 141.371 379.243C140.173 379.542 141.071 380.89 140.847 381.265C140.023 382.538 140.098 382.089 138.899 382.239C136.203 379.018 133.058 381.265 130.511 381.19C128.564 381.19 123.621 378.569 124.295 382.239C120.775 381.789 118.453 379.393 114.559 380.291C114.259 379.243 115.533 377.895 115.533 377.371C122.348 376.472 135.379 371.529 141.521 371.754C143.618 371.754 145.265 374.375 147.437 375.124C150.358 376.097 154.327 376.172 157.398 377.371L157.323 377.296Z" fill="#F4F9F9"/>
<path d="M157.323 379.243V380.217C151.856 380.816 146.314 381.565 140.772 381.19C140.996 380.816 140.173 379.468 141.296 379.168C145.34 378.195 152.755 379.917 157.248 379.168L157.323 379.243Z" fill="#0A0C0C"/>
<path d="M159.27 379.243C159.27 379.243 158.222 380.141 157.323 380.216V377.295C158.297 377.67 158.896 378.269 159.27 379.243Z" fill="#F4F9F9"/>
<path d="M171.927 389.953C174.249 389.204 175.972 391.6 173.875 387.032C177.245 386.657 176.346 389.129 173.875 390.926L171.927 389.953Z" fill="#0A0C0C"/>
<path d="M168.033 391.151C168.695 391.151 169.231 390.614 169.231 389.953C169.231 389.291 168.695 388.754 168.033 388.754C167.371 388.754 166.835 389.291 166.835 389.953C166.835 390.614 167.371 391.151 168.033 391.151Z" fill="#F4F9F9"/>
<path d="M173.875 390.926C172.152 392.199 170.654 392.799 170.954 390.477C171.103 389.803 171.628 390.102 171.927 389.953L173.875 390.926Z" fill="#F4F9F9"/>
<path d="M170.955 387.032L169.98 388.005V386.058C170.355 386.208 170.73 387.032 170.955 387.032Z" fill="#F4F9F9"/>
<path d="M152.455 348.087L186.532 347.114L185.408 382.988C178.818 384.71 171.778 384.411 165.112 383.063C164.962 382.913 165.187 382.389 165.112 382.089C169.606 377.67 163.839 378.719 161.218 377.745C158.372 376.697 155.75 374.749 152.605 374.225C152.38 367.485 152.455 360.669 152.455 353.929V348.087Z" fill="#F4F9F9"/>
<path d="M187.505 364.639C187.505 364.04 187.43 363.291 187.505 362.691L188.479 363.216L187.505 364.639Z" fill="#C3D973"/>
<path d="M187.505 384.111C187.505 384.111 188.48 383.212 188.48 383.137L187.505 384.111Z" fill="#C3D973"/>
<path d="M146.613 346.14C146.613 344.867 146.613 343.519 146.613 342.245C158.222 343.144 171.628 340.972 183.012 342.32C184.734 342.545 187.206 342.844 186.457 345.166C182.263 344.417 178.293 345.99 174.324 346.215C169.156 346.514 155.75 345.016 152.38 347.113C148.261 349.735 151.332 351.981 151.407 353.929C151.706 360.37 151.182 366.96 151.407 373.401H148.486C148.336 366.81 148.111 359.995 147.587 353.33C147.512 352.056 146.613 351.158 146.538 351.008C146.464 349.435 146.538 347.713 146.538 346.14H146.613Z" fill="#F4F9F9"/>
<path d="M370.47 343.219L368.597 395.12C367.174 397.292 353.693 398.715 350.548 398.79C348.751 398.79 347.103 397.891 345.53 397.816C340.812 397.592 337.367 399.239 333.023 394.821L329.653 343.219C343.134 348.387 356.989 348.087 370.544 343.219H370.47Z" fill="#EA5A4C"/>
<path d="M368.522 342.246C368.073 342.62 359.46 340.373 357.363 340.298C348.676 339.774 340.138 341.497 331.525 340.823C338.265 336.479 349.499 336.703 357.363 337.378C358.412 337.452 371.518 339.624 368.522 342.246Z" fill="#EA5A4C"/>
<path d="M88.1966 305.248C86.1745 315.958 86.0996 321.125 88.1966 331.91C88.4213 333.033 90.6681 332.135 91.0425 332.509C91.6417 333.108 90.8178 335.954 91.1174 336.329C91.8664 337.153 106.021 334.606 108.193 338.276C110.515 342.171 106.77 352.056 107.669 356.775C112.387 355.726 144.292 358.123 145.64 356.775C146.089 356.325 144.666 351.757 146.613 350.933C146.613 351.083 147.512 352.056 147.662 353.255C148.186 359.845 148.411 366.661 148.561 373.326H151.481C151.257 366.885 151.781 360.295 151.481 353.854H152.455C152.455 360.594 152.305 367.41 152.605 374.15C155.75 374.749 158.372 376.621 161.218 377.67C163.914 378.644 169.606 377.67 165.112 382.014C164.738 380.591 165.262 379.168 165.112 379.093C164.887 378.943 160.319 379.018 159.27 379.093C158.896 378.119 158.297 377.52 157.323 377.146C154.253 375.947 150.358 375.873 147.362 374.899C145.19 374.15 143.543 371.604 141.446 371.529C135.304 371.304 122.273 376.247 115.458 377.146C115.458 376.771 113.96 374.674 114.484 374.225C114.934 373.925 123.322 373.326 125.344 372.952C132.608 371.529 140.247 367.859 146.539 372.278L145.565 358.647H107.594C105.797 364.863 107.594 373.027 106.62 378.644C106.396 379.842 106.096 379.617 105.647 380.067C105.572 367.185 104.973 353.854 106.62 341.122C93.8885 344.043 79.3592 344.193 66.7022 341.122V363.515C66.7022 363.515 65.2043 363.066 65.1294 362.167C64.8299 359.546 67.526 358.872 63.7814 358.647C63.4818 358.647 63.1073 358.647 62.8077 358.647V356.7C63.9311 356.775 64.6801 357.374 65.7286 357.673L64.755 337.902C65.0545 336.703 68.4996 336.329 69.6979 336.254L66.7771 339.175C72.2443 341.422 77.4868 341.347 83.3285 341.122C84.0026 334.382 75.6145 338.875 71.6452 336.254L82.3549 335.28C80.9319 332.959 78.5353 331.536 78.4604 328.465C79.3592 329.289 82.1302 328.465 82.28 328.54C82.5047 328.914 82.2051 330.113 82.7294 331.011C82.954 331.386 83.9277 331.461 84.0774 331.835C84.4519 333.333 84.0774 339.849 84.3021 340.073H88.1966C87.6723 334.382 85.8 328.091 85.2757 322.548C84.8264 317.83 84.6017 312.513 84.3021 307.944C84.3021 307.345 84.2272 306.446 84.3021 305.997C84.5268 304.874 86.9983 303.301 88.1966 303.076C88.0468 303.675 88.3464 304.424 88.1966 305.023V305.248ZM103.774 338.351C101.528 338.126 90.9676 336.479 90.1438 337.377C89.994 337.527 89.994 341.122 90.1438 341.272C90.8178 341.946 100.404 340.897 102.351 340.298C103.7 339.849 104.074 340.897 103.774 338.351Z" fill="#0A0C0C"/>
<path d="M71.6452 336.404C75.6145 339.025 84.0026 334.531 83.3285 341.272C77.5617 341.497 72.2443 341.571 66.7771 339.325L69.6979 336.404C70.372 336.404 70.9711 336.404 71.6452 336.404Z" fill="#F4F9F9"/>
<path d="M66.7771 363.665V341.272C79.4341 344.343 93.9634 344.193 106.695 341.272C105.048 354.004 105.647 367.26 105.722 380.217C100.18 385.459 90.2936 388.679 81.8307 388.005C77.0375 387.631 68.2001 384.411 67.7507 379.243C67.3014 374.075 67.9754 369.132 66.7771 363.665Z" fill="#2AB5B8"/>
<path d="M67.7507 379.243C68.1251 384.41 77.0374 387.631 81.8306 388.005C90.2936 388.679 100.179 385.459 105.722 380.216C105.722 381.34 106.92 382.463 106.246 384.111C103.849 389.428 88.0468 391.301 82.8042 391.001C76.663 390.701 63.0324 388.005 67.7507 379.318V379.243Z" fill="#C3D973"/>
<path d="M103.774 338.351C104.074 340.897 103.774 339.924 102.351 340.298C100.404 340.897 90.8178 341.946 90.1438 341.272C89.994 341.122 89.994 337.527 90.1438 337.377C90.9676 336.479 101.528 338.126 103.774 338.351Z" fill="#F4F9F9"/>
<path d="M87.223 281.957H88.4961C91.417 285.027 92.3157 285.102 92.091 289.745C92.091 290.719 91.417 293.49 91.1174 294.614C90.1438 298.283 88.9455 298.358 88.1966 300.455C85.8749 298.433 83.3285 301.204 81.3813 301.429C78.3107 301.803 74.8656 299.931 72.6188 300.455C71.1958 299.107 72.0196 295.437 71.6451 294.614C72.3941 294.688 73.2928 293.64 73.5924 293.64C75.1651 293.415 76.8877 293.79 78.4604 293.64C78.2358 291.393 73.8919 291.243 73.5924 290.27C72.3941 286.525 77.0375 288.472 78.4604 285.926C81.0068 286.001 80.4826 288.622 84.3021 288.847C84.9762 288.847 85.5753 288.847 86.2493 288.847C86.2493 286.525 86.9983 284.353 87.223 282.031V281.957Z" fill="#C3D973"/>
<path d="M66.777 297.534C61.16 298.133 68.2 300.23 68.5745 302.028C68.7243 302.702 67.9753 305.248 67.1515 305.398C64.3805 305.922 52.772 299.332 48.2784 300.455C40.864 289.97 52.1728 284.578 61.8341 291.243C64.9047 293.415 65.1294 295.138 66.777 297.534ZM63.8562 297.459C63.2571 295.287 60.7856 295.362 58.9881 295.512V296.486L63.8562 297.459Z" fill="#C3D973"/>
<path d="M82.3549 311.09C80.9319 315.434 79.9583 318.354 80.6323 322.998C80.7821 323.822 81.0817 325.919 82.3549 325.694V320.826L85.2757 322.773C85.8 328.315 87.6723 334.606 88.1966 340.298H84.3021C84.3021 340.298 84.377 333.483 84.0774 332.06C84.0025 331.686 83.0289 331.611 82.7293 331.236C82.1302 330.337 82.5047 329.139 82.28 328.765C82.2051 328.615 79.3592 329.514 78.4604 328.69C78.4604 328.39 78.4604 328.016 78.4604 327.716C78.4604 324.046 78.0111 326.668 77.7115 325.32C77.5617 324.646 78.3855 322.848 77.4868 320.901C78.4604 320.601 78.3106 319.777 78.4604 318.954C78.5353 318.354 78.3106 317.531 78.4604 317.006C78.5353 316.632 79.1345 315.808 79.434 315.059C81.0817 310.116 81.1566 312.438 82.3549 311.165V311.09Z" fill="#C3D973"/>
<path d="M53.1465 314.011C52.5473 317.905 57.4903 314.909 59.4375 315.059C61.9839 315.209 64.755 317.606 67.7507 316.932C67.0018 317.98 66.5524 318.13 65.8035 318.879L55.4682 322.773L48.2784 321.8C47.7542 319.178 50.1508 315.584 52.1729 314.011H53.1465Z" fill="#C3D973"/>
<path d="M81.3813 301.354C80.9319 303.825 82.5046 304.874 84.3021 306.222C84.2272 306.671 84.3021 307.57 84.3021 308.169C83.1787 308.693 82.8791 310.565 82.3549 311.09C81.1566 312.363 81.0817 310.041 79.434 314.984C78.1608 311.839 78.0111 307.645 73.5923 308.169C73.5923 307.869 73.5923 307.495 73.5923 307.195C73.5923 306.072 76.3634 302.851 73.143 303.301L72.6187 304.274C72.3941 303.525 71.2706 302.926 71.6451 301.354C71.6451 301.354 72.5438 300.38 72.6187 300.38C74.8655 299.856 78.3106 301.728 81.3813 301.354Z" fill="#F4F9F9"/>
<path d="M66.7771 297.534C68.2001 299.631 68.2001 301.953 71.6452 301.429C71.2707 303.002 72.3941 303.601 72.6188 304.35C72.8435 305.174 72.3192 306.596 73.5924 307.271C73.5924 307.57 73.5924 307.945 73.5924 308.244C73.5924 309.517 75.0903 312.513 75.5396 314.086C75.6145 314.385 75.4647 314.76 75.5396 315.059C76.0639 316.932 74.4911 317.381 78.4605 317.007C78.3107 317.531 78.5354 318.355 78.4605 318.954H75.5396C75.3898 320.077 77.3371 320.527 77.4868 320.901C78.3856 322.848 77.4868 324.646 77.7115 325.32C78.086 326.668 78.4605 324.047 78.4605 327.716C75.24 328.241 75.1652 322.324 74.566 319.927C74.566 319.853 75.3149 319.029 75.0154 317.905C74.566 316.333 71.6452 307.121 71.1209 306.222C70.8962 305.773 70.2222 305.173 69.623 305.248C68.4248 306.896 72.469 311.09 69.1737 311.09C68.275 311.09 69.0239 308.768 67.6758 307.72C66.9269 307.121 64.9048 306.746 63.7814 306.222C58.9882 304.125 50.5252 303.751 48.2036 300.38C52.6972 299.257 64.2307 305.848 67.0767 305.323C67.9005 305.173 68.5745 302.702 68.4996 301.953C68.2001 300.156 61.0852 298.059 66.7022 297.459L66.7771 297.534Z" fill="#0A0C0C"/>
<path d="M74.566 319.852C71.3456 320.826 72.469 316.033 71.4954 315.134C70.8962 314.535 69.4733 315.134 68.7243 314.984C68.0503 314.834 67.3762 314.16 66.7771 314.011C67.2265 312.363 64.9048 311.314 64.8299 311.09C64.4554 310.041 65.1294 307.57 63.8563 306.222C64.9797 306.746 67.0018 307.046 67.7507 307.72C69.0239 308.843 68.3499 311.09 69.2486 311.09C72.6188 311.09 68.4996 306.896 69.6979 305.248C70.2971 305.173 70.8962 305.772 71.1958 306.222C71.7201 307.12 74.6409 316.257 75.0903 317.905C75.3898 318.954 74.566 319.777 74.6409 319.927L74.566 319.852Z" fill="#F4F9F9"/>
<path d="M66.777 314.011C67.3762 314.161 68.0502 314.835 68.7243 314.985C68.7243 315.883 68.2 316.333 67.7507 316.932C64.7549 317.531 61.9839 315.209 59.4375 315.059C57.4903 314.985 52.5473 317.905 53.1465 314.011C57.7149 313.112 62.2085 313.112 66.777 314.011Z" fill="#F4F9F9"/>
<path d="M65.8035 318.879C63.6316 320.976 61.6095 323.148 58.4639 323.672C56.2171 324.047 48.8776 324.571 48.2784 321.8L55.4682 322.773L65.8035 318.879Z" fill="#0A0C0C"/>
<path d="M64.8298 311.09C64.8298 311.09 67.2264 312.363 66.7771 314.01C62.2086 313.112 57.715 313.112 53.1465 314.01H52.1729C55.9924 311.09 59.812 310.94 64.8298 311.09Z" fill="#0A0C0C"/>
<path d="M106.695 288.772C111.563 288.397 116.506 288.772 121.299 289.745C122.048 290.12 123.621 291.168 124.22 291.693C124.37 293.715 124.445 295.287 123.322 297.085C121 300.83 115.907 297.684 115.458 302.402C112.537 302.627 105.871 302.178 103.325 301.204C103.025 301.129 99.5804 297.834 98.9063 297.534C104.673 293.565 96.4349 296.411 97.9327 291.693C98.1574 291.543 98.3072 290.569 98.9063 290.345C100.03 289.97 105.647 288.847 106.695 288.772ZM112.537 296.561C112.687 292.591 106.695 292.666 104.748 295.138C104.898 298.658 110.665 294.688 112.537 296.561Z" fill="#C3D973"/>
<path d="M73.5924 253.721C75.0902 253.871 81.5311 256.418 82.3549 257.167C83.703 258.29 82.3549 261.211 85.2757 260.537C85.8 263.083 86.9234 265.405 86.2493 268.326C83.6281 268.7 83.8528 266.079 81.9055 264.431C81.3064 263.907 79.3592 262.484 78.5353 263.008C80.7072 264.656 85.5753 269.449 86.3242 271.771C87.0732 274.467 83.3285 272.445 82.4298 272.22C80.0332 271.696 77.9362 271.172 75.6145 270.273C74.3413 269.749 68.949 267.202 68.2749 266.378C67.4511 265.33 68.0503 264.057 67.8256 263.458C65.2043 256.792 64.5303 252.973 73.6673 253.721H73.5924ZM77.4868 262.484L73.5924 258.59C73.817 261.435 74.4162 263.233 77.4868 262.484Z" fill="#C3D973"/>
<path d="M112.537 257.616C115.308 257.092 120.101 257.242 120.326 260.537C117.705 261.96 117.929 265.48 116.282 267.727C115.308 269.15 113.585 269.15 113.511 269.299C111.339 271.846 116.731 271.022 117.405 271.247C119.502 271.846 119.727 273.419 120.326 275.141C115.832 278.736 111.339 280.009 105.722 280.009C104.673 279.485 103.849 278.661 102.801 278.062C103.1 277.388 102.501 275.441 102.801 275.141C103.025 274.841 107.669 276.19 110.065 276.115C111.339 276.115 114.11 276.864 113.511 274.692C113.361 274.167 104.224 275.066 102.801 274.167C103.1 271.546 103.4 270.647 102.801 268.326C102.651 267.802 102.876 266.978 102.801 266.379C105.272 264.581 105.497 263.607 108.642 261.51L110.59 265.854C111.938 268.026 116.431 259.563 116.431 259.039L112.537 257.541V257.616Z" fill="#C3D973"/>
<path d="M102.801 314.01C105.422 317.605 107.145 314.759 109.616 316.931C106.92 322.174 101.902 325.02 95.9855 322.773C94.937 320.376 97.708 318.055 97.9327 316.931C98.9812 311.764 96.2102 305.023 102.801 314.01Z" fill="#C3D973"/>
<path d="M93.0646 262.484C93.514 262.484 100.854 264.132 101.228 264.357C102.127 264.881 101.902 265.555 101.827 266.379C100.854 266.978 99.8799 267.652 98.9063 268.326C90.5932 271.921 88.1217 275.066 87.223 264.432C88.7208 264.731 89.9191 263.832 91.1174 263.458C91.7166 263.308 92.6153 262.484 93.0646 262.484Z" fill="#C3D973"/>
<path d="M85.2757 257.616C84.6766 257.541 84.0026 257.616 83.3285 257.616C81.8306 253.572 90.1438 250.276 92.0161 251.849C92.3906 252.149 93.2144 257.991 93.2144 259.114C93.1395 260.836 90.0689 260.612 91.1923 263.458C89.994 263.832 88.7957 264.731 87.2979 264.431C87.1481 262.933 87.5974 258.065 87.2979 257.616C87.223 257.466 85.9498 257.691 85.3506 257.616H85.2757Z" fill="#F4F9F9"/>
<path d="M102.801 268.326C103.325 270.647 103.1 271.546 102.801 274.167C104.224 274.991 113.361 274.167 113.511 274.692C114.185 276.938 111.414 276.115 110.065 276.115C107.594 276.115 103.025 274.841 102.801 275.141C102.501 275.441 103.025 277.388 102.801 278.062C102.651 278.511 101.303 279.035 100.928 279.784C98.0825 284.727 95.3864 290.943 91.1174 294.613C91.417 293.49 92.0162 290.719 92.091 289.745C93.8136 289.071 93.514 286.675 94.0383 285.851C94.263 285.551 95.3115 284.877 95.9855 283.903C97.1089 282.181 97.3336 280.908 97.9327 280.009C98.457 279.185 100.629 278.586 101.378 276.189C102.202 273.418 100.928 270.198 102.801 268.326Z" fill="#0A0C0C"/>
<path d="M112.537 257.616L116.431 259.114C116.431 259.638 111.938 268.101 110.59 265.929L108.642 261.586C108.642 261.586 109.242 260.088 109.616 259.638C110.44 259.189 111.863 257.841 112.537 257.691V257.616Z" fill="#F4F9F9"/>
<path d="M115.458 302.327C115.832 297.609 120.925 300.755 123.322 297.01C124.445 295.213 124.445 293.64 124.22 291.618C130.436 297.609 121 301.953 115.458 302.327Z" fill="#0A0C0C"/>
<path d="M88.1966 300.38C88.1966 300.38 88.571 301.578 88.1966 303.301C86.9983 303.525 84.5268 305.098 84.3021 306.222C82.5047 304.948 80.9319 303.825 81.3813 301.354C83.3285 301.129 85.8749 298.358 88.1966 300.38Z" fill="#F4F9F9"/>
<path d="M105.722 280.009C111.339 280.009 115.757 278.736 120.326 275.141C120.401 275.366 121.899 275.74 120.925 277.088C119.652 278.736 111.563 281.807 109.242 281.657C107.519 281.582 106.92 280.683 105.722 280.009Z" fill="#0A0C0C"/>
<path d="M73.5924 253.721C64.4554 252.973 65.1294 256.792 67.7507 263.458C67.1515 263.607 66.1779 263.233 65.8035 263.458C61.4596 255.669 64.8299 250.576 73.5924 253.721Z" fill="#0A0C0C"/>
<path d="M109.616 259.563C109.242 260.013 108.942 261.286 108.642 261.511C105.497 263.608 105.272 264.581 102.801 266.379C102.576 266.529 102.052 266.229 101.827 266.379C101.902 265.555 102.127 264.881 101.228 264.357C100.854 264.132 93.4391 262.484 93.0646 262.484C95.8357 260.462 101.602 263.758 104.149 263.233C104.448 263.233 107.968 260.462 109.616 259.563Z" fill="#0A0C0C"/>
<path d="M97.9327 291.693C96.4349 296.411 104.673 293.565 98.9063 297.534C98.3072 297.235 96.36 297.834 95.9855 297.534C95.7608 297.385 97.034 293.265 96.0604 291.768C96.5847 291.393 97.6332 291.767 97.9327 291.693Z" fill="#0A0C0C"/>
<path d="M121.299 289.745C116.506 288.772 111.563 288.397 106.695 288.772C111.488 286.6 116.656 287.424 121.299 289.745Z" fill="#0A0C0C"/>
<path d="M117.405 271.247C116.731 271.022 111.339 271.846 113.511 269.3C113.66 269.15 115.308 269.15 116.282 267.727C117.854 265.48 117.705 261.96 120.326 260.537C120.7 266.603 115.533 267.053 117.405 271.247Z" fill="#0A0C0C"/>
<path d="M102.801 314.011C96.2102 305.024 98.9812 311.764 97.9327 316.932C96.1353 316.707 96.3599 314.46 95.9855 314.011C95.9855 307.57 102.801 307.57 102.801 314.011Z" fill="#0A0C0C"/>
<path d="M108.642 321.8C106.321 324.047 97.9327 326.443 95.0118 328.166C94.1131 328.765 94.188 330.338 93.9633 330.562C90.4433 333.783 94.1131 322.773 95.9106 322.773C101.827 325.02 106.77 322.174 109.541 316.932C109.616 317.007 110.515 316.782 110.515 317.456C109.916 318.205 108.792 321.575 108.568 321.8H108.642Z" fill="#0A0C0C"/>
<path d="M85.2758 322.773L82.3549 320.826V325.694C81.0817 325.994 80.7822 323.897 80.6324 322.998C79.8834 318.28 80.9319 315.359 82.3549 311.09C82.8792 310.566 83.1787 308.693 84.3021 308.169C84.6017 312.737 84.8264 318.055 85.2758 322.773Z" fill="#F4F9F9"/>
<path d="M85.2757 257.616C85.8749 257.691 87.1481 257.466 87.223 257.616C87.5225 258.066 87.0732 262.934 87.223 264.432C88.1217 275.066 90.5932 271.921 98.9063 268.326C98.8314 268.326 99.3557 269.599 98.3072 270.348C95.611 272.22 92.9897 272.295 90.2187 273.194C86.9983 274.243 87.8221 274.392 87.2979 278.062C87.223 278.661 87.3728 279.41 87.2979 280.009C87.223 280.608 87.3728 281.357 87.2979 281.957C86.9983 284.203 86.3242 286.45 86.3242 288.772C85.7251 288.847 85.0511 288.772 84.377 288.772C85.0511 283.679 87.5225 275.74 82.4298 272.22C83.3285 272.445 87.0732 274.467 86.3242 271.771C85.6502 269.374 80.7072 264.581 78.5353 263.009C79.3592 262.559 81.3064 263.982 81.9055 264.432C83.8528 266.079 83.703 268.7 86.2494 268.326C86.9234 265.405 85.8 263.083 85.2757 260.537C85.126 259.713 85.4255 258.515 85.2757 257.616Z" fill="#0A0C0C"/>
<path d="M78.4604 285.851C77.0375 288.472 72.3941 286.45 73.5924 290.195C73.892 291.168 78.2358 291.393 78.4604 293.565C76.8877 293.715 75.1651 293.415 73.5924 293.565C73.5924 292.367 72.9183 290.644 71.6452 290.644C71.1958 286.45 74.9405 285.626 78.4604 285.776V285.851Z" fill="#0A0C0C"/>
<path d="M87.223 280.009L92.091 279.036C93.3642 281.582 90.5932 284.503 94.0383 285.851C93.514 286.675 93.8136 289.071 92.091 289.745C92.3157 285.102 91.417 285.027 88.4962 281.956H87.223C87.2979 281.282 87.1481 280.608 87.223 280.009Z" fill="#F4F9F9"/>
<path d="M63.8562 297.459L58.9882 296.485V295.512C60.7856 295.362 63.2571 295.212 63.8562 297.459Z" fill="#0A0C0C"/>
<path d="M73.5923 308.169C78.0111 307.645 78.1608 311.839 79.434 314.985C79.1345 315.733 78.5353 316.557 78.4604 316.932C74.4911 317.306 76.0638 316.857 75.5396 314.985C78.3106 315.359 78.3106 313.636 75.5396 314.011C75.0902 312.438 73.6672 309.442 73.5923 308.169Z" fill="#F4F9F9"/>
<path d="M78.4604 318.879C78.3106 319.703 78.4604 320.527 77.4868 320.826C77.337 320.452 75.3898 320.002 75.5396 318.879H78.4604Z" fill="#F4F9F9"/>
<path d="M72.6188 304.275L73.143 303.301C76.3634 302.852 73.5924 306.072 73.5924 307.195C72.3192 306.521 72.9183 305.098 72.6188 304.275Z" fill="#F4F9F9"/>
<path d="M75.5396 314.011C78.3106 313.636 78.3106 315.359 75.5396 314.984C75.4647 314.685 75.6145 314.31 75.5396 314.011Z" fill="#F4F9F9"/>
<path d="M93.0647 323.747C91.6417 323.897 91.4919 321.425 91.1174 320.377C90.4434 318.429 89.7694 316.033 89.6945 314.011C92.1659 316.632 93.514 320.077 93.0647 323.747Z" fill="#0A0C0C"/>
<path d="M112.537 296.561C110.665 294.614 104.898 298.658 104.748 295.138C106.695 292.741 112.687 292.591 112.537 296.561Z" fill="#F4F9F9"/>
<path d="M77.4868 262.484C74.4162 263.233 73.817 261.436 73.5923 258.59L77.4868 262.484Z" fill="#0A0C0C"/>
<path d="M102.801 268.326C101.003 270.123 102.202 273.419 101.378 276.19C100.629 278.586 98.457 279.185 97.9327 280.009L97.4085 279.111C93.8136 278.511 92.5404 282.556 95.9855 283.904C95.3115 284.877 94.2629 285.551 94.0383 285.851C90.5932 284.503 93.2893 281.582 92.091 279.036L87.223 280.009C87.2979 279.41 87.1481 278.661 87.223 278.062L90.1438 273.194C92.9898 272.22 95.5361 272.22 98.2323 270.348C99.3557 269.599 98.7566 268.401 98.8314 268.326C99.8051 267.727 100.779 266.978 101.752 266.379C101.977 266.229 102.501 266.528 102.726 266.379C102.801 266.978 102.576 267.802 102.726 268.326H102.801Z" fill="#F4F9F9"/>
<path d="M97.9327 280.009C97.3335 280.908 97.1088 282.181 95.9854 283.904C92.5403 282.556 93.7386 278.511 97.4084 279.11L97.9327 280.009Z" fill="#F4F9F9"/>
<path d="M90.1438 273.194L87.223 278.062C87.7472 274.392 86.9234 274.242 90.1438 273.194Z" fill="#F4F9F9"/>
<path d="M64.8298 284.877C67.6009 285.327 68.949 291.019 69.7728 291.693C70.3719 292.217 71.4953 290.719 71.6451 290.719C72.9183 290.719 73.6672 292.442 73.5924 293.64C73.2928 293.64 72.3941 294.688 71.6451 294.614C70.4468 292.367 66.7771 288.922 64.8298 284.877Z" fill="#F4F9F9"/>
<path d="M129.613 31.8125C130.586 32.7112 128.115 34.284 128.19 33.2355L129.613 31.8125Z" fill="#F4F9F9"/>
<path d="M199.189 345.167C199.189 346.964 199.638 356.7 198.664 356.85H187.505C186.307 355.652 188.479 346.739 188.479 345.167H199.189Z" fill="#F4F9F9"/>
<path d="M447.385 376.322C447.385 376.322 449.557 376.696 450.606 377.445C463.188 385.983 481.312 399.389 492.846 409.125C494.418 410.398 495.841 411.372 495.991 413.319C493.145 413.094 490.149 413.319 487.229 413.319C484.982 413.319 482.66 413.319 480.413 413.319C479.44 413.319 478.466 413.319 477.492 413.319C475.47 413.469 473.598 413.619 471.651 414.293C464.985 413.843 457.945 414.442 451.205 414.293C448.359 414.293 445.438 413.319 443.416 413.319C442.143 413.319 440.795 413.319 439.522 413.319C434.504 413.319 430.01 414.293 424.917 414.293C423.644 414.293 422.296 414.293 421.023 414.293C420.723 414.293 420.349 414.293 420.049 414.293C416.454 414.293 412.934 414.293 409.339 414.293C408.066 414.293 406.718 414.293 405.445 414.293C400.577 414.293 395.709 414.293 390.841 414.293C387.92 414.293 384.774 414.293 382.078 414.293C374.514 414.293 366.351 413.319 359.236 413.319H325.159C324.336 413.319 319.542 414.068 317.895 414.293C315.798 412.645 312.727 413.394 310.106 413.319C309.132 413.319 308.159 413.319 307.185 413.319C304.264 413.319 301.343 413.319 298.422 413.319C292.805 413.394 287.488 414.293 281.871 414.293C281.272 414.293 279.624 413.319 277.977 413.319C265.32 413.319 252.663 413.319 240.006 413.319C238.358 413.319 236.785 413.319 235.138 413.319C228.322 413.319 221.507 413.319 214.692 413.319C212.07 413.319 209.524 413.319 206.903 413.319C205.929 413.319 204.956 413.319 203.982 413.319C199.788 413.319 195.519 413.319 191.325 413.319C181.289 413.319 171.179 413.319 161.143 413.319C158.896 413.319 156.574 413.319 154.328 413.319C152.68 413.319 151.107 413.319 149.46 413.319C148.486 413.319 147.512 413.319 146.539 413.319C139.124 413.319 131.635 413.319 124.146 413.319H0.646484C0.646484 413.319 0.646484 412.645 0.646484 412.345H493.145L447.385 376.322Z" fill="#0A0C0C"/>
<path d="M498.912 414.293V435.713H484.308C484.158 442.153 484.457 448.744 484.308 455.185H10.3824C10.3075 452.264 10.3824 449.343 10.3824 446.422L11.3561 444.999L10.3824 444.475C10.3824 442.303 10.682 439.682 10.3824 437.66L11.3561 437.21L10.3824 436.761C9.40883 434.739 3.64204 436.162 1.61992 435.787C1.17056 434.589 2.59353 433.99 2.59353 433.84H6.48799C165.711 433.84 325.159 435.563 484.382 433.84C488.576 433.84 492.845 433.84 497.039 433.84V427.025C493.819 427.025 490.524 427.025 487.303 427.025C475.62 426.8 463.937 427.025 452.253 427.025C451.579 427.025 450.98 427.025 450.306 427.025C445.812 427.025 441.244 427.025 436.675 427.025C435.702 427.025 434.728 427.025 433.755 427.025C432.781 427.025 431.807 427.025 430.834 427.025C427.613 427.025 424.318 427.025 421.098 427.025C406.194 427.025 391.215 427.025 376.311 427.025C375.637 427.025 375.038 427.025 374.364 427.025C354.293 427.025 334.146 427.025 314 427.025C313.326 427.025 312.727 427.025 312.053 427.025C279.324 427.025 246.521 427.025 213.718 427.025C212.744 427.025 211.771 427.025 210.797 427.025C203.008 427.025 195.219 427.025 187.43 427.025C187.131 427.025 186.756 427.025 186.457 427.025C182.562 427.025 178.668 427.025 174.773 427.025C172.826 427.025 170.879 427.025 168.932 427.025C146.913 427.025 124.819 427.025 102.726 427.025C102.426 427.025 102.052 427.025 101.752 427.025C100.779 427.025 99.8051 427.025 98.8315 427.025C97.8579 427.025 96.8843 427.025 95.9106 427.025C88.4962 427.025 81.0069 427.025 73.5175 427.025C71.8699 427.025 70.2971 427.025 68.6495 427.025C47.5295 427.025 26.4096 426.725 5.36459 427.999C4.39098 427.999 3.41736 427.999 2.44375 427.999H1.47013C0.796094 427.25 0.646308 427.25 0.496521 426.051H472.1C473.523 426.576 475.62 425.078 476.444 425.078C483.109 424.928 488.427 426.426 495.916 425.078C496.29 425.003 496.74 425.153 496.89 424.628L495.916 424.179C495.691 420.734 496.29 416.839 495.916 413.469C496.965 413.469 497.938 413.919 498.837 414.443L498.912 414.293Z" fill="#0A0C0C"/>
<path d="M484.307 455.185C484.307 456.608 484.832 461.85 483.783 462H10.9067C9.85815 461.85 10.3824 456.608 10.3824 455.185H484.382H484.307Z" fill="#C3D973"/>
<path d="M10.3824 446.422C10.3824 445.748 10.3824 445.149 10.3824 444.475L11.357 444.999L10.3824 446.422Z" fill="#C3D973"/>
<path d="M10.3824 437.66C10.3824 437.66 10.4574 436.911 10.3824 436.686L11.357 437.135L10.3824 437.585V437.66Z" fill="#C3D973"/>
<path d="M63.8564 358.797C67.6011 359.021 64.9798 359.621 65.2045 362.317C65.2794 363.29 66.7023 363.59 66.7772 363.665C67.9755 369.132 67.3764 374 67.7508 379.243C63.0326 388.005 76.6631 390.626 82.8044 390.926C88.0469 391.226 103.849 389.353 106.246 384.036C106.92 382.463 105.722 381.265 105.722 380.141C106.171 379.692 106.471 379.992 106.695 378.718C107.744 373.101 105.797 364.863 107.669 358.722H145.64L146.614 372.352C140.323 367.934 132.683 371.604 125.419 373.027C123.322 373.401 114.934 374 114.559 374.3C114.035 374.749 115.533 376.846 115.533 377.221C115.533 377.745 114.26 379.093 114.559 380.141C118.454 379.243 120.775 381.639 124.295 382.089C127.366 382.463 135.904 382.538 138.9 382.089C140.098 381.939 140.023 382.388 140.847 381.115C146.389 381.489 151.931 380.741 157.398 380.141C158.297 380.067 159.121 379.168 159.345 379.168C160.394 379.093 164.962 379.018 165.187 379.168C165.337 379.243 164.813 380.666 165.187 382.089C165.262 382.388 165.037 382.912 165.187 383.062C166.385 384.71 168.033 385.309 170.055 385.983V387.93L171.029 386.957C174.549 387.256 181.739 383.736 186.157 385.009C186.981 385.159 187.206 384.335 187.58 384.036L188.554 383.062C189.752 377.67 187.505 370.181 187.58 364.564L188.554 363.141L187.58 362.616C187.805 360.669 187.281 358.947 189.977 358.722H247.869C248.094 365.612 241.429 361.343 241.054 361.643C240.605 361.942 239.706 367.709 240.006 368.832C240.305 369.956 241.878 369.282 242.028 369.432C242.627 370.106 242.851 371.454 243.001 372.352C240.68 372.352 240.305 373.251 240.08 375.273C239.107 375.798 237.684 375.947 237.16 376.696C238.882 380.366 256.033 379.467 259.553 378.194C259.927 378.044 260.826 378.494 261.35 377.969C261.874 377.445 261.35 376.621 261.5 376.247C265.319 374.225 264.72 374.899 269.289 374.3C274.456 373.626 279.624 373.027 284.867 372.352L280.972 369.432C283.219 368.833 283.144 368.458 284.867 366.511C287.638 365.762 290.259 364.489 292.955 363.365C294.004 362.916 294.528 361.718 294.603 361.643C297.524 360.594 302.167 359.696 305.313 358.722C307.185 358.198 323.886 358.422 326.732 358.722C327.331 358.722 328.005 358.647 328.679 358.722C328.754 359.696 328.679 360.669 328.679 361.643L315.049 362.092L328.679 362.541C329.054 372.727 329.578 382.987 329.653 393.173C337.741 404.931 357.663 400.437 369.496 397.592C378.483 395.42 387.845 395.644 371.443 390.776C371.893 388.754 370.994 388.08 372.791 385.833C374.514 383.736 380.955 381.34 382.078 380.066C382.602 379.467 382.303 377.52 380.655 378.194L371.368 384.935C370.245 381.115 372.342 379.842 373.316 377.67C373.69 376.846 371.593 377.595 371.368 376.547C370.245 372.278 372.192 363.59 371.368 358.647C373.615 358.722 375.937 358.497 378.184 358.647C378.334 362.691 381.928 365.537 380.131 369.357L386.497 363.59L386.946 359.696C390.017 359.696 393.687 359.321 397.356 359.321C404.471 359.321 415.705 357.449 422.446 358.722C424.018 359.021 431.058 365.013 433.081 366.511C433.904 367.11 435.777 369.731 436.526 367.41C439.896 367.934 438.173 368.308 438.473 372.278C439.521 372.053 440.57 368.533 442.367 370.33C444.315 372.278 439.746 373.701 440.42 374.225C442.517 375.723 445.213 373.925 446.636 374.225C447.76 374.375 447.086 376.097 447.235 376.247L492.995 412.271H0.646406C0.646406 411.372 0.496619 410.174 0.646406 409.35C3.19278 406.878 7.31191 403.808 8.43531 400.587C8.73489 400.213 9.10935 399.988 9.40893 399.614L22.5902 388.005C23.8633 387.181 24.2378 384.785 24.9867 384.036C25.2863 383.736 25.6608 383.362 25.9604 383.062C28.0574 383.287 28.1323 383.212 27.9076 381.115C28.2072 380.815 28.5816 380.441 28.8812 380.141C32.7008 379.467 33.9739 375.423 35.9961 373.626C36.8948 372.802 38.3927 372.952 39.2914 372.128C42.5867 369.057 45.6573 364.713 49.3271 361.718C53.2215 362.242 60.2615 363.29 63.7066 361.942C65.9534 361.044 63.9313 360.519 63.9313 358.797H63.8564ZM115.458 361.718V362.691H141.745V361.718H115.458ZM237.609 361.718H190.426L203.532 363.74H239.107C239.107 363.066 237.983 361.867 237.684 361.718H237.609ZM394.81 365.612L388.07 372.053L386.497 375.348C389.568 373.027 393.462 369.357 394.81 365.612ZM209.898 374.375C209.898 374.375 207.577 372.952 206.229 374.599C205.704 375.273 204.731 379.917 205.03 380.216H213.793C216.489 380.741 220.533 380.591 222.855 381.265C223.829 381.564 223.155 383.961 226 383.212C226.375 383.137 226.3 381.415 227.124 381.265C228.322 380.965 230.569 381.639 231.243 381.115C231.393 380.965 232.441 377.52 232.366 377.37C232.292 377.221 230.12 377.071 229.146 376.397C228.472 375.947 228.622 374.375 227.948 374.449C219.635 374.449 219.784 372.053 210.048 374.449L209.898 374.375ZM208.85 382.164C206.528 380.366 206.004 386.882 205.929 388.005H214.692C215.066 384.71 211.321 385.159 209.524 384.186C208.7 383.736 208.925 382.313 208.85 382.238V382.164ZM315.947 385.084C315.198 384.036 304.339 382.238 302.317 384.111C301.119 385.758 305.987 388.979 307.784 388.979C309.656 388.979 310.405 387.706 311.753 387.331C312.053 387.331 318.119 388.005 315.947 385.009V385.084ZM234.988 384.335C231.692 382.388 232.591 385.908 231.767 386.957C230.943 388.005 229.071 387.481 229.371 388.979L237.16 388.005C236.635 387.331 235.212 384.41 235.063 384.335H234.988ZM168.033 387.032H163.165V388.005H168.033V387.032ZM173.875 390.926C176.346 389.129 177.245 386.657 173.875 387.032C175.972 391.6 174.249 389.203 171.927 389.952C171.628 390.027 171.179 389.803 170.954 390.477C170.654 392.873 172.077 392.199 173.875 390.926ZM303.29 390.027C302.991 389.503 294.528 387.331 293.629 388.005L295.576 391.9C291.607 392.723 288.911 390.402 288.761 395.794C294.153 396.768 298.273 393.248 303.365 392.873C303.216 392.049 303.59 390.477 303.365 390.027H303.29ZM169.231 389.952C169.231 389.278 168.707 388.754 168.033 388.754C167.359 388.754 166.835 389.278 166.835 389.952C166.835 390.626 167.359 391.151 168.033 391.151C168.707 391.151 169.231 390.626 169.231 389.952Z" fill="#F4F9F9"/>
<path d="M261.425 373.401C262.998 374.674 261.949 374.749 261.425 376.322C258.654 377.82 259.627 378.194 259.478 378.269C258.654 378.793 243.151 376.097 240.605 377.296C239.631 377.445 239.93 376.022 240.005 375.348C241.428 374.525 242.252 373.776 242.926 373.401C247.794 370.63 251.464 372.577 256.781 373.701C258.204 374 260.451 375.348 261.425 373.401Z" fill="#F4F9F9"/>
<path d="M23.0394 413.319C21.4666 417.064 26.7092 419.086 29.4053 419.236C32.4011 419.46 33.8989 417.588 36.2955 417.214C44.5338 416.09 52.0231 420.209 61.5346 419.086C73.9669 417.513 77.7864 418.786 89.7694 419.161C103.4 419.61 128.789 420.883 141.446 419.161C143.243 418.936 142.719 416.39 145.19 417.064L146.763 413.244C147.737 413.244 148.71 413.244 149.684 413.244C148.111 416.615 153.728 419.685 155.9 419.086C156.649 418.861 156.125 417.289 157.922 417.064C161.742 416.54 180.39 416.615 184.36 417.064C187.505 417.438 189.452 419.386 192.074 419.161C194.32 419.011 195.519 417.214 197.017 417.064C198.814 416.914 200.387 418.786 202.709 419.086C215.74 420.958 259.403 419.985 271.985 417.139C275.58 416.315 277.677 419.011 278.201 413.169C279.849 413.169 281.496 414.143 282.095 414.143C281.946 417.513 281.496 416.839 284.492 417.064C301.343 418.412 315.947 416.54 333.173 419.086C338.565 419.835 342.984 416.839 344.856 417.064C345.455 417.064 344.856 418.861 346.803 419.161C351.447 419.76 367.624 419.76 372.192 419.161C374.739 418.786 376.012 417.064 378.933 417.064C381.853 417.064 383.127 418.861 385.673 419.161C390.766 419.835 402.674 419.535 408.141 419.161C410.388 419.011 412.41 417.214 413.758 417.363C415.106 417.513 416.454 419.386 418.701 419.161C420.124 419.011 421.547 417.438 424.543 417.139C431.133 416.465 437.349 419.76 444.165 419.236C452.403 418.562 449.407 417.513 458.769 419.161C465.06 420.209 465.884 417.738 467.681 417.289C470.602 416.615 475.77 417.513 479.215 417.289C481.986 417.064 480.263 414.892 480.638 413.394C482.885 413.394 485.206 413.394 487.453 413.394C488.801 418.487 483.858 417.663 480.787 419.835C479.964 420.434 476.668 423.655 476.743 425.077C475.994 425.077 473.897 426.575 472.399 426.126H0.646274C0.271807 422.98 0.496487 416.914 0.646274 413.469H23.0394V413.319Z" fill="#F4F9F9"/>
<path d="M5.51434 427.923L6.48795 433.765H2.5935C2.81818 432.267 2.44371 430.47 2.5935 428.897V427.923C3.56711 427.923 4.54073 427.923 5.51434 427.923Z" fill="#F4F9F9"/>
<path d="M24.9866 384.111C24.2376 384.86 23.8632 387.256 22.59 388.08L9.40875 399.689C14.2019 394.446 19.1449 387.781 24.9866 384.111Z" fill="#0A0C0C"/>
<path d="M49.252 361.718C45.5823 364.713 42.5116 369.132 39.2163 372.128C38.3176 372.952 36.8197 372.802 35.921 373.626C33.9738 375.423 32.6257 379.467 28.8062 380.141C33.824 374.974 39.3661 370.181 44.384 365.088C45.5823 363.889 46.3312 361.193 47.9788 360.819C48.8027 360.669 49.1771 361.643 49.252 361.718Z" fill="#0A0C0C"/>
<path d="M51.1993 357.823V358.797C51.1993 358.797 48.2784 361.268 49.252 358.348C49.6265 357.299 50.6001 358.123 51.1993 357.823Z" fill="#F4F9F9"/>
<path d="M8.43539 400.662C7.31199 403.883 3.19286 406.953 0.646484 409.425C1.17074 406.803 6.18859 403.134 8.43539 400.662Z" fill="#0A0C0C"/>
<path d="M27.9074 381.19C28.1321 383.287 28.0572 383.362 25.9602 383.137C26.6342 382.463 27.3083 381.864 27.9074 381.19Z" fill="#0A0C0C"/>
<path d="M2.59448 428.897C2.59448 428.897 1.91975 428.298 1.61987 427.923H2.59448V428.897Z" fill="#C3D973"/>
<path d="M68.7243 426.95C69.3984 428.448 72.9184 428.448 73.5924 426.95C81.0068 426.95 88.4962 426.95 95.9855 426.95C96.1353 428.448 98.7566 428.448 98.9063 426.95C99.88 426.95 100.854 426.95 101.827 426.95L102.277 427.924L102.726 426.95C124.745 426.95 146.838 426.95 168.932 426.95C169.905 428.523 173.875 428.523 174.773 426.95C178.668 426.95 182.562 426.95 186.457 426.95L186.906 427.924L187.355 426.95C195.144 426.95 202.933 426.95 210.722 426.95C210.872 428.448 213.493 428.448 213.643 426.95C246.371 426.95 279.175 426.95 311.978 426.95L313.401 427.924L313.925 426.95C333.997 426.95 354.143 426.95 374.289 426.95L375.712 427.924L376.236 426.95C391.14 426.95 406.119 426.95 421.023 426.95C422.97 428.598 428.587 428.598 430.759 426.95C431.732 426.95 432.706 426.95 433.68 426.95C433.829 428.448 436.451 428.448 436.6 426.95C441.094 426.95 445.663 426.95 450.231 426.95L451.654 427.924L452.178 426.95C463.862 426.95 475.545 426.725 487.228 426.95C487.378 429.796 486.929 432.342 484.307 433.765C325.084 435.488 165.636 433.765 6.41307 433.765L5.43945 427.924C26.4845 426.65 47.5295 427.025 68.7243 426.95Z" fill="#F4F9F9"/>
<path d="M174.848 426.95C173.949 428.522 169.98 428.522 169.006 426.95C170.954 426.95 172.901 426.95 174.848 426.95Z" fill="#C3D973"/>
<path d="M73.5924 426.95C72.9183 428.448 69.3983 428.448 68.7243 426.95C70.372 426.95 71.9447 426.95 73.5924 426.95Z" fill="#C3D973"/>
<path d="M98.9063 426.95C98.7565 428.448 96.1353 428.448 95.9855 426.95C96.9591 426.95 97.9327 426.95 98.9063 426.95Z" fill="#C3D973"/>
<path d="M213.793 426.95C213.643 428.448 211.022 428.448 210.872 426.95C211.846 426.95 212.819 426.95 213.793 426.95Z" fill="#C3D973"/>
<path d="M314 426.95L313.476 427.923L312.053 426.95C312.727 426.95 313.326 426.95 314 426.95Z" fill="#C3D973"/>
<path d="M101.827 426.95C101.827 426.95 102.502 426.95 102.802 426.95L102.352 427.923L101.902 426.95H101.827Z" fill="#C3D973"/>
<path d="M186.531 426.95C186.531 426.95 187.206 426.95 187.506 426.95L187.056 427.923L186.606 426.95H186.531Z" fill="#C3D973"/>
<path d="M141.745 361.718H115.458V362.691H141.745V361.718Z" fill="#F4F9F9"/>
<path d="M328.604 361.718C328.604 361.718 328.604 362.392 328.604 362.691L314.974 362.242L328.604 361.793V361.718Z" fill="#F4F9F9"/>
<path d="M298.422 413.319C296.924 416.016 304.563 415.716 306.586 415.267C307.709 414.967 307.11 414.218 307.185 413.319C308.158 413.319 309.132 413.319 310.106 413.319C309.132 416.24 313.85 415.491 316.471 415.267C318.044 415.117 317.82 414.368 317.894 414.293C319.542 414.068 324.335 413.319 325.159 413.319H359.236C366.425 413.319 374.589 414.218 382.078 414.293C383.875 415.941 389.043 415.941 390.841 414.293C395.709 414.293 400.577 414.293 405.445 414.293C405.819 415.791 409.04 415.716 409.339 414.293C412.934 414.293 416.454 414.293 420.049 414.293L420.498 415.267L420.948 414.293C422.221 414.293 423.569 414.293 424.842 414.293C427.763 416.016 432.706 415.416 436.076 415.267C437.948 415.267 439.971 416.24 439.446 413.319C440.72 413.319 442.068 413.319 443.341 413.319C442.217 416.39 449.257 415.866 451.13 414.293C457.87 414.443 464.91 413.844 471.576 414.293C472.999 414.368 478.166 417.588 477.417 413.319C478.391 413.319 479.365 413.319 480.338 413.319C479.889 414.817 481.686 417.064 478.915 417.214C475.47 417.439 470.302 416.54 467.382 417.214C465.584 417.663 464.76 420.21 458.469 419.086C449.108 417.439 452.103 418.487 443.865 419.161C437.125 419.685 430.908 416.465 424.243 417.064C421.247 417.364 419.899 418.936 418.401 419.086C416.155 419.311 414.881 417.439 413.458 417.289C412.035 417.139 410.088 418.936 407.841 419.086C402.374 419.461 390.466 419.835 385.373 419.086C382.827 418.712 381.554 416.989 378.633 416.989C375.712 416.989 374.439 418.787 371.893 419.086C367.324 419.76 351.072 419.685 346.504 419.086C344.631 418.862 345.156 417.064 344.556 416.989C342.684 416.765 338.265 419.835 332.873 419.011C315.723 416.54 301.118 418.337 284.192 416.989C281.197 416.765 281.721 417.439 281.796 414.068C287.338 414.068 292.73 413.17 298.347 413.095L298.422 413.319Z" fill="#F4F9F9"/>
<path d="M154.402 413.319C152.904 416.24 162.341 416.54 161.218 413.319C171.253 413.319 181.364 413.319 191.4 413.319C190.875 416.24 192.897 415.192 194.77 415.267C196.642 415.341 198.739 415.267 200.686 415.267C202.634 415.267 204.581 416.24 204.057 413.319C205.03 413.319 206.004 413.319 206.977 413.319C207.052 413.844 206.828 415.117 206.977 415.267C207.352 415.566 216.414 416.24 214.766 413.319C221.582 413.319 228.397 413.319 235.212 413.319C233.939 416.165 241.054 416.465 240.08 413.319C252.737 413.319 265.394 413.319 278.051 413.319C277.527 419.161 275.43 416.465 271.835 417.289C259.253 420.135 215.665 421.108 202.559 419.236C200.237 418.936 198.664 416.989 196.867 417.214C195.369 417.364 194.171 419.161 191.924 419.311C189.303 419.461 187.355 417.513 184.21 417.214C180.241 416.764 161.592 416.69 157.772 417.214C155.975 417.438 156.499 419.011 155.75 419.236C153.578 419.835 147.961 416.764 149.534 413.394C151.182 413.394 152.755 413.394 154.402 413.394V413.319Z" fill="#F4F9F9"/>
<path d="M53.1465 413.319C51.7984 416.165 60.0367 416.54 58.9882 413.319H66.7771C66.852 413.844 66.6273 415.117 66.7771 415.267C67.2264 415.566 76.8877 415.491 77.8613 415.267C78.9847 414.967 78.3856 414.218 78.4604 413.319H86.2494C85.7251 416.24 87.7472 415.192 89.6196 415.267C96.8093 415.566 104.898 415.491 112.088 415.267C113.96 415.267 115.982 416.24 115.458 413.319H121.299C120.476 416.24 124.969 416.39 124.22 413.319C131.635 413.319 139.124 413.319 146.613 413.319L145.041 417.139C142.569 416.465 143.093 418.936 141.296 419.236C128.639 420.958 103.25 419.685 89.6196 419.236C77.6366 418.787 73.8171 417.588 61.3848 419.161C51.8733 420.359 44.4589 416.165 36.1457 417.289C33.824 417.588 32.2513 419.461 29.2555 419.311C26.5594 419.161 21.3168 417.139 22.8896 413.394H53.0716L53.1465 413.319Z" fill="#F4F9F9"/>
<path d="M115.458 413.319C115.982 416.24 113.96 415.192 112.088 415.267C104.898 415.491 96.8093 415.566 89.6195 415.267C87.7472 415.267 85.7251 416.24 86.2493 413.319H115.458Z" fill="#F4F9F9"/>
<path d="M204.057 413.319C204.581 416.24 202.559 415.192 200.686 415.267C198.814 415.341 196.717 415.341 194.77 415.267C192.823 415.192 190.875 416.24 191.4 413.319C195.594 413.319 199.863 413.319 204.057 413.319Z" fill="#F4F9F9"/>
<path d="M78.4604 413.319C78.3855 414.218 78.9847 415.042 77.8613 415.267C76.8876 415.491 67.2264 415.566 66.777 415.267C66.6273 415.117 66.8519 413.844 66.777 413.319H78.4604Z" fill="#F4F9F9"/>
<path d="M307.185 413.319C307.11 414.218 307.709 415.042 306.586 415.267C304.638 415.716 296.999 416.015 298.422 413.319C301.343 413.319 304.264 413.319 307.185 413.319Z" fill="#F4F9F9"/>
<path d="M214.766 413.319C216.414 416.24 207.352 415.566 206.977 415.267C206.828 415.117 207.052 413.844 206.977 413.319C209.599 413.319 212.145 413.319 214.766 413.319Z" fill="#F4F9F9"/>
<path d="M317.894 414.293C317.894 414.293 318.044 415.117 316.471 415.266C313.85 415.491 309.132 416.24 310.106 413.319C312.727 413.319 315.797 412.645 317.894 414.293Z" fill="#F4F9F9"/>
<path d="M161.218 413.319C162.341 416.54 152.904 416.24 154.402 413.319C156.649 413.319 158.971 413.319 161.218 413.319Z" fill="#F4F9F9"/>
<path d="M58.9882 413.319C60.0367 416.54 51.7984 416.165 53.1465 413.319H58.9882Z" fill="#F4F9F9"/>
<path d="M240.08 413.319C241.054 416.465 233.939 416.165 235.212 413.319C236.86 413.319 238.433 413.319 240.08 413.319Z" fill="#F4F9F9"/>
<path d="M124.22 413.319C124.969 416.39 120.476 416.24 121.299 413.319H124.22Z" fill="#F4F9F9"/>
<path opacity="0.32" d="M250.715 37.654C252.662 34.209 254.834 30.689 256.107 26.9443C258.878 18.8558 256.557 13.5384 257.53 5.97416C257.68 4.62608 258.13 3.05332 259.478 4.55119C261.874 7.02267 259.702 23.4992 258.429 27.3188C256.856 32.1868 254.684 35.1077 250.715 37.654C242.627 52.1834 222.181 55.8531 206.678 52.0336C182.937 46.1919 168.258 16.0848 140.697 31.2881C137.701 32.9358 128.414 41.2489 126.168 44.02C123.097 47.7647 120.401 54.2055 117.405 57.6506C115.982 59.2982 115.907 59.448 114.484 57.6506C120.925 46.0421 134.93 28.5171 148.261 25.2966C180.54 17.5077 197.541 67.3867 238.358 46.2668C242.926 43.9451 246.521 40.3502 250.715 37.654Z" fill="#EA5A4C"/>
<path opacity="0.32" d="M240.979 -12C241.428 -9.00427 240.23 -10.4272 238.508 -10.1277C231.093 -8.77959 222.78 -8.40512 215.44 -6.90725C196.043 -3.08769 177.994 3.95228 160.244 12.3403C159.72 9.71907 160.918 10.6927 162.191 9.94375C170.879 4.851 182.637 0.0578289 192.223 -2.93791C208.251 -7.95576 224.353 -10.577 241.054 -12L240.979 -12Z" fill="#EA5A4C"/>
<path d="M328.23 2.00506C328.23 2.00506 328.604 2.97868 328.979 3.20336C329.952 3.8025 331.375 3.42804 331.525 3.57782C334.371 5.74973 328.23 5.59994 327.181 3.57782L312.053 -2.18896C316.846 -1.36514 323.811 0.207623 328.23 2.07996V2.00506Z" fill="#F4F9F9"/>
<path d="M157.323 13.3139C159.121 15.0365 152.83 17.2833 151.481 16.759C152.155 15.7854 156.35 12.4152 157.323 13.3139Z" fill="#F4F9F9"/>
<path d="M146.613 20.1294L139.798 24.4732C140.996 21.777 143.917 20.8783 146.613 20.1294Z" fill="#F4F9F9"/>
<path d="M99.8799 60.0472C100.254 61.9195 98.6067 62.6685 97.4833 63.9416C96.8842 62.8931 99.5055 59.5229 99.8799 60.0472Z" fill="#F4F9F9"/>
<path d="M90.1438 72.7044C90.1438 72.7044 89.994 68.7351 92.091 70.7572C94.1881 72.7793 90.2936 72.5546 90.1438 72.7044Z" fill="#F4F9F9"/>
<path d="M93.0646 69.9332C93.7264 69.9332 94.2629 69.3967 94.2629 68.7349C94.2629 68.0731 93.7264 67.5366 93.0646 67.5366C92.4028 67.5366 91.8663 68.0731 91.8663 68.7349C91.8663 69.3967 92.4028 69.9332 93.0646 69.9332Z" fill="#F4F9F9"/>
<path d="M148.561 18.1819C149.235 18.5563 147.961 19.8295 146.613 19.1555C145.939 18.781 147.213 17.5078 148.561 18.1819Z" fill="#F4F9F9"/>
<path d="M134.93 27.9183C134.106 27.5438 137.776 25.2221 138.824 25.5217C137.551 26.72 136.802 28.3677 134.93 27.9183Z" fill="#F4F9F9"/>
<path d="M101.827 60.0473C99.8799 60.1971 100.854 58.175 102.351 57.1265L101.827 60.0473Z" fill="#F4F9F9"/>
<path opacity="0.32" d="M90.1438 72.7046C88.8706 73.7531 78.2357 98.8424 76.7379 102.587C72.0945 114.196 68.2749 126.178 64.8298 138.236L61.909 138.91L77.4868 94.6483H75.5396C79.5089 87.9079 83.2536 79.5199 88.1966 73.4535C88.8706 72.5548 90.0689 72.8544 90.1438 72.7795V72.7046Z" fill="#EA5A4C"/>
<path d="M116.934 42.5264L114.498 44.9624L114.974 45.439L117.41 43.003L116.934 42.5264Z" fill="#F4F9F9"/>
<path d="M118.903 41.5488C119.503 41.8484 119.503 42.2229 118.903 42.5224V41.5488Z" fill="#F4F9F9"/>
<path opacity="0.32" d="M323.736 125.205C323.736 125.205 323.437 124.081 324.335 123.183C327.93 119.737 332.424 123.033 331.375 116.068C330.252 108.578 327.481 105.882 331.6 97.6439C335.719 89.4056 340.962 86.1103 350.323 87.3086C364.179 89.181 368.298 106.931 361.407 117.715C360.509 119.213 358.037 119.138 358.711 120.786C359.91 123.857 374.888 126.253 376.236 137.337C377.809 150.369 374.364 165.048 375.263 178.229C374.514 182.498 371.368 179.203 370.544 179.802C370.32 179.952 367.773 184.071 367.699 184.295C365.077 192.833 378.258 188.34 383.127 189.014C384.924 187.666 383.801 180.401 384.25 177.48C384.4 176.432 386.197 174.035 385.972 173.885C382.153 171.039 381.479 181.3 381.104 181.674C381.03 181.749 378.333 181.749 378.184 181.674C378.034 181.524 378.184 178.304 378.184 177.33V147.673H379.157V177.855C382.078 177.181 382.527 171.938 384.699 171.189C386.497 170.59 397.731 170.74 399.903 171.189C406.119 172.537 404.921 179.278 407.167 183.397C407.766 184.52 407.167 185.044 409.339 184.67V127.751C409.339 126.628 405.669 125.429 405.52 125.205C405.37 125.055 406.418 122.434 406.418 121.011C406.643 101.014 406.119 81.0176 406.418 61.0959C408.665 60.4968 408.066 61.6202 408.665 62.2942C415.406 70.2329 420.498 79.5946 426.864 87.8329C427.014 88.3571 425.067 88.1324 424.917 88.9563C424.543 90.529 424.018 97.2694 423.943 99.4413C422.371 126.628 425.142 155.312 423.943 182.723L426.864 181.749C425.217 191.186 430.16 189.463 437.574 189.538V138.91C437.574 138.91 434.953 138.91 433.155 138.011C432.481 137.712 428.362 135.016 428.137 134.716C424.543 130.447 428.362 97.4941 426.864 89.7801C426.939 88.5818 427.913 89.7801 428.362 90.2295C434.054 97.9435 440.869 114.72 444.165 124.006C467.157 187.89 459.668 256.642 425.142 314.685C417.128 328.166 404.097 340.748 402.599 356.85C392.563 356.775 382.452 356.925 372.417 356.85V339.849C372.417 339.325 370.919 338.576 371.893 336.479C372.941 334.082 379.756 329.439 381.928 325.994C398.779 298.508 377.884 233.8 363.205 206.988C356.689 195.005 352.196 194.032 343.208 185.569C342.984 185.344 343.957 183.322 340.213 183.097L340.063 123.033C339.838 121.46 333.847 117.041 333.472 117.491C333.697 122.434 327.556 123.931 323.736 125.28V125.205ZM390.915 346.14C389.567 345.466 388.294 346.739 388.968 347.114C390.316 347.788 391.589 346.514 390.915 346.14ZM398.704 355.876C398.704 351.832 395.484 348.911 392.413 347.114L398.704 355.876Z" fill="#EA5A4C"/>
<path d="M318.868 130.073C319.168 129.399 319.468 128.8 319.843 128.125C319.693 128.275 319.618 129.324 318.868 130.073Z" fill="#F4F9F9"/>
<path d="M323.736 125.205C321.864 127.077 320.591 127.451 319.842 128.125C320.141 127.526 319.767 126.403 320.815 125.654C321.864 124.905 323.137 125.429 323.736 125.205Z" fill="#F4F9F9"/>
<path opacity="0.32" d="M318.868 130.073C312.877 143.554 317.82 159.431 314.974 173.885C313.85 173.511 313.326 173.511 312.053 172.912C314.3 172.238 313.925 170.365 314.075 168.568C314.674 159.131 312.427 144.977 314.075 136.439C314.225 135.69 316.696 130.897 317.22 130.298C317.595 129.848 318.793 130.223 318.943 130.073H318.868Z" fill="#EA5A4C"/>
<path opacity="0.32" d="M312.053 107.68C314.974 108.204 313.925 106.182 314 104.309C314.674 87.5332 311.753 64.3912 314 48.8882C314.749 43.8704 321.939 34.7334 327.106 34.7334H380.655C380.655 34.7334 382.153 36.0815 382.078 36.6806H327.106C325.384 36.6806 319.392 42.747 318.419 44.5444C315.423 50.1614 317.146 65.0652 316.921 72.255C316.846 74.5767 315.947 76.6737 315.872 78.9954C315.423 95.6966 316.247 112.473 315.872 129.174C314.674 130.747 314.075 129.174 313.925 127.751C313.476 124.231 314.075 119.737 313.925 115.993C313.925 114.12 314.899 112.098 311.978 112.622C312.053 111.125 312.128 109.252 311.978 107.754L312.053 107.68Z" fill="#EA5A4C"/>
<path d="M401.625 54.2056C403.198 55.4039 401.625 55.9281 400.202 56.1528C395.184 56.8268 390.99 55.0294 386.572 55.1043C383.576 55.1043 380.88 56.2277 377.884 56.2277C368.373 56.2277 358.861 55.2541 349.574 56.003L340.362 54.2805H401.7L401.625 54.2056Z" fill="#F4F9F9"/>
<path opacity="0.32" d="M331.526 56.1528H330.551V86.3348H331.526V56.1528Z" fill="#EA5A4C"/>
<path d="M338.34 52.2584C341.111 55.1043 333.098 56.9018 331.525 55.1792C329.428 52.7826 337.666 51.5844 338.34 52.2584Z" fill="#F4F9F9"/>
<path d="M124.737 35.7192L122.301 38.1553L122.778 38.6319L125.214 36.1958L124.737 35.7192Z" fill="#F4F9F9"/>
<path d="M126.692 34.7334C127.292 35.033 127.292 35.4074 126.692 35.707V34.7334Z" fill="#F4F9F9"/>
<path d="M149.984 17.2085C150.583 17.5081 150.583 17.8825 149.984 18.1821V17.2085Z" fill="#F4F9F9"/>
<path d="M158.746 12.3403C159.346 12.6399 159.346 13.0144 158.746 13.3139V12.3403Z" fill="#F4F9F9"/>
<path d="M107.669 189.463C107.594 190.661 106.695 192.309 107.669 194.331C102.876 191.785 96.6595 186.542 90.7429 188.639C87.5974 189.763 92.3157 191.785 83.3285 190.437C80.4076 189.987 77.1872 188.714 73.5923 189.463C79.0596 163.325 94.0382 138.536 119.352 127.676C123.846 125.729 136.653 123.183 139.199 121.235C141.446 119.513 139.948 115.394 143.168 118.314C145.79 120.711 143.618 124.381 141.67 126.628C135.08 134.566 120.925 135.69 114.559 148.122C109.916 157.109 108.418 178.679 107.594 189.388L107.669 189.463Z" fill="#F4F9F9"/>
<path d="M114.484 191.41C112.836 192.459 112.537 194.481 112.537 196.278C111.938 196.877 108.642 194.855 107.669 194.331C106.695 192.309 107.594 190.661 107.669 189.463C109.167 189.762 113.511 191.41 114.484 191.41Z" fill="#F4F9F9"/>
<path opacity="0.32" d="M47.3048 190.437C47.3048 189.763 47.3048 189.164 47.3048 188.49C55.3933 190.736 63.4818 188.564 71.5703 188.49C76.5132 160.854 93.8136 135.54 120.251 124.83C123.322 123.557 138.225 119.962 138.75 118.015C138.899 115.993 136.428 115.843 135.454 114.495C128.115 104.309 125.493 80.718 132.683 70.0831C139.199 60.4968 146.389 58.7742 157.698 60.0474C180.54 62.6687 183.012 96.82 172.227 112.548C170.954 114.345 165.412 118.09 166.984 120.337C167.434 121.011 179.641 125.28 181.888 126.328C205.629 137.936 215.815 155.462 224.353 179.727C223.079 180.251 213.044 186.392 211.696 187.516C211.321 187.815 211.022 188.115 210.722 188.49C210.198 189.089 209.674 189.463 209.748 190.437C209.449 190.437 209.074 190.437 208.775 190.437C208.176 190.437 207.502 190.437 206.828 190.437C178.518 191.56 148.71 190.437 120.176 190.437C117.854 190.437 115.233 191.41 114.334 191.41C113.361 191.41 109.017 189.763 107.519 189.463C108.343 178.753 109.841 157.259 114.484 148.197C120.85 135.765 135.005 134.641 141.596 126.702C143.543 124.381 145.715 120.786 143.093 118.389C139.798 115.394 141.371 119.588 139.124 121.31C136.503 123.257 123.771 125.804 119.277 127.751C93.9634 138.611 78.9847 163.4 73.5175 189.538C77.1124 188.789 80.3328 190.062 83.2536 190.512C83.4034 191.41 82.4298 192.009 82.28 192.459C76.5132 189.089 67.9754 191.71 61.3099 191.56C56.7414 191.485 52.098 189.838 47.2299 190.512L47.3048 190.437ZM141.745 64.9155C140.397 64.2414 139.124 65.5146 139.798 65.8891C141.146 66.5631 142.419 65.2899 141.745 64.9155ZM132.009 99.8907V82.8899C132.009 80.1937 136.278 73.4533 136.877 70.2329C135.379 68.2857 135.304 69.9333 134.705 70.9818C131.11 76.8984 129.762 84.7622 130.062 91.6524L132.009 99.9656V99.8907Z" fill="#EA5A4C"/>
<path d="M132.009 99.8904L130.062 91.5773C129.687 84.6871 131.11 76.8982 134.705 70.9067C135.304 69.8582 135.379 68.2106 136.877 70.1578C136.278 73.3033 132.009 80.0437 132.009 82.8148V99.8155V99.8904Z" fill="#F4F9F9"/>
<path d="M141.745 64.9152C142.419 65.2897 141.146 66.5629 139.798 65.8889C139.124 65.5144 140.397 64.2412 141.745 64.9152Z" fill="#F4F9F9"/>
<path d="M210.872 188.489C210.872 188.489 211.472 187.815 211.846 187.516L210.872 188.489Z" fill="#F4F9F9"/>
<path d="M95.0119 221.592C97.708 223.989 101.528 227.059 104.448 229.231C106.77 230.954 118.753 237.619 119.128 238.368C119.802 239.567 119.128 241.664 119.352 243.012C114.859 243.461 116.731 246.232 118.379 248.853C119.876 251.25 123.771 255.219 125.943 257.391C127.291 258.739 127.366 260.162 130.062 259.563C130.287 261.286 132.533 263.008 133.357 264.506C135.679 268.401 136.952 270.423 139.798 274.167C143.693 279.41 146.988 283.155 151.481 287.798C154.927 291.318 159.195 294.014 161.742 298.508C162.715 298.658 161.967 297.01 162.341 296.635C162.641 296.336 163.614 297.235 164.213 297.534C164.138 303.001 173.725 304.949 177.844 305.323C179.342 305.473 181.214 305.398 182.712 305.323C190.052 304.874 194.92 302.477 200.237 297.534C198.964 313.412 199.488 329.289 199.263 345.241H188.554C188.554 341.272 185.633 340.673 182.188 340.373C173.126 339.549 151.332 342.32 144.741 340.373C144.591 340.373 144.142 338.95 143.093 338.651C131.11 334.681 119.277 328.69 108.717 321.874C108.942 321.65 110.065 318.28 110.665 317.531C110.665 316.857 109.766 317.081 109.691 317.006C107.219 314.834 105.497 317.68 102.876 314.086C102.876 307.645 96.0604 307.645 96.0604 314.086C93.3642 311.015 89.1702 310.715 88.2715 305.323C88.4213 304.724 88.1217 303.975 88.2715 303.376C88.6459 301.653 88.2715 300.605 88.2715 300.455C89.0204 298.358 90.2187 298.283 91.1923 294.613C95.4612 290.944 98.1574 284.727 101.003 279.784C101.453 279.035 102.726 278.511 102.876 278.062C103.924 278.661 104.748 279.485 105.797 280.009C106.995 280.683 107.594 281.582 109.317 281.657C111.563 281.807 119.652 278.736 121 277.088C122.048 275.74 120.476 275.366 120.401 275.141C119.802 273.418 119.577 271.846 117.48 271.247C115.608 267.053 120.775 266.603 120.401 260.537C120.176 257.242 115.383 257.092 112.612 257.616C111.938 257.766 110.515 259.114 109.691 259.563C108.043 260.462 104.523 263.158 104.224 263.233C101.677 263.757 95.9106 260.462 93.1395 262.484C92.6902 262.484 91.7915 263.308 91.1923 263.458C90.1438 260.612 93.1395 260.836 93.2144 259.114C93.2144 257.99 92.3906 252.149 92.0161 251.849C90.1438 250.276 81.9055 253.497 83.3285 257.616C83.9277 257.616 84.6766 257.541 85.2757 257.616C85.4255 258.515 85.1259 259.713 85.2757 260.537C82.4298 261.211 83.703 258.29 82.3549 257.167C81.5311 256.493 75.0154 253.871 73.5924 253.722C64.8299 250.576 61.4596 255.669 65.8035 263.458C65.5788 263.607 65.3541 264.881 64.1558 265.18C60.7856 266.154 57.7899 265.63 56.0673 262.484C51.8733 247.43 48.6529 238.668 47.3048 222.566L95.0119 221.592ZM106.695 288.772C105.647 288.847 99.9548 290.045 98.9063 290.344C98.3821 290.494 98.2323 291.543 97.9327 291.692C97.6331 291.842 96.6595 291.393 96.0604 291.767C97.034 293.265 95.7608 297.309 95.9855 297.534C96.36 297.834 98.3072 297.235 98.9063 297.534C99.5055 297.834 103.025 301.054 103.325 301.204C105.871 302.178 112.537 302.627 115.458 302.402C121 302.028 130.436 297.684 124.22 291.692C123.621 291.168 122.048 290.12 121.299 289.745C116.656 287.424 111.488 286.6 106.695 288.772Z" fill="#F4F9F9"/>
<path d="M82.3549 192.384C80.9319 195.904 82.954 199.125 81.3813 203.094C81.2315 203.094 80.4076 204.292 78.9847 204.142C68.2749 203.169 56.966 201.896 46.3312 204.068C46.4061 200.173 47.0801 194.931 47.3048 190.437C52.098 189.688 56.7414 191.336 61.3847 191.485C68.0502 191.635 76.5881 189.014 82.3549 192.384Z" fill="#F4F9F9"/>
<path d="M82.3549 272.22C87.4476 275.74 84.9761 283.679 84.3021 288.772C80.4825 288.547 81.0068 285.926 78.4604 285.851C74.9404 285.701 71.1958 286.525 71.6451 290.719C71.4953 290.719 70.3719 292.217 69.7728 291.692C68.949 291.018 67.6009 285.327 64.8298 284.877C64.0809 283.454 63.5566 283.23 62.8826 280.983C62.4332 279.56 60.486 271.696 60.9354 271.247L75.5396 270.273C77.8613 271.172 79.9583 271.696 82.3549 272.22Z" fill="#F4F9F9"/>
<path d="M65.8035 263.458C65.8035 263.458 67.1515 263.608 67.7507 263.458C67.9754 264.057 67.4511 265.405 68.2 266.379C68.8741 267.203 74.2664 269.749 75.5396 270.273L60.9354 271.247C60.486 271.696 62.4333 279.56 62.8826 280.983C60.5609 277.238 57.715 273.643 56.5916 269.3C56.0673 267.278 56.5916 264.432 56.0673 262.484C57.7899 265.705 60.7856 266.154 64.1558 265.181C65.2792 264.881 65.5788 263.533 65.8035 263.458Z" fill="#F4F9F9"/>
<path d="M209.898 190.437C214.766 189.613 224.952 181.45 232.816 179.802C235.137 179.278 235.886 179.502 234.239 181.674C226.15 185.644 217.163 188.265 209.973 193.957L194.32 210.883V209.909C194.845 209.085 198.514 203.393 198.215 203.094C197.241 202.12 194.845 205.341 194.32 206.015C184.959 203.318 175.148 204.517 165.561 204.142C163.24 204.067 161.143 203.169 158.821 203.094C151.856 202.869 143.468 202.495 136.877 204.142C132.384 199.574 124.52 195.904 120.326 190.512C148.785 190.512 178.668 191.635 206.977 190.512C204.731 193.358 199.263 195.754 199.713 200.248L208.925 190.512C208.925 190.512 209.599 190.512 209.898 190.512V190.437Z" fill="#F4F9F9"/>
<path d="M95.9855 314.011C96.36 314.46 96.1353 316.707 97.9327 316.932C97.7081 318.055 94.937 320.377 95.9855 322.773C94.1881 322.773 90.5183 333.783 94.0383 330.562C94.1881 330.413 94.1132 328.765 95.0868 328.166C98.0076 326.368 106.396 323.972 108.717 321.8C119.277 328.615 131.11 334.607 143.093 338.576C144.142 338.875 144.591 340.298 144.741 340.298C145.116 342.995 143.393 346.964 146.688 346.14C146.688 347.713 146.613 349.435 146.688 351.008C144.741 351.832 146.164 356.401 145.715 356.85C144.367 358.198 112.462 355.801 107.744 356.85C106.77 352.132 110.515 342.246 108.268 338.351C106.096 334.681 91.9413 337.228 91.1923 336.404C90.8179 336.03 91.7166 333.184 91.1174 332.584C90.6681 332.135 88.4213 333.109 88.2715 331.985C86.1745 321.201 86.2494 315.958 88.2715 305.323C89.1702 310.716 93.3642 311.015 96.0604 314.086L95.9855 314.011ZM93.0647 323.747C93.514 320.152 92.1659 316.632 89.6945 314.011C89.8443 316.033 90.4434 318.43 91.1174 320.377C91.4919 321.5 91.6417 323.897 93.0647 323.747Z" fill="#F4F9F9"/>
<path d="M164.138 297.534C166.61 298.807 168.108 298.807 169.681 301.204L177.769 305.323C173.65 304.949 164.064 303.001 164.138 297.534Z" fill="#0A0C0C"/>
<path d="M119.352 243.012C119.652 244.884 118.753 246.981 121.299 247.88V248.853C120.551 248.629 119.277 249.003 118.379 248.853C116.731 246.232 114.859 243.461 119.352 243.012Z" fill="#F4F9F9"/>
<path d="M139.798 274.167C144.217 274.542 145.19 279.485 146.913 281.657C148.261 283.379 152.23 283.904 151.481 287.798C146.988 283.155 143.693 279.41 139.798 274.167Z" fill="#0A0C0C"/>
<path d="M194.32 206.015C189.977 211.332 186.082 218.447 182.637 224.513L163.614 222.566C159.57 221.892 153.204 223.39 149.534 222.566C144.441 221.368 144.217 215.451 142.27 211.856C140.996 209.535 138.675 205.94 136.877 204.142C143.468 202.57 151.856 202.944 158.821 203.094C161.143 203.094 163.24 204.067 165.561 204.142C175.148 204.517 184.959 203.393 194.32 206.015Z" fill="#F4F9F9"/>
<path d="M182.637 224.513C178.593 231.703 175.447 239.642 171.403 246.906C168.857 246.906 154.402 227.808 149.534 224.513C149.534 223.839 149.534 223.24 149.534 222.566C153.204 223.465 159.57 221.892 163.614 222.566L182.637 224.513Z" fill="#F4F9F9"/>
<path d="M312.053 107.679C312.203 109.177 312.128 111.05 312.053 112.548C311.828 116.592 309.282 122.883 309.282 125.654C309.282 128.874 311.678 129.998 310.63 134.866C309.207 141.456 304.414 148.047 297.449 149.021C299.021 151.492 297.299 160.479 298.572 161.977C298.797 162.277 303.215 163.026 305.163 164.598C308.308 167.22 308.308 171.114 312.053 172.762C313.326 173.361 313.85 173.361 314.974 173.735C325.009 176.881 333.997 180.176 343.208 185.419C352.196 193.807 356.689 194.855 363.205 206.838C377.809 233.65 398.779 298.358 381.928 325.844C379.756 329.364 372.941 334.007 371.893 336.329C370.919 338.426 372.417 339.175 372.417 339.699V356.7C382.452 356.775 392.563 356.625 402.599 356.7C407.692 356.7 420.423 355.726 424.318 356.924C424.917 357.074 433.006 363.365 433.754 364.114C435.552 365.987 433.305 366.885 436.675 367.484C435.851 369.806 434.054 367.185 433.23 366.586C431.208 365.088 424.093 359.096 422.595 358.797C415.855 357.524 404.621 359.396 397.506 359.396C393.836 359.396 390.241 359.77 387.096 359.77C383.95 359.77 381.404 358.947 378.333 358.797C376.087 358.647 373.765 358.872 371.518 358.797C372.342 363.665 370.395 372.353 371.518 376.696C371.818 377.67 373.84 376.996 373.465 377.82C372.492 379.992 370.395 381.34 371.518 385.084L380.805 378.344C382.453 377.67 382.677 379.617 382.228 380.216C381.104 381.49 374.664 383.886 372.941 385.983C371.069 388.23 371.967 388.904 371.593 390.926C371.144 393.173 372.117 395.719 369.646 397.741C357.813 400.587 337.816 405.081 329.802 393.323C329.728 383.137 329.203 372.877 328.829 362.691C328.829 362.392 328.829 362.017 328.829 361.718C328.754 360.744 328.904 359.77 328.829 358.797C328.155 358.722 327.481 358.797 326.882 358.797C328.829 352.581 327.256 345.915 328.005 339.474C340.362 333.558 355.042 334.606 368.073 337.228C373.69 333.408 378.109 329.214 381.254 323.148C392.413 301.279 383.052 264.881 375.787 242.263C369.945 224.064 360.134 198.151 343.283 188.115C337.516 184.67 325.608 179.652 320.216 177.855C317.295 176.881 314 176.956 311.229 174.859C311.229 181.599 304.638 199.873 298.572 202.644C295.277 204.142 288.162 195.08 285.915 192.384C289.585 192.459 296.1 201.296 297.598 200.697C306.81 190.961 316.397 167.969 298.497 163.625C296.849 167.744 294.453 172.837 291.757 176.432C289.585 179.203 287.113 180.326 284.941 181.749C287.113 179.727 296.924 168.718 294.678 166.171C291.083 167.22 288.536 169.242 284.717 170.365C275.355 173.136 267.491 172.163 259.627 166.171C257.83 169.766 262.473 188.864 264.645 190.362C265.17 190.736 276.404 191.485 277.602 190.586C278.8 189.688 277.827 187.141 278.65 185.643C279.474 184.22 283.743 182.872 285.016 181.749C284.866 181.824 284.866 183.546 284.118 184.22C282.919 185.269 279.774 185.718 281.122 187.516C281.272 187.666 283.444 188.115 284.642 189.388C285.69 190.511 285.69 192.009 285.99 192.384C280.972 192.309 283.593 203.019 281.122 206.014C281.272 203.618 280.822 199.499 281.122 196.278C281.272 194.331 283.893 190.886 280.598 188.489L276.254 193.357C274.157 193.283 263.896 192.384 263.522 193.957L253.861 344.193L271.386 343.219C271.685 338.276 270.936 333.034 271.386 328.165C271.685 324.87 273.183 321.949 273.333 318.429C274.906 288.172 273.108 257.167 278.201 227.359L272.359 344.118H291.307C292.056 344.118 298.572 342.545 298.572 341.721L292.73 332.509C293.03 332.135 299.246 331.086 300.519 330.038C301.493 329.214 301.568 327.267 303.066 325.769C306.96 321.874 322.987 311.989 328.529 308.169C331.974 305.772 335.869 303.75 339.539 301.653C338.191 293.64 338.191 285.551 337.516 277.463C336.393 263.682 335.944 250.726 335.27 236.87C335.27 236.122 334.071 233.126 336.019 233.201C337.442 233.201 337.442 236.421 337.516 237.545C337.966 243.836 337.067 250.501 337.591 256.942C338.49 267.876 342.16 279.035 343.957 289.446C344.332 291.618 345.53 298.208 345.38 299.856C345.156 302.552 340.063 303.301 339.239 305.847C336.842 305.473 336.168 307.046 334.596 308.169C331.225 308.319 328.08 311.165 325.309 313.037C324.111 313.861 322.388 313.786 322.912 315.958C322.313 316.332 321.564 316.557 320.965 316.931C317.295 319.253 313.775 321.126 310.255 323.747C308.757 324.87 307.709 326.218 305.687 327.491C304.638 328.165 302.541 328.465 302.466 328.615C302.092 329.139 303.59 331.161 303.365 331.461C303.14 331.76 297.748 334.382 296.625 334.457C300.145 341.272 302.841 349.285 304.414 356.85C301.717 353.18 300.744 349.211 298.946 345.091C291.008 346.065 283.144 345.99 275.205 346.14C272.434 346.14 257.381 345.466 256.707 346.14C256.407 346.439 257.081 351.532 256.557 353.255C255.808 355.726 252.737 354.977 251.839 358.797C250.79 358.797 249.816 359.246 248.918 359.77C248.918 359.171 248.918 358.497 248.918 357.823L247.944 358.797H190.052C187.28 359.022 187.88 360.744 187.655 362.691C187.58 363.29 187.655 364.039 187.655 364.639C187.655 370.256 189.752 377.745 188.629 383.137C188.629 383.137 187.88 383.961 187.655 384.111C187.28 384.41 187.056 385.159 186.232 385.084C181.813 383.886 174.623 387.406 171.104 387.032C170.954 387.032 170.504 386.208 170.13 386.058C168.108 385.384 166.46 384.785 165.262 383.137C171.927 384.485 178.967 384.785 185.558 383.062L186.681 347.188L152.605 348.162V347.188C155.975 345.016 169.381 346.514 174.549 346.29C178.518 346.065 182.487 344.567 186.681 345.241C187.43 342.919 184.959 342.62 183.236 342.395C171.778 341.047 158.447 343.219 146.838 342.32C146.838 343.594 146.838 344.942 146.838 346.215C143.543 347.039 145.265 343.069 144.891 340.373C151.481 342.32 173.275 339.549 182.338 340.373C185.708 340.673 188.629 341.272 188.703 345.241C188.703 346.814 186.532 355.726 187.73 356.924H198.889C199.937 356.775 199.413 347.039 199.413 345.241C199.563 329.289 199.114 313.411 200.387 297.534C195.069 302.477 190.201 304.874 182.862 305.323C182.263 302.477 184.285 303.6 185.932 303.076C188.629 302.252 195.444 300.605 196.268 297.834C199.114 273.194 202.334 248.404 207.202 224.064C207.577 222.341 208.101 221.293 210.048 221.592L207.127 247.206C204.356 253.572 201.81 266.079 200.611 273.943C199.563 280.833 199.638 288.622 198.44 295.587L201.211 293.939L203.308 267.352C204.506 267.053 204.955 269.299 205.03 269.973C205.18 273.418 203.607 277.912 203.308 281.432C202.559 290.943 201.66 300.68 201.36 310.116C200.836 324.72 201.211 340.223 201.36 354.902C201.36 354.902 199.713 355.202 201.36 356.4C202.109 356.925 202.933 356.85 203.757 356.924C212.145 357.673 240.155 358.198 247.57 356.85C252.063 356.026 254.46 351.832 254.909 347.638C251.015 345.316 254.909 352.056 251.015 351.008C253.187 298.807 258.204 246.607 259.777 194.331C257.006 196.278 253.636 197.477 250.79 199.274C248.993 200.397 245.997 203.168 244.199 204.442C237.309 209.46 238.058 190.437 238.433 187.141C238.657 185.419 241.054 180.626 240.305 179.727C240.23 179.652 237.983 178.753 237.833 178.753C237.159 178.753 236.71 181 236.111 181.449C235.437 181.974 234.688 181.524 234.388 181.674C236.036 179.502 235.362 179.278 232.965 179.802C225.102 181.524 214.841 189.613 210.048 190.437C209.973 189.463 210.497 189.089 211.022 188.489L211.995 187.516C213.343 186.392 223.379 180.251 224.652 179.727C230.943 177.106 238.582 176.656 245.098 175.832C241.129 184.295 238.433 193.732 241.204 203.094C244.199 201.446 260.826 191.71 261.5 189.763C262.548 186.767 258.354 181.15 257.83 177.18C257.456 174.26 257.83 171.039 257.755 168.044C257.755 166.77 257.755 165.422 257.755 164.149L249.966 167.07C250.041 164.524 255.583 163.475 255.808 163.175C255.883 163.026 255.059 161.078 254.834 160.255C258.204 159.73 258.279 162.576 260.976 164.374C268.465 169.242 277.827 169.466 285.69 165.347C295.501 160.255 296.1 156.585 296.175 145.725C297.598 143.703 297.973 147.073 300.594 146.324C306.885 144.677 311.678 130.971 306.361 126.777C301.643 123.033 300.369 128.575 295.651 128.2C295.501 124.905 296.026 121.46 295.426 118.239C295.202 117.041 293.03 110.825 292.506 109.477C290.633 104.908 285.241 107.08 282.545 106.856C279.249 106.556 276.478 105.283 272.734 105.807C269.588 106.256 267.566 108.728 263.971 108.803C261.275 108.803 257.006 106.406 255.209 108.803C253.336 111.274 251.614 135.09 251.839 139.434C252.063 144.078 254.684 150.069 252.812 154.563C252.063 151.941 250.94 145.65 250.191 144.078C249.442 142.505 247.794 142.73 247.195 141.232C245.997 138.536 245.323 126.777 246.222 124.081C246.896 121.834 252.962 120.336 251.764 115.319C251.464 114.195 249.742 113.222 249.217 112.023C248.393 110.076 248.393 107.679 247.495 105.957C245.622 102.437 241.129 101.014 241.353 94.648C241.503 89.4804 245.248 87.8327 247.719 85.2115C248.019 84.9119 246.371 82.3655 251.464 81.6166C257.83 80.7179 260.826 84.6123 259.627 75.7C263.147 73.6779 274.007 79.894 275.58 79.5196C277.602 79.0702 276.029 74.0524 284.941 76.1494C290.483 77.4975 295.127 82.5902 298.572 86.8591C299.546 88.0574 299.77 90.454 300.894 91.3527C302.691 92.7008 305.687 91.6523 306.885 93.1502C307.559 93.974 307.409 96.3706 308.083 97.7935C310.255 102.062 311.678 102.137 312.203 107.829L312.053 107.679ZM250.715 123.257C245.173 123.332 247.345 135.39 248.244 138.91C248.693 140.633 248.543 141.157 250.715 140.782V123.257ZM342.235 300.38L342.085 294.164L339.314 283.829C339.763 288.622 339.688 294.239 340.288 298.957C340.437 300.38 341.111 301.953 342.235 300.38ZM368.522 342.245C371.518 339.624 358.412 337.452 357.363 337.377C349.499 336.703 338.265 336.479 331.525 340.822C340.138 341.496 348.676 339.774 357.363 340.298C359.46 340.448 368.073 342.62 368.522 342.245ZM370.47 343.219C356.989 348.087 343.133 348.387 329.578 343.219L332.948 394.821C337.292 399.164 340.737 397.592 345.455 397.816C347.028 397.816 348.676 398.865 350.473 398.79C353.693 398.79 367.099 397.367 368.522 395.12L370.395 343.219H370.47Z" fill="#0A0C0C"/>
<path d="M250.715 123.257V140.782C248.543 141.157 248.768 140.633 248.244 138.91C247.27 135.39 245.098 123.407 250.715 123.257Z" fill="#F4F9F9"/>
<path d="M276.029 193.358C279.474 193.507 281.646 192.01 280.897 196.278C280.598 199.499 281.047 203.618 280.897 206.015C280.897 206.314 280.897 206.689 280.897 206.988C277.901 206.464 279.025 208.486 278.95 210.358C278.65 215.152 277.527 220.095 278.95 224.513C278.725 225.637 278.126 226.685 277.976 227.434C272.884 257.167 274.681 288.173 273.108 318.504C272.958 322.024 271.386 324.945 271.161 328.241C270.712 333.109 271.461 338.426 271.161 343.294L253.636 344.268L263.297 194.032C263.672 192.459 273.857 193.283 276.029 193.433V193.358Z" fill="#49746F"/>
<path d="M280.897 196.278C281.646 192.009 279.474 193.507 276.029 193.357L280.373 188.489C283.668 190.886 281.047 194.331 280.897 196.278Z" fill="#C3D973"/>
<path d="M252.662 154.413C254.535 149.919 251.913 143.928 251.689 139.285C251.464 134.941 253.187 111.125 255.059 108.653C256.782 106.331 261.125 108.803 263.821 108.653C267.341 108.578 269.438 106.032 272.584 105.657C276.329 105.133 279.1 106.406 282.395 106.706C285.091 106.931 290.484 104.759 292.356 109.327C292.88 110.675 295.052 116.891 295.277 118.09C295.876 121.385 295.277 124.755 295.501 128.051C300.22 128.425 301.493 122.883 306.211 126.628C311.454 130.822 306.66 144.602 300.444 146.175C297.823 146.849 297.449 143.553 296.026 145.576C295.951 156.51 295.277 160.105 285.541 165.198C277.677 169.317 268.39 169.167 260.826 164.224C258.13 162.501 258.055 159.581 254.684 160.105C254.16 158.083 253.336 156.285 252.737 154.263L252.662 154.413Z" fill="#F4F9F9"/>
<path d="M81.3813 203.094C82.4298 203.094 82.8791 206.014 84.3021 206.014C84.3021 203.917 81.9055 199.049 85.5753 199.349C89.994 199.723 102.202 210.733 107.669 211.856C105.796 206.613 84.377 198.151 83.3285 195.754C81.6059 191.635 89.1702 193.133 91.0425 195.305C91.5668 194.631 89.0953 192.009 91.0425 190.886C98.0076 186.617 117.555 203.543 123.172 207.962C123.846 203.992 119.951 203.393 117.779 201.221C112.237 195.454 113.96 189.313 121.15 193.957C124.295 195.979 135.904 206.164 138.15 209.085C144.591 217.548 141.071 223.24 144.516 232.302L129.313 241.888C127.965 242.113 112.162 232.302 109.766 230.654C107.669 229.156 91.9412 215.75 91.0425 216.799C89.2451 218.896 93.4391 218.971 94.3378 219.645C95.3114 220.394 94.8621 221.592 94.937 221.667L47.2299 222.641C46.7056 216.2 46.1065 210.658 46.2563 204.142C56.8911 201.97 68.2 203.243 78.9098 204.217C80.2579 204.367 81.1566 203.168 81.3064 203.168L81.3813 203.094Z" fill="#F4F9F9"/>
<path d="M261.425 376.322C261.275 376.696 261.724 377.595 261.275 378.044C260.826 378.494 259.852 378.044 259.478 378.269C259.627 378.194 258.654 377.82 261.425 376.322Z" fill="#F4F9F9"/>
<path d="M243.001 372.428V373.401C242.327 373.776 241.503 374.525 240.08 375.349C240.305 373.326 240.679 372.428 243.001 372.428Z" fill="#F4F9F9"/>
<path d="M275.055 346.14C282.994 345.99 290.858 346.14 298.797 345.091C300.519 349.21 301.493 353.105 304.264 356.85C304.713 357.449 305.312 357.823 305.238 358.797C302.092 359.77 297.449 360.669 294.528 361.718C294.678 355.202 280.223 354.528 277.976 356.85C275.055 359.92 284.342 357.748 285.241 357.748C294.902 357.748 293.404 363.74 284.792 362.691C284.492 364.638 287.338 362.541 286.739 365.088C286.589 365.837 285.391 365.912 284.792 366.586C283.069 368.533 283.144 368.907 280.897 369.507C277.527 370.405 269.214 370.855 269.214 374.375C264.645 374.974 265.244 374.225 261.425 376.322C261.949 374.749 262.998 374.674 261.425 373.401C260.077 372.278 258.879 372.577 257.605 371.828C256.782 371.379 256.782 369.581 255.883 369.432C253.486 368.907 245.922 371.978 241.953 369.432C241.803 369.282 240.23 369.956 239.93 368.832C239.631 367.709 240.53 361.942 240.979 361.643C241.353 361.343 247.944 365.612 247.794 358.722L248.768 357.748C248.768 358.422 248.768 359.021 248.768 359.696C248.993 361.493 249.966 363.066 251.689 361.643C251.913 361.418 251.539 359.471 251.689 358.722C251.988 358.722 252.363 358.722 252.662 358.722C253.112 360.969 251.09 362.467 250.715 364.564C249.966 365.013 248.543 365.537 248.768 366.511C254.16 366.661 257.156 361.568 262.399 360.669C262.249 358.347 257.68 361.193 256.557 361.643C255.284 358.872 253.187 357.599 256.557 355.801C261.874 357.973 266.817 351.832 272.734 351.008C277.227 350.409 279.924 351.008 283.818 352.88C282.095 345.99 279.549 349.585 276.329 349.735C275.58 349.735 275.13 348.986 275.055 348.986V346.065V346.14ZM275.055 353.929L270.487 354.678L264.346 358.797L275.055 353.929ZM277.003 359.77C276.478 357.898 275.655 357.973 274.082 358.198C272.509 358.422 254.909 364.713 257.53 367.559C263.597 364.189 270.187 361.418 277.003 359.77Z" fill="#F4F9F9"/>
<path d="M240.08 375.349C240.005 376.023 239.706 377.446 240.679 377.296C243.226 376.098 258.729 378.794 259.553 378.269C256.033 379.618 238.882 380.441 237.159 376.772C237.684 375.948 239.107 375.873 240.08 375.349Z" fill="#F4F9F9"/>
<path d="M294.528 361.718C294.528 361.718 293.854 362.991 292.88 363.44C290.259 364.564 287.563 365.837 284.792 366.586C285.391 365.912 286.589 365.912 286.739 365.088C287.338 362.542 284.492 364.564 284.792 362.691C293.479 363.74 294.902 357.748 285.241 357.748C284.267 357.748 274.981 359.92 277.976 356.85C280.223 354.453 294.678 355.202 294.528 361.718Z" fill="#0A0C0C"/>
<path d="M242.027 369.507C245.997 371.978 253.561 368.907 255.958 369.507C256.856 369.731 256.856 371.454 257.68 371.903C258.953 372.652 260.227 372.353 261.5 373.476C260.526 375.423 258.279 374.075 256.856 373.776C251.539 372.652 247.869 370.705 243.001 373.476V372.502C242.851 371.604 242.627 370.256 242.027 369.582V369.507Z" fill="#0A0C0C"/>
<path d="M107.669 194.331C108.642 194.855 111.938 196.877 112.537 196.278C112.537 194.481 112.836 192.459 114.484 191.41C115.383 191.41 118.004 190.436 120.326 190.436C124.52 195.829 132.384 199.499 136.877 204.067C138.675 205.939 140.996 209.459 142.27 211.781C144.217 215.376 144.441 221.367 149.534 222.491C149.534 223.165 149.534 223.764 149.534 224.438C148.86 223.989 147.138 223.09 146.089 222.491C144.891 221.817 144.067 221.068 143.693 222.94C143.543 223.689 145.415 229.081 145.64 229.231C147.662 230.729 149.459 226.31 149.534 224.363C154.402 227.658 168.857 246.756 171.403 246.756C175.372 239.492 178.518 231.553 182.637 224.363C186.007 218.372 189.977 211.182 194.32 205.865C194.845 205.265 197.241 201.97 198.215 202.944C198.514 203.243 194.845 208.935 194.32 209.759C190.501 215.9 172.526 243.91 172.901 249.153C172.901 250.126 173.725 250.276 173.875 250.651C177.095 256.567 183.461 260.836 186.606 266.678C187.056 267.577 188.404 269.449 187.056 270.123C181.963 264.057 176.496 257.691 172.601 250.95L151.032 230.055C140.921 235.073 132.533 244.21 121.299 247.655C118.753 246.756 119.652 244.659 119.352 242.787C119.128 241.439 119.876 239.267 119.128 238.144C118.678 237.395 106.77 230.804 104.448 229.007C101.602 226.835 97.708 223.764 95.0119 221.367C94.937 221.293 95.3863 220.094 94.4127 219.345C93.514 218.671 89.32 218.596 91.1174 216.499C92.0161 215.451 107.744 228.857 109.841 230.355C112.237 232.002 128.04 241.813 129.388 241.589L144.591 232.002C141.146 223.015 144.591 217.323 138.225 208.785C135.979 205.865 124.37 195.679 121.225 193.657C113.96 189.014 112.237 195.23 117.854 200.922C119.951 203.093 123.921 203.767 123.247 207.662C117.63 203.243 98.0825 186.317 91.1174 190.586C89.2451 191.71 91.6417 194.331 91.1174 195.005C89.1702 192.833 81.606 191.335 83.4034 195.454C84.4519 197.851 105.871 206.314 107.744 211.556C102.277 210.433 90.0689 199.424 85.6502 199.049C81.9804 198.75 84.3021 203.618 84.377 205.715C82.954 205.715 82.5047 202.794 81.4562 202.794C83.0289 198.825 81.0068 195.604 82.4298 192.084C82.5796 191.635 83.5532 191.036 83.4034 190.137C92.3906 191.485 87.6723 189.463 90.8178 188.339C96.7344 186.242 102.951 191.485 107.744 194.031L107.669 194.331ZM126.168 242.038C126.168 242.038 121.524 239.791 121.299 240.091V245.932C121.749 246.382 127.59 243.686 126.168 242.038Z" fill="#0A0C0C"/>
<path d="M284.792 181.674C283.593 182.797 279.25 184.145 278.426 185.568C277.602 187.066 278.575 189.613 277.377 190.511C276.179 191.41 264.945 190.661 264.421 190.287C262.249 188.789 257.68 169.691 259.403 166.096C267.267 172.013 275.13 172.986 284.492 170.29C288.237 169.167 290.858 167.145 294.453 166.096C296.7 168.643 286.964 179.652 284.717 181.674H284.792Z" fill="#F4F9F9"/>
<path d="M275.055 346.14V349.061C268.39 349.885 262.398 352.731 256.557 355.876C253.187 357.673 255.284 358.947 256.557 361.718C254.984 362.392 252.213 363.815 250.715 364.639C251.09 362.542 253.112 361.044 252.662 358.797C252.363 358.797 251.988 358.797 251.689 358.797C251.539 359.546 251.913 361.493 251.689 361.718C249.966 363.141 248.993 361.568 248.768 359.77C249.667 359.246 250.64 358.797 251.689 358.797C252.587 354.977 255.658 355.726 256.407 353.255C256.931 351.532 256.257 346.439 256.557 346.14C257.231 345.466 272.284 346.14 275.055 346.14Z" fill="#F4F9F9"/>
<path d="M275.055 349.061C275.055 349.061 275.58 349.81 276.329 349.81C279.549 349.66 282.095 346.065 283.818 352.955C279.849 351.083 277.227 350.484 272.734 351.083C266.892 351.907 261.949 358.048 256.557 355.876C262.399 352.73 268.39 349.884 275.055 349.061Z" fill="#0A0C0C"/>
<path d="M277.003 359.771C270.187 361.418 263.597 364.189 257.53 367.56C254.909 364.789 272.359 358.423 274.082 358.198C275.804 357.973 276.478 357.898 277.003 359.771Z" fill="#0A0C0C"/>
<path d="M256.557 361.718C257.68 361.268 262.249 358.423 262.399 360.744C257.156 361.643 254.16 366.736 248.768 366.586C248.543 365.612 249.966 365.088 250.715 364.639C252.213 363.815 254.984 362.392 256.557 361.718Z" fill="#0A0C0C"/>
<path d="M275.055 353.929L264.346 358.797L270.487 354.678L275.055 353.929Z" fill="#0A0C0C"/>
<path d="M257.53 168.044C257.605 171.039 257.231 174.26 257.605 177.181C258.13 181.075 262.324 186.767 261.275 189.763C260.601 191.635 243.975 201.446 240.979 203.094C238.208 193.732 240.904 184.295 244.873 175.832C251.239 175.084 250.416 167.744 257.53 168.044Z" fill="#7D8C45"/>
<path d="M284.792 181.674C286.964 180.251 289.435 179.128 291.607 176.357C294.378 172.837 296.7 167.744 298.347 163.55C316.172 167.894 306.66 190.961 297.449 200.622C295.951 201.221 289.435 192.384 285.765 192.309C287.937 194.93 295.052 204.067 298.422 202.569C304.563 199.798 311.154 181.524 311.079 174.784C313.85 176.881 317.146 176.806 320.066 177.78C325.459 179.577 337.292 184.595 343.134 188.04C359.985 198.076 369.796 223.989 375.637 242.188C382.902 264.806 392.189 301.204 381.104 323.073C377.959 329.214 373.54 333.408 367.923 337.153C354.892 334.531 340.213 333.483 327.855 339.399C327.106 345.765 328.679 352.506 326.732 358.722C323.886 358.422 307.185 358.198 305.312 358.722C305.387 357.748 304.788 357.374 304.339 356.775C302.766 349.21 300.07 341.197 296.55 334.382C297.673 334.307 303.14 331.685 303.29 331.386C303.515 331.086 302.017 329.064 302.392 328.54C302.466 328.39 304.563 328.016 305.612 327.416C307.634 326.143 308.683 324.795 310.18 323.672C313.85 322.623 319.692 320.901 320.89 316.856C321.489 316.482 322.238 316.257 322.837 315.883C326.957 313.187 330.477 310.94 334.521 308.094C336.094 306.971 336.768 305.473 339.164 305.772C339.988 303.226 345.081 302.552 345.305 299.781C345.455 298.133 344.257 291.543 343.882 289.371C342.085 278.886 338.415 267.801 337.517 256.867C336.992 250.501 337.891 243.761 337.442 237.47C337.367 236.421 337.442 233.201 335.944 233.126C333.922 233.126 335.12 236.047 335.195 236.796C335.869 250.651 336.318 263.682 337.442 277.388C338.116 285.476 338.116 293.565 339.464 301.578C335.794 303.675 331.9 305.697 328.454 308.094C322.912 311.914 306.96 321.799 302.991 325.694C301.493 327.192 301.418 329.139 300.444 329.963C299.246 331.011 293.03 331.985 292.655 332.434L298.497 341.646C298.497 342.545 291.981 344.043 291.232 344.043H272.284L278.126 227.284C278.276 226.535 278.875 225.487 279.1 224.363C280.373 217.698 280.672 213.504 281.047 206.838C281.047 206.539 281.047 206.164 281.047 205.865C283.518 202.869 280.897 192.159 285.915 192.234C285.615 191.859 285.615 190.362 284.567 189.238C283.369 187.89 281.197 187.516 281.047 187.366C279.699 185.568 282.844 185.119 284.043 184.071C284.792 183.322 284.792 181.674 284.941 181.599L284.792 181.674ZM290.633 200.173C284.192 198.6 284.717 206.389 289.135 205.041C290.783 204.516 290.783 201.596 290.633 200.173ZM280.897 229.381C280.897 229.381 280.672 233.95 281.796 234.773C284.492 236.796 288.611 231.778 285.765 229.83C284.941 229.306 281.122 229.081 280.897 229.381ZM330.551 238.144L296.475 237.17V248.853L328.155 250.576C330.701 250.127 328.904 240.84 330.551 238.144ZM284.567 269.524C284.567 267.801 283.144 266.378 281.421 266.378C279.699 266.378 278.276 267.801 278.276 269.524C278.276 271.246 279.699 272.669 281.421 272.669C283.144 272.669 284.567 271.246 284.567 269.524ZM283.518 294.538C283.518 292.965 282.245 291.617 280.598 291.617C278.95 291.617 277.677 292.891 277.677 294.538C277.677 296.186 278.95 297.459 280.598 297.459C282.245 297.459 283.518 296.186 283.518 294.538ZM282.844 319.777C282.844 318.13 281.496 316.782 279.849 316.782C278.201 316.782 276.853 318.13 276.853 319.777C276.853 321.425 278.201 322.773 279.849 322.773C281.496 322.773 282.844 321.425 282.844 319.777ZM313.026 354.902C311.229 347.713 308.608 339.175 303.815 333.483C305.912 340.523 308.608 349.136 313.026 354.902Z" fill="#7D8C45"/>
<path d="M208.925 190.437L199.713 200.173C199.263 195.679 204.731 193.282 206.977 190.437C207.651 190.437 208.325 190.437 208.925 190.437Z" fill="#0A0C0C"/>
<path d="M234.239 181.674C234.239 181.674 235.287 181.974 235.961 181.45C236.485 181 236.935 178.828 237.684 178.753C237.833 178.753 240.005 179.577 240.155 179.727C240.904 180.626 238.508 185.419 238.283 187.141C237.908 190.437 237.159 209.46 244.05 204.442C245.847 203.169 248.768 200.398 250.64 199.274C253.486 197.552 256.856 196.278 259.627 194.331C258.055 246.682 253.112 298.807 250.865 351.008C254.834 351.982 250.865 345.316 254.759 347.638C254.31 351.757 251.839 356.026 247.42 356.85C240.005 358.198 211.995 357.674 203.607 356.925C202.783 356.85 201.885 356.925 201.211 356.4C199.638 355.277 201.211 354.977 201.211 354.903V310.116C201.585 300.605 202.409 290.944 203.158 281.432C203.457 277.912 205.03 273.419 204.88 269.974C204.88 269.225 204.356 267.053 203.158 267.352L201.061 293.939L198.29 295.587C199.488 288.622 199.413 280.833 200.462 273.943C201.66 266.079 204.206 253.572 206.977 247.206L209.898 221.592C207.951 221.293 207.352 222.341 207.052 224.064C202.184 248.404 198.964 273.194 196.118 297.834C195.219 300.68 188.479 302.327 185.783 303.076C184.135 303.601 182.113 302.402 182.712 305.323C181.214 305.398 179.342 305.473 177.844 305.323L169.755 301.204C168.183 298.807 166.76 298.807 164.213 297.534C163.614 297.235 162.641 296.411 162.341 296.636C161.967 296.935 162.715 298.583 161.742 298.508C159.27 294.014 154.927 291.318 151.481 287.798C152.23 283.829 148.336 283.305 146.913 281.657C145.19 279.56 144.217 274.542 139.798 274.168C137.027 270.423 135.679 268.401 133.357 264.506C132.459 263.008 130.212 261.286 130.062 259.563C130.062 259.339 132.908 256.193 129.088 258.59C128.04 257.242 129.088 254.021 129.013 253.797C128.789 253.497 126.767 253.272 125.868 252.598C124.52 251.55 122.648 249.153 121.374 248.854V247.88C132.533 244.36 140.996 235.298 151.107 230.28L172.676 251.175C176.571 257.916 182.038 264.282 187.131 270.348C188.479 269.674 187.131 267.802 186.681 266.903C183.611 261.061 177.245 256.867 173.949 250.876L194.395 210.958L210.048 194.032C217.238 188.34 226.225 185.793 234.313 181.749L234.239 181.674ZM130.062 252.748C138.525 249.078 146.613 242.862 153.429 236.721C144.741 240.016 136.802 246.532 130.062 252.748Z" fill="#7D8C45"/>
<path d="M121.299 248.854C122.573 249.228 124.445 251.625 125.793 252.598C126.692 253.272 128.714 253.497 128.939 253.797C129.088 253.946 127.965 257.242 129.013 258.59C132.833 256.193 129.987 259.339 129.987 259.563C127.291 260.088 127.141 258.665 125.868 257.391C123.696 255.219 119.802 251.25 118.304 248.854C119.202 249.003 120.476 248.629 121.225 248.854H121.299Z" fill="#0A0C0C"/>
<path d="M201.136 354.902C200.986 340.223 200.611 324.72 201.136 310.116V354.902Z" fill="#F4F9F9"/>
<path d="M342.235 300.38C341.111 301.878 340.437 300.38 340.288 298.957C339.763 294.239 339.838 288.622 339.314 283.829L342.085 294.164L342.235 300.38Z" fill="#C3D973"/>
<path d="M320.815 316.932C319.692 320.976 313.775 322.698 310.106 323.747C313.626 321.126 317.146 319.253 320.815 316.932Z" fill="#F4F9F9"/>
<path d="M334.446 308.169C330.402 311.015 326.882 313.262 322.763 315.958C322.313 313.786 323.961 313.861 325.159 313.037C327.855 311.165 331.076 308.319 334.446 308.169Z" fill="#F4F9F9"/>
<path d="M330.551 238.144C328.904 240.765 330.701 250.126 328.155 250.576L296.475 248.853V237.17L330.551 238.144ZM327.631 240.091L298.422 239.117C298.722 240.615 297.973 246.382 298.422 246.831C300.295 248.778 323.287 247.43 327.556 247.88V240.091H327.631Z" fill="#0A0C0C"/>
<path d="M313.026 354.902C308.533 349.211 305.912 340.523 303.815 333.483C308.608 339.175 311.229 347.713 313.026 354.902Z" fill="#0A0C0C"/>
<path d="M280.897 206.988C280.523 213.653 280.223 217.848 278.95 224.513C277.527 220.094 278.65 215.151 278.95 210.358C279.025 208.486 277.901 206.464 280.897 206.988Z" fill="#0A0C0C"/>
<path d="M281.421 272.669C283.159 272.669 284.567 271.261 284.567 269.524C284.567 267.787 283.159 266.378 281.421 266.378C279.684 266.378 278.276 267.787 278.276 269.524C278.276 271.261 279.684 272.669 281.421 272.669Z" fill="#0A0C0C"/>
<path d="M280.897 229.381C280.897 229.381 284.941 229.306 285.765 229.831C288.611 231.703 284.567 236.721 281.796 234.773C280.672 233.95 280.598 229.681 280.897 229.381Z" fill="#0A0C0C"/>
<path d="M279.774 322.773C281.428 322.773 282.769 321.432 282.769 319.777C282.769 318.123 281.428 316.782 279.774 316.782C278.119 316.782 276.778 318.123 276.778 319.777C276.778 321.432 278.119 322.773 279.774 322.773Z" fill="#0A0C0C"/>
<path d="M280.598 297.459C282.211 297.459 283.518 296.152 283.518 294.539C283.518 292.925 282.211 291.618 280.598 291.618C278.984 291.618 277.677 292.925 277.677 294.539C277.677 296.152 278.984 297.459 280.598 297.459Z" fill="#0A0C0C"/>
<path d="M290.633 200.173C290.783 201.596 290.783 204.517 289.135 205.041C284.717 206.389 284.192 198.6 290.633 200.173Z" fill="#0A0C0C"/>
<path d="M194.32 210.883L173.875 250.801C173.875 250.801 172.976 250.277 172.901 249.303C172.527 244.061 190.501 216.05 194.32 209.909V210.883Z" fill="#F4F9F9"/>
<path d="M149.534 224.513C149.459 226.46 147.662 230.879 145.64 229.381C145.34 229.156 143.543 223.839 143.693 223.09C144.067 221.218 144.966 221.967 146.089 222.641C147.138 223.24 148.86 224.139 149.534 224.588V224.513Z" fill="#F4F9F9"/>
<path d="M126.168 242.038C127.59 243.686 121.749 246.382 121.299 245.932V240.091C121.299 240.091 126.018 241.888 126.168 242.038Z" fill="#F4F9F9"/>
<path d="M130.062 252.748C136.727 246.457 144.741 239.941 153.429 236.721C146.613 242.862 138.525 249.078 130.062 252.748Z" fill="#0A0C0C"/>
<path d="M327.631 240.091V247.88C323.362 247.43 300.369 248.778 298.497 246.831C297.973 246.307 298.722 240.615 298.497 239.117L327.705 240.091H327.631Z" fill="#49746F"/>
</g>
<defs>
<clipPath id="clip0_573_8055">
<rect width="498.49" height="474" fill="white" transform="translate(0.42157 -12)"/>
</clipPath>
</defs>
</svg>
