<svg width="351" height="439" viewBox="0 0 351 439" fill="none" xmlns="http://www.w3.org/2000/svg">
<g clip-path="url(#clip0_573_7977)">
<path opacity="0.56" d="M101.771 169.852C104.159 176.668 116.229 179.186 117.228 180.75C117.835 181.705 118.053 200.331 118.356 203.501C118.964 209.796 119.659 221.085 121.265 226.686C121.83 228.64 126.693 228.032 127.083 228.423C127.474 228.857 126.823 232.287 127.17 233.72C127.387 234.588 128.082 235.109 128.126 235.196C128.169 235.5 128.082 235.847 128.126 236.151C124.913 250.305 127.691 265.024 123.74 279.048L98.6881 337.402L0.346176 337.576V199.115C11.4612 201.851 23.488 200.809 34.6899 198.855C50.3204 196.119 77.5869 183.615 91.2202 175.626C94.0858 173.933 97.1684 170.025 101.771 169.852Z" fill="#EA5A4C"/>
<path d="M57.8751 362.932C56.7897 371.876 69.4677 371.919 74.8516 374.655C76.2409 375.349 74.4608 377.52 74.4608 378.562C73.7227 379.257 73.2017 380.69 72.507 381.471C66.6021 382.513 54.6622 386.464 48.106 388.288C46.0654 388.852 43.7642 389.069 41.6802 390.155C40.9421 390.546 38.5541 390.502 40.2908 392.195C41.767 393.628 54.7924 392.499 54.9227 398.057C51.3624 399.663 48.0626 402.008 44.1984 402.963L46.7167 404.917C57.1804 404.135 67.8613 403.007 78.325 402.963C91.9149 402.92 106.72 406.393 120.701 406.914C127.952 407.175 142.193 407.609 148.879 405.916C149.965 405.655 149.444 404.005 149.531 403.962C155.566 399.533 171.587 392.369 179.75 387.376C179.142 390.849 182.919 388.852 184.916 389.33C187.044 389.851 194.121 394.019 197.812 394.236C198.94 394.323 208.709 394.149 209.274 394.019C212.357 393.151 213.355 386.464 217.784 391.24C216.959 392.065 212.574 396.754 212.4 397.145C211.662 398.752 213.051 400.315 212.921 401.009C210.272 413.731 188.086 430.23 178.794 439.044H0.346176V374.698C19.3199 369.922 38.6843 366.752 57.8751 362.975V362.932Z" fill="#EA5A4C"/>
<path opacity="0.56" d="M212.921 400.966C215.309 400.966 215.917 402.485 217.002 404.179C226.163 418.29 213.876 428.102 203.543 436.004C202.37 436.873 200.721 436.873 201.198 438.957H178.751C188.042 430.143 210.272 413.644 212.878 400.922L212.921 400.966Z" fill="#EA5A4C"/>
<path d="M232.459 376.565C227.292 379.995 224.427 385.422 220.389 389.851C219.564 390.719 218.218 390.849 217.827 391.197C213.442 386.421 212.4 393.107 209.317 393.975C208.753 394.149 198.984 394.279 197.855 394.192C194.208 393.975 187.131 389.807 184.96 389.286C182.919 388.765 179.185 390.762 179.793 387.332C180.531 386.855 181.313 386.638 181.747 386.377C183.136 386.29 184.265 385.856 184.656 384.423C191.82 379.951 198.897 375.219 206.104 370.79C206.539 372.266 209.361 377.997 210.663 378.432C213.529 379.387 226.163 376.521 230.245 376C231.33 375.87 232.242 376.651 232.459 376.651V376.565Z" fill="#EA5A4C"/>
<path opacity="0.56" d="M92.0017 371.702C91.9583 375.87 100.555 374.698 103.247 374.611C105.114 374.567 107.155 375.609 106.634 372.657C112.886 373.004 119.92 377.52 128.082 377.52C128.647 380.299 126.736 379.343 124.999 379.778C122.438 380.385 114.84 382.426 112.973 382.426H82.7536C80.2788 382.426 76.3712 380.776 72.507 381.471C73.2017 380.646 73.7227 379.213 74.4608 378.562C75.1989 377.911 76.5014 377.303 77.3698 376.608C77.7172 376.347 78.0211 375.957 78.325 375.653C79.9749 374.828 85.8363 372.006 87.0955 371.745C88.2677 371.485 90.6123 371.702 91.9583 371.745L92.0017 371.702Z" fill="#EA5A4C"/>
<path d="M86.1837 357.07C85.4456 360.544 86.0534 368.185 87.1389 371.702C85.8797 371.963 80.0183 374.785 78.3684 375.61C77.9777 375.783 77.6737 376.261 77.4132 376.565C76.5014 377.26 75.2423 377.824 74.5042 378.519C74.5042 377.477 76.2844 375.306 74.895 374.611C69.5111 371.919 56.8331 371.876 57.9185 362.888C67.2968 361.021 76.6751 358.416 86.1837 357.027V357.07Z" fill="#EA5A4C"/>
<path opacity="0.56" d="M149.574 403.875C149.574 403.875 150.008 405.568 148.923 405.828C142.28 407.522 128.039 407.088 120.744 406.827C106.764 406.306 91.9149 402.833 78.3684 402.876C79.367 401.27 82.059 401.921 83.7089 401.877C95.4317 401.747 107.155 402.051 118.877 401.877L149.574 403.875Z" fill="#EA5A4C"/>
<path opacity="0.56" d="M48.1495 388.288C50.7111 391.24 67.1666 389.72 61.7827 395.582C60.046 397.492 56.5726 397.319 54.9661 398.013C54.8358 392.456 41.8104 393.585 40.3342 392.152C38.5975 390.458 40.9855 390.502 41.7236 390.111C43.7642 389.026 46.0654 388.809 48.1495 388.244V388.288Z" fill="#EA5A4C"/>
<path opacity="0.56" d="M205.149 347.301C204.802 347.345 203.803 349.125 202.197 347.866C200.851 346.824 199.896 339.833 197.811 337.489C196.683 336.23 196.205 337.576 195.901 337.576H124.218L153.959 288.817C157.823 277.832 159.864 266.24 161.297 254.69L174.149 278.397C182.007 293.723 185.437 315.736 193.296 330.455C193.774 331.367 194.251 332.582 195.424 332.713L191.516 318.081C195.033 326.764 198.419 335.578 201.849 344.349C202.37 345.695 203.239 347.822 205.149 347.345V347.301Z" fill="#EA5A4C"/>
<path d="M198.333 218.61C197.725 220.955 199.548 223.082 195.424 223.473C195.206 224.211 195.424 225.036 194.468 225.427C194.381 225.036 193.687 224.341 193.513 223.473C194.164 223.473 194.816 223.516 195.467 223.473C195.901 221.866 196.379 220.26 196.422 218.61C196.987 218.74 197.768 218.523 198.376 218.61H198.333Z" fill="#49746F"/>
<path opacity="0.56" d="M385.551 162.036C385.551 171.458 385.551 180.923 385.551 190.301C380.819 192.168 367.489 191.517 373.264 184.353C375.522 181.531 380.688 181.053 382.599 177.623C372.395 178.144 344.217 181.965 340.136 168.896C334.709 151.616 362.366 162.383 370.442 162.991C375.478 163.339 380.601 163.078 385.551 162.036Z" fill="#EA5A4C"/>
<path opacity="0.56" d="M385.551 137.635C385.551 145.103 385.551 152.614 385.551 160.082L344.304 153.048C337.227 145.537 344.434 140.023 352.163 137.939C363.365 134.987 374.219 137.939 385.508 137.635H385.551Z" fill="#EA5A4C"/>
<path opacity="0.56" d="M281.218 327.806C280.089 337.575 268.192 333.234 262.027 333.06C259.422 332.973 256.513 333.841 253.387 333.711C245.571 333.364 233.327 330.672 226.077 331.627C223.906 331.931 224.904 333.451 223.689 334.623C223.689 334.059 222.864 332.148 222.733 330.715C222.647 329.76 222.864 328.718 222.733 327.806C242.185 328.284 261.81 327.155 281.261 327.806H281.218Z" fill="#EA5A4C"/>
<path d="M295.869 327.666L295.434 330.586L309.476 332.68L309.912 329.76L295.869 327.666Z" fill="#0A0C0C"/>
<path d="M298.759 176.668C302.319 177.276 304.359 177.059 304.62 181.531C303.1 181.922 303.882 180.055 303.013 179.577C301.016 178.405 296.935 177.623 295.849 180.576C295.415 179.881 294.156 182.529 293.896 176.668C295.719 175.843 297.022 176.364 298.759 176.668Z" fill="#2AB5B8"/>
<path opacity="0.56" d="M295.849 195.208C298.411 194.209 300.929 193.732 303.665 193.254L296.848 197.162C296.457 196.684 296.24 195.772 295.893 195.208H295.849Z" fill="#EA5A4C"/>
<path d="M232.459 123.003L225.165 130.819L216.829 134.683V9.89941H333.363C333.363 9.89941 334.882 11.202 334.839 11.8532C332.798 11.9401 330.671 11.6361 328.587 11.9835C316.256 13.9807 304.099 16.8463 292.159 19.4514C289.641 20.0158 282.173 19.6685 281.304 22.2301V145.06C280.914 147.969 277.267 144.93 281.304 148.837L281.218 327.85C261.766 327.199 242.185 328.327 222.69 327.85C221.388 319.427 218.696 311.308 216.829 302.971V171.328C223.254 164.077 229.767 156.305 236.28 148.837C239.623 145.016 239.753 148.099 241.23 141.586C241.316 141.282 241.143 140.935 241.23 140.631C241.273 140.458 241.968 140.023 242.141 139.112C242.315 138.07 241.23 136.55 241.664 135.725C242.836 133.554 255.644 130.819 255.818 126.043V125.088C261.419 123.264 255.948 120.008 255.818 119.53C255.471 118.054 256.122 113.669 255.818 113.365C255.514 113.104 253.56 113.669 252.649 113.365C250.782 112.67 251.085 108.675 246.049 113.365C245.094 114.276 244.312 115.232 243.14 116.274C243.444 111.975 241.62 116.925 239.015 116.143C236.975 115.536 235.151 112.54 232.85 117.359C232.242 118.662 233.414 119.139 233.414 119.226C233.154 120.442 232.459 122.092 232.459 123.134V123.003Z" fill="#2AB5B8"/>
<path d="M181.747 386.334C182.702 385.769 183.657 385.031 184.656 384.38C184.265 385.813 183.136 386.247 181.747 386.334Z" fill="#2AB5B8"/>
<path d="M77.3698 376.565C77.6736 376.261 77.9773 375.784 78.3244 375.61C78.0207 375.957 77.7169 376.305 77.3698 376.565Z" fill="#2AB5B8"/>
<path d="M394.322 70.3805C394.235 51.32 394.365 32.216 394.408 13.3292C394.408 9.89914 392.498 5.90468 393.323 2.12731C390.284 2.77858 361.584 9.16103 361.15 7.46773C360.586 5.34024 362.93 6.03493 364.233 5.73101C368.097 4.81923 394.148 -0.955376 395.277 0.173494C395.494 21.1444 394.973 42.1588 395.233 63.1297C395.233 65.5611 396.232 67.7754 396.232 70.4239C396.319 75.2867 396.145 80.193 396.232 85.0558C395.06 86.011 395.06 87.0096 396.232 87.9648C396.275 91.8724 396.232 95.7801 396.232 99.6877C395.06 100.643 395.06 101.641 396.232 102.597V118.184C393.323 142.715 396.449 178.101 396.232 204.021C396.189 211.489 396.275 219.001 396.232 226.468C394.582 228.292 394.582 233.415 396.232 235.239C396.232 237.193 396.232 239.146 396.232 241.1C396.232 241.317 395.277 242.707 395.277 245.008C395.277 247.309 395.277 249.567 395.277 251.825C395.19 264.807 395.277 277.832 395.277 290.814C395.277 293.419 395.277 296.024 395.277 298.629C395.277 309.571 393.974 324.984 395.277 335.274C395.407 336.229 394.929 337.532 396.275 337.662H499.654V339.616H397.274C396.275 339.746 395.754 339.269 395.32 340.571C395.19 341.005 395.32 341.917 395.32 342.525C395.19 344.783 395.45 347.084 395.32 349.342H394.365C394.365 348.213 394.191 347.257 393.366 346.432C391.456 344.522 387.158 345.781 384.205 345.347C360.89 341.917 337.748 336.924 314.346 333.754C314.519 332.408 319.599 332.061 320.554 332.105C321.51 332.148 322.552 333.364 323.724 333.451C338.182 334.927 353.465 337.488 368.227 339.833C373.611 340.701 379.473 343.393 385.508 342.525C385.508 298.021 385.508 253.431 385.508 208.928C385.508 204.716 385.508 200.461 385.508 196.249C385.508 194.296 385.508 192.342 385.508 190.388C385.508 180.966 385.508 171.501 385.508 162.123C385.508 161.472 385.508 160.82 385.508 160.169C385.508 152.701 385.508 145.19 385.508 137.722C385.508 97.7339 385.508 57.7458 385.508 17.7578L294.851 33.4317L293.809 40.6825C295.415 85.6637 291.768 131.947 293.809 176.755C294.069 182.616 295.328 179.968 295.763 180.662C297.326 183.224 291.942 186.871 302.579 185.525C303.013 181.097 299.497 180.185 295.763 180.662C296.805 177.71 300.929 178.491 302.927 179.664C303.795 180.141 303.013 182.008 304.533 181.618C304.273 177.102 302.275 177.363 298.672 176.755C315.084 170.025 306.096 208.624 296.718 197.248L303.534 193.34C300.843 193.775 298.324 194.296 295.719 195.294C295.328 195.425 294.46 194.99 293.896 195.381L293.765 328.892C289.38 329.543 285.255 328.067 281.087 327.893L281.174 148.88C277.18 144.973 280.827 148.012 281.174 145.103V22.2299C282.086 19.6248 289.554 19.9721 292.072 19.4511C304.012 16.846 316.169 13.9804 328.5 11.9832C330.54 11.6359 332.668 11.9832 334.752 11.853C334.839 11.2451 333.449 9.89914 333.276 9.89914H216.742V134.726L225.078 130.862L232.372 123.047C232.329 124.61 232.025 126.477 232.85 127.909C233.067 128.3 239.363 133.51 239.797 133.597C240.969 133.814 247.873 130.818 249.305 129.95C250.347 129.342 249.826 127.996 249.913 127.953C250.26 127.736 251.78 128.43 252.605 127.692C253.083 127.302 252.735 126.086 252.822 125.999C253.734 125.869 254.819 126.086 255.731 125.999C255.514 130.818 242.706 133.51 241.577 135.681C241.143 136.506 242.228 138.026 242.054 139.068C241.881 139.98 241.186 140.414 241.143 140.588C238.277 137.765 233.805 125.782 228.595 129.038C224.818 131.383 232.242 136.723 233.762 138.721C235.846 141.499 235.281 145.494 239.189 144.495C237.322 141.847 239.406 142.628 241.143 141.586C239.666 148.142 239.536 145.06 236.193 148.837C229.68 156.305 223.168 164.077 216.785 171.327V302.971C218.609 311.264 221.344 319.383 222.603 327.85C222.733 328.761 222.516 329.847 222.603 330.759C220.606 330.151 220.78 328.284 220.345 326.677C211.054 293.506 203.499 258.641 191.429 226.382C190.648 224.298 191.386 219.739 188.042 219.522L148.532 225.426C148.098 229.074 151.137 231.852 152.44 234.197C154.263 237.54 156.391 240.666 158.301 243.966C160.211 247.266 162.078 250.262 164.162 253.735C166.898 258.989 169.59 264.112 171.978 269.322C174.713 275.444 177.231 281.653 179.793 287.862C183.918 297.848 187.435 308.094 191.516 318.081L195.423 332.712C194.251 332.626 193.774 331.366 193.296 330.455C185.437 315.779 182.007 293.723 174.149 278.396L161.297 254.69C159.908 266.239 157.823 277.832 153.959 288.817L124.218 337.575H195.901C196.248 337.575 196.726 336.229 197.811 337.488C199.852 339.833 200.851 346.867 202.197 347.865C203.847 349.124 204.802 347.344 205.149 347.301C211.445 346.346 216.525 344.001 222.733 342.959L223.602 341.83C222.777 340.05 223.689 337.315 223.645 336.577C226.467 336.012 225.425 337.966 225.86 339.659C226.598 342.481 227.64 345.304 227.553 348.256C224.383 349.168 226.207 344.913 224.079 344.392C223.645 344.305 217.219 346.389 215.83 346.823C214.224 347.301 212.357 346.606 212.921 349.211C210.099 349.559 208.058 350.514 205.106 349.211C203.239 360.543 213.008 354.335 219.738 354.074L217.784 349.211C217.784 349.211 217.567 347.475 217.784 347.257C220.042 345.347 219.39 349.341 219.955 349.949C220.259 350.297 223.949 351.339 225.599 354.074C224.427 353.814 223.298 352.598 221.691 353.119C222.299 355.681 223.211 357.461 221.691 359.936H227.553C228.074 359.415 226.12 354.986 225.599 354.074C228.855 354.856 234.022 356.766 236.801 357.027C243.878 357.765 254.733 352.424 253.821 366.188C253.387 373.221 243.4 372.57 238.972 373.569C238.624 373.656 236.323 376 232.416 376.478C232.199 376.478 231.287 375.696 230.201 375.827C226.12 376.348 213.485 379.213 210.62 378.258C209.317 377.824 206.539 372.093 206.061 370.616C204.585 365.71 204.845 355.594 203.152 351.773C202.631 350.601 200.851 351.556 200.113 350.557C198.984 349.038 197.551 340.875 197.16 340.528L122.655 340.441C115.968 345.477 111.236 352.164 117.792 359.892C123.132 366.188 140.586 358.807 141.455 368.359C142.063 375.045 133.249 377.476 127.995 377.476C119.833 377.476 112.799 372.961 106.547 372.614C101.901 372.353 96.7343 371.832 91.9149 371.658C90.5255 371.615 88.2243 371.398 87.052 371.658C85.9232 368.142 85.3153 360.5 86.0968 357.027C86.4008 355.637 88.7887 353.162 90.0045 352.164C86.0968 364.104 89.1795 360.543 98.1671 364.972C108.848 370.269 115.317 374.828 128.039 374.567C133.77 374.481 134.03 375.436 136.809 370.66C137.113 370.095 139.588 369.574 138.676 367.36C137.504 363.409 125.52 365.146 122.177 364.798C122.785 366.101 124.913 368.055 126.085 368.706L124.131 369.661C119.702 366.839 112.365 364.842 109.065 359.805C108.457 358.893 108.587 357.113 108.501 356.983C108.24 356.723 106.026 357.938 104.593 357.548C101.597 356.766 96.6908 351.339 93.2174 350.253C93.0437 350.21 90.1347 351.99 89.961 352.12C90.6991 349.949 91.0899 346.042 93.8687 346.259C92.1754 348.82 99.5564 352.207 101.163 352.164C101.51 352.164 102.422 348.517 106.547 350.166V347.257C107.459 347.692 116.099 350.948 112.886 347.257C111.844 346.085 100.208 340.918 99.6867 341.439C98.2539 342.785 105.635 346.867 106.503 347.301C102.205 348.907 101.293 344.522 98.0368 344.609C97.6026 344.609 93.9555 346.129 93.8252 346.302L97.7329 340.441L89.44 339.486H0.346176V337.532L98.6881 337.358L123.74 279.004C127.691 264.98 124.913 250.262 128.126 236.107C130.6 248.395 127.214 275.878 125.13 289.207C124.522 293.072 122.481 295.329 118.877 296.589C112.408 310.569 105.244 324.55 100.859 339.355C104.723 340.745 112.104 347.561 115.882 344.348C125.781 328.935 137.547 313.826 146.405 297.848C148.141 294.765 150.746 290.901 151.962 287.818C154.003 282.695 160.038 257.729 159.951 252.997C159.951 250.826 155.653 243.749 154.22 241.621C152.787 239.494 150.095 240.189 151.441 235.195C143.495 237.497 135.984 235.195 128.039 235.195C128.039 235.109 127.301 234.588 127.083 233.719C126.736 232.286 127.387 228.856 126.997 228.422C126.649 228.031 121.743 228.639 121.179 226.686C119.572 221.085 118.877 209.796 118.27 203.5C117.966 200.331 117.749 181.704 117.141 180.749C116.142 179.186 104.072 176.668 101.684 169.851C97.0816 156.739 103.594 141.76 107.806 129.646C110.802 121.049 110.889 115.839 117.271 108.198C118.747 106.417 126.562 100.339 126.91 98.9496C127.648 96.0406 123.914 95.3025 123.263 93.0881C122.394 90.0923 123.957 83.5362 126.345 81.4087C128.126 79.8022 133.813 78.4997 136.288 78.3694C139.675 78.1957 144.798 81.7126 145.449 74.7223C145.449 74.3315 140.586 70.9883 139.675 69.9029C137.591 67.3847 133.075 61.1759 132.815 58.18C132.337 52.9264 134.117 52.7528 135.507 49.1056C136.114 47.4558 136.245 44.2428 137.026 43.2876C139.762 39.8576 158.344 38.8156 163.598 37.1223C167.462 37.3828 172.238 40.6825 172.846 44.5902C172.89 44.9375 173.107 51.5805 172.846 51.7976C170.936 53.4909 170.936 49.8438 170.328 49.7569C169.937 49.7569 165.248 50.6253 165.074 50.799C164.814 51.0595 166.029 53.5343 165.856 54.9671C165.248 60.1772 160.906 61.089 156.304 60.568C155.522 65.9084 161.471 65.9084 158.127 71.683C154.09 78.6733 145.319 70.9884 145.58 80.0627L163.12 82.0165L160.211 74.2013C162.947 75.8946 164.119 78.9773 167.983 78.1089C168.852 77.284 164.466 69.4253 168.938 70.2937C168.591 72.8553 170.588 75.9814 169.807 78.4128C168.982 80.9745 164.162 80.2364 165.074 82.4941C165.552 83.6664 168.2 84.7953 169.373 86.011C170.458 87.1399 169.59 89.4845 172.412 89.8752C175.755 90.3094 180.965 87.6175 177.492 84.1874C176.146 82.8415 173.107 84.0572 173.845 81.0179C178.187 81.4087 182.528 84.0138 180.184 88.8332C179.055 91.1343 175.495 90.7001 174.8 92.6974C190.734 99.0364 196.379 118.792 204.064 132.685C203.803 132.164 198.767 127.128 198.202 126.129C193.253 117.359 184.482 97.5602 174.366 94.6078C171.544 93.7828 170.979 93.4789 167.983 94.1302C160.776 95.6498 149.096 105.679 143.843 106.157C139.11 106.591 138.98 102.597 136.983 101.468C132.684 99.0364 128.256 98.472 125.13 102.206C114.058 115.492 102.248 143.106 102.856 160.647C102.986 164.988 103.985 173.064 109.456 172.587C107.719 166.942 111.974 166.986 112.452 163.382C113.103 158.389 110.02 155.523 110.411 152.658C110.845 149.358 114.709 142.889 115.361 136.897C115.621 134.335 113.233 129.95 116.272 128.691L119.181 140.891C118.574 169.461 119.529 197.899 123.089 226.208C125.173 224.211 135.116 225.861 135.767 225.253C136.114 224.905 135.507 218.87 135.767 217.437C138.763 216.96 137.287 218.262 137.721 219.825C138.372 222.257 137.721 224.949 141.064 224.341C157.606 220.867 176.45 220.303 192.688 216.395C198.506 215.006 197.898 210.925 196.943 205.498C196.552 203.283 188.52 180.966 187.478 179.099C186.914 178.101 184.352 178.361 182.963 177.58C175.321 173.064 168.287 159.344 165.682 150.964C164.901 148.446 160.385 130.558 161.08 129.733C162.73 127.866 166.985 138.243 167.679 139.242C172.369 146.058 189.302 166.074 195.988 169.461C202.674 172.847 209.1 173.194 215.222 168.722C217.74 166.899 234.847 147.317 234.847 145.841C234.847 142.454 227.64 133.467 224.123 133.858C221.735 134.118 213.225 141.109 208.84 140.501C209.448 145.146 216.525 149.922 208.84 152.18C210.793 147.23 208.666 146.796 207.363 143.41C206.321 140.631 204.845 134.552 203.933 132.685C204.802 134.248 207.45 137.027 208.319 139.459C210.576 137.505 215.309 137.678 215.656 134.118V7.94533H356.07L282.086 24.1403V325.201C282.954 327.719 289.163 326.46 291.725 327.763L291.812 32.3897L387.288 14.762C387.288 52.7962 387.288 90.8304 387.288 128.865C387.288 140.24 387.288 151.616 387.288 162.991C387.288 173.064 387.288 183.137 387.288 193.21C387.288 203.283 387.288 212.748 387.288 222.474C387.288 260.769 386.55 299.28 387.288 337.532C387.331 339.79 387.288 342.091 387.288 344.348C388.504 344.783 389.111 343.393 389.242 343.393C390.24 343.263 392.672 343.741 393.062 343.35C393.193 343.176 394.105 339.225 394.105 339.008V238.582C394.105 233.459 394.105 227.814 394.105 222.474C394.105 192.602 394.105 162.644 394.105 132.772C394.105 115.058 394.191 97.7773 394.105 80.1061C394.105 78.1523 394.105 76.1985 394.105 74.2447C394.105 73.5934 394.105 72.9422 394.105 72.2909V70.3371L394.322 70.3805ZM140.76 50.8424C141.021 50.6253 141.759 45.1546 141.715 44.0257C137.026 44.7638 137.938 53.4909 140.76 50.8424ZM168.027 91.7422C170.111 89.3108 164.814 84.9255 162.469 84.2309C156.912 82.581 143.452 81.235 137.374 81.0179C132.38 80.8443 128.647 80.9745 126.91 86.2281C124.001 94.8683 130.34 98.9496 138.329 99.6443C146.318 100.339 151.615 96.605 158.344 94.3038C159.777 93.7828 167.636 92.2198 168.027 91.7856V91.7422ZM198.333 218.61C197.725 218.523 196.943 218.74 196.379 218.61C195.12 218.349 194.599 217.568 192.471 218.61C192.254 220.303 193.122 221.866 193.426 223.473C193.6 224.341 194.295 225.036 194.381 225.426C194.642 226.512 194.208 228.118 194.816 229.334L215.83 299.541V171.805C207.19 175.843 202.891 175.496 194.685 171.024C191.69 169.374 189.388 165.727 185.611 165.987C183.744 167.724 199.288 202.762 199.982 208.667C200.46 212.575 199.244 214.876 198.246 218.653L198.333 218.61ZM112.365 351.339C111.54 350.774 109.282 351.426 108.11 351.208C106.981 352.511 111.41 359.284 112.452 360.5C113.58 361.846 114.666 362.106 116.403 361.889C114.97 360.413 112.842 351.599 112.365 351.295V351.339ZM234.413 360.022C235.759 369.922 244.442 366.839 250.955 363.366C249.392 354.812 240.535 359.458 234.413 360.022ZM222.212 360.978C217.523 360.37 211.879 361.412 207.103 360.978L208.579 370.747C217.046 368.793 225.729 367.577 234.413 367.794C234.326 366.622 234.934 365.71 233.805 364.798C233.024 364.147 223.515 361.151 222.212 360.978Z" fill="#0A0C0C"/>
<path d="M246.092 113.278C251.129 108.545 250.825 112.54 252.692 113.278C253.604 113.625 255.557 113.061 255.861 113.278C256.209 113.582 255.557 117.967 255.861 119.443C255.948 119.877 261.419 123.177 255.861 125.001C254.863 125.304 254.212 124.783 252.952 125.956C250.304 126.347 250.304 127.779 250.043 127.91C249.305 128.257 246.396 129.125 246.136 128.865C244.92 126.65 251.042 125.782 249.045 124.002C247.916 123.003 245.832 126.607 244.182 125.956C241.707 120.138 247.048 118.835 249.522 114.233L246.092 113.278Z" fill="#0A0C0C"/>
<path d="M171.023 55.749C171.544 57.616 169.069 58.3107 169.199 59.9606C169.46 62.8262 178.23 68.21 169.069 69.3823C172.238 64.259 161.471 56.9213 171.023 55.749Z" fill="#0A0C0C"/>
<path d="M222.69 330.759C222.864 332.192 223.645 334.102 223.645 334.666C223.645 335.318 223.645 335.969 223.645 336.62C223.645 337.315 222.777 340.094 223.602 341.874L222.733 343.003C216.525 344.045 211.445 346.389 205.149 347.345C203.239 347.779 202.37 345.695 201.849 344.349C198.376 335.578 195.033 326.808 191.516 318.081C187.478 308.051 172.021 269.322 172.021 269.322C169.677 264.069 164.206 253.735 164.206 253.735C164.206 253.735 159.821 246.441 158.344 243.966C156.434 240.71 154.35 237.54 152.483 234.197C151.745 231.592 155.566 231.809 157.129 231.549C168.548 229.812 180.227 229.161 191.472 226.382C203.586 258.641 211.097 293.506 220.389 326.678C220.823 328.241 220.693 330.151 222.647 330.759H222.69Z" fill="#2AB5B8"/>
<path d="M128.082 235.152C136.028 235.152 143.539 237.453 151.484 235.152C150.138 240.189 152.874 239.538 154.263 241.578C155.653 243.619 159.951 250.826 159.994 252.954C160.081 257.686 154.003 282.652 152.005 287.775C150.79 290.858 148.185 294.722 146.448 297.805C137.547 313.782 125.824 328.892 115.925 344.305C112.148 347.518 104.767 340.702 100.902 339.312C105.288 324.507 112.452 310.526 118.921 296.545C122.525 295.243 124.565 293.029 125.173 289.164C127.257 275.835 130.644 248.351 128.169 236.064C128.126 235.76 128.212 235.413 128.169 235.109L128.082 235.152Z" fill="#2AB5B8"/>
<path d="M90.0479 352.208C90.0479 352.208 93.0871 350.297 93.3042 350.341C96.7343 351.469 101.641 356.897 104.68 357.635C106.113 358.026 108.327 356.81 108.587 357.07C108.718 357.201 108.587 358.981 109.152 359.893C112.452 364.929 119.789 366.926 124.218 369.748C125.39 370.487 128.299 373.222 128.126 374.611C115.361 374.828 108.935 370.269 98.2539 365.016C89.2663 360.587 86.1837 364.148 90.0913 352.208H90.0479Z" fill="#49746F"/>
<path d="M191.472 226.382C180.227 229.16 168.548 229.812 157.129 231.548C155.566 231.809 151.745 231.548 152.483 234.197C151.181 231.852 148.141 229.073 148.575 225.426L188.086 219.521C191.429 219.739 190.691 224.297 191.472 226.382Z" fill="#49746F"/>
<path d="M222.212 360.978C223.515 361.152 233.024 364.191 233.805 364.799C234.934 365.711 234.326 366.622 234.413 367.795C225.729 367.578 217.046 368.793 208.579 370.747L207.103 360.978C211.922 361.412 217.567 360.37 222.212 360.978Z" fill="#49746F"/>
<path d="M234.413 360.023C240.535 359.458 249.392 354.812 250.955 363.366C244.442 366.883 235.715 369.922 234.413 360.023Z" fill="#49746F"/>
<path d="M136.896 370.703L132.467 368.75C132.728 371.485 127.952 369.705 126.128 368.75C124.956 368.142 122.829 366.145 122.221 364.842C125.564 365.189 137.591 363.453 138.72 367.404C139.631 369.618 137.156 370.139 136.853 370.703H136.896Z" fill="#49746F"/>
<path d="M93.9555 346.346C93.9555 346.346 97.7329 344.653 98.1671 344.653C101.423 344.566 102.379 348.951 106.634 347.345V350.254C102.465 348.604 101.554 352.251 101.25 352.251C99.6433 352.294 92.2622 348.908 93.9555 346.346Z" fill="#49746F"/>
<path d="M126.128 368.793C127.908 369.748 132.684 371.528 132.467 368.793L136.896 370.747C134.117 375.523 133.857 374.524 128.126 374.654C128.299 373.265 125.39 370.53 124.218 369.792L126.172 368.836L126.128 368.793Z" fill="#49746F"/>
<path d="M112.365 351.339C112.842 351.643 114.97 360.457 116.403 361.933C114.709 362.15 113.624 361.889 112.452 360.543C111.366 359.284 106.981 352.554 108.11 351.252C109.282 351.469 111.54 350.818 112.365 351.382V351.339Z" fill="#49746F"/>
<path d="M225.599 354.161C226.12 355.03 228.074 359.502 227.553 360.023H221.691C223.211 357.548 222.299 355.768 221.691 353.206C223.298 352.728 224.427 353.901 225.599 354.161Z" fill="#49746F"/>
<path d="M196.379 218.61C196.292 220.303 195.858 221.866 195.423 223.473C194.772 223.516 194.121 223.473 193.47 223.473C193.166 221.866 192.297 220.347 192.514 218.61C194.599 217.525 195.12 218.306 196.422 218.61H196.379Z" fill="#2AB5B8"/>
<path d="M140.76 50.8425C137.981 53.491 137.026 44.764 141.715 44.0259C141.715 45.1547 140.977 50.6254 140.76 50.8425Z" fill="#49746F"/>
<path d="M233.414 119.139C233.414 119.139 232.242 118.575 232.85 117.272C235.151 112.453 236.975 115.449 239.015 116.056C241.62 116.838 243.444 111.888 243.14 116.187C241.056 118.054 239.059 120.311 236.801 122.048L237.278 116.187L233.371 119.096L233.414 119.139Z" fill="#0A0C0C"/>
<path d="M204.151 132.773C205.062 134.64 206.539 140.718 207.581 143.497C208.84 146.927 211.011 147.318 209.057 152.267C216.742 150.01 209.665 145.234 209.057 140.588C213.399 141.196 221.909 134.205 224.34 133.945C227.857 133.598 235.064 142.585 235.064 145.928C235.064 147.448 217.914 167.029 215.439 168.81C209.274 173.282 202.805 172.891 196.205 169.548C189.606 166.204 172.586 146.145 167.896 139.329C167.202 138.33 162.947 127.953 161.297 129.82C160.602 130.645 165.118 148.533 165.899 151.052C168.504 159.431 175.495 173.151 183.18 177.667C184.526 178.492 187.131 178.188 187.695 179.187C188.737 181.053 196.769 203.37 197.16 205.585C198.159 211.012 198.723 215.093 192.905 216.483C176.667 220.434 157.78 220.998 141.281 224.428C137.895 225.036 138.589 222.344 137.938 219.913C137.504 218.35 138.98 217.047 135.984 217.525C135.724 218.957 136.332 224.993 135.984 225.34C135.333 225.991 125.39 224.298 123.306 226.295C119.746 197.987 118.791 169.548 119.399 140.979L116.489 128.778C113.407 130.037 115.838 134.466 115.578 136.984C114.97 142.976 111.106 149.445 110.628 152.745C110.237 155.611 113.32 158.476 112.669 163.469C112.191 167.073 107.936 167.029 109.673 172.674C104.202 173.108 103.204 165.032 103.073 160.734C102.509 143.15 114.275 115.579 125.347 102.293C128.473 98.5157 132.902 99.0802 137.2 101.555C139.197 102.684 139.327 106.678 144.06 106.244C149.27 105.723 160.993 95.737 168.2 94.2174C171.24 93.5661 171.761 93.87 174.583 94.695C184.699 97.6474 193.47 117.489 198.419 126.216C198.984 127.172 203.977 132.208 204.281 132.773H204.151ZM202.197 136.68C203.412 134.422 197.812 127.432 196.379 128.865L202.197 136.68Z" fill="#49746F"/>
<path d="M241.23 141.543C239.493 142.585 237.409 141.804 239.276 144.452C235.325 145.451 235.933 141.456 233.848 138.677C232.372 136.68 224.904 131.383 228.682 128.995C233.892 125.739 238.321 137.722 241.23 140.544C241.143 140.848 241.316 141.196 241.23 141.5V141.543Z" fill="#49746F"/>
<path d="M168.027 91.7422C167.679 92.1763 159.777 93.7394 158.344 94.2604C151.658 96.605 145.97 100.252 138.329 99.6008C130.687 98.9496 124.044 94.8249 126.91 86.1847C128.69 80.9311 132.424 80.8008 137.374 80.9745C143.409 81.1916 156.868 82.581 162.469 84.1874C164.814 84.8821 170.067 89.2673 168.027 91.6988V91.7422Z" fill="#49746F"/>
<path d="M202.197 136.68L196.379 128.865C197.855 127.432 203.412 134.422 202.197 136.68Z" fill="#0A0C0C"/>
<path d="M85.9666 110.499C85.9666 110.499 86.1837 110.803 86.1837 110.977C86.1837 111.15 86.0968 111.324 85.9666 111.454C85.9232 111.541 85.8363 111.585 85.7495 111.628C85.6627 111.628 85.5758 111.671 85.489 111.671C83.6654 111.671 81.8853 112.019 80.2354 112.713C78.5421 113.408 77.0225 114.407 75.7633 115.709C74.5042 116.968 73.4622 118.488 72.7675 120.181C72.0728 121.875 71.7255 123.655 71.7255 125.435C71.7255 125.609 71.6386 125.782 71.5084 125.912C71.3781 126.043 71.2044 126.13 71.0308 126.13C70.8571 126.13 70.6834 126.043 70.5532 125.912C70.4229 125.782 70.3361 125.609 70.3361 125.435C70.3361 123.611 69.9887 121.831 69.294 120.181C68.5994 118.488 67.6007 117.012 66.2982 115.709C65.0391 114.45 63.5194 113.408 61.8261 112.713C60.1328 112.019 58.3527 111.671 56.5726 111.671C56.3989 111.671 56.2252 111.585 56.095 111.454C55.9647 111.324 55.8779 111.15 55.8779 110.977C55.8779 110.803 55.9647 110.629 56.095 110.499C56.2252 110.369 56.3989 110.282 56.5726 110.282C58.3961 110.282 60.1763 109.935 61.8261 109.24C63.5194 108.545 65.0391 107.547 66.2982 106.244C67.5573 104.985 68.5994 103.465 69.294 101.772C69.9887 100.079 70.3361 98.2986 70.3361 96.5185C70.3361 96.4316 70.3361 96.3448 70.3795 96.258C70.3795 96.1711 70.4663 96.0843 70.5098 96.0409C70.5966 95.9974 70.64 95.9106 70.7268 95.9106C70.8137 95.9106 70.9005 95.8672 70.9874 95.8672C71.0742 95.8672 71.161 95.8672 71.2479 95.9106C71.3347 95.9106 71.4215 95.9974 71.4649 96.0409C71.5518 96.0843 71.5952 96.1711 71.5952 96.258C71.5952 96.3448 71.6386 96.4316 71.6386 96.5185C71.6386 98.342 71.986 100.122 72.6807 101.772C73.3753 103.422 74.374 104.942 75.6765 106.244C76.9356 107.503 78.4553 108.545 80.1486 109.24C81.8419 109.935 83.622 110.282 85.4021 110.282C85.489 110.282 85.5758 110.282 85.6627 110.325C85.7495 110.325 85.8363 110.412 85.8797 110.456L85.9666 110.499ZM70.9874 101.077C70.2492 103.422 68.9467 105.506 67.2534 107.243C65.5601 108.979 63.4326 110.239 61.088 110.977C63.4326 111.715 65.5167 113.017 67.2534 114.711C68.9901 116.447 70.2492 118.531 70.9874 120.876C71.7255 118.531 73.028 116.447 74.7213 114.711C76.458 112.974 78.5421 111.715 80.8867 110.977C78.5421 110.239 76.458 108.936 74.7213 107.243C72.9846 105.549 71.7255 103.422 70.9874 101.077Z" fill="#0A0C0C"/>
<path d="M49.7125 189.911C50.3638 188.304 51.4926 186.958 52.9254 186.003C54.3582 185.048 56.0515 184.527 57.7448 184.527C60.046 184.527 62.2603 185.439 63.8668 187.045C65.4733 188.652 66.4285 190.866 66.4285 193.167C66.4285 194.904 65.9074 196.554 64.9522 197.986C63.997 199.419 62.6511 200.505 61.0446 201.199C59.4381 201.851 57.7014 202.024 56.0081 201.677C54.3148 201.33 52.7952 200.505 51.5795 199.289C50.3638 198.073 49.5388 196.51 49.1915 194.86" fill="#49746F"/>
<path d="M195.858 32.9543C194.121 32.9543 192.471 32.4333 191.038 31.4781C189.605 30.5229 188.52 29.1769 187.825 27.5705C187.174 26.0074 187 24.2273 187.348 22.5774C187.695 20.8841 188.52 19.3645 189.736 18.1488C190.951 16.9331 192.514 16.1081 194.164 15.7608C195.858 15.4134 197.594 15.5871 199.157 16.2384C200.764 16.8896 202.11 18.0185 203.065 19.4513C204.02 20.8841 204.541 22.534 204.541 24.2707C204.541 26.5719 203.63 28.7862 201.98 30.3926C200.373 31.9991 198.159 32.9109 195.858 32.9543ZM195.858 18.4961C194.729 18.4961 193.6 18.8434 192.645 19.4513C191.69 20.1026 190.951 20.9709 190.517 22.013C190.083 23.055 189.953 24.2273 190.17 25.3562C190.387 26.485 190.951 27.4836 191.733 28.3086C192.558 29.1335 193.557 29.6545 194.685 29.8716C195.814 30.0887 196.943 29.9585 198.029 29.5243C199.071 29.0901 199.982 28.352 200.59 27.3968C201.242 26.4416 201.545 25.3562 201.545 24.1839C201.545 22.6642 200.938 21.188 199.852 20.146C198.767 19.0605 197.334 18.4527 195.771 18.4527L195.858 18.4961Z" fill="#49746F"/>
<path d="M236.497 257.382L236.714 256.905C237.8 254.3 238.668 252.085 239.232 250.392C239.319 250.479 239.449 250.522 239.58 250.522C239.015 252.216 238.19 254.473 237.061 257.035L236.844 257.513C236.844 257.513 236.584 257.817 236.454 257.99C236.454 257.773 236.454 257.556 236.454 257.339L236.497 257.382Z" fill="#0A0C0C"/>
<path d="M225.165 275.227C225.165 275.227 225.339 275.227 225.425 275.227C225.425 275.357 225.339 275.487 225.339 275.618C222.907 278.266 220.172 280.567 217.133 282.478L216.785 282.174C219.868 280.22 222.69 277.875 225.165 275.14V275.227Z" fill="#0A0C0C"/>
<path d="M234.89 260.943C234.89 260.943 235.064 260.899 235.151 260.856C235.281 260.812 235.412 260.726 235.542 260.639C233.631 264.633 231.33 268.411 228.638 271.884C228.682 271.623 228.725 271.32 228.725 271.059C231.113 267.889 233.154 264.503 234.89 260.943Z" fill="#0A0C0C"/>
<path d="M237.973 297.761H238.06C238.06 297.761 237.8 298.109 237.713 298.326C237.713 298.412 237.669 298.543 237.669 298.63C234.239 301.495 230.505 303.97 226.598 306.011C226.164 306.098 225.816 306.271 225.469 306.575C223.081 307.747 220.563 308.703 218.001 309.441C217.914 309.31 217.784 309.18 217.654 309.05C225.382 306.836 232.199 302.624 237.93 297.761H237.973Z" fill="#0A0C0C"/>
<path d="M239.753 296.675C239.753 296.675 240.014 296.285 240.101 296.068C242.793 293.593 245.311 290.944 247.655 288.122C248.611 286.993 249.522 285.864 250.347 284.779C250.955 284.431 251.433 283.867 251.693 283.216C251.78 282.999 251.91 282.782 251.997 282.565C253.864 280.003 255.427 277.658 256.6 275.661C256.86 275.227 257.077 274.836 257.338 274.489C257.381 274.532 257.425 274.576 257.468 274.619C257.555 274.662 257.598 274.706 257.685 274.749C255.775 277.962 253.691 281.045 251.433 284.041C251.433 284.041 251.389 284.084 251.346 284.128C251.172 284.301 250.999 284.562 250.868 284.779C249.957 285.951 249.001 287.167 247.959 288.383C245.354 291.465 242.576 294.374 239.58 297.066C239.493 297.066 239.363 297.11 239.276 297.153C239.449 296.979 239.58 296.806 239.71 296.589L239.753 296.675Z" fill="#0A0C0C"/>
<path d="M257.511 274.489C256.99 273.968 256.86 273.013 257.121 271.884C257.381 270.625 257.989 269.149 258.988 267.673C259.986 266.196 261.115 265.067 262.2 264.373C263.243 263.678 264.241 263.504 264.936 263.895C265.63 264.329 265.848 265.328 265.63 266.631C265.413 267.933 264.806 269.453 263.764 270.972C262.765 272.449 261.549 273.621 260.42 274.272C259.422 274.88 258.51 275.054 257.859 274.706C257.772 274.706 257.728 274.619 257.642 274.576C257.598 274.576 257.555 274.489 257.511 274.446V274.489Z" fill="#49746F"/>
<path d="M251.997 283.346C251.693 283.997 251.216 284.518 250.608 284.866C250.347 284.996 250.043 285.039 249.783 285.039C248.915 285.039 248.09 284.301 247.482 283.216C246.787 281.87 246.44 280.437 246.44 278.961C246.396 277.311 246.744 275.705 247.395 274.576C247.655 274.098 248.046 273.664 248.524 273.36C248.915 273.099 249.349 273.013 249.826 273.099C250.695 273.273 251.389 274.055 251.91 275.053C252.518 276.356 252.822 277.745 252.822 279.135C252.822 280.35 252.692 281.566 252.258 282.695C252.171 282.912 252.084 283.129 251.954 283.346H251.997Z" fill="#49746F"/>
<path d="M251.259 284.128C251.259 284.128 251.563 283.867 251.693 283.737C251.78 283.65 251.91 283.564 251.997 283.52L252.128 283.39L252.258 283.26C252.258 283.26 252.649 282.956 252.866 282.782C252.952 282.695 253.083 282.652 253.213 282.565C253.343 282.478 253.43 282.391 253.56 282.348C254.125 281.957 254.689 281.61 255.297 281.306C256.035 280.915 256.773 280.568 257.555 280.307C257.772 280.22 257.946 280.177 258.119 280.133C258.293 280.09 258.51 280.047 258.727 280.003C259.074 279.916 259.465 279.873 259.856 279.873C260.464 279.83 261.072 279.916 261.679 280.177C261.897 280.264 262.07 280.394 262.244 280.568C262.418 280.741 262.504 280.915 262.591 281.132C262.722 281.566 262.678 282.044 262.548 282.435C262.374 282.956 262.114 283.433 261.766 283.867C261.593 284.128 261.376 284.388 261.158 284.606C261.028 284.736 260.941 284.866 260.811 284.996C260.681 285.127 260.551 285.257 260.377 285.387C259.726 285.995 258.988 286.473 258.206 286.907C257.294 287.384 256.296 287.732 255.297 287.905C255.037 287.905 254.776 287.949 254.559 287.992C254.298 287.992 254.081 287.992 253.821 287.992C253.387 287.992 252.952 287.905 252.518 287.775C252.431 287.775 252.345 287.732 252.258 287.688C252.171 287.688 252.084 287.601 251.997 287.558C251.824 287.471 251.693 287.384 251.52 287.297C251.259 287.167 251.042 286.95 250.868 286.733C250.695 286.559 250.608 286.342 250.521 286.125C250.478 285.908 250.434 285.691 250.478 285.43C250.478 285.257 250.564 285.127 250.651 284.953C250.782 284.692 250.955 284.475 251.129 284.302L251.216 284.215L251.259 284.128Z" fill="#49746F"/>
<path d="M238.103 297.848C238.624 297.717 239.059 297.457 239.449 297.066C239.536 297.066 239.666 296.979 239.753 296.979C239.927 296.936 240.057 296.893 240.231 296.849C240.926 296.719 241.62 296.632 242.315 296.589C243.921 296.502 245.571 296.589 247.178 296.892C247.873 297.023 248.567 297.196 249.218 297.414C250.391 297.848 251.259 298.456 251.389 299.28C251.52 300.105 250.825 301.017 249.566 301.712C248.828 302.103 248.046 302.363 247.221 302.493C245.267 302.884 243.27 302.754 241.403 302.103C240.622 301.842 239.884 301.495 239.232 301.017C238.19 300.279 237.669 299.411 237.756 298.673C237.756 298.586 237.756 298.456 237.8 298.369C237.886 298.152 237.973 297.978 238.147 297.804L238.103 297.848Z" fill="#49746F"/>
<path d="M226.424 305.924C226.902 305.837 227.423 305.793 227.9 305.837C228.595 305.88 229.29 305.967 229.984 306.141C230.766 306.314 231.547 306.532 232.329 306.835C233.11 307.096 233.848 307.4 234.587 307.747C235.238 308.051 235.846 308.399 236.41 308.789C237.452 309.527 238.103 310.352 238.017 311.221C237.93 312.089 237.018 312.74 235.629 313.088C234.804 313.261 233.979 313.305 233.197 313.218C231.243 313.044 229.333 312.393 227.727 311.264C227.032 310.787 226.424 310.265 225.903 309.614C224.991 308.485 224.774 307.4 225.208 306.662C225.252 306.575 225.339 306.488 225.382 306.445C225.686 306.141 226.077 305.967 226.467 305.88L226.424 305.924Z" fill="#49746F"/>
<path d="M239.015 297.11C238.668 297.501 238.19 297.805 237.713 297.935H237.626C237.626 297.935 237.322 297.978 237.148 297.935C236.367 297.805 235.759 297.11 235.412 296.111C234.63 293.68 234.804 290.988 235.889 288.556C236.41 287.558 237.061 286.82 237.886 286.733C238.711 286.603 239.449 287.167 240.014 288.166C240.578 289.208 240.882 290.684 240.795 292.334C240.709 293.55 240.405 294.765 239.884 295.894C239.797 296.111 239.667 296.328 239.536 296.502C239.406 296.719 239.232 296.893 239.059 297.11H239.015Z" fill="#49746F"/>
<path d="M239.319 250.436C238.798 250.132 238.321 249.567 237.973 248.872C237.452 247.657 237.192 246.354 237.192 245.052C237.192 243.749 237.496 242.49 238.06 241.361C238.581 240.406 239.319 239.798 240.188 239.842C241.056 239.842 241.837 240.449 242.402 241.491C242.966 242.533 243.357 243.923 243.357 245.486C243.357 247.049 242.966 248.395 242.358 249.35C241.751 250.305 240.926 250.826 240.101 250.739C239.84 250.739 239.58 250.609 239.363 250.479L239.319 250.436Z" fill="#49746F"/>
<path d="M234.76 260.943C234.066 261.116 233.284 260.812 232.503 260.161C230.549 258.337 229.333 255.819 229.116 252.997C229.116 251.825 229.376 250.826 230.071 250.392C230.766 249.914 231.721 250.045 232.72 250.696C233.718 251.347 234.717 252.519 235.412 253.996C235.933 255.081 236.236 256.297 236.323 257.512C236.323 257.73 236.323 257.947 236.323 258.164C236.28 258.207 236.236 258.294 236.193 258.337C235.759 258.902 235.542 259.64 235.629 260.335C235.542 260.421 235.498 260.465 235.412 260.552C235.281 260.639 235.194 260.725 235.021 260.812C234.934 260.812 234.847 260.856 234.76 260.899V260.943Z" fill="#49746F"/>
<path d="M236.237 258.337C236.237 258.337 236.323 258.207 236.367 258.164C236.497 257.99 236.627 257.816 236.758 257.686C237.496 256.948 238.364 256.384 239.363 256.08C240.752 255.602 242.185 255.559 243.227 255.863C244.269 256.167 245.007 256.818 245.137 257.686C245.311 258.511 244.92 259.38 244.225 260.118C243.444 260.899 242.445 261.507 241.403 261.898C240.361 262.289 239.189 262.419 238.103 262.289C237.105 262.158 236.28 261.724 235.889 260.986C235.802 260.812 235.715 260.595 235.672 260.378C235.585 259.683 235.802 258.945 236.237 258.381V258.337Z" fill="#49746F"/>
<path d="M226.685 273.838C226.163 274.185 225.816 274.663 225.599 275.227C225.512 275.227 225.425 275.227 225.339 275.184C224.687 275.01 224.123 274.619 223.689 274.098C223.037 273.23 222.647 272.231 222.473 271.189C222.343 270.147 222.473 269.105 222.864 268.106C223.254 267.282 223.862 266.63 224.687 266.5C225.469 266.37 226.337 266.717 226.988 267.455C227.77 268.324 228.204 269.409 228.334 270.538C228.378 270.885 228.378 271.189 228.378 271.537C228.378 271.797 228.378 272.101 228.291 272.361C228.291 272.622 228.204 272.882 228.117 273.1C227.596 273.273 227.075 273.49 226.641 273.838H226.685Z" fill="#49746F"/>
<path d="M226.685 273.751C227.162 273.404 227.727 273.143 228.334 273.013C229.072 272.796 229.811 272.709 230.592 272.709C232.155 272.709 233.588 273.187 234.543 273.881C235.498 274.576 235.976 275.401 235.889 276.269C235.759 277.094 235.108 277.789 234.196 278.223C233.154 278.701 231.982 278.918 230.809 278.918C229.637 278.918 228.465 278.614 227.379 278.136C226.424 277.659 225.729 276.964 225.599 276.139C225.599 276.009 225.599 275.835 225.599 275.705C225.599 275.575 225.599 275.401 225.686 275.271C225.903 274.663 226.294 274.142 226.815 273.794L226.685 273.751Z" fill="#49746F"/>
</g>
<defs>
<clipPath id="clip0_573_7977">
<rect width="499.308" height="439" fill="white" transform="translate(0.346176)"/>
</clipPath>
</defs>
</svg>
