<svg width="778" height="513" viewBox="0 0 778 513" fill="none" xmlns="http://www.w3.org/2000/svg">
<g clip-path="url(#clip0_531_9761)">
<path d="M11.7958 109.867C13.924 94.4207 22.2557 80.4696 35.0251 71.5237C44.9417 64.5708 57.7563 58.4332 71.9746 58.5691C104.328 58.9088 116.101 65.4314 215.222 155.275C298.879 231.1 334.787 193.46 356.364 183.517C377.94 173.62 404.384 146.465 449.847 147.213C495.309 147.938 498.23 164.81 596.603 229.492L600.769 238.823L778 511.685H155.949L31.0403 315.849C5.81864 276.283 -4.55077 229.04 1.83389 182.521L11.7958 109.867Z" fill="#EA5A4C"/>
<path d="M386.566 5.18825C386.566 5.18825 386.385 5.02972 386.294 4.93912C385.615 4.32763 385.004 3.35377 384.03 3.26318L383.419 3.87468C382.581 6.59242 382.672 9.74047 382.672 12.5488C382.672 14.6551 382.513 16.7387 382.332 18.8223C382.196 20.4076 382.106 21.993 382.038 23.5783C381.97 25.141 382.083 26.7717 381.902 28.3117C381.789 29.2176 381.472 30.5312 381.993 31.3692C389.057 33.8831 397.23 32.1392 404.045 29.7612C408.052 28.357 412.014 26.6811 416.203 25.8657C419.486 25.2316 422.61 25.2769 425.938 25.6393C425.667 28.81 425.327 31.9807 425.123 35.1514C425.055 35.627 424.965 36.1252 424.942 36.6235C424.897 37.4841 425.191 38.005 425.78 38.6391C430.081 43.2593 448.692 50.0989 454.986 48.1739C456.548 47.6983 457.839 46.5659 459.107 45.6147C463.544 42.2854 467.914 39.4544 473.733 39.7262C478.419 39.9301 483.762 42.6931 486.909 46.1809C486.072 44.5502 485.709 43.8255 485.166 43.1008C480.321 36.5555 473.506 33.6566 465.401 34.5625C461.416 34.9928 457.409 35.8987 453.379 35.2872C447.334 34.3587 443.688 30.3047 440.27 25.6619C440.27 25.594 440.224 25.526 440.202 25.4807C439.636 23.601 441.696 15.3798 440.994 13.4774C440.7 12.7073 439.726 12.0732 439.07 11.6655C431.847 7.38509 423.267 7.52098 415.139 8.04188C411.448 8.26836 407.78 8.58543 404.067 8.60808C401.056 8.60808 398.068 8.20042 395.102 7.77011C393.132 7.49833 391.004 7.31715 389.102 6.59242C388.196 6.2527 387.336 5.77709 386.566 5.1656V5.18825Z" fill="#2AB5B8"/>
<path d="M722.893 112.018H634.526C634.096 112.018 633.87 111.475 634.187 111.18C635.772 109.64 637.741 108.53 639.87 107.942C640.866 107.67 641.907 107.443 642.926 107.466C644.149 107.466 645.394 107.806 646.594 107.398C648.473 106.741 648.699 104.748 649.152 103.072C650.601 97.818 656.216 93.9226 661.582 94.8738C663.076 95.1456 664.752 95.6438 666.246 95.1003C667.944 94.5114 668.759 92.7223 669.733 91.3407C672.336 87.6038 676.932 85.3617 681.483 85.5655C686.034 85.7694 690.403 88.4418 692.645 92.4052C693.686 94.2397 694.501 96.3459 695.135 98.3616C695.271 98.7692 695.407 99.1995 695.815 99.4034C696.086 99.5393 696.403 99.5619 696.698 99.5393C697.671 99.5166 698.622 99.2222 699.596 99.1996C700.569 99.1769 701.588 99.2448 702.539 99.3807C704.644 99.6978 706.75 100.921 707.474 102.914C707.927 104.159 707.837 105.609 708.607 106.696C709.512 107.964 711.278 108.281 712.84 108.123C714.403 107.964 715.897 107.421 717.459 107.443C720.244 107.466 722.553 108.848 723.323 111.384C723.413 111.701 723.187 112.018 722.847 112.018H722.893Z" fill="#2AB5B8"/>
<path d="M124.207 61.8985C126.833 59.1128 130.84 57.4822 134.621 57.8219C135.595 57.9125 136.591 58.1163 137.519 57.8219C139.308 57.2557 140.1 55.2174 141.345 53.7906C142.794 52.1599 145.104 51.3446 147.255 51.6843C148.817 51.9334 150.334 52.7714 151.873 52.409C153.798 51.9787 154.817 49.9631 155.881 48.3098C157.85 45.2976 160.884 42.897 164.394 42.2175C167.903 41.5381 171.865 42.7384 174.016 45.6147C174.967 46.883 175.533 48.423 176.846 49.4422C177.095 49.646 177.367 49.8045 177.661 49.9178C179.699 50.7331 181.102 49.1025 182.71 48.1965C183.819 47.5624 185.11 47.3133 186.378 47.4039C187.012 47.4492 187.668 47.5851 188.257 47.8115C188.778 48.0154 189.321 48.5363 189.887 48.5589C190.566 48.5816 191.019 47.9021 191.449 47.4718C191.993 46.9509 192.468 46.3847 192.898 45.7959C193.781 44.5955 194.551 43.3046 195.366 42.059C197.653 38.6392 200.981 35.8308 204.898 34.5625C208.815 33.3169 213.343 33.7472 216.739 36.0799C219.976 38.2994 222.15 42.1269 225.886 43.3726C228.693 44.3011 231.727 43.5311 234.58 42.8743C236.527 42.4213 238.496 42.0363 240.466 42.3081C242.436 42.5799 244.406 43.5764 245.334 45.3203C246.036 46.6565 246.149 48.3324 247.236 49.3742C248.39 50.484 250.202 50.4387 251.741 50.031C253.281 49.6234 254.752 48.876 256.337 48.8307C258.76 48.7401 261.001 50.2801 262.405 52.2279C262.994 53.0658 263.469 53.9718 263.877 54.923C264.126 55.5118 264.397 56.1233 264.578 56.7348C264.782 57.3916 264.873 58.0031 265.326 58.5466C266.073 59.4752 267.273 59.4299 268.359 59.6564C269.378 59.8602 270.397 60.0414 271.439 60.1546C272.367 60.2679 273.295 60.3584 274.155 60.6755C275.016 60.9926 275.853 61.5814 276.193 62.442C276.442 63.0535 276.352 64.0727 275.989 64.7974C275.786 65.2051 275.333 65.4769 274.88 65.4769C265.031 65.4769 125.723 65.4769 125.723 65.4769C123.89 65.4769 122.916 63.28 124.184 61.9438L124.207 61.8985Z" fill="#2AB5B8"/>
<path d="M232.474 304.412C212.55 304.887 192.626 305 172.703 304.751C169.873 304.706 166.929 305 164.167 304.208C161.45 303.438 158.167 301.037 158.869 297.798C159.662 294.265 164.462 294.492 166.137 291.706C167.337 289.713 166.567 287.154 167.858 285.229C169.488 282.806 172.793 283.009 175.284 282.036C179.608 280.337 181.261 276.215 184.68 273.407C187.781 270.87 192.309 270.191 196 271.708C198.83 272.863 201.094 275.286 202.136 278.14C202.385 278.797 202.566 279.522 203.109 279.997C204.354 281.062 206.732 280.043 208.249 280.178C210.082 280.337 211.939 281.266 212.777 282.896C213.094 283.53 213.252 284.278 213.682 284.844C216.014 287.969 222.172 283.734 223.395 288.218C223.644 289.17 223.44 290.211 223.689 291.163C224.097 292.884 225.637 293.654 227.312 293.677C228.285 293.677 229.282 293.518 230.255 293.586C232.927 293.79 235.44 296.032 235.576 298.772C235.666 300.561 234.783 304.321 232.474 304.389V304.412Z" fill="#2AB5B8"/>
<path d="M349.888 318.725C349.888 318.725 338.477 304.095 323.829 304.23C309.158 304.389 303.837 307.333 258.918 348.054C221.018 382.411 204.739 365.357 194.958 360.85C185.178 356.366 173.201 344.068 152.598 344.408C131.995 344.747 130.682 352.38 86.1023 381.686L84.2231 385.921V445.893C84.2231 445.893 91.0153 499.342 127.218 505.819C163.42 512.296 285.77 509.533 285.77 509.533L406.218 385.899L349.888 318.702V318.725Z" fill="#C3D973" stroke="#0A0C0C" stroke-width="0.62" stroke-miterlimit="10"/>
<path d="M393.766 199.416L309.746 263.646L285.634 360.125C281.31 377.451 271.348 392.852 257.311 403.926L147.617 490.441C139.421 496.896 143.994 510.077 154.432 510.077H299.966L363.065 393.622V338.021C363.065 327.059 364.831 316.189 368.295 305.793L394.604 226.82L393.766 199.394V199.416Z" fill="#7D8C45" stroke="#0A0C0C" stroke-width="0.75" stroke-miterlimit="10"/>
<path d="M299.966 510.077L355.503 407.55C360.462 398.4 363.043 388.186 363.043 377.791V338.044C363.043 327.082 364.809 316.211 368.273 305.816L394.581 226.843L428.248 268.696C430.715 271.753 435.447 271.482 437.53 268.175C439.885 264.438 445.183 264.031 448.081 267.382L455.235 275.672C457.794 278.638 462.661 277.438 463.544 273.611L468.752 250.985C482.97 270.44 489.4 301.354 499.588 321.035C500.358 322.53 501.105 324.002 501.83 325.474C506.516 334.941 510.297 344.113 512.856 352.697L543.919 369.23C545.843 370.249 548.152 368.867 548.152 366.693V353.082L587.592 376.002L676.434 486.161C684.2 495.786 677.34 510.099 665.001 510.099H299.943L299.966 510.077Z" fill="#49746F" stroke="#0A0C0C" stroke-width="0.75" stroke-miterlimit="10"/>
<path d="M566.061 363.432L552.431 355.505C550.552 354.418 548.198 355.777 548.198 357.929V366.761C548.198 368.89 545.934 370.249 544.054 369.253L513.92 353.218C513.263 352.878 512.788 352.289 512.561 351.587C510.025 343.321 506.358 334.533 501.875 325.474C501.875 325.474 501.875 325.452 501.875 325.429C500.924 323.481 502.396 321.239 504.569 321.398L530.334 323.323L532.055 324.07L569.412 358.948C571.857 361.235 568.982 365.131 566.084 363.432H566.061Z" fill="#F4F9F9" stroke="#0A0C0C" stroke-width="0.75" stroke-miterlimit="10"/>
<path d="M434.994 226.82C420.097 208.475 406.943 193.573 399.494 185.329C396.053 181.524 390.098 181.411 386.521 185.08L327.836 245.12C323.942 249.106 328.38 255.538 333.497 253.341L391.072 228.36C393.177 227.454 395.622 228.066 397.049 229.832L428.859 269.353C431.032 272.071 435.243 271.821 437.1 268.877L438.662 266.409C440.473 263.532 444.571 263.215 446.79 265.797L454.918 275.219C457.635 278.367 462.774 277.098 463.703 273.044L468.231 253.363C468.593 251.755 468.163 250.057 467.076 248.811C457.929 238.574 442.987 236.649 434.994 226.82Z" fill="#F4F9F9" stroke="#0A0C0C" stroke-width="0.75" stroke-miterlimit="10"/>
<path d="M641.002 417.945H650.126L650.601 422.384L650.058 427.095L640.3 433.595L637.039 434.252L637.13 432.032C637.13 432.032 638.624 431.466 641.545 428.273C643.99 425.6 640.979 417.945 640.979 417.945H641.002Z" stroke="#0A0C0C" stroke-width="0.75" stroke-miterlimit="10"/>
<path d="M682.66 414.073L688.841 407.346L692.441 409.996L695.543 413.574L694.75 427.231L691.173 431.33L689.068 429.609C689.068 429.609 691.06 424.966 690.675 420.64C690.358 417.039 682.706 414.073 682.706 414.073H682.66Z" stroke="#0A0C0C" stroke-width="0.75" stroke-miterlimit="10"/>
<path d="M650.533 418.58L640.843 418.625C640.503 418.625 640.209 418.376 640.164 418.036L636.247 387.507C635.93 385.061 636.021 382.592 636.496 380.191L645.643 334.307L670.729 330.638C676.819 329.755 681.981 335.1 680.849 341.147L673.106 383C672.993 383.566 673.083 384.155 673.332 384.698L689.498 406.644C689.77 406.893 689.769 407.324 689.52 407.595L682.955 414.729C682.728 414.979 682.343 415.024 682.072 414.82L658.571 391.629C656.239 388.956 655.854 385.695 656.239 382.434L657.484 368.279L652.548 386.895C652.48 387.076 652.435 387.28 652.435 387.484L651.213 417.945C651.213 418.308 650.896 418.602 650.533 418.602V418.58Z" fill="#0A0C0C" stroke="#0A0C0C" stroke-width="0.75" stroke-miterlimit="10"/>
<path d="M610.663 257.372C610.663 257.372 610.663 257.372 610.64 257.372C610.505 257.304 610.346 256.896 610.278 256.761C610.142 256.534 610.007 256.308 609.848 256.081C609.576 255.651 609.282 255.22 609.01 254.813C608.422 253.975 607.833 253.16 607.176 252.367C606.678 251.733 606.135 251.099 605.569 250.532C605.003 249.944 604.324 249.423 603.962 248.698C603.509 247.792 603.758 246.818 604.278 246.003C604.867 245.074 605.773 244.689 606.656 244.123C607.086 243.851 607.516 243.625 608.014 243.489C608.942 243.24 610.21 243.127 610.957 243.806C611.523 244.327 611.614 244.961 611.659 245.686C611.682 246.116 611.84 246.637 612.248 246.795C612.542 246.909 612.882 246.795 613.154 246.66C613.425 246.501 613.674 246.275 613.969 246.139C614.263 246.003 614.625 245.958 614.874 246.139C615.123 246.32 615.191 246.705 615.123 247.022C615.055 247.339 614.852 247.611 614.671 247.86C614.014 248.856 613.742 250.396 614.172 251.529C614.535 252.503 615.169 253.363 615.803 254.201C615.803 254.201 613.425 255.719 613.199 255.855C612.746 256.126 612.316 256.398 611.863 256.693C611.637 256.851 610.912 257.44 610.663 257.395V257.372Z" stroke="#0A0C0C" stroke-width="0.75" stroke-miterlimit="10"/>
<path d="M656.895 281.039C656.895 281.039 656.895 281.107 656.918 281.152C656.918 281.198 656.941 281.266 656.963 281.311C656.963 281.356 656.986 281.401 657.008 281.469C657.008 281.515 657.031 281.56 657.054 281.605C657.054 281.628 657.054 281.651 657.076 281.673C657.076 281.718 657.099 281.741 657.122 281.786C657.122 281.854 657.167 281.9 657.19 281.968C657.212 282.036 657.235 282.104 657.28 282.171C657.28 282.171 657.28 282.171 657.28 282.194C657.303 282.239 657.325 282.307 657.348 282.353C657.371 282.398 657.393 282.466 657.416 282.511C657.439 282.556 657.461 282.624 657.484 282.67C657.552 282.806 657.62 282.919 657.688 283.032C657.71 283.1 657.756 283.145 657.801 283.213C657.801 283.213 657.869 283.326 657.891 283.372C658.163 283.779 658.774 283.236 659.137 283.576C659.25 283.666 659.363 283.779 659.476 283.87C659.589 283.961 659.725 284.051 659.839 284.142C659.906 284.187 659.974 284.232 660.042 284.278L658.91 288.105L658.729 288.739C658.095 288.603 657.439 288.445 656.759 288.309C656.624 288.06 656.51 287.833 656.397 287.562C655.559 285.682 655.22 283.508 656.193 282.081C656.465 281.673 656.691 281.333 656.918 281.039H656.895Z" fill="#0A0C0C"/>
<path d="M688.366 347.782C688.479 347.986 688.728 348.099 688.977 348.145C689.022 348.145 689.068 348.099 689.113 348.099L690.856 347.51C690.856 347.51 690.924 347.488 690.947 347.488C690.992 347.488 691.037 347.488 691.083 347.533C691.513 347.986 691.218 348.53 691.015 349.05C690.947 349.186 690.901 349.345 690.879 349.481C690.811 349.934 691.06 350.319 691.49 350.477C692.328 350.817 693.301 350.613 694.139 350.387C694.999 350.16 695.814 349.82 696.607 349.413C697.49 348.937 698.78 348.099 698.418 346.922C698.395 346.831 698.35 346.718 698.328 346.627C698.169 346.152 698.033 345.676 697.897 345.2C697.852 345.019 697.807 344.861 697.762 344.679C697.512 343.728 697.309 342.777 697.128 341.803C697.037 341.328 696.969 340.829 696.901 340.354C696.856 340.105 696.833 339.855 696.811 339.584C696.811 339.448 696.811 338.995 696.72 338.904C696.72 338.904 696.72 338.904 696.697 338.904C696.494 338.746 695.611 338.995 695.362 339.04C694.864 339.108 694.365 339.176 693.867 339.244C693.618 339.267 690.947 339.674 690.924 339.674C691.15 340.671 691.354 341.667 691.286 342.664C691.218 343.819 690.222 345.812 689.249 346.401C688.977 346.559 688.705 346.718 688.524 346.967C688.343 347.216 688.252 347.556 688.388 347.827L688.366 347.782Z" stroke="#0A0C0C" stroke-width="0.75" stroke-miterlimit="10"/>
<path d="M656.42 270.802L667.423 271.029L667.717 276.147C667.446 276.464 667.333 276.895 667.333 276.895L665.385 287.267L659.408 290.823C659.182 291.027 658.842 290.936 658.729 290.664L658.525 287.63L658.774 285.75L658.865 285.206L659.069 284.051C659.069 284.051 658.888 284.051 658.82 284.051C657.959 283.915 657.28 283.281 656.691 282.692C656.103 282.104 655.876 281.243 655.605 280.473C655.333 279.703 655.356 278.457 655.401 277.597C655.401 277.415 655.854 272.841 656.442 270.825L656.42 270.802Z" stroke="#0A0C0C" stroke-width="0.75" stroke-miterlimit="10"/>
<path d="M677.476 286.135C677.181 285.705 676.842 285.274 676.547 284.799C675.959 283.847 676.344 282.828 676.502 281.809C676.751 280.156 675.868 278.684 675.279 277.189C674.623 275.536 675.008 273.656 674.261 272.093C674.034 271.618 673.785 271.233 673.514 270.893C673.604 270.825 673.695 270.757 673.785 270.689C675.37 269.308 675.189 266.522 673.4 264.461C671.612 262.4 668.872 261.834 667.287 263.215C666.676 263.759 666.314 264.506 666.223 265.367C666.223 265.208 664.819 264.665 664.638 264.597C661.989 263.6 658.752 264.212 656.442 265.752C655.378 266.454 654.722 267.315 654.382 268.56C654.11 269.534 653.997 270.893 654.541 271.799C654.767 272.161 655.22 272.388 655.627 272.342C656.329 272.274 657.031 272.184 657.71 272.116C658.344 272.048 658.978 272.003 659.635 271.957C660.608 271.889 661.605 271.867 662.555 272.071C663.008 272.161 663.529 272.206 663.325 272.841C663.235 273.112 663.438 274.471 663.914 275.74C663.914 275.74 664.525 277.37 664.842 277.755C665.227 278.253 665.929 278.797 665.567 279.522C665.227 280.201 664.638 280.745 664.299 281.447C663.937 282.172 663.71 282.987 663.687 283.802C663.62 285.41 665.386 287.381 666.563 288.536C667.559 289.509 667.355 290.166 668.6 290.823C669.551 291.321 669.597 293.745 670.683 293.586C672.608 293.314 674.283 300.312 676.208 299.656C676.796 299.452 676.955 298.863 677.159 298.274C677.86 296.077 678.608 293.767 678.743 291.412C678.811 290.211 678.743 288.988 678.359 287.856C678.155 287.222 677.815 286.701 677.476 286.18V286.135Z" fill="#0A0C0C"/>
<path d="M608.467 255.402L614.852 251.144C615.146 250.963 615.531 251.008 615.757 251.28L623.229 260.203L630.926 269.375C630.926 269.375 632.67 271.368 636.519 273.792C638.058 274.766 640.752 276.283 642.835 277.551C652.163 283.259 658.412 288.988 658.412 288.988C658.412 288.988 657.891 292.091 656.261 295.873C653.725 309.304 654.495 327.852 654.993 336.209C655.152 338.859 653.635 341.305 651.212 342.369L641.885 346.423C640.458 347.058 638.964 345.676 639.462 344.204C643.13 333.106 644.262 319.201 644.669 313.131C644.76 311.727 644.126 306.337 644.42 301.467L624.746 282.511C624.021 281.786 623.342 281.039 622.708 280.269C620.783 277.914 620.217 276.985 619.108 275.06L614.195 266.567L608.286 256.33C608.105 256.013 608.195 255.628 608.49 255.424L608.467 255.402Z" fill="#49746F" stroke="#0A0C0C" stroke-width="0.75" stroke-miterlimit="10"/>
<path d="M670.683 288.49C675.846 290.257 680.623 293.156 684.97 296.439C690.698 300.743 697.263 308.284 697.58 315.554L698.486 339.901C698.486 340.286 698.192 340.603 697.807 340.603L690.177 340.557C689.837 340.557 689.566 340.308 689.52 339.991L685.694 316.913C685.649 316.596 685.536 316.302 685.355 316.007L682.275 312.361C681.709 311.999 680.985 312.429 681.053 313.108C681.868 319.948 683.317 332.925 683.566 335.756C683.747 337.704 684.132 339.493 684.517 340.875C684.902 342.233 683.838 343.57 682.434 343.502L670.457 342.958C668.329 342.868 666.54 341.35 666.087 339.289C662.646 323.821 665.363 287.244 665.363 287.244C665.386 286.995 670.412 288.399 670.661 288.467L670.683 288.49Z" fill="#49746F" stroke="#0A0C0C" stroke-width="0.75" stroke-miterlimit="10"/>
<path d="M497.822 162.274C497.822 162.274 497.822 162.274 497.8 162.274C497.664 162.228 497.415 161.866 497.301 161.753C497.12 161.572 496.939 161.368 496.758 161.187C496.396 160.824 496.034 160.462 495.671 160.122C494.924 159.42 494.154 158.741 493.362 158.106C492.728 157.586 492.094 157.087 491.415 156.634C490.736 156.181 489.966 155.819 489.445 155.185C488.811 154.392 488.857 153.396 489.196 152.49C489.558 151.448 490.373 150.904 491.121 150.157C491.483 149.795 491.868 149.478 492.321 149.251C493.181 148.798 494.381 148.436 495.264 148.957C495.92 149.342 496.147 149.953 496.351 150.633C496.464 151.063 496.735 151.516 497.166 151.584C497.483 151.629 497.8 151.471 498.026 151.244C498.252 151.04 498.456 150.769 498.705 150.565C498.954 150.361 499.317 150.248 499.588 150.384C499.883 150.519 500.018 150.859 500.018 151.176C500.018 151.493 499.883 151.81 499.769 152.105C499.339 153.215 499.384 154.777 500.041 155.796C500.607 156.68 501.399 157.382 502.192 158.061C502.192 158.061 500.177 160.054 499.996 160.235C499.611 160.598 499.249 160.96 498.864 161.322C498.66 161.526 498.094 162.274 497.822 162.274Z" stroke="#0A0C0C" stroke-width="0.75" stroke-miterlimit="10"/>
<path d="M542.356 324.251H534.93V329.777H542.356V324.251Z" fill="#F4F9F9" stroke="#0A0C0C" stroke-width="0.75" stroke-miterlimit="10"/>
<path d="M524.855 333.401L533.934 328.871C534.16 328.758 534.409 328.713 534.659 328.736C535.609 328.849 538.394 328.939 542.402 326.607C543.126 326.199 544.054 326.539 544.303 327.331L546.409 334.148C546.658 334.986 546.047 335.824 545.164 335.824H525.444C524.085 335.824 523.633 334.012 524.855 333.401Z" fill="#0A0C0C"/>
<path d="M596.761 317.831L590.111 321.136L592.569 326.085L599.219 322.78L596.761 317.831Z" fill="#F4F9F9" stroke="#0A0C0C" stroke-width="0.75" stroke-miterlimit="10"/>
<path d="M585.17 333.786L591.26 325.678C591.419 325.474 591.622 325.316 591.849 325.248C592.754 324.931 595.29 323.753 597.848 319.903C598.301 319.201 599.298 319.11 599.864 319.722L604.777 324.885C605.365 325.52 605.184 326.539 604.414 326.946L586.755 335.756C585.532 336.368 584.332 334.918 585.147 333.809L585.17 333.786Z" fill="#0A0C0C"/>
<path d="M555.533 184.061L548.922 195.498L548.243 232.482L563.095 231.101L565.337 188.455L562.574 185.103L555.533 184.061Z" fill="#F4F9F9"/>
<path d="M534.636 325.497H543.398C543.715 325.497 543.805 325.27 543.986 324.931L547.383 291.366L556.778 263.125L565.404 290.755C565.676 291.298 565.948 291.819 566.265 292.34L589.992 321.42C590.196 321.579 590.468 321.556 590.649 321.397L597.486 318.249C597.69 318.068 597.599 317.842 597.509 317.547L581.162 282.919C581.072 282.624 580.981 282.307 580.936 281.99L576.091 225.733C563.072 228.428 551.118 231.667 541.292 231.848L531.33 282.239C530.968 284.051 530.877 285.908 531.013 287.765L534.138 325.18C534.206 325.383 534.409 325.519 534.613 325.519L534.636 325.497Z" fill="#0A0C0C"/>
<path d="M609.848 236.581C609.848 236.581 609.848 236.581 609.871 236.581C609.984 236.672 610.052 237.08 610.097 237.216C610.188 237.442 610.278 237.691 610.369 237.918C610.55 238.371 610.731 238.801 610.935 239.254C611.32 240.137 611.75 240.998 612.203 241.836C612.565 242.515 612.927 243.172 613.357 243.829C613.788 244.463 614.308 245.052 614.535 245.799C614.806 246.705 614.399 247.566 613.765 248.222C613.063 248.97 612.157 249.174 611.252 249.536C610.822 249.717 610.369 249.853 609.893 249.898C608.988 249.966 607.81 249.853 607.222 249.083C606.792 248.517 606.814 247.905 606.882 247.226C606.927 246.818 606.882 246.32 606.52 246.094C606.271 245.935 605.931 245.958 605.66 246.071C605.365 246.161 605.116 246.32 604.822 246.411C604.528 246.501 604.188 246.456 603.984 246.229C603.78 246.003 603.78 245.663 603.916 245.369C604.052 245.097 604.256 244.871 604.482 244.667C605.275 243.874 605.795 242.492 605.592 241.36C605.433 240.386 604.98 239.48 604.55 238.597C604.55 238.597 607.018 237.601 607.244 237.51C607.697 237.329 608.173 237.148 608.625 236.966C608.875 236.876 609.622 236.423 609.871 236.536L609.848 236.581Z" stroke="#0A0C0C" stroke-width="0.75" stroke-miterlimit="10"/>
<path d="M495.264 160.802L500.607 155.298C500.856 155.049 501.241 155.027 501.513 155.23L510.705 162.364L520.146 169.702C520.146 169.702 522.274 171.288 526.53 172.85C528.229 173.485 531.987 174.798 534.296 175.613C544.779 179.328 555.533 184.061 555.533 184.061C552.771 202.791 550.462 220.094 550.394 233.592C550.394 235.54 549.42 237.374 547.835 238.506L540.658 243.58C539.005 244.735 535.541 243.716 535.881 241.723C538.666 224.873 539.209 220.977 538.666 216.742C537.647 208.702 538.372 202.655 539.979 198.057L515.821 182.453C513.535 181.253 511.474 179.667 509.754 177.742L503.188 170.472L495.264 161.708C495.015 161.436 495.037 161.051 495.264 160.779V160.802Z" fill="#7D8C45" stroke="#0A0C0C" stroke-width="0.75" stroke-miterlimit="10"/>
<path d="M562.574 185.103C577.517 188.5 592.822 200.186 598.709 206.664C600.837 208.996 611.433 236.06 611.433 236.06C611.659 236.717 611.32 237.419 610.686 237.646L604.595 239.979C603.961 240.228 603.26 239.933 602.988 239.299C602.988 239.299 589.63 215.745 589.154 215.451L578.74 208.657C579.125 215.134 578.74 229.674 578.74 233.864C578.74 236.83 580.981 240.658 581.479 243.285C581.977 246.003 578.128 244.485 576.951 243.942C573.781 242.492 568.687 240.59 565.744 238.756L563.231 237.17C561.533 236.106 560.424 234.294 560.265 232.278C558.952 215.881 562.574 185.103 562.574 185.103Z" fill="#7D8C45" stroke="#0A0C0C" stroke-width="0.75" stroke-linejoin="bevel"/>
<path d="M551.526 176.836C551.277 174.64 552.386 170.065 552.975 167.936L564.544 168.049L564.906 173.417C564.612 173.756 564.521 174.187 564.521 174.187L562.597 185.103L557.209 188.862C556.982 189.066 556.62 188.998 556.484 188.704L555.533 184.061L555.601 183.563L555.692 182.997L555.873 181.774C555.873 181.774 555.692 181.774 555.601 181.774C554.695 181.66 553.971 180.981 553.36 180.369C552.726 179.758 551.775 179.328 551.503 176.814L551.526 176.836Z" stroke="#0A0C0C" stroke-width="0.75" stroke-miterlimit="10"/>
<path d="M570.068 167.709C569.616 166.894 568.869 166.328 568.189 165.716C567.669 165.241 567.17 164.697 566.989 163.995C566.763 163.112 567.08 162.183 566.876 161.3C566.559 159.964 565.246 159.375 564.001 159.375C562.416 159.375 560.831 159.76 559.246 159.579C558.975 159.556 558.68 159.511 558.409 159.443C557.956 159.307 557.503 159.194 557.027 159.126C556.212 158.922 555.375 158.718 554.537 158.673C553.133 158.605 551.435 158.99 551.231 160.575C551.186 160.915 551.186 161.254 551.231 161.617C551.322 162.681 551.639 163.768 551.209 164.788C550.847 165.626 550.167 166.464 549.873 167.369C549.692 167.913 549.647 168.479 549.896 169.068C549.964 169.249 550.077 169.408 550.213 169.544C550.281 169.725 550.348 169.883 550.416 170.042C550.643 170.495 550.96 171.038 551.458 171.22C551.888 171.378 552.273 171.174 552.499 170.812C552.952 170.065 552.93 169.181 553.292 168.411C553.496 167.958 554.039 168.185 554.424 168.253C555.533 168.457 556.099 168.592 557.209 168.774C557.82 168.887 558.431 169 559.042 169.113C559.405 169.181 560.378 169.159 560.378 169.702C560.378 169.974 562.19 171.854 562.597 171.786C563.254 171.673 563.367 172.284 563.412 172.782C563.412 172.85 563.412 172.918 563.412 172.986C563.457 173.53 563.525 174.051 563.616 174.571C563.706 175.07 563.706 175.681 564.114 176.044C564.635 176.519 565.427 176.066 565.97 175.908C566.491 175.749 567.465 175.681 567.782 175.16C568.189 174.526 568.167 173.733 568.37 173.009C568.778 171.537 570.431 170.835 570.476 169.227C570.476 168.683 570.34 168.185 570.091 167.732L570.068 167.709Z" fill="#0A0C0C"/>
<path d="M380.793 97.3649C380.951 97.4102 381.132 97.4782 381.291 97.5235C381.789 97.682 383.759 98.2709 384.257 98.452C384.506 98.5426 384.778 98.6559 385.027 98.7465C385.162 98.8144 385.57 99.0635 385.706 99.0182C385.706 99.0182 385.706 99.0182 385.728 99.0182C385.977 98.905 386.204 97.9538 386.294 97.682C386.476 97.1838 386.679 96.6855 386.883 96.1646C386.974 95.9155 387.993 93.1977 388.015 93.1977C386.974 92.8807 385.932 92.5862 385.027 91.9974C383.985 91.318 383.261 89.8911 383.193 88.6455C383.193 88.3058 383.17 87.9661 383.034 87.6717C382.898 87.3546 382.627 87.1055 382.287 87.1055C381.97 87.1055 381.676 87.3546 381.517 87.649C381.359 87.9434 381.291 88.2605 381.178 88.5776C381.042 88.872 380.838 89.1664 380.521 89.257C380.363 89.3023 380.227 89.2797 380.091 89.257C380.838 91.1141 380.77 96.4137 380.815 97.3649H380.793Z" stroke="#0A0C0C" stroke-width="0.75" stroke-miterlimit="10"/>
<path d="M386.204 6.88674C386.204 6.88674 386.023 6.7282 385.932 6.63761C385.253 6.02612 384.642 5.05226 383.668 4.96167L383.057 5.57316C382.219 8.2909 382.31 11.439 382.31 14.2473C382.31 16.3535 382.151 18.4371 381.97 20.5207C381.834 22.1061 381.744 23.6914 381.676 25.2768C381.608 26.8395 381.721 28.4701 381.54 30.0102C381.427 30.9161 381.11 32.2297 381.63 33.0677C388.694 35.5816 396.868 33.8377 403.682 31.4597C407.69 30.0555 411.652 28.3795 415.84 27.5642C419.123 26.9301 422.248 26.9754 425.576 27.3377C425.304 30.5084 424.965 33.6791 424.761 36.8498C424.693 37.3254 424.602 37.8237 424.58 38.322C424.534 39.1826 424.829 39.7035 425.417 40.3376C429.719 44.9578 448.33 51.7974 454.624 49.8724C456.186 49.3968 457.477 48.2644 458.744 47.3132C463.182 43.9839 467.552 41.1529 473.37 41.4247C478.057 41.6285 483.4 44.3916 486.547 47.8793C485.709 46.2487 485.347 45.524 484.804 44.7992C479.959 38.254 473.144 35.3551 465.039 36.261C461.054 36.6913 457.046 37.5972 453.016 36.9857C446.971 36.0572 443.326 32.0032 439.907 27.3604C439.907 27.2924 439.862 27.2245 439.84 27.1792C439.274 25.2994 441.334 17.0783 440.632 15.1759C440.338 14.4058 439.364 13.7717 438.708 13.364C431.485 9.08358 422.904 9.21947 414.776 9.74037C411.086 9.96684 407.418 10.2839 403.705 10.3066C400.694 10.3066 397.705 9.8989 394.739 9.46859C392.77 9.19682 390.641 9.01564 388.74 8.2909C387.834 7.95119 386.974 7.47558 386.204 6.86409V6.88674Z" fill="#EA5A4C" stroke="#0A0C0C" stroke-width="0.75" stroke-miterlimit="10"/>
<path d="M382.83 0.500121C383.6 0.522769 384.211 1.17956 384.189 1.94958L379.955 137.995C379.932 138.765 379.276 139.377 378.506 139.354C377.736 139.331 377.125 138.675 377.148 137.905L381.381 1.85899C381.404 1.08897 382.061 0.477473 382.83 0.500121Z" fill="#0A0C0C"/>
<path d="M377.985 97.048C377.985 97.048 378.189 97.048 378.302 97.048H378.348C379.706 96.7763 380.385 94.2624 380.612 93.1073C380.883 91.7031 380.725 90.1631 379.932 88.9854C379.91 88.9401 379.864 88.8948 379.819 88.8269C379.57 88.4872 379.231 88.1927 378.823 88.0568C378.302 87.8757 377.849 88.0116 377.465 88.2607C377.125 88.4872 376.831 88.8495 376.582 89.2119C375.585 90.6387 374.929 92.4279 375.246 94.1038C375.472 95.2136 376.627 97.0027 377.963 97.0707L377.985 97.048Z" stroke="#0A0C0C" stroke-width="0.75" stroke-miterlimit="10"/>
<path d="M408.98 199.915H401.441V205.531H408.98V199.915Z" fill="#F4F9F9" stroke="#0A0C0C" stroke-width="0.75" stroke-miterlimit="10"/>
<path d="M391.207 209.2L400.422 204.58C400.649 204.467 400.92 204.421 401.169 204.444C402.143 204.557 404.973 204.648 409.048 202.293C409.773 201.862 410.724 202.225 410.973 203.04L413.101 209.948C413.35 210.785 412.739 211.646 411.856 211.646H391.819C390.438 211.646 389.985 209.789 391.23 209.177L391.207 209.2Z" fill="#0A0C0C"/>
<path d="M473.799 226.8L466.525 228.783L468.002 234.202L475.276 232.219L473.799 226.8Z" fill="#F4F9F9" stroke="#0A0C0C" stroke-width="0.75" stroke-miterlimit="10"/>
<path d="M461.054 238.62L463.069 242.266L479.687 237.351C480.547 237.125 480.932 236.128 480.457 235.381L476.585 229.266C476.132 228.541 475.136 228.451 474.525 229.062C471.219 232.391 468.457 233.071 467.506 233.207C467.257 233.252 467.008 233.365 466.827 233.524L461.076 238.62H461.054Z" fill="#0A0C0C"/>
<path d="M459.31 242.266H463.069L461.212 238.529L458.744 239.775C457.499 240.386 457.952 242.266 459.333 242.266H459.31Z" fill="#0A0C0C"/>
<path d="M465.808 229.493L474.978 227.047C475.34 226.956 475.566 226.571 475.476 226.209L465.537 187.549L468.457 144.563C468.955 137.338 462.593 131.541 455.462 132.696L437.077 135.64L400.06 151.425C395.487 154.12 393.064 159.375 393.97 164.606L400.128 199.733C400.196 200.073 400.468 200.299 400.807 200.299H410.294C410.678 200.299 410.995 199.982 410.995 199.597L410.905 168.139C410.905 166.871 411.697 165.739 412.897 165.308L443.326 160.62C444.164 160.326 445.047 160.892 445.115 161.775L447.266 186.665C447.515 189.587 448.285 192.463 449.507 195.136L465.016 229.085C465.152 229.402 465.491 229.56 465.831 229.47L465.808 229.493Z" fill="#0A0C0C"/>
<path d="M493.204 141.845C493.204 141.845 493.204 141.845 493.226 141.845C493.339 141.913 493.453 142.321 493.52 142.457C493.634 142.683 493.747 142.91 493.86 143.114C494.087 143.544 494.313 143.952 494.562 144.382C495.037 145.22 495.536 146.035 496.079 146.828C496.509 147.462 496.939 148.096 497.437 148.685C497.913 149.274 498.524 149.817 498.818 150.519C499.181 151.403 498.864 152.286 498.32 153.011C497.709 153.826 496.826 154.12 495.943 154.573C495.513 154.8 495.083 154.981 494.63 155.072C493.747 155.23 492.547 155.23 491.89 154.528C491.392 154.007 491.37 153.396 491.37 152.716C491.37 152.309 491.279 151.81 490.894 151.629C490.623 151.493 490.306 151.561 490.034 151.697C489.762 151.833 489.513 152.014 489.241 152.105C488.97 152.218 488.607 152.218 488.381 152.014C488.155 151.81 488.132 151.471 488.223 151.176C488.313 150.882 488.517 150.655 488.698 150.406C489.4 149.523 489.762 148.096 489.468 147.009C489.196 146.058 488.675 145.22 488.155 144.382C488.155 144.382 490.509 143.136 490.736 143.023C491.166 142.796 491.619 142.57 492.049 142.344C492.275 142.23 493 141.709 493.249 141.777L493.204 141.845Z" stroke="#0A0C0C" stroke-width="0.75" stroke-miterlimit="10"/>
<path d="M384.257 100.355L387.087 93.1751C387.223 92.8354 387.585 92.6543 387.947 92.7675L414.912 101.396L446.835 88.5776L443.394 92.4504L439.681 135.798L440.655 135.866C440.496 138.335 440.451 140.532 440.587 142.389C440.519 143.408 439.613 144.178 438.594 144.065L424.331 142.412C423.244 142.298 422.746 141.007 423.425 140.192C427.953 134.711 432.979 128.234 434.044 120.987C434.519 117.793 434.474 114.555 434.428 111.339L417.584 114.532C415.207 115.03 412.739 114.736 410.565 113.649L384.642 101.238C384.302 101.079 384.166 100.694 384.302 100.355H384.257Z" fill="#49746F" stroke="#0A0C0C" stroke-width="0.75" stroke-linejoin="bevel"/>
<path d="M453.786 98.5201C453.854 97.048 453.899 95.5533 453.967 94.0812C453.967 93.6282 454.352 89.8913 454.126 89.7781C454.126 89.7781 466.51 90.9784 471.559 97.3198C476.065 102.982 481.091 111.996 483.717 116.638C484.849 118.631 495.015 142.48 495.015 142.48C495.151 142.819 495.015 143.204 494.675 143.363L489.355 146.013C489.015 146.171 488.63 146.058 488.449 145.741C488.404 145.673 488.358 145.605 488.336 145.537C487.792 144.676 487.272 143.793 486.728 142.933C485.777 141.393 484.826 139.83 483.876 138.29C482.766 136.478 481.657 134.666 480.547 132.854C479.28 130.793 478.034 128.687 476.812 126.581C475.838 124.905 474.729 123.252 473.234 122.006C471.627 120.647 469.725 119.492 468.005 118.269C467.71 118.065 467.438 117.861 467.144 117.658C468.05 129.706 469.408 143.499 470.699 150.588C470.993 152.15 469.363 153.373 467.937 152.671L456.458 146.851C453.673 145.447 453.764 141.823 453.514 139.173C453.243 136.251 453.13 133.307 453.084 130.363C452.948 122.663 453.175 114.985 453.447 107.285C453.56 104.363 453.673 101.442 453.786 98.5201Z" fill="#49746F" stroke="#0A0C0C" stroke-width="0.75" stroke-linejoin="bevel"/>
<path d="M448.42 77.1177C448.42 77.1177 448.466 76.6421 448.284 76.2345L450.39 71.0481L461.846 74.6718C462.367 77.1404 462.276 80.2884 461.167 82.2361C461.099 82.3494 458.45 86.9469 457.635 87.3545C456.82 87.7622 455.688 87.6943 454.737 87.5131C454.647 87.5131 454.556 87.4451 454.465 87.4225L454.262 88.6908L454.171 89.2796L454.08 89.8005L448.624 93.9677C448.398 94.2169 448.013 94.1716 447.854 93.8771L446.768 88.5775L448.375 77.1404L448.42 77.1177Z" stroke="#0A0C0C" stroke-width="0.75" stroke-miterlimit="10"/>
<path d="M448.669 70.097C449.19 69.5308 449.801 69.0325 450.503 68.7155C451.273 68.3757 452.133 68.2172 452.971 68.0813C452.994 68.0813 453.062 68.0813 453.152 68.0587C453.22 67.8322 453.356 67.4925 453.379 67.4472C453.492 67.2433 453.628 67.0622 453.786 66.9036C453.831 66.8583 453.877 66.813 453.945 66.7677C454.873 65.9524 455.869 65.9751 456.843 66.2695C457.544 66.496 458.269 66.8583 458.948 67.1527C459.333 67.3339 459.718 67.4472 460.103 67.4925C460.624 67.5604 461.144 67.4925 461.665 67.2886C462.639 66.9263 463.476 66.2242 464.518 65.9977C466.103 65.658 467.62 67.0169 467.937 68.5116C468.004 68.874 468.027 69.2364 467.982 69.5987C467.687 71.7729 466.261 74.0377 464.065 74.6945C463.137 74.9663 462.163 74.853 461.212 74.6945C459.967 74.4906 458.722 74.3095 457.454 74.1509C456.82 74.0603 456.163 73.9698 455.529 73.9018C455.145 73.8565 454.194 73.5168 454.013 74.0377C453.922 74.3095 454.058 74.6265 454.126 74.8983C454.443 76.1439 452.292 76.8687 452.065 76.461C451.862 76.0987 451.545 75.5778 451.16 75.3739C450.458 75.0116 450.164 75.7816 449.96 76.2798C449.643 77.0499 449.326 77.7519 448.896 78.454C448.737 78.7031 448.556 78.9523 448.284 79.0655C447.537 79.4052 447.198 78.4993 447.152 77.9105C447.085 77.3443 447.039 76.7781 447.039 76.1892C446.971 73.9924 447.198 71.7729 448.737 70.0517L448.669 70.097Z" fill="#0A0C0C"/>
<path d="M718.365 115.03H629.998C629.568 115.03 629.342 114.487 629.659 114.192C631.243 112.652 633.213 111.542 635.341 110.954C636.338 110.682 637.379 110.455 638.398 110.478C639.62 110.478 640.866 110.818 642.066 110.41C643.945 109.753 644.171 107.76 644.624 106.084C646.073 100.83 651.688 96.9346 657.054 97.8858C658.548 98.1575 660.223 98.6558 661.718 98.1122C663.416 97.5234 664.231 95.7342 665.204 94.3527C667.808 90.6158 672.404 88.3737 676.955 88.5775C681.506 88.7813 685.875 91.4538 688.117 95.4172C689.158 97.2516 689.973 99.3579 690.607 101.374C690.743 101.781 690.879 102.212 691.286 102.415C691.558 102.551 691.875 102.574 692.169 102.551C693.143 102.529 694.094 102.234 695.067 102.212C696.041 102.189 697.06 102.257 698.011 102.393C700.116 102.71 702.222 103.933 702.946 105.926C703.399 107.171 703.309 108.621 704.078 109.708C704.984 110.976 706.75 111.293 708.312 111.135C709.874 110.976 711.369 110.433 712.931 110.455C715.716 110.478 718.025 111.859 718.795 114.396C718.885 114.713 718.659 115.03 718.319 115.03H718.365Z" stroke="#0A0C0C" stroke-width="0.75" stroke-miterlimit="10"/>
<path d="M119.678 64.9107C122.305 62.125 126.312 60.4944 130.093 60.8341C131.067 60.9247 132.063 61.1285 132.991 60.8341C134.78 60.2679 135.572 58.2296 136.817 56.8028C138.266 55.1721 140.576 54.3568 142.727 54.6965C144.289 54.9457 145.806 55.7836 147.345 55.4213C149.27 54.9909 150.288 52.9753 151.353 51.322C153.322 48.3098 156.356 45.9092 159.865 45.2297C163.375 44.5503 167.337 45.7506 169.488 48.6269C170.439 49.8952 171.005 51.4352 172.318 52.4544C172.567 52.6582 172.839 52.8168 173.133 52.93C175.171 53.7453 176.574 52.1147 178.182 51.2088C179.291 50.5746 180.582 50.3255 181.85 50.4161C182.483 50.4614 183.14 50.5973 183.729 50.8237C184.249 51.0276 184.793 51.5485 185.359 51.5711C186.038 51.5938 186.491 50.9143 186.921 50.484C187.464 49.9631 187.94 49.3969 188.37 48.8081C189.253 47.6077 190.023 46.3168 190.838 45.0712C193.125 41.6514 196.453 38.843 200.37 37.5748C204.286 36.3291 208.815 36.7594 212.211 39.0922C215.448 41.3116 217.622 45.1391 221.357 46.3848C224.165 47.3133 227.199 46.5433 230.051 45.8865C231.999 45.4336 233.968 45.0485 235.938 45.3203C237.908 45.5921 239.877 46.5886 240.806 48.3325C241.508 49.6687 241.621 51.3446 242.708 52.3864C243.862 53.4962 245.673 53.4509 247.213 53.0432C248.753 52.6356 250.224 51.8882 251.809 51.8429C254.232 51.7523 256.473 53.2924 257.877 55.2401C258.465 56.078 258.941 56.984 259.348 57.9352C259.597 58.524 259.869 59.1355 260.05 59.747C260.254 60.4038 260.345 61.0153 260.797 61.5588C261.545 62.4874 262.745 62.4421 263.831 62.6686C264.85 62.8724 265.869 63.0536 266.91 63.1668C267.839 63.2801 268.767 63.3706 269.627 63.6877C270.488 64.0048 271.325 64.5936 271.665 65.4543C271.914 66.0657 271.823 67.0849 271.461 67.8096C271.257 68.2173 270.805 68.4891 270.352 68.4891C260.503 68.4891 121.195 68.4891 121.195 68.4891C119.361 68.4891 118.388 66.2922 119.656 64.956L119.678 64.9107Z" stroke="#0A0C0C" stroke-width="0.75" stroke-miterlimit="10"/>
<path d="M227.946 307.447C208.022 307.922 188.098 308.035 168.175 307.786C165.345 307.741 162.401 308.035 159.639 307.243C156.922 306.473 153.639 304.072 154.341 300.833C155.134 297.3 159.933 297.527 161.609 294.741C162.809 292.748 162.039 290.189 163.33 288.264C164.96 285.84 168.265 286.044 170.756 285.07C175.08 283.372 176.733 279.25 180.151 276.442C183.253 273.905 187.781 273.226 191.472 274.743C194.302 275.898 196.566 278.321 197.607 281.175C197.856 281.832 198.038 282.557 198.581 283.032C199.826 284.097 202.203 283.077 203.72 283.213C205.554 283.372 207.411 284.3 208.249 285.931C208.565 286.565 208.724 287.313 209.154 287.879C211.486 291.004 217.644 286.769 218.867 291.253C219.116 292.205 218.912 293.246 219.161 294.198C219.569 295.919 221.108 296.689 222.784 296.711C223.757 296.711 224.754 296.553 225.727 296.621C228.399 296.825 230.912 299.067 231.048 301.807C231.138 303.596 230.255 307.356 227.946 307.424V307.447Z" stroke="#0A0C0C" stroke-width="0.75" stroke-miterlimit="10"/>
<path d="M687.12 434.07L689.543 421.342C689.611 421.025 689.769 420.731 689.996 420.527C690.901 419.734 693.233 417.175 693.981 411.264C694.116 410.2 695.248 409.656 696.29 410.154L705.301 414.435C706.41 414.956 706.818 416.315 706.116 417.13L690.222 435.769C689.113 437.06 686.781 435.769 687.12 434.07Z" fill="#0A0C0C"/>
<path d="M631.855 434.569L641.115 426.053C641.341 425.85 641.635 425.714 641.93 425.691C643.084 425.6 646.39 424.944 650.375 420.776C651.099 420.029 652.277 420.256 652.82 421.252L657.371 429.813C657.937 430.855 657.461 432.146 656.442 432.395L633.281 437.694C631.674 438.057 630.609 435.724 631.855 434.569Z" fill="#0A0C0C"/>
<path d="M539.119 476.309C539.119 476.309 543.443 468.54 549.239 462.584C555.012 456.605 560.922 453.91 560.922 453.91C560.922 453.91 560.854 461.497 552.16 468.767C543.466 476.037 539.141 476.331 539.141 476.331L539.119 476.309Z" fill="#C3D973"/>
<path d="M539.39 441.975C539.39 441.975 539.345 435.067 537.919 431.081C536.492 427.072 533.142 422.905 530.47 421.795C530.47 421.795 530.515 425.827 532.643 431.081C534.794 436.335 539.39 442.156 539.39 442.156V441.975Z" fill="#C3D973"/>
<path d="M542.039 442.156C542.039 442.156 551.979 437.671 556.416 432.915C560.854 428.159 562.212 425.396 562.62 424.241C563.027 423.086 563.548 419.825 563.548 419.825C563.548 419.825 556.801 422.565 550.733 429.382C544.666 436.199 542.153 440.91 542.017 442.156H542.039Z" fill="#7D8C45"/>
<path d="M542.741 454.114C542.741 454.114 553.36 451.781 558.703 448.248C564.046 444.715 566.831 440.072 566.899 439.076C566.899 439.076 559.405 440.435 552.884 445.417C546.364 450.4 542.741 454.137 542.741 454.137V454.114Z" fill="#7D8C45"/>
<path d="M534.658 484.598C534.658 484.598 533.957 475.04 530.198 467.499C526.417 459.957 523.066 456.673 523.066 456.673C523.066 456.673 520.236 462.154 524.085 470.647C527.934 479.117 534.636 484.621 534.636 484.621L534.658 484.598Z" fill="#7D8C45"/>
<path d="M538.938 493.566C538.938 493.566 549.465 488.697 554.378 483.397C559.291 478.12 561.193 472.821 560.831 470.624C560.831 470.624 553.065 474.202 547.677 480.951C542.266 487.7 538.802 492.321 538.938 493.544V493.566Z" fill="#C3D973"/>
<path d="M528.976 485.028C528.976 485.028 525.783 477.781 520.168 472.413C514.554 467.046 508.848 462.38 506.833 461.973C506.833 461.973 506.358 469.514 514.712 476.309C523.066 483.103 528.953 485.028 528.953 485.028H528.976Z" fill="#C3D973"/>
<path d="M527.617 501.855C527.617 501.855 519.851 495.695 515.55 490.305C511.271 484.915 508.395 477.26 508.395 477.26C508.395 477.26 516.591 479.389 521.165 486.727C525.761 494.064 527.595 502.059 527.595 502.059V501.833L527.617 501.855Z" fill="#7D8C45"/>
<path d="M528.976 485.368C505.18 474.474 506.448 462.448 506.516 461.95C521.436 468.948 529.179 484.756 529.27 484.915C529.202 485.323 529.089 485.39 528.976 485.39V485.368ZM507.173 462.516C507.218 464.849 508.531 475.222 528.41 484.62C526.893 481.767 519.602 468.971 507.173 462.516Z" fill="#0A0C0C"/>
<path d="M538.938 493.883C538.371 493.204 547.201 477.011 560.673 470.239C561.216 470.986 562.416 482.967 539.073 493.838C539.028 493.838 538.983 493.861 538.938 493.861V493.883ZM560.514 471.077C548.945 477.101 540.93 490.101 539.209 493.068C559.11 483.669 560.469 473.41 560.514 471.077Z" fill="#0A0C0C"/>
<path d="M527.912 502.399C527.708 502.331 527.074 501.878 527.074 501.878C523.542 499.251 511.724 489.739 508.101 477.351C508.599 476.966 522.455 479.253 528.229 501.991C528.047 502.376 527.979 502.399 527.912 502.399ZM508.893 477.713C512.697 489.784 524.697 499.274 527.368 501.267C522.229 482.288 511.407 478.37 508.893 477.713Z" fill="#0A0C0C"/>
<path d="M534.432 484.938C516.75 467.68 522.41 456.832 522.659 456.379C533.051 466.57 534.749 481.54 534.998 484.417C534.568 484.892 534.5 484.915 534.432 484.915V484.938ZM523.044 457.126C522.206 459.255 519.557 469.288 534.274 484.009C533.911 480.295 531.987 466.729 523.044 457.126Z" fill="#0A0C0C"/>
<path d="M537.896 456.718C537.76 456.696 537.058 456.379 537.058 456.379C514.35 445.576 515.414 433.821 515.459 433.346C530.311 440.299 537.873 455.609 538.19 456.265C538.077 456.696 537.987 456.741 537.896 456.741V456.718ZM516.093 433.912C516.161 436.245 517.701 446.391 537.172 455.722C535.406 452.415 528.274 440.231 516.093 433.912Z" fill="#0A0C0C"/>
<path d="M539.232 442.496C538.892 442.269 530.289 431.692 530.13 421.818C530.968 421.637 540.047 425.17 539.707 441.997C539.413 442.45 539.322 442.496 539.232 442.496ZM530.81 422.316C531.194 430.56 537.398 439.212 539.073 441.408C539.164 427.639 532.621 423.267 530.81 422.316Z" fill="#0A0C0C"/>
<path d="M541.768 442.745C541.451 442.36 541.541 441.68 541.541 441.68C543.534 437.921 550.892 425.51 563.412 419.236C563.933 419.983 564.997 431.851 541.926 442.722C541.881 442.722 541.836 442.745 541.79 442.745H541.768ZM542.175 441.839C561.623 432.553 563.14 422.407 563.231 420.074C551.231 426.302 544.145 438.215 542.175 441.839Z" fill="#0A0C0C"/>
<path d="M539.119 477.124C539.436 474.927 547.088 460.455 560.763 453.615C561.284 454.363 562.348 466.253 539.254 477.101C539.209 477.101 539.164 477.124 539.119 477.124ZM560.582 454.431C548.447 460.727 541.224 473.07 539.526 476.241C558.997 466.91 560.514 456.763 560.582 454.431Z" fill="#0A0C0C"/>
<path d="M542.673 454.499C542.334 453.683 553.812 441.68 566.876 438.555C567.193 439.37 565.269 449.697 542.922 454.431C542.786 454.499 542.741 454.499 542.673 454.499ZM566.491 439.325C555.465 442.178 545.662 451.305 543.262 453.683C561.895 449.607 565.789 441.454 566.491 439.325Z" fill="#0A0C0C"/>
<path d="M533.798 509.556C533.572 509.533 533.459 509.375 533.481 509.193L541.428 442.382C541.428 442.201 541.609 442.088 541.79 442.088C541.971 442.088 542.107 442.269 542.085 442.45L534.138 509.261C534.138 509.42 533.979 509.556 533.821 509.556H533.798Z" fill="#0A0C0C"/>
<path d="M530.108 509.556C529.927 509.556 529.791 509.42 529.791 509.239L528.681 485.051C528.681 484.869 528.817 484.711 528.998 484.711C529.179 484.711 529.338 484.847 529.338 485.028L530.447 509.216C530.447 509.397 530.311 509.556 530.13 509.556H530.108Z" fill="#0A0C0C"/>
<path d="M528.161 509.533C527.979 509.533 527.844 509.397 527.844 509.216L527.617 502.105C527.617 501.923 527.753 501.765 527.934 501.765C528.093 501.765 528.274 501.901 528.274 502.082L528.5 509.193C528.5 509.375 528.364 509.533 528.183 509.533H528.161Z" fill="#0A0C0C"/>
<path d="M537.805 509.533C537.602 509.533 537.466 509.375 537.466 509.193L538.236 493.521C538.236 493.34 538.394 493.227 538.575 493.204C538.756 493.204 538.892 493.363 538.892 493.544L538.122 509.216C538.122 509.397 537.964 509.533 537.805 509.533Z" fill="#0A0C0C"/>
<path d="M535.881 489.762C535.564 489.512 534.228 484.145 534.228 484.145C534.183 483.964 534.296 483.783 534.477 483.737C534.658 483.692 534.84 483.805 534.885 483.986L536.221 489.354C536.266 489.535 536.153 489.716 535.972 489.762C535.949 489.762 535.926 489.762 535.904 489.762H535.881Z" fill="#0A0C0C"/>
<path d="M537.285 480.363C536.968 480.249 536.9 480.046 536.99 479.887L538.621 476.558C538.688 476.399 538.892 476.331 539.051 476.399C539.209 476.49 539.277 476.671 539.209 476.83L537.579 480.159C537.511 480.272 537.398 480.34 537.285 480.34V480.363Z" fill="#0A0C0C"/>
<path d="M538.756 466.751C538.439 466.457 537.556 456.424 537.556 456.424C537.556 456.243 537.67 456.084 537.851 456.062C538.009 456.039 538.19 456.175 538.213 456.356L539.073 466.389C539.073 466.57 538.96 466.729 538.779 466.751C538.779 466.751 538.779 466.751 538.756 466.751Z" fill="#0A0C0C"/>
<path d="M540.704 450.399C540.387 450.128 538.915 442.224 538.915 442.224C538.892 442.042 539.005 441.884 539.187 441.839C539.368 441.816 539.526 441.929 539.572 442.11L541.021 450.014C541.066 450.196 540.93 450.354 540.749 450.399C540.749 450.399 540.704 450.399 540.681 450.399H540.704Z" fill="#0A0C0C"/>
<path d="M539.549 461.384C539.255 461.293 539.187 461.089 539.254 460.931L542.266 453.933C542.334 453.774 542.537 453.683 542.696 453.751C542.854 453.819 542.945 454.023 542.877 454.182L539.866 461.18C539.821 461.293 539.685 461.384 539.571 461.384H539.549Z" fill="#0A0C0C"/>
<path d="M463.069 497.892C463.069 497.892 458.224 496.194 458.677 491.845C459.107 487.497 461.62 483.941 464.337 481.201C467.054 478.46 472.759 472.98 478.397 471.054C478.397 471.054 477.649 477.396 476.382 481.812C475.136 486.229 473.551 492.57 470.087 496.035C466.623 499.5 463.046 497.892 463.046 497.892H463.069Z" fill="#7D8C45"/>
<path d="M458.405 476.649L450.752 441.793C450.752 441.793 444.617 450.875 444.322 460.07C444.028 469.265 450.752 475.72 458.405 476.649Z" fill="#7D8C45"/>
<path d="M450.775 496.85C450.775 496.85 453.854 495.175 453.56 491.121C453.265 487.044 450.73 484.507 445.794 480.77C440.858 477.034 431.598 474.089 431.598 474.089C431.598 474.089 433.138 479.162 433.885 481.246C434.632 483.33 438.187 492.276 441.583 495.446C444.979 498.617 448.126 499.115 450.798 496.85H450.775Z" fill="#7D8C45"/>
<path d="M461.892 479.162C461.756 479.162 452.677 477.668 449.054 470.08C445.998 463.649 447.673 454.861 454.035 443.968C454.443 444.035 462.118 478.891 462.118 478.891C462.027 479.14 461.959 479.162 461.892 479.162ZM454.148 444.715C448.103 455.246 446.519 463.716 449.485 469.899C452.609 476.467 459.967 478.324 461.62 478.664L454.148 444.715Z" fill="#0A0C0C"/>
<path d="M448.624 497.009C446.247 497.009 443.892 495.423 441.538 492.275C445.319 496.624 448.783 497.734 452.179 495.288C454.624 493.521 455.552 491.324 454.918 488.765C453.175 481.767 440.564 474.067 433.568 472.889C433.862 473.931 434.813 477.283 436.285 481.11C434.066 476.648 433.047 472.708 433.025 472.662C440.315 473.364 453.537 481.382 455.326 488.652C456.005 491.415 455.031 493.77 452.405 495.65C451.137 496.556 449.869 497.031 448.601 497.031L448.624 497.009Z" fill="#0A0C0C"/>
<path d="M467.642 500.112C466.669 500.112 465.65 499.863 464.631 499.342C461.824 497.96 460.51 495.831 460.714 493.046C461.28 485.436 473.529 474.588 480.57 472.345C480.751 473.5 478.215 495.107 470.404 499.387C469.521 499.863 468.593 500.112 467.642 500.112ZM480.366 472.912C473.37 475.335 461.71 485.776 461.167 493.091C460.963 495.695 462.209 497.666 464.812 498.957C466.714 499.885 468.525 499.908 470.178 499.002C477.265 495.129 480.004 475.788 480.366 472.912Z" fill="#0A0C0C"/>
<path d="M459.016 512.432C452.609 490.147 440.745 478.823 440.632 478.709C441.062 478.483 452.994 489.897 459.22 512.138C459.039 512.432 459.016 512.432 458.994 512.432H459.016Z" fill="#0A0C0C"/>
<path d="M461.892 512.432C461.665 512.206 462.209 497.53 462.209 497.53C462.661 497.53 462.118 512.206 462.118 512.206C462.118 512.319 462.005 512.432 461.892 512.432Z" fill="#0A0C0C"/>
<path d="M462.186 488.833C461.959 488.606 461.665 478.958 461.665 478.958C462.118 478.958 462.412 488.607 462.412 488.607C462.186 488.833 462.186 488.833 462.186 488.833Z" fill="#0A0C0C"/>
<path d="M465.673 512.5C461.688 488.969 475.77 477.351 475.929 477.237C476.065 477.713 462.186 489.15 465.899 512.251C465.695 512.523 465.695 512.523 465.673 512.523V512.5Z" fill="#0A0C0C"/>
<path d="M605.297 497.892C605.297 497.892 610.142 496.194 609.69 491.845C609.259 487.497 606.746 483.941 604.029 481.201C601.313 478.46 595.607 472.98 589.97 471.054C589.97 471.054 590.717 477.396 591.985 481.812C593.23 486.229 594.815 492.57 598.279 496.035C601.743 499.5 605.32 497.892 605.32 497.892H605.297Z" fill="#7D8C45"/>
<path d="M609.984 476.649L617.636 441.793C617.636 441.793 623.772 450.875 624.066 460.07C624.361 469.265 617.636 475.72 609.984 476.649Z" fill="#7D8C45"/>
<path d="M617.614 496.85C617.614 496.85 614.535 495.175 614.829 491.121C615.123 487.044 617.659 484.507 622.595 480.77C627.53 477.034 636.79 474.089 636.79 474.089C636.79 474.089 635.251 479.162 634.504 481.246C633.757 483.33 630.202 492.276 626.806 495.446C623.41 498.617 620.263 499.115 617.591 496.85H617.614Z" fill="#7D8C45"/>
<path d="M606.248 478.891C606.248 478.891 613.901 444.035 614.331 443.968C620.693 454.861 622.368 463.649 619.312 470.08C615.689 477.668 606.61 479.14 606.475 479.162C606.407 479.162 606.361 479.14 606.248 478.891ZM606.769 478.664C608.422 478.324 615.78 476.467 618.904 469.899C621.848 463.716 620.285 455.246 614.24 444.715L606.769 478.664Z" fill="#0A0C0C"/>
<path d="M619.742 497.009C622.119 497.009 624.474 495.423 626.828 492.275C623.047 496.624 619.584 497.734 616.187 495.288C613.742 493.521 612.814 491.324 613.448 488.765C615.191 481.767 627.802 474.067 634.798 472.889C634.504 473.931 633.553 477.283 632.081 481.11C634.3 476.648 635.319 472.708 635.341 472.662C628.051 473.364 614.829 481.382 613.04 488.652C612.361 491.415 613.335 493.77 615.961 495.65C617.229 496.556 618.497 497.031 619.765 497.031L619.742 497.009Z" fill="#0A0C0C"/>
<path d="M597.984 499.387C590.151 495.107 587.615 473.5 587.819 472.345C594.86 474.588 607.108 485.436 607.674 493.046C607.878 495.831 606.565 497.96 603.758 499.342C602.716 499.863 601.72 500.112 600.746 500.112C599.773 500.112 598.867 499.863 597.984 499.387ZM598.188 499.002C599.841 499.908 601.652 499.885 603.554 498.957C606.18 497.666 607.403 495.695 607.199 493.091C606.656 485.776 594.973 475.335 588 472.912C588.362 475.788 591.102 495.129 598.188 499.002Z" fill="#0A0C0C"/>
<path d="M609.35 512.432C615.757 490.147 627.621 478.823 627.734 478.709C627.304 478.483 615.372 489.897 609.146 512.138C609.327 512.432 609.35 512.432 609.373 512.432H609.35Z" fill="#0A0C0C"/>
<path d="M606.475 512.432C606.701 512.206 606.158 497.53 606.158 497.53C605.705 497.53 606.248 512.206 606.248 512.206C606.248 512.319 606.361 512.432 606.475 512.432Z" fill="#0A0C0C"/>
<path d="M606.203 488.833C606.429 488.606 606.724 478.958 606.724 478.958C606.271 478.958 605.976 488.607 605.976 488.607C606.203 488.833 606.203 488.833 606.203 488.833Z" fill="#0A0C0C"/>
<path d="M602.716 512.5C606.701 488.969 592.619 477.351 592.46 477.237C592.324 477.713 606.203 489.15 602.49 512.251C602.694 512.523 602.694 512.523 602.716 512.523V512.5Z" fill="#0A0C0C"/>
<path d="M240.172 508.718C240.172 508.718 248.707 490.056 250.971 484.485C253.213 478.913 258.624 465.778 260.797 457.375C262.971 448.973 265.167 441.408 263.944 435.158C262.722 428.907 255.771 429.315 253.439 430.447C251.107 431.579 245.855 436.879 245.855 436.879C245.855 436.879 246.715 425.079 247.213 416.269C247.711 407.459 247.598 397.472 244.632 390.338C241.643 383.226 235.734 382.977 232.587 385.627C229.463 388.277 224.867 395.252 223.735 412.125C222.625 428.997 223.735 449.901 224.391 457.421C225.048 464.94 226.52 478.506 226.52 478.506C226.52 478.506 223.531 468.586 219.388 462.788C215.244 456.99 212.279 456.447 209.471 457.511C206.664 458.576 206.369 465.257 208.656 472.006C210.943 478.755 218.618 496.262 221.788 502.105C224.98 507.948 225.32 508.582 225.32 508.582C225.32 508.582 234.376 509.511 240.172 508.695V508.718Z" fill="#C3D973"/>
<path d="M245.832 436.879C245.832 436.879 246.692 425.079 247.19 416.269C247.688 407.459 247.575 397.472 244.609 390.338C241.621 383.226 235.712 382.977 232.565 385.627C229.44 388.277 224.844 395.252 223.712 412.125C222.603 428.997 223.712 449.901 224.369 457.421C225.025 464.94 226.497 478.506 226.497 478.506L232.542 502.127C232.542 502.127 233.017 492.344 233.402 486.659C233.787 480.974 234.783 470.556 237.908 456.968C241.032 443.402 245.832 436.856 245.832 436.856V436.879Z" fill="#C3D973"/>
<path d="M229.848 480.385C229.033 476.898 219.229 403.27 233.651 386.94C235.53 384.812 237.772 383.747 240.308 383.747C242.549 383.77 244.36 384.653 245.855 386.329C251.243 392.489 252.285 409.656 248.979 437.4C251.424 410.2 250.405 392.738 245.243 386.85C243.907 385.31 242.323 384.562 240.421 384.54C238.021 384.54 235.983 385.514 234.285 387.461C220.09 403.496 230.165 479.14 230.278 479.91C229.916 480.363 229.893 480.363 229.87 480.363L229.848 480.385Z" fill="#0A0C0C"/>
<path d="M243.319 509.126C243.251 507.925 272.661 447.252 266.027 433.187C265.348 431.76 264.352 430.9 262.971 430.583C259.462 429.745 256.224 430.47 253.349 432.712C237.115 445.349 236.142 502.241 236.119 502.807C235.349 500.451 236.3 444.942 252.851 432.078C255.93 429.677 259.416 428.907 263.152 429.813C264.782 430.198 265.982 431.217 266.752 432.87C273.567 447.274 244.904 506.408 243.681 508.922C243.613 509.058 243.477 509.148 243.319 509.148V509.126Z" fill="#0A0C0C"/>
<path d="M236.844 509.397C236.346 508.537 227.719 457.398 214.882 457.398C214.633 457.398 214.361 457.398 214.09 457.466C212.754 457.692 211.826 458.372 211.26 459.549C206.573 469.401 228.602 508.038 228.806 508.423C227.176 507.223 205.645 469.424 210.513 459.21C211.192 457.783 212.346 456.945 213.931 456.673C228.036 454.431 236.844 506.725 237.206 508.944C236.844 509.42 236.821 509.42 236.798 509.42L236.844 509.397Z" fill="#0A0C0C"/>
<path d="M230.482 503.532C230.097 503.282 215.177 464.555 215.177 464.555C215.924 464.26 230.867 502.988 230.867 502.988C230.595 503.532 230.527 503.532 230.482 503.532Z" fill="#0A0C0C"/>
<path d="M240.896 502.535C242.73 482.877 256.518 441.771 256.654 441.363C257.288 442.043 243.5 483.058 241.281 502.195C241.259 502.399 241.077 502.558 240.874 502.558L240.896 502.535Z" fill="#0A0C0C"/>
<path d="M235.712 477.079C235.304 476.671 237.953 395.298 237.953 395.298C238.768 395.32 236.119 476.694 236.119 476.694C236.119 476.92 235.938 477.079 235.712 477.079Z" fill="#0A0C0C"/>
<path d="M80.3969 111.927L85.8759 106.447C86.3514 105.971 86.3514 105.178 85.8759 104.703C85.4005 104.227 84.608 104.227 84.1326 104.703L78.6536 110.183L73.1745 104.703C72.6991 104.227 71.9066 104.227 71.4312 104.703C70.9557 105.178 70.9557 105.971 71.4312 106.447C71.4312 106.447 74.0122 109.028 76.9329 111.905L71.4312 117.408C70.9557 117.884 70.9557 118.676 72.3142 119.514C72.6311 119.514 72.9481 119.401 73.1972 119.152L78.7215 113.626C81.7327 116.57 84.6533 119.356 85.0382 119.514C85.3552 119.514 85.6721 119.401 85.9212 119.152C86.3966 118.676 86.3966 117.884 85.9212 117.408L80.4422 111.927H80.3969Z" fill="#0A0C0C"/>
<path d="M614.92 379.897L618.836 375.979C619.176 375.639 619.176 375.073 618.836 374.733C618.497 374.393 617.931 374.393 617.591 374.733L613.674 378.651L609.758 374.733C609.418 374.393 608.852 374.393 608.512 374.733C608.173 375.073 608.173 375.639 608.512 375.979C608.512 375.979 610.369 377.836 612.452 379.874L608.512 383.815C608.173 384.155 608.173 384.721 609.146 385.332C609.373 385.332 609.599 385.242 609.78 385.083L613.742 381.142C615.893 383.249 617.976 385.242 618.27 385.355C618.497 385.355 618.723 385.264 618.904 385.106C619.244 384.766 619.244 384.2 618.904 383.86L614.988 379.942L614.92 379.897Z" fill="#0A0C0C"/>
<path d="M340.13 294.356L344.047 290.438C344.387 290.098 344.387 289.532 344.047 289.192C343.707 288.853 343.141 288.853 342.802 289.192L338.885 293.11L334.968 289.192C334.629 288.853 334.062 288.853 333.723 289.192C333.383 289.532 333.383 290.098 333.723 290.438C333.723 290.438 335.579 292.295 337.662 294.333L333.723 298.274C333.383 298.614 333.383 299.18 334.357 299.791C334.583 299.791 334.81 299.701 334.991 299.542L338.953 295.602C341.104 297.708 343.187 299.701 343.481 299.814C343.707 299.814 343.934 299.724 344.115 299.565C344.455 299.225 344.455 298.659 344.115 298.319L340.198 294.401L340.13 294.356Z" fill="#0A0C0C"/>
<path d="M170.529 376.681L174.446 372.763C174.786 372.423 174.786 371.857 174.446 371.517C174.106 371.177 173.54 371.177 173.201 371.517L169.284 375.435L165.367 371.517C165.028 371.177 164.462 371.177 164.122 371.517C163.782 371.857 163.782 372.423 164.122 372.763C164.122 372.763 165.978 374.62 168.061 376.658L164.122 380.599C163.782 380.938 163.782 381.505 164.756 382.116C164.982 382.116 165.209 382.026 165.39 381.867L169.352 377.926C171.503 380.033 173.586 382.026 173.88 382.139C174.106 382.139 174.333 382.048 174.514 381.89C174.854 381.55 174.854 380.984 174.514 380.644L170.597 376.726L170.529 376.681Z" fill="#0A0C0C"/>
<path d="M60.8806 106.469C58.1864 106.469 56.0129 104.295 56.0129 101.6C56.0129 98.9049 58.209 96.7307 60.8806 96.7307C63.5522 96.7307 65.7484 98.9049 65.7484 101.6C65.7484 104.295 63.5522 106.469 60.8806 106.469ZM60.8806 99.1993C59.5448 99.1993 58.4807 100.286 58.4807 101.6C58.4807 102.914 59.5448 104.001 60.8806 104.001C62.2164 104.001 63.2806 102.914 63.2806 101.6C63.2806 100.286 62.2164 99.1993 60.8806 99.1993Z" fill="#0A0C0C"/>
<path d="M427.795 355.346C425.1 355.346 422.927 353.172 422.927 350.477C422.927 347.782 425.123 345.608 427.795 345.608C430.466 345.608 432.662 347.782 432.662 350.477C432.662 353.172 430.466 355.346 427.795 355.346ZM427.795 348.077C426.459 348.077 425.395 349.164 425.395 350.477C425.395 351.791 426.459 352.878 427.795 352.878C429.131 352.878 430.195 351.791 430.195 350.477C430.195 349.164 429.131 348.077 427.795 348.077Z" fill="#0A0C0C"/>
<path d="M516.093 228.156C513.399 228.156 511.203 225.982 511.203 223.287C511.203 220.592 513.399 218.418 516.093 218.418C518.787 218.418 520.961 220.592 520.961 223.287C520.961 225.982 518.765 228.156 516.093 228.156ZM516.093 220.886C514.757 220.886 513.693 221.973 513.693 223.287C513.693 224.601 514.78 225.688 516.093 225.688C517.406 225.688 518.493 224.601 518.493 223.287C518.493 221.973 517.429 220.886 516.093 220.886Z" fill="#0A0C0C"/>
</g>
<defs>
<clipPath id="clip0_531_9761">
<rect width="778" height="512" fill="white" transform="translate(0 0.5)"/>
</clipPath>
</defs>
</svg>
