<svg width="130" height="129" viewBox="0 0 130 129" fill="none" xmlns="http://www.w3.org/2000/svg">
<path d="M80.0494 116.156L116.829 104.721C116.314 103.794 115.568 102.996 114.591 102.329C113.615 101.661 112.506 101.325 111.266 101.321H80.0494C77.2678 101.321 75.0528 101.218 73.4044 101.012C71.756 100.806 70.0561 100.394 68.3047 99.7756L59.4962 96.8395C57.8478 96.3243 56.663 95.2941 55.9419 93.7487C55.2207 92.2034 55.1177 90.6065 55.6328 88.9581C56.1479 87.3098 57.1534 86.0982 58.6493 85.3235C60.1452 84.5487 61.7153 84.421 63.3596 84.9402L69.8501 87.1037C71.6015 87.6188 73.5857 88.0309 75.8028 88.34C78.0199 88.6491 81.0323 88.8551 84.84 88.9581H86.5399C86.5399 87.8249 86.2061 86.7431 85.5385 85.7129C84.8709 84.6827 84.0715 84.013 83.1401 83.7039L46.9788 70.4139H37.0885V104.412L80.0494 116.156ZM76.8042 128.21L37.0885 117.084C36.2644 119.762 34.6407 121.926 32.2176 123.574C29.7945 125.222 27.2972 126.047 24.7257 126.047H12.3628C8.96306 126.047 6.05367 124.837 3.63468 122.418C1.21568 119.999 0.00412095 117.088 0 113.684V70.4139C0 67.0141 1.21156 64.1047 3.63468 61.6857C6.0578 59.2667 8.96719 58.0551 12.3628 58.051H46.9788C47.7 58.051 48.4211 58.1293 49.1423 58.2859C49.8635 58.4425 50.5331 58.6218 51.1513 58.8237L87.4671 72.2683C90.8669 73.5046 93.6238 75.6681 95.7379 78.7588C97.8519 81.8495 98.9069 85.2493 98.9028 88.9581H111.266C116.417 88.9581 120.795 90.658 124.401 94.0578C128.007 97.4576 129.81 101.939 129.81 107.502C129.81 109.769 129.216 111.547 128.03 112.837C126.843 114.127 125.015 115.182 122.547 116.002L83.9128 128.056C82.7796 128.468 81.5948 128.674 80.3585 128.674C79.1222 128.674 77.9375 128.519 76.8042 128.21ZM12.3628 113.684H24.7257V70.4139H12.3628V113.684Z" fill="#0A0C0C"/>
<path d="M92.9115 12.6888C92.9115 5.88921 98.4748 0.325928 105.274 0.325928C112.074 0.325928 117.637 5.88921 117.637 12.6888C117.637 19.4883 112.074 25.0516 105.274 25.0516C98.4748 25.0516 92.9115 19.4883 92.9115 12.6888ZM122.459 34.8183C117.205 32.5311 111.456 31.233 105.274 31.233C101.133 31.233 97.1767 31.8512 93.406 32.9638C96.9912 36.3636 99.0929 41.1233 99.0929 46.2539V49.7773H130V46.2539C130 41.247 126.909 36.7963 122.459 34.8183ZM31.0973 25.0516C37.8968 25.0516 43.4601 19.4883 43.4601 12.6888C43.4601 5.88921 37.8968 0.325928 31.0973 0.325928C24.2977 0.325928 18.7344 5.88921 18.7344 12.6888C18.7344 19.4883 24.2977 25.0516 31.0973 25.0516ZM42.9656 32.9638C39.1949 31.8512 35.2388 31.233 31.0973 31.233C24.9159 31.233 19.1671 32.5311 13.9129 34.8183C9.46229 36.7963 6.37158 41.247 6.37158 46.2539V49.7773H37.2787V46.2539C37.2787 41.1233 39.3804 36.3636 42.9656 32.9638ZM55.823 12.6888C55.823 5.88921 61.3863 0.325928 68.1858 0.325928C74.9854 0.325928 80.5487 5.88921 80.5487 12.6888C80.5487 19.4883 74.9854 25.0516 68.1858 25.0516C61.3863 25.0516 55.823 19.4883 55.823 12.6888ZM92.9115 49.7773H43.4601V46.2539C43.4601 41.247 46.5508 36.7963 51.0015 34.8183C56.2557 32.5311 62.0044 31.233 68.1858 31.233C74.3672 31.233 80.116 32.5311 85.3702 34.8183C89.8208 36.7963 92.9115 41.247 92.9115 46.2539V49.7773Z" fill="#0A0C0C"/>
</svg>
