<svg width="40" height="40" viewBox="0 0 40 40" fill="none" xmlns="http://www.w3.org/2000/svg">
<path d="M20 0C8.97333 0 0 8.97333 0 20C0 31.0267 8.97333 40 20 40C31.0267 40 40 31.0267 40 20C40 8.97333 31.0267 0 20 0ZM20 3.33333C29.225 3.33333 36.6667 10.775 36.6667 20C36.6697 23.9897 35.2386 27.8475 32.6344 30.87C30.0301 33.8924 26.4263 35.8781 22.48 36.465V24.86H27.2267L27.9717 20.0383H22.48V17.405C22.48 15.405 23.1383 13.6267 25.01 13.6267H28.0183V9.42C27.49 9.34833 26.3717 9.19333 24.2583 9.19333C19.845 9.19333 17.2583 11.5233 17.2583 16.8333V20.0383H12.7217V24.86H17.2583V36.4233C13.3663 35.7827 9.82873 33.7792 7.27782 30.7706C4.72691 27.762 3.32881 23.9444 3.33333 20C3.33333 10.775 10.775 3.33333 20 3.33333Z" fill="#F4F9F9"/>
</svg>
