<svg width="315" height="222" viewBox="0 0 315 222" fill="none" xmlns="http://www.w3.org/2000/svg">
<path d="M0 95.5539C0 58.638 29.941 28.6658 66.8183 28.6658H76.3627L76.3627 162.442H66.8183C29.941 162.442 0 132.47 0 95.5539Z" fill="#49746F"/>
<path d="M238.637 0H171.819V28.6656H238.637V0Z" fill="#49746F"/>
<path d="M171.819 162.432L200.455 133.776V57.3336L171.819 28.6655V162.432Z" fill="#49746F"/>
<path d="M248.182 28.6655V162.432H315V69.3166C315 46.866 296.819 28.6631 274.389 28.6631H248.182V28.6655Z" fill="#49746F"/>
<path d="M152.728 28.6753H85.9095V162.442H152.728V28.6753Z" fill="#EA5A4C"/>
<path d="M171.819 28.6655H238.637V162.442H171.819L200.455 133.776V57.3336L171.819 28.6655Z" fill="#2AB5B8"/>
<path d="M10.92 206.216H11.6867C12.6741 206.216 13.1666 205.995 13.4966 205.002L25.6176 171.996H31.3772L43.4982 205.002C43.8282 205.995 44.3765 206.216 45.3081 206.216H46.1306V210.962H43.0591C40.3176 210.962 39.4393 210.299 38.561 207.761L35.6545 199.758H21.3961L18.4896 207.761C17.558 210.299 16.6797 210.962 13.9382 210.962H10.9225V206.216H10.92ZM34.2838 195.122L30.0598 183.255C29.3466 181.213 28.5241 177.791 28.5241 177.791H28.4149C28.4149 177.791 27.6483 181.213 26.935 183.255L22.7111 195.122H34.2838Z" fill="#EA5A4C"/>
<path d="M61.3206 182.374C67.7378 182.374 69.8752 186.68 69.8752 186.68H69.9844C69.9844 186.68 69.8752 185.852 69.8752 184.802V177.793C69.8752 176.965 69.4361 176.579 68.6694 176.579H66.4204V171.999H71.6851C74.1525 171.999 75.1957 173.048 75.1957 175.53V205.167C75.1957 205.995 75.6348 206.381 76.4015 206.381H78.6505V210.962H73.5508C71.1368 210.962 70.1518 209.857 70.1518 207.982C70.1518 207.154 70.2076 206.546 70.2076 206.546H70.0984C70.0984 206.546 67.796 211.625 60.9955 211.625C53.4818 211.625 48.7654 205.665 48.7654 196.999C48.7654 188.334 53.9767 182.374 61.3255 182.374H61.3206ZM70.0402 196.943C70.0402 191.977 67.4636 187.008 62.1431 187.008C57.81 187.008 54.1902 190.651 54.1902 196.997C54.1902 203.343 57.4267 206.986 62.0339 206.986C66.1462 206.986 70.0402 204.062 70.0402 196.941V196.943Z" fill="#EA5A4C"/>
<path d="M94.4981 182.374C100.915 182.374 103.053 186.68 103.053 186.68H103.162C103.162 186.68 103.053 185.852 103.053 184.802V177.793C103.053 176.965 102.613 176.579 101.847 176.579H99.5978V171.999H104.863C107.33 171.999 108.373 173.048 108.373 175.53V205.167C108.373 205.995 108.812 206.381 109.579 206.381H111.828V210.962H106.728C104.314 210.962 103.327 209.857 103.327 207.982C103.327 207.154 103.383 206.546 103.383 206.546H103.273C103.273 206.546 100.971 211.625 94.1705 211.625C86.6568 211.625 81.9404 205.665 81.9404 196.999C81.9404 188.334 87.1493 182.374 94.5005 182.374H94.4981ZM103.22 196.943C103.22 191.977 100.643 187.008 95.3229 187.008C90.9899 187.008 87.3701 190.651 87.3701 196.997C87.3701 203.343 90.6065 206.986 95.2138 206.986C99.3261 206.986 103.22 204.062 103.22 196.941V196.943Z" fill="#EA5A4C"/>
<path d="M118.027 188.832C118.027 188.003 117.588 187.617 116.821 187.617H114.572V183.037H119.781C122.248 183.037 123.291 184.086 123.291 186.568V205.167C123.291 205.995 123.731 206.381 124.497 206.381H126.746V210.962H121.537C119.07 210.962 118.027 209.913 118.027 207.43V188.832ZM118.136 171.999H122.908V177.572H118.136V171.999Z" fill="#EA5A4C"/>
<path d="M145.064 182.374C148.409 182.374 155.045 183.754 155.045 188.502V191.372H150.219V189.828C150.219 187.841 147.094 186.957 145.064 186.957C139.634 186.957 135.575 191.042 135.575 196.946C135.575 203.292 140.182 206.882 145.338 206.882C150.493 206.882 153.948 203.018 153.948 203.018L156.251 206.826C156.251 206.826 152.301 211.627 144.952 211.627C136.232 211.627 130.145 205.391 130.145 197.002C130.145 188.613 136.123 182.376 145.064 182.376V182.374Z" fill="#EA5A4C"/>
<path d="M162.282 187.341H158.662V183.034H162.391V175.362H167.602V183.034H174.238V187.341H167.602V200.144C167.602 205.718 171.441 206.437 173.471 206.437C174.238 206.437 174.733 206.328 174.733 206.328V211.073C174.733 211.073 174.02 211.183 172.867 211.183C169.357 211.183 162.282 210.078 162.282 200.752V187.341Z" fill="#EA5A4C"/>
<path d="M197.107 177.958C197.107 177.13 196.668 176.744 195.901 176.744H193.543V171.999H199.082C201.549 171.999 202.592 173.048 202.592 175.53V189.162H222.28V175.53C222.28 173.045 223.321 171.999 225.791 171.999H231.33V176.744H228.972C228.203 176.744 227.766 177.13 227.766 177.958V210.964H222.283V193.854H202.595V210.964H197.109V177.958H197.107Z" fill="#2AB5B8"/>
<path d="M249.043 182.374C256.831 182.374 260.999 188.225 260.999 195.455C260.999 196.171 260.834 197.663 260.834 197.663H240.598C240.928 203.622 245.205 206.991 250.14 206.991C255.074 206.991 258.257 203.734 258.257 203.734L260.56 207.542C260.56 207.542 256.448 211.627 249.865 211.627C241.09 211.627 235.112 205.281 235.112 197.002C235.112 188.115 241.146 182.376 249.043 182.376V182.374ZM255.516 193.743C255.351 189.106 252.444 186.622 248.99 186.622C244.931 186.622 241.641 189.106 240.818 193.743H255.516Z" fill="#2AB5B8"/>
<path d="M267.964 177.793C267.964 176.965 267.525 176.579 266.759 176.579H264.51V171.999H269.774C272.242 171.999 273.285 173.048 273.285 175.53V205.167C273.285 205.995 273.724 206.381 274.491 206.381H276.74V210.962H271.475C269.008 210.962 267.964 209.913 267.964 207.43V177.793Z" fill="#2AB5B8"/>
<path d="M282.771 188.832C282.771 188.004 282.332 187.618 281.565 187.618H279.316V183.037H284.307C286.774 183.037 287.706 184.086 287.706 185.852C287.706 186.68 287.65 187.343 287.65 187.343H287.759C287.759 187.343 290.062 182.376 296.974 182.376C304.432 182.376 309.204 188.336 309.204 197.002C309.204 205.667 303.83 211.627 296.59 211.627C290.447 211.627 288.089 207.156 288.089 207.156H287.98C287.98 207.156 288.089 208.15 288.089 209.585V222.003H282.769V188.832H282.771ZM295.768 207.044C300.154 207.044 303.774 203.401 303.774 197.055C303.774 190.709 300.538 187.066 295.931 187.066C291.818 187.066 287.924 189.99 287.924 197.111C287.924 202.078 290.612 207.047 295.768 207.047V207.044Z" fill="#2AB5B8"/>
</svg>
