<svg width="351" height="462" viewBox="0 0 351 462" fill="none" xmlns="http://www.w3.org/2000/svg">
<g clip-path="url(#clip0_609_5276)">
<g clip-path="url(#clip1_609_5276)">
<path d="M400.709 104.571C441.816 88.909 472.183 155.581 519.108 81.8354C566.013 8.06997 475.351 0.298907 439.604 39.5926C403.857 78.8863 396.903 45.2117 371.338 66.094C344.777 87.7932 359.602 120.232 400.709 104.571Z" fill="#C3D973"/>
<path d="M525.624 262.722C538.635 186.486 496.93 132.865 427.35 129.239C405.69 128.103 357.888 133.503 343.9 115.709C327.681 89.8655 333.618 54.1186 311.82 30.6659C281.811 -2.15188 233.631 -1.05597 191.707 0.737358C105.328 5.12104 11.9958 65.018 0.757667 156.757C-2.01202 182.999 17.3758 202.785 28.9128 226.995C55.474 282.708 -12.7122 405.57 5.16127 462H521.718C544.932 443.609 557.146 320.925 525.604 262.722H525.624Z" fill="#C3D973"/>
<path d="M504.702 282.767C504.144 281.572 501.314 281.393 500.019 281.313C490.853 280.675 480.85 281.97 471.665 281.333C470.927 281.273 470.21 281.094 469.493 280.934C468.875 280.217 470.828 273.9 471.067 272.526C476.606 240.724 466.842 218.566 444.546 196.867C443.35 195.712 441.397 194.496 440.301 193.261C438.847 191.627 433.965 181.803 433.706 179.711C433.307 176.364 437.173 174.132 439.066 171.601C440.022 170.326 441.138 168.792 441.158 167.178C441.158 166.062 440.54 164.846 440.839 163.83C441.198 162.615 443.828 161.18 444.127 158.55C444.466 155.561 441.537 154.923 441.437 153.847C441.318 152.433 443.709 151.416 442.413 148.129C440.859 144.183 436.974 146.853 435.32 146.017C434.343 145.518 434.881 143.625 432.889 142.988C431.215 142.45 429.96 142.988 428.366 143.406C427.449 143.187 428.505 139.879 425.457 139.142C422.428 138.425 420.714 141.434 419.499 141.015C418.542 140.676 418.184 135.177 414.617 136.173C412.863 136.651 411.728 138.166 410.911 139.66C410.612 140.198 409.835 142.609 409.695 142.689C408.54 143.386 408.161 141.752 407.384 141.513C402.223 139.999 402.223 147.372 403 150.679C403.279 151.835 404.714 153.947 404.455 155.063C404.315 155.72 402.183 157.733 401.625 158.669C398.577 163.691 400.27 166.919 399.433 171.84C399.075 174.032 396.783 174.809 397.66 177.2C397.979 178.037 399.334 178.954 399.453 179.851C399.553 180.568 399.115 182.381 399.155 183.557C399.314 186.805 399.932 189.036 402.562 191.049C405.312 193.141 408.241 193.201 411.509 192.484C412.306 192.304 414.099 191.009 414.697 191.886L414.438 204.28C411.528 208.863 411.289 214.701 408.639 219.304C406.248 223.488 402.582 227.912 399.892 232.056C397.461 235.802 394.412 242.358 391.802 245.466C391.025 246.383 387.757 248.395 387.956 246.104C388.853 235.822 385.844 225.66 383.692 215.717C383.592 215.279 383.194 214.86 383.154 214.541C382.995 213.147 387.02 213.505 386.522 210.536C386.203 208.663 381.122 208.623 381.042 205.734C381.002 204.32 382.178 203.522 382.736 202.287C384.31 198.84 384.668 192.264 381.58 189.535C380.265 188.359 377.097 188.419 376.957 187.323C376.618 184.752 387.578 170.446 388.534 166.779C388.913 165.544 386.183 164.647 385.346 164.647H371.697C371.418 164.647 371.079 163.95 371.219 163.492C371.438 162.774 373.39 162.655 373.57 160.024C373.849 156.079 371.517 156.677 370.342 154.724C369.565 153.429 370.342 151.157 368.608 151.317C366.895 151.476 368.349 153.887 367.871 155.003C367.592 155.641 365.898 156.318 365.36 156.976C364.464 158.012 364.424 160.283 364.942 161.499C365.38 162.495 368.25 163.631 367.751 164.308C365.839 165.185 357.151 164.408 356.553 166.241C356.155 167.437 356.872 168.433 357.35 169.429C359.921 174.789 364.025 179.97 366.695 185.37C366.855 186.326 365.002 188.897 364.782 190.152C364.603 191.149 365.041 194.078 364.165 194.337C363.846 194.436 359.044 192.005 357.948 191.706C351.95 190.073 345.175 189.036 338.939 188.857C338.062 188.837 337.205 189.315 336.209 189.256C334.655 189.156 333.14 187.741 334.336 186.326C335.252 185.231 341.848 182.959 343.781 181.783C350.376 177.818 345.096 178.356 344.558 177.619C343.86 176.643 347.088 175.467 346.909 174.112C346.65 172.378 344.099 172.358 343.9 172.139C343.741 171.96 344.299 170.007 344.08 169.071C343.84 167.975 342.346 165.604 341.828 164.149C340.493 160.463 339.696 156.577 338.401 152.871C338.421 152.154 340.951 151.416 341.808 150.819C346.291 147.631 347.387 138.325 342.306 135.695C340.433 134.719 338.998 135.854 337.982 135.595C336.966 135.356 336.069 130.813 335.491 129.538C333.359 124.875 329.394 122.305 324.473 124.935C321.523 126.509 319.551 130.534 319.332 133.782C319.252 134.998 319.909 139.202 319.332 139.6C318.893 139.919 310.206 139.282 308.552 139.401C301.797 139.879 294.165 143.466 294.106 151.217C294.106 152.911 295.022 155.123 295.062 156.677C295.122 158.61 294.205 161.678 294.086 163.81C293.587 171.9 294.305 186.864 303.371 190.013C305.264 190.67 309.15 190.591 310.086 192.185C310.903 193.579 310.126 194.018 308.99 194.755C306.021 196.688 300.163 198.182 297.513 200.334C296.736 200.972 296.477 201.988 295.759 202.686C295.062 203.363 293.946 203.642 293.229 204.26C281.612 214.203 276.352 232.774 268.501 245.725C263.679 249.332 258.399 252.281 253.656 256.147C247.499 261.168 241.9 267.963 235.504 272.446C233.89 273.582 223.269 279.221 221.934 279.36C214.621 280.077 206.153 278.802 198.721 279.34C196.828 278.982 197.565 275.076 197.505 273.382C197.465 272.326 196.469 269.158 198.88 270.971C201.351 272.844 202.905 274.857 206.133 276.013C220.998 281.293 228.091 269.298 233.471 257.82C236.52 251.285 238.811 244.39 241.222 237.596C242.318 235.962 247.937 236.998 248.316 234.766C248.615 233.033 244.112 232.295 243.653 231.837C242.378 230.562 244.59 224.205 245.367 222.631C246.822 219.682 249.691 216.773 251.205 213.804C254.274 207.807 254.095 202.446 251.205 196.469C250.249 194.496 248.914 194.297 249.452 191.567C250.05 188.538 251.803 184.832 252.56 181.704C253.019 179.831 254.015 176.981 251.265 176.623C247.24 176.085 242.239 177.2 238.114 176.463C237.437 176.124 236.899 172.418 236.42 171.322C233.491 164.428 224.126 161.858 218.009 166.241C209.202 172.518 211.374 186.307 221.934 188.897C224.564 189.535 225.461 187.841 223.19 186.605C220.081 184.932 217.949 184.932 216.036 181.146C210.357 169.947 226.218 160.961 233.172 170.147C234.049 171.282 236.56 176.284 234.448 176.922C232.037 177.639 232.854 175.467 232.555 174.152C232.037 171.86 230.981 172.618 230.044 171.88C229.227 171.223 229.665 169.549 227.334 169.449C223.987 169.31 224.385 172.119 223.07 172.697C221.596 173.355 218.666 172.04 218.029 174.829C217.411 177.619 219.503 178.257 219.683 179.552C219.922 181.345 218.029 182.58 221.496 183.517C223.07 183.935 225.003 183.298 225.74 184.732C227.513 190.252 229.028 195.891 230.961 201.351C231.578 203.104 233.192 205.714 233.511 207.328C234.169 210.516 233.611 214.522 234.308 217.769C234.288 218.566 232.874 220.101 232.296 220.818C228.43 225.6 223.409 231.638 219.165 236.021C216.096 239.19 216.495 236.52 215.598 234.129C208.126 214.721 199.996 201.789 178.177 198.521C177.002 198.342 172.379 198.402 171.901 197.545C171.482 196.788 170.705 193.38 170.944 192.583C171.084 192.085 174.371 188.997 175.109 187.881C177.141 184.872 178.755 179.731 179.054 176.124C179.173 174.63 178.556 171.163 178.775 170.406C179.213 168.832 181.505 169.29 182.66 168.453C184.793 166.899 184.693 158.39 182.501 156.637C180.708 155.202 177.141 155.96 175.647 155.302C174.73 154.884 172.698 151.835 171.542 150.859C166.979 146.953 164.488 148.348 159.925 146.774C158.69 146.355 157.614 144.303 156.279 143.944C154.964 143.606 153.987 144.422 152.871 143.944C151.277 143.267 149.683 140.318 148.508 139.062C144.702 135.037 135.895 127.187 130.395 126.469C124.079 125.632 128.303 130.773 127.864 131.212C124.118 130.076 120.472 128.223 116.427 128.462C114.694 128.562 113.319 128.88 113.956 130.973C114.713 133.483 128.343 140.736 130.953 142.988L130.136 143.825C126.47 142.33 111.924 140.816 109.792 144.323C109.194 145.299 109.433 146.256 110.15 147.093C111.625 148.786 118.559 150.081 120.99 150.58C122.544 150.898 128.542 151.237 129.259 152.552C129.578 153.15 128.821 153.07 128.502 153.15C125.493 154.047 122.863 154.684 120.073 156.338C113.239 160.383 114.534 163.77 122.584 162.954L141.055 159.207C143.725 159.506 143.825 164.807 142.191 166.181C141.035 167.158 139.68 166.401 138.166 168.632C135.954 171.9 136.991 177.26 140.756 178.894C141.573 179.253 142.63 179.173 143.227 179.492C144.024 179.91 144.722 184.374 145.22 185.689C145.618 186.745 146.575 188.558 147.193 189.515C147.93 190.65 149.325 191.766 149.723 192.802C150.122 193.898 149.145 198.043 148.129 198.342C138.086 200.016 127.944 202.068 119.017 207.109C97.0193 219.503 87.3354 251.384 90.4039 275.315C90.5036 276.112 91.4401 277.965 90.7227 278.444C78.6078 278.603 66.473 278.762 54.3581 278.623C53.3818 278.623 52.5449 278.264 51.6681 278.244C49.4165 278.204 42.6019 277.567 42.0041 280.217C41.765 281.273 41.7252 287.57 41.9443 288.665C42.2233 290.14 44.4749 291.077 45.8498 291.236C57.7654 292.511 71.9128 290.299 84.0875 291.236C88.2519 292.392 93.6917 290.937 97.6769 291.355C98.992 291.495 103.117 294.544 104.99 295.241C106.325 295.739 112.282 296.775 112.561 297.054C113.06 297.572 112.402 297.652 112.123 297.811C110.649 298.728 108.457 299.465 106.863 300.402C97.7765 305.702 83.41 316.801 79.6241 326.744C73.3474 343.242 84.9642 373.43 92.0179 389.072C92.9544 391.144 95.9632 398.258 97.1787 399.513C97.5175 399.871 97.8163 400.051 98.3344 400.011C100.726 399.812 104.511 396.843 107.022 397.939C107.799 398.277 110.35 403.897 111.485 404.773L111.366 405.869C109.154 409.077 102.3 416.251 102.399 420.056C102.459 422.766 104.81 422.627 106.783 421.77C108.935 420.833 116.846 413.381 117.523 413.381C118.918 414.158 119.535 415.772 120.99 416.749C127.386 420.993 140.139 419.439 147.531 420.574C148.209 420.674 148.846 421.033 149.265 421.571L149.783 450.344C149.424 451.858 132.985 450.543 130.654 453.213C129.598 454.428 130.196 457.138 128.801 457.397C116.407 457.298 103.993 457.517 91.5796 457.397C84.8646 457.338 75.5592 456.182 69.0634 457.019C68.0472 457.158 66.9712 458.155 67.5689 459.051C68.0272 459.729 78.2691 459.37 80.0027 459.41C119.197 460.366 158.53 460.346 197.685 460.466C255.171 460.625 312.657 461.303 370.003 461.482C383.752 461.522 397.6 461.761 411.289 461.821C438.986 461.921 466.703 461.622 494.4 462C497.07 460.466 493.902 459.49 492.168 459.43H462.837C460.267 457.876 463.276 454.408 458.992 453.711C456.003 453.233 451.639 453.093 448.511 452.934C446.538 452.834 439.783 453.711 439.185 451.679L438.767 422.567C441.417 422.527 444.147 422.447 446.777 422.228C452.137 421.77 465.428 420.953 468.795 416.609C471.605 412.963 468.118 408.918 464.77 407.324C460.466 405.271 448.033 404.674 443.011 404.833C441.875 404.873 440.301 405.431 439.325 405.212C438.349 404.973 438.986 398.457 438.408 397.201L438.468 335.471C438.628 334.893 439.086 334.953 439.604 334.893C446.02 334.096 460.606 336.647 465.388 331.665C467.6 329.354 467.361 323.835 467.102 320.746C466.783 316.582 464.691 313.931 460.426 313.413C458.055 313.134 454.728 313.413 452.237 313.413C452.117 313.413 451.659 312.895 451.719 312.557C451.779 312.258 455.385 308.99 455.983 308.292C459.609 304.028 461.761 298.848 464.671 294.125L502.968 293.527C503.725 293.069 504.741 292.691 504.921 291.734C505.12 290.678 505.04 283.564 504.682 282.787L504.702 282.767ZM123.003 405.491L122.504 404.953L119.496 395.647C119.336 395.189 119.276 394.731 119.496 394.272C119.914 393.455 128.422 391.383 130.176 390.247C130.933 389.749 131.292 389.251 131.292 388.295C129.12 376.977 126.111 365.918 122.664 354.939C122.245 353.604 120.213 349.16 120.512 348.184C120.831 347.128 124.238 346.092 125.334 345.474C127.406 344.318 129.738 342.904 131.73 341.648C134.819 339.676 141.773 333.618 144.861 333.279C146.236 333.12 147.551 332.901 147.671 334.694C147.91 357.35 148.787 379.906 148.627 402.561C148.508 403 148.209 403.06 147.83 403.119C145.857 403.478 142.51 403 140.318 403.119C135.775 403.339 130.574 403.637 126.171 404.654C125.095 404.913 124.158 405.789 122.983 405.491H123.003ZM149.006 413.66C147.671 414.497 146.455 413.72 145.14 413.7C140.019 413.58 134.878 413.441 129.797 412.664C129.14 412.564 128.343 412.385 127.904 411.847C129.239 410.572 131.391 410.512 133.185 410.313C134.739 410.153 137.03 410.014 138.624 409.954C140.896 409.854 146.216 409.595 148.189 409.954C149.623 410.213 148.946 412.504 148.986 413.66H149.006ZM323.257 334.555C324.373 334.335 326.206 334.296 326.485 335.75C327.043 338.679 326.405 344.358 326.485 347.706C326.505 348.602 326.844 349.439 326.864 350.396C326.884 352.348 327.043 365.36 326.505 365.938C325.628 366.077 325.628 365.4 325.429 364.802C323.177 358.107 322.639 345.076 322.42 337.783C322.38 336.607 321.304 334.933 323.277 334.555H323.257ZM327.182 368.15V373.43C325.967 372.613 324.791 370.62 324.831 369.146C324.831 368.707 325.628 367.034 325.987 366.934C326.465 366.815 327.182 367.93 327.182 368.13V368.15ZM255.37 277.925C266.648 274.797 282.15 272.546 289.782 262.862C290.539 261.905 293.727 256.426 294.066 256.226C294.504 255.947 295.321 256.166 295.68 256.505C296.078 256.884 296.297 258.159 296.656 258.757C299.545 263.519 302.534 268.261 305.981 272.665L305.324 273.641C301.08 274.438 296.815 275.255 292.631 276.311C286.892 277.766 283.206 279.599 277.189 279.599C268.82 279.619 260.451 279.619 252.102 279.599L255.37 277.925ZM158.251 390.686C159.487 372.752 156.657 352.727 158.251 335.033C158.311 334.316 158.371 333.16 159.168 332.881C159.905 332.642 165.863 332.702 166.959 332.821C172.16 333.379 182.043 343.362 187.921 344.956C189.455 346.012 188.618 347.486 188.18 348.941C184.633 360.797 181.604 370.461 178.974 382.735C178.695 384.03 177.38 387.398 177.38 388.295C177.42 391.303 185.41 391.622 185.829 393.137C185.968 393.655 183.398 402.442 182.979 403.478C182.82 403.877 182.72 404.295 182.242 404.454L168.673 403.139C166.162 403.199 163.651 403.139 161.141 403.139C160.204 403.139 159.068 403.936 158.67 402.561C157.813 399.652 159.347 393.973 158.251 390.706V390.686ZM158.789 410.293C159.268 409.237 160.304 409.954 161.161 409.974C166.959 410.014 172.977 409.974 178.596 411.309C178.795 411.488 178.815 412.265 178.755 412.345C178.137 413.122 161.699 413.7 159.507 413.979C158.351 413.78 158.411 411.13 158.789 410.313V410.293ZM313.454 453.034C309.389 453.751 308.93 454.468 307.854 458.414L182.382 457.676C181.485 457.377 181.943 455.783 181.744 454.907C181.425 453.512 180.688 452.296 179.193 451.997C176.583 451.499 172.199 451.4 169.39 451.22C167.876 451.121 159.726 451.44 159.108 450.583L158.59 422.388C158.65 419.538 160.503 420.973 162.177 420.893C168.234 420.614 182.461 419.578 187.184 416.171C188.12 415.493 189.575 413.381 190.173 413.361C191.687 413.321 197.645 420.295 200.793 420.515C202.965 420.654 203.622 418.323 203.065 416.51C202.447 414.557 199.199 409.854 197.864 408.061C196.708 406.527 193.58 404.395 194.297 402.442C194.417 402.143 197.585 397.441 197.864 397.142C198.223 396.763 198.482 396.305 199.059 396.265C202.327 397.241 205.675 397.979 208.923 399.035C210.676 399.612 212.191 401.366 213.904 399.533C220.998 385.545 227.055 370.979 230.801 355.696C232.953 346.929 235.524 334.794 233.172 325.987C230.104 314.489 213.386 301.617 203.543 295.56C202.865 295.141 199.717 293.727 199.558 293.567C198.322 292.252 202.566 292.91 202.786 292.91C212.23 293.009 221.715 293.129 231.1 293.248C238.194 293.328 247.599 292.451 254.334 293.209C254.712 293.248 255.43 293.308 255.509 293.747C255.609 294.285 252.421 297.971 251.843 298.947C243.335 313.633 242.597 344.199 242.179 361.295C242.139 362.75 241.94 366.595 242.259 367.731C243.056 370.441 250.727 370.282 251.763 371.876C252.54 373.071 251.743 374.068 251.723 375.303C251.723 377.315 252.62 380.384 251.365 381.779C249.372 383.971 245.128 386.043 242.697 388.135C240.724 389.829 236.281 393.615 239.808 395.787C242.199 397.261 249.85 395.488 252.839 394.85C256.007 394.173 264.376 392.24 266.568 390.168C269.318 387.577 266.668 384.15 266.708 381.141C266.708 380.324 268.082 373.091 268.341 372.513C269.318 370.381 276.372 371.537 278.145 369.684C279.978 367.771 280.018 359.223 280.815 356.314C281.951 352.209 283.445 357.529 284.302 359.123C285.677 361.674 287.092 364.304 288.586 366.795C289.443 368.209 291.695 372.314 292.83 373.111C295.899 375.303 304.128 373.49 307.815 373.191C308.572 373.33 314.749 381.819 314.51 383.492C313.314 387.278 307.655 394.372 308.034 398.178C308.094 398.855 308.671 399.692 309.209 400.091C313.155 402.92 321.105 396.404 324.214 393.934C325.23 393.117 326.007 391.642 327.461 391.562V404.195C318.973 405.251 308.253 403.339 300.502 407.782C297.493 409.516 294.883 412.664 297.453 415.972C302.773 422.786 319.69 420.535 327.322 422.268L328.079 423.563L328.438 451.938C323.636 452.854 318.216 452.237 313.394 453.093L313.454 453.034ZM327.72 414.756C327.202 415.513 317.738 414.876 316.104 414.736C314.928 414.637 307.316 413.74 307.077 413.361C307.018 413.282 307.018 412.485 307.077 412.385C307.715 411.369 324.273 411.269 326.664 411.01C328.119 410.95 328.199 414.099 327.72 414.776V414.756ZM429.9 451.081C429.502 453.99 423.603 452.794 421.192 452.954C418.981 453.093 413.083 453.452 411.489 454.508C410.871 454.907 410.014 455.883 409.835 456.6C409.616 457.537 410.193 458.952 408.918 459.091C393.077 459.31 377.316 458.812 361.495 458.732C359.163 458.294 361.515 454.329 358.326 453.372C356.573 452.854 352.608 452.755 350.555 452.595C348.862 452.476 338.6 452.456 338.082 452.097C337.464 451.659 337.823 444.844 337.783 443.529C337.584 437.711 336.667 429.003 337.404 423.404C337.723 420.993 340.752 422.049 342.705 421.889C348.443 421.411 362.471 420.734 366.655 417.008C369.963 414.059 368.349 410.193 365.161 407.961C361.236 405.212 353.963 404.694 349.2 404.474C346.032 404.335 341.071 405.012 338.261 404.474C337.883 404.395 337.564 404.355 337.464 403.916L337.584 334.515C338.102 334.017 341.967 333.817 342.485 334.754C343.92 342.206 345.275 349.698 347.128 357.071C348.583 362.829 350.396 369.863 352.329 375.403C353.584 378.989 354.481 379.707 358.406 379.906C361.933 380.085 365.998 379.129 369.505 379.388C369.844 379.627 371.557 386.163 371.398 386.74C371.219 387.358 366.516 392.24 365.599 393.595C364.344 395.408 361.634 398.756 363.886 400.708C365.898 402.462 371.816 399.652 374.048 398.636C376.041 397.739 384.947 393.057 385.824 391.662C387.279 389.351 384.629 385.684 384.23 383.433C384.071 382.516 383.692 378.192 384.111 377.674C384.529 377.176 385.465 377.256 386.043 376.877C387.438 375.961 387.916 373.928 387.219 372.434C387.697 372.493 388.494 372.274 388.873 372.493C389.192 372.693 391.523 378.352 392.26 379.149C391.244 382.755 390.407 386.581 390.288 390.347C390.048 397.48 394.452 395.269 397.64 391.562C399.732 389.131 404.475 381.898 405.551 379.009C407.444 373.908 401.605 370.222 399.892 365.719C399.493 363.806 402.622 363.666 402.163 360.418C401.745 357.509 398.776 352.289 397.64 349.24C395.349 343.023 392.32 334.594 391.065 328.178C390.945 327.601 390.826 326.485 391.144 326.026C391.363 325.728 398.178 325.329 398.497 325.528C399.673 326.226 398.935 329.593 399.254 330.908C399.792 333.02 402.283 334.614 404.335 335.033C409.875 336.149 416.55 335.093 422.189 334.893C423.882 334.834 427.848 334.236 427.848 336.428C428.206 352.508 428.306 368.508 428.505 384.568C428.585 390.726 429.322 397.142 428.884 403.339C428.844 403.976 428.764 404.594 428.485 405.152C420.296 405.57 410.791 404.136 403.16 407.643C399.095 409.496 395.488 413.58 399.692 417.486C405.371 422.766 419.997 421.272 427.29 422.288C428.565 422.467 429.382 422.786 429.561 424.121C430.159 428.565 429.462 435.419 429.541 440.181C429.581 443.629 430.378 447.614 429.92 451.101L429.9 451.081ZM338.62 410.99C341.868 411.249 345.275 411.09 348.503 411.329C349.898 411.428 356.533 411.847 357.051 412.684C357.27 413.042 357.231 413.341 357.211 413.72L338.261 415.095C336.846 414.836 336.986 411.15 338.62 411.01V410.99ZM427.648 415.732C421.671 415.314 415.593 415.354 409.675 414.298C406.647 413.76 407.364 412.724 409.954 412.385C412.804 412.006 416.331 411.867 419.22 411.767C420.874 411.707 427.469 411.329 428.505 411.827C429.721 412.425 429.581 415.892 427.628 415.732H427.648ZM439.325 411.707C440.242 411.409 445.422 411.588 446.797 411.648C449.547 411.747 453.293 411.986 456.003 412.345C456.68 412.425 459.45 412.604 459.251 413.541C459.111 414.218 452.615 414.975 451.579 415.075C447.475 415.473 443.191 415.553 439.106 415.274C438.588 414.915 438.488 412.006 439.345 411.707H439.325Z" fill="#0A0C0C"/>
<path d="M231.977 111.903C232.674 114.334 238.652 109.472 239.449 111.604C239.549 111.903 239.589 112.421 239.429 112.7C239.051 113.378 233.073 115.351 232.993 115.689C232.435 117.722 235.823 118.997 236.6 120.611C237.118 121.687 236.241 122.205 235.285 121.986C234.986 121.926 233.312 118.579 231.897 119.555C230.482 120.531 232.515 126.648 229.825 125.692C229.386 125.533 229.347 125.294 229.267 124.875C228.928 123.002 229.008 120.491 228.928 118.559C227.274 118.06 225.342 120.312 223.907 119.674C222.472 119.037 224.385 117.323 225.003 116.845C225.621 116.367 226.577 116.227 227.195 115.629C229.327 113.537 223.13 112.68 224.146 109.692C225.76 109.293 226.079 110.329 227.095 111.007C228.012 111.604 229.526 112.959 229.446 111.066C229.387 109.333 229.068 107.56 229.287 105.806C229.327 105.487 229.845 103.634 229.944 103.554C230.482 103.176 231.977 104.511 231.977 104.75C231.977 106.304 231.658 110.807 231.977 111.923V111.903Z" fill="#EA5A4C"/>
<path d="M81.4971 174.51V179.452C81.4971 180.388 79.8034 180.807 79.4846 180.269C79.2256 179.83 79.2256 174.789 79.106 173.813C78.2691 172.996 74.284 176.523 74.0448 173.574C74.005 173.155 75.4994 171.621 75.8581 171.402C76.5754 170.943 77.4522 171.402 77.5916 170.425C77.7909 168.951 74.4832 167.835 75.5194 166.281C76.2168 165.265 77.5518 167.058 78.4485 166.48C79.4248 165.763 77.7112 159.406 80.2617 160.164C80.5407 160.303 81.1584 161.16 81.1584 161.339V167.815C81.1584 169.489 86.5184 165.823 87.1162 165.942C87.3553 165.982 87.6343 166.48 87.6542 166.799C87.8335 168.772 83.1709 169.668 83.1908 171.222C83.1908 172.478 87.5944 174.59 86.4586 176.184C85.3229 177.778 83.1509 173.633 81.4971 174.45V174.51Z" fill="#EA5A4C"/>
<path d="M126.788 82.453C131.033 81.1778 133.145 87.1157 129.02 88.1119C125.174 89.0485 123.859 83.3297 126.788 82.453Z" fill="#2AB5B8"/>
<path d="M307.296 95.4047C311.74 94.4084 311.64 101.562 306.599 100.047C304.646 99.4496 305.164 95.8829 307.296 95.4047Z" fill="#EA5A4C"/>
<path d="M370.162 275.853C370.023 279.4 365.281 279.798 362.531 281.014C351.592 285.876 343.083 295.699 341.489 307.754C341.011 311.341 341.569 315.147 341.15 318.674C340.951 320.288 340.254 320.587 338.819 321.125C336.368 322.021 332.483 323.117 329.912 323.815C327.063 324.592 324.114 325.249 321.185 325.708C319.113 325.827 318.913 318.913 317.14 319.212C314.769 319.61 317.897 326.604 318.196 327.979C320.328 337.464 319.551 347.267 321.105 356.812C321.563 359.601 323.118 363.308 323.337 365.858C323.377 366.356 323.297 366.815 322.978 367.213C316.961 368.648 310.943 370.361 304.766 370.999C302.793 371.198 295.799 371.896 294.504 370.939C289.044 362.172 283.664 352.906 280.158 343.143C277.308 335.212 275.953 326.126 277.049 317.677C279.958 295.201 302.833 287.39 321.802 282.349C324.293 278.463 316.084 281.213 314.39 281.672C302.355 284.939 288.188 291.216 280.436 301.279C272.247 311.879 272.685 328.318 276.152 340.692C276.69 342.645 278.962 347.586 279.022 349.081C279.101 350.814 277.966 355.138 277.727 357.29C277.547 358.964 277.228 366.795 276.69 367.512C276.352 367.95 275.316 368.189 274.758 368.309C268.501 369.485 252.042 369.724 246.224 367.572C244.55 366.954 244.53 366.476 244.57 364.762C244.69 360.717 245.068 356.553 245.267 352.468C245.905 338.5 247.34 310.205 255.37 298.768C262.683 288.347 280.377 282.209 292.292 279.041C296.397 277.945 305.404 275.574 309.309 275.574C312.039 275.574 315.984 276.909 318.834 277.228C330.052 278.503 343.023 278.304 354.321 277.567C359.622 277.228 364.902 276.351 370.182 275.873L370.162 275.853Z" fill="#EA5A4C"/>
<path d="M383.553 322.858C382.776 322.081 383.314 316.083 382.377 314.31C381.939 313.453 380.723 313.453 380.444 314.31C380.624 319.749 380.763 325.189 380.743 330.649C380.723 337.762 380.643 343.521 381.46 350.714C382.238 357.668 384.449 365.938 384.848 372.613C384.967 374.824 384.21 375.083 382.238 375.462C376.698 376.558 368.23 377.056 362.491 377.216C361.196 377.255 356.314 377.435 355.617 376.897C354.62 376.12 349.519 355.556 348.822 352.647C345.176 337.364 339.397 311.56 347.567 297.472C357.908 279.679 381.042 278.782 399.334 279.26C407.424 279.459 414.517 280.994 422.627 278.682C424.6 278.124 429.003 275.594 430.418 275.534C431.375 275.494 440.142 278.523 441.816 279.101C445.442 280.356 449.188 281.751 452.735 283.206C454.15 283.783 463.415 287.729 463.615 288.366C464.033 289.622 460.566 296.496 459.749 298.05C451.659 313.294 441.776 316.243 425.516 319.092C414.697 320.985 401.386 322.997 390.467 323.296C389.192 323.336 384.19 323.515 383.533 322.858H383.553Z" fill="#F4F9F9"/>
<path d="M209.381 228.011C205.894 230.741 202.228 233.232 198.701 235.922C197.764 236.639 194.476 240.544 193.64 238.572C193.281 236.2 189.096 218.726 188.08 218.506C184.872 217.789 187.921 224.245 188.26 225.54C193.42 245.028 194.277 263.18 194.755 283.186C194.815 286.055 196.469 287.45 193.062 288.964C190.551 290.08 181.684 291.953 178.855 292.172C175.706 292.431 176.543 290.658 175.168 288.785C172.399 285.039 165.484 285.955 161.499 286.075C148.308 282.428 136.413 275.175 123.6 270.413C123.341 270.054 123.421 269.676 123.541 269.277C124.477 265.691 127.167 260.63 128.502 256.824C131.531 248.196 135.217 236.4 133.663 227.254C133.444 225.998 133.025 223.468 131.75 223.03C129.2 222.153 131.212 227.094 131.332 228.569C131.83 234.846 130.295 242.597 128.482 248.614C128.143 249.77 127.147 253.536 126.39 254.034C125.214 254.791 119.575 253.297 117.782 253.038C112.243 252.261 106.703 251.723 101.124 251.264C99.8288 250.866 94.5684 252.161 94.15 250.706C93.8312 249.571 96.4813 241.76 97.099 240.086C103.137 223.428 111.326 211.851 128.402 205.535C130.853 204.638 135.636 202.964 138.047 202.566C138.764 202.446 140.199 202.187 140.478 203.044C140.776 203.961 140.697 207.228 140.956 208.703C141.314 210.735 142.191 213.704 142.809 215.717C146.097 226.297 151.716 236.161 161.878 241.361C162.336 241.979 161.141 243.673 161.021 244.649C160.423 249.471 165.245 250.946 167.397 246.243C168.533 243.772 166.441 243.115 166.839 241.62C166.919 241.321 169.489 238.612 169.988 237.934C177.221 228.25 181.963 215.677 179.731 203.363C179.592 202.586 178.456 201.868 179.771 201.271C181.704 200.374 192.285 205.395 194.377 206.79C200.275 210.695 206.432 219.024 209.002 225.6C209.242 226.218 209.7 227.413 209.361 228.011H209.381Z" fill="#7D8C45"/>
<path d="M106.066 269.357C106.544 270.055 111.027 269.935 112.004 270.095C124.019 271.888 134.679 278.204 145.698 282.807C149.564 284.421 158.032 288.187 161.858 288.486C164.568 288.705 172.458 287.032 173.833 290.538C174.033 291.057 173.594 291.535 173.694 291.993C173.853 292.73 174.969 292.77 175.029 293.149C175.188 294.045 174.112 294.962 175.348 295.978C173.913 296.158 172.638 295.002 171.343 294.703C153.728 290.499 132.786 296.337 114.434 294.623C94.6681 292.77 90.7427 279.121 92.4164 261.367C92.5161 260.311 93.1338 255.031 93.4526 254.572C93.7116 254.214 93.8312 254.114 94.2895 254.034C95.764 253.775 99.4303 253.955 101.124 254.034C107.082 254.273 118.24 255.17 123.82 256.585C124.656 256.804 125.274 256.963 125.194 257.96L121.668 268.461C120.811 270.334 116.467 268.321 114.733 268.082C113.438 267.903 110.629 267.684 109.314 267.684C108.497 267.684 105.169 268.062 106.066 269.417V269.357Z" fill="#F4F9F9"/>
<path d="M295.779 205.913C295.421 209.44 294.305 212.868 293.767 216.355C292.591 223.926 290.678 237.695 291.734 244.948C292.033 246.961 293.588 251.165 293.388 252.799C293.269 253.755 289.722 258.896 288.905 259.932C280.277 270.852 263.818 273.083 251.026 276.291C247.579 277.148 241.262 278.204 238.353 279.639C235.444 281.074 235.723 286.753 234.169 287.031C231.937 287.45 233.691 283.505 233.292 282.209C232.096 278.284 225.621 284.86 224.126 285.557C223.648 285.776 223.229 285.876 222.751 285.577C221.755 284.88 224.166 281.432 224.804 280.755C227.035 278.324 230.861 277.786 233.591 276.232C242.059 271.469 248.754 262.802 256.386 256.724C260.909 253.118 268.66 249.69 271.49 245.207C277.886 235.085 281.971 222.711 288.746 212.648C289.423 211.652 294.544 204.618 295.779 205.874V205.913Z" fill="#F4F9F9"/>
<path d="M233.571 222.671C235.344 222.173 234.846 227.692 234.448 228.669C233.551 230.88 226.637 233.232 226.876 234.686C227.992 236.519 230.801 236.479 232.814 236.619C233.95 236.699 238.612 236.101 238.712 237.456C234.687 247.797 231.578 260.032 224.305 268.68C215.379 279.3 205.197 275.136 197.326 265.97C196.708 260.231 196.13 254.492 195.413 248.774C195.214 247.14 194.078 243.414 194.696 242.158C195.074 241.381 203.045 236.021 204.499 234.905C206.273 233.53 208.066 231.757 209.799 230.302C210.218 230.063 210.776 230.004 211.174 230.283C211.633 230.581 214.98 239.648 214.9 240.504C214.761 242.059 208.983 249.013 207.847 251.563C207.249 252.918 206.133 254.931 208.544 254.672C215.996 243.314 224.445 232.733 233.571 222.691V222.671Z" fill="#F4F9F9"/>
<path d="M175.945 169.469C176.563 170.067 176.464 175.546 176.384 176.742C176.165 179.432 174.75 184.015 173.375 186.346C171.94 188.757 169.39 190.092 168.573 192.742C169.37 194.954 169.211 200.872 170.665 202.386C172.02 203.801 172.618 200.474 172.837 200.414C173.236 200.314 175.886 200.354 176.085 200.633C176.543 201.29 176.464 204.399 176.344 205.335C174.969 217.112 151.795 218.925 145.738 208.384C145.06 207.208 143.407 203.203 143.686 202.028C143.885 201.171 146.515 200.593 147.153 200.812C148.408 201.211 147.531 203.004 148.049 203.343C150.341 204.837 150.361 200.274 150.62 199.398C151.138 197.664 153.11 193.998 152.851 192.423C152.712 191.527 150.54 189.913 149.823 188.936C149.305 188.219 148.488 186.725 148.089 185.888C147.113 183.756 146.336 178.794 145.28 177.439C144.224 176.084 143.825 176.961 142.849 176.802C139.382 176.244 138.186 170.366 141.653 168.951C143.546 168.174 147.631 169.688 149.863 169.449C151.178 169.808 150.899 171.98 152.732 172.378C155.123 172.916 164.488 172.538 165.724 170.166C166.242 169.887 166.64 167.676 166.64 167.676L166.481 165.623C166.481 165.623 166.979 163.372 168.035 163.232C170.446 162.873 170.207 166.38 171.422 167.676C172.877 169.23 175.348 168.871 175.945 169.469Z" fill="#F4F9F9"/>
<path d="M310.783 152.153C312.457 151.914 316.921 151.914 317.459 153.01C317.698 153.508 316.98 156.099 316.941 156.936C316.682 161.977 318.634 169.409 319.81 174.53C321.962 183.855 324.213 171.083 326.166 169.25C328.338 167.217 330.51 169.728 330.211 172.278C329.912 174.829 325.728 173.892 325.19 175.785C324.413 178.495 325.967 182.999 325.489 185.928C326.485 189.833 329.055 186.625 331.466 187.801C331.188 189.614 333.18 193.739 332.921 195.074C332.722 196.09 329.195 201.35 328.338 202.466C326.804 204.479 325.17 206.013 323.177 207.587C322.5 207.766 318.614 204.857 317.797 204.2C316.821 203.423 314.151 201.131 313.573 200.234C311.481 196.827 314.968 189.753 310.126 188.677C307.018 187.98 304.068 188.159 301.398 185.788C297.334 182.182 296.258 170.047 296.437 164.786C296.457 164.069 296.915 159.984 297.094 159.725C297.294 159.446 297.353 156.836 297.493 155.899C297.732 154.365 298.967 150.42 299.346 149.962C300.183 148.945 305.603 150.878 306.878 151.655C308.153 152.432 309.787 152.313 310.764 152.173L310.783 152.153Z" fill="#F4F9F9"/>
<path d="M341.111 169.689C340.573 170.027 338.281 169.39 338.52 171.223C338.739 172.936 343.522 173.574 342.167 175.188C342.027 175.347 338.779 175.846 338.759 177.42C338.759 178.954 342.745 178.815 341.808 180.289C339.855 180.807 329.713 185.789 328.537 184.972C328.159 184.473 327.979 183.816 327.9 183.198C327.82 182.581 327.501 178.117 327.581 177.858C327.88 176.682 329.354 176.722 330.112 176.264C336.587 172.239 330.65 162.774 324.831 167.218C323.377 168.334 323.456 170.844 321.404 170.784C320.866 166.321 319.132 161.838 319.352 157.315C319.451 155.362 320.886 151.656 319.352 150.121C318.395 149.165 313.693 149.743 311.999 149.623C310.066 149.484 307.496 149.205 305.603 148.846C304.108 148.567 301.558 147.312 300.362 147.232C299.306 147.152 296.975 149.185 298.011 146.575C300.761 139.64 320.527 141.952 326.206 143.924C337.444 147.83 336.388 157.872 340.194 167.118C340.393 167.616 342.087 169.111 341.091 169.708L341.111 169.689Z" fill="#F4F9F9"/>
<path d="M335.631 216.912C336.348 217.59 336.448 220.459 337.643 220.878C339.596 221.555 341.808 216.972 343.701 219.921C344.936 221.814 343.462 223.468 343.96 225.122C344.358 226.457 346.431 226.218 346.63 227.613C346.889 229.466 343.741 231.917 346.271 234.587C344.896 234.686 344.239 233.331 343.004 232.913C339.815 231.837 327.581 231.598 323.915 231.857C322.101 231.996 320.268 232.076 319.252 233.67C318.156 235.404 317.718 241.043 317.598 243.274C317.459 246.263 318.096 250.866 317.598 253.516C317.439 254.353 316.98 254.612 316.223 254.214C315.366 253.775 315.346 251.922 314.928 251.065C314.37 249.89 312.716 248.654 312.816 247.399C312.856 246.841 313.334 246.403 313.434 245.924C313.972 243.314 309.807 241.043 310.744 237.815C311.042 236.798 312.477 234.786 312.457 234.068C312.437 233.192 310.863 232.275 311.162 230.741C311.401 229.545 313.075 228.908 313.155 227.573C313.254 226.018 310.783 224.265 312.099 222.193C312.876 220.957 314.709 221.695 315.705 221.655C318.654 221.535 318.276 218.327 319.77 216.813C323.038 213.525 325.628 219.184 328.318 219.204C329.733 219.204 333.2 214.701 335.571 216.932L335.631 216.912Z" fill="#629D96"/>
<path d="M324.034 234.327C328.478 233.829 336.428 234.387 340.991 234.905C341.629 234.985 342.585 235.144 342.804 235.822C343.063 236.619 342.944 241.082 342.884 242.258C342.844 243.075 342.525 246.821 342.366 247.18C341.868 248.236 340.114 247.399 338.959 247.518C336.109 247.777 334.396 251.304 335.91 253.656C337.305 255.827 339.676 254.851 340.752 259.055C341.25 261.048 341.37 266.727 340.333 268.321C339.118 270.194 334.276 269.776 332.144 269.716C329.613 269.636 325.788 269.377 323.317 268.998C322.022 268.799 321.065 268.221 320.547 267.006C320.388 261.606 320.248 256.166 320.388 250.766C320.487 246.582 320.487 240.106 321.105 236.141C321.384 234.367 322.56 234.507 324.094 234.347L324.034 234.327Z" fill="#F4F9F9"/>
<path d="M144.622 212.051C146.276 212.429 147.053 213.924 148.209 214.78C154.505 219.403 169.171 218.387 174.83 213.087C175.607 212.349 176.822 209.181 177.56 210.337C178.297 211.493 176.384 220.499 175.846 222.292C174.252 227.672 170.227 234.328 166.441 238.492C165.564 239.449 164.548 240.943 163.054 240.206C157.395 236.001 152.991 231.618 149.564 225.381C148.607 223.647 143.725 213.286 144.642 212.051H144.622Z" fill="#ADBC76"/>
<path d="M155.84 413.66C154.187 414.298 151.377 414.576 151.457 412.185L150.082 335.053C149.424 332.502 154.844 332.761 155.402 333.877C155.98 335.072 155.502 346.012 155.561 348.403C155.561 349.3 155.92 350.136 155.94 351.093C156.279 371.935 155.701 392.837 155.88 413.68L155.84 413.66Z" fill="#F4F9F9"/>
<path d="M329.813 334.614C330.709 334.355 333.738 334.295 334.176 335.232C334.376 361.693 335.053 388.274 334.515 414.736C334.037 415.752 330.789 415.154 330.43 414.397C329.833 406.945 329.912 399.512 329.932 392.04C329.932 391.363 329.554 390.665 329.633 390.068C329.853 388.633 333.08 386.999 332.981 385.246C332.901 383.632 330.391 381.101 329.833 379.487C328.996 365.2 329.175 350.754 328.856 336.407C328.796 335.65 329.016 334.853 329.793 334.614H329.813Z" fill="#F4F9F9"/>
<path d="M327.521 408.579L313.015 408.918C310.943 409.336 302.873 409.894 302.594 412.504C302.295 415.354 308.293 416.071 310.325 416.37C319.571 417.745 331.606 417.804 340.991 417.466C345.893 417.286 354.68 416.768 359.163 415.174C360.638 414.656 362.85 413.301 361.475 411.627C358.725 408.26 342.446 408.818 337.962 408.539C336.906 407.762 337.125 406.686 338.58 406.526C341.748 406.168 348.204 406.586 351.552 406.885C355.338 407.224 366.855 408.479 365.719 414.218C365.36 415.991 358.944 417.645 357.211 417.984C347.048 419.976 335.591 419.956 325.309 419.478C318.774 419.179 308.014 419 302.076 416.449C298.011 414.696 298.33 411.508 302.036 409.535C307.117 406.825 314.868 407.084 320.527 406.865C322.639 406.785 328.318 405.112 327.521 408.579Z" fill="#F4F9F9"/>
<path d="M124.258 410.392C121.249 413.999 131.77 415.194 133.543 415.413C144.961 416.768 161.718 416.828 173.116 415.413C175.009 415.174 185.43 413.919 182.86 410.452C181.485 408.579 173.156 407.702 170.745 407.563C167.457 407.383 162.396 408.121 159.467 407.563C158.192 407.324 158.271 405.67 159.467 405.51C166.74 405.829 179.751 404.395 185.57 409.416C191.388 414.437 179.791 416.489 176.464 417.047C163.053 419.259 140.318 419.478 127.147 416.33C122.504 415.214 116.826 412.664 123.202 408.499C126.45 406.367 134.659 405.67 138.624 405.49C140.258 405.411 147.073 405.211 148.149 405.55C148.966 405.809 148.986 407.224 148.149 407.503C143.566 407.702 127.167 406.885 124.238 410.372L124.258 410.392Z" fill="#F4F9F9"/>
<path d="M250.368 179.332C250.687 179.831 247.798 190.531 247.3 190.87C246.762 191.248 244.889 189.435 243.095 190.591C240.665 192.145 244.51 195.592 244.251 196.528C244.012 197.405 241.98 196.628 241.043 196.728C237.935 197.027 237.716 199.657 235.544 201.151L234.527 203.522C233.73 203.204 232.615 198.182 232.216 196.967C230.861 192.942 227.314 184.473 226.936 180.727C226.816 179.572 226.856 179.412 228.051 179.273C230.562 178.974 234.886 179.014 237.616 178.934C239.29 178.894 250.01 178.735 250.388 179.332H250.368Z" fill="#EF8176"/>
<path d="M327.083 126.469C328.139 126.23 328.936 126.509 329.872 126.947C334.356 129.06 334.097 137.966 336.049 139.202C338.002 140.437 339.497 135.416 341.987 139.062C343.98 141.991 342.984 147.292 339.656 148.926C336.049 150.719 336.667 148.647 335.033 146.694C333.718 145.12 331.486 143.386 329.653 142.529C327.96 141.752 323.377 141.035 322.619 139.68C321.783 138.166 321.922 133.383 322.44 131.71C322.958 130.036 325.369 126.848 327.103 126.469H327.083Z" fill="#F4F9F9"/>
<path d="M312.238 372.473C312.716 372.155 315.825 371.856 316.682 371.637C318.017 371.298 320.966 369.983 322.062 370.521C322.839 370.899 324.732 376.22 325.349 377.475C325.748 378.312 328.119 381.898 328.139 382.177C328.199 382.715 327.72 383.293 327.362 383.672C326.126 385.027 323.058 387.577 321.543 388.773C320.527 389.57 315.725 393.336 314.709 391.881C313.394 390.008 317.498 385.027 317.279 382.855C317.22 382.157 316.243 380.523 315.845 379.826C315.207 378.67 311.003 373.31 312.218 372.493L312.238 372.473Z" fill="#F4F9F9"/>
<path d="M241.521 226.377C240.963 226.975 240.944 226.218 240.824 225.879C240.246 224.066 241.043 223.388 241.183 221.774C241.342 219.941 241.641 211.831 242.239 210.895C242.797 210.018 245.267 209.181 242.876 208.125C241.94 207.707 237.397 206.87 237.118 206.551C237.018 206.431 237.018 205.276 237.078 205.236C237.197 205.096 240.146 205.415 240.824 204.897C238.712 201.689 241.362 202.944 241.8 201.609C242.119 200.633 240.764 198.84 241.661 198.78C242.239 198.74 244.53 199.378 245.427 199.457C246.164 199.517 246.901 199.457 247.639 199.457C247.918 197.365 244.988 195.114 244.889 193.5C244.849 193.001 244.869 192.882 245.427 192.982C246.662 193.201 248.954 196.927 249.512 198.102C254.892 209.699 245.626 215.378 241.82 224.883C241.641 225.321 241.541 226.377 241.482 226.437L241.521 226.377Z" fill="#F4F9F9"/>
<path d="M254.493 372.254C254.852 371.098 258.737 372.075 259.773 372.095C261.228 372.115 265.99 370.959 266.11 372.593C265.113 376.658 264.277 380.802 264.336 384.987C259.016 387.099 253.457 389.251 247.678 389.47C246.383 388.155 253.098 384.13 253.776 382.775C253.955 382.416 254.493 380.364 254.493 380.085C254.493 378.491 254.174 373.29 254.493 372.234V372.254Z" fill="#F4F9F9"/>
<path d="M335.033 451.917C334.854 452.196 331.825 452.475 331.267 452.117C330.65 451.678 331.008 444.565 330.968 443.21C330.789 437.89 330.749 432.53 330.63 427.169C330.59 425.894 329.434 422.826 331.188 422.308C331.945 422.088 335.053 422.088 335.053 423.085V451.917H335.033Z" fill="#F4F9F9"/>
<path d="M156.518 450.503C156.259 450.901 151.995 451.459 152.134 450.044L151.477 422.048C151.556 420.395 155.96 420.235 156.219 422.088C156.319 431.573 155.98 441.078 156.518 450.522V450.503Z" fill="#F4F9F9"/>
<path d="M164.648 158.251C162.794 156.657 152.951 157.773 151.078 159.307C149.205 160.841 149.902 165.225 147.591 164.567C145.858 164.089 147.332 159.048 148.029 157.952C149.424 155.7 156.518 154.047 159.128 153.708C162.814 153.23 166.541 153.529 170.227 153.17C174.312 155.78 171.223 155.74 170.227 157.334C169.749 158.112 170.028 159.387 169.37 159.905C169.091 160.124 166.58 160.582 166.321 160.523C165.763 160.363 165.126 158.709 164.628 158.291L164.648 158.251Z" fill="#F4F9F9"/>
<path d="M153.668 169.389L153.21 168.812C153.409 166.799 151.536 163.551 152.991 161.877C153.987 160.742 160.702 160.084 162.017 160.682C163.651 161.419 163.751 166.022 163.313 167.437C163.153 167.995 162.117 168.612 161.579 168.772C161.161 168.911 159.048 169.37 158.769 169.37H153.648L153.668 169.389Z" fill="#F4F9F9"/>
<path d="M233.85 234.228C231.837 233.63 235.105 231.996 235.544 231.478C237.935 228.629 236.241 221.017 236.779 217.331L236.121 210.158C236.341 208.185 239.27 209.261 239.509 210.516L238.811 229.645C239.11 231.777 241.302 232.315 241.501 233.092C241.621 233.551 241.342 234.228 241.043 234.228C239.509 234.228 234.926 234.527 233.87 234.228H233.85Z" fill="#F4F9F9"/>
<path d="M346.192 241.78C348.762 241.043 350.077 243.215 350.296 245.406C350.575 248.256 350.017 255.19 349.679 258.279C349.519 259.773 349.26 262.104 347.826 262.901C347.029 263.36 343.542 263.599 343.243 262.662C342.406 260.132 345.853 260.63 346.65 259.315C347.347 258.159 347.846 249.372 347.626 247.718C347.327 245.486 345.395 244.55 345.255 243.573C345.156 242.836 345.435 241.979 346.192 241.78Z" fill="#F4F9F9"/>
<path d="M105.388 419.16C104.91 418.681 108.397 413.74 108.915 412.983C109.971 411.448 113.08 406.945 114.574 406.367C115.212 406.128 116.068 406.128 116.826 405.889C118.081 405.491 120.691 403.498 120.392 406.347C120.293 407.244 117.802 409.695 116.985 410.472C114.694 412.684 109.393 417.127 106.763 418.662C106.325 418.921 106.086 419.339 105.388 419.16Z" fill="#F4F9F9"/>
<path d="M174.212 158.55C175.487 158.271 180.349 158.251 181.166 159.287C181.784 160.084 181.744 165.305 180.787 166.122C179.592 167.158 174.61 166.759 173.435 165.643C172.06 164.328 172.199 158.968 174.212 158.53V158.55Z" fill="#F4F9F9"/>
<path d="M192.643 405.61C193.301 406.148 198.98 413.919 199.498 414.955C199.677 415.294 200.614 417.087 199.737 417.107C198.262 417.147 187.582 407.064 185.55 405.61C184.294 401.625 187.921 404.594 189.595 405.072C190.611 405.371 191.946 405.032 192.643 405.61Z" fill="#F4F9F9"/>
<path d="M115.55 394.989C115.969 394.93 116.228 394.87 116.646 395.089C117.463 395.508 118.898 400.808 118.699 401.924C118.479 403.099 114.375 405.052 112.94 403.239C112.561 402.78 109.533 397.48 109.573 397.141C109.593 396.823 110.111 396.504 110.429 396.384C111.286 396.065 114.733 395.109 115.55 394.989Z" fill="#F4F9F9"/>
<path d="M195.034 395.368C195.194 395.527 195.373 395.966 195.373 396.185C195.373 396.763 192.245 402.182 191.687 402.621C191.229 402.98 190.93 403.119 190.332 402.999C190.013 402.94 186.845 401.266 186.745 401.106C186.227 400.27 187.961 394.431 188.618 394.093C189.834 393.475 190.89 394.531 192.006 394.81C192.863 395.029 194.437 394.83 195.015 395.388L195.034 395.368Z" fill="#F4F9F9"/>
<path d="M156.817 149.185C156.319 149.643 153.15 150.161 152.194 150.54C150.341 151.257 147.99 152.751 146.854 154.425C146.316 155.202 145.459 158.51 143.965 157.454C143.068 156.816 145.001 153.509 145.499 152.731C147.372 149.862 151.656 145.837 155.362 146.574C156.358 146.774 157.793 148.288 156.817 149.205V149.185Z" fill="#F4F9F9"/>
<path d="M229.865 174.909C231.299 177.3 225.64 176.642 224.624 178.276C224.026 179.233 226.019 182.042 223.09 181.146C223.767 178.236 222.114 178.296 220.898 176.881C218.427 173.972 224.465 176.045 225.142 175.726C226.418 175.108 225.78 172.837 227.015 172.139C227.852 172.717 228.291 173.614 228.888 174.371C229.147 174.69 229.765 174.809 229.845 174.929L229.865 174.909Z" fill="#F4F9F9"/>
<path d="M344.498 257.7C342.764 259.554 342.087 254.313 341.19 253.496C340.473 252.839 339.058 253.018 338.6 251.982C337.524 249.511 343.183 249.969 344.398 251.663C345.116 252.659 345.235 256.943 344.498 257.72V257.7Z" fill="#F4F9F9"/>
<path d="M326.465 237.336C326.784 237.874 325.847 243.414 325.808 244.629C325.588 250.228 326.186 256.146 325.808 261.706C325.748 262.562 325.429 265.651 325.09 266.109C324.353 267.185 323.357 266.667 323.397 265.472C323.735 258.298 323.337 250.746 323.755 243.613C323.835 242.318 324.154 238.412 324.751 237.536C325.09 237.037 326.246 237.017 326.445 237.336H326.465Z" fill="#0A0C0C"/>
<path d="M332.921 238.034C333.061 238.114 333.26 238.911 333.26 239.17C333.28 242.039 332.742 245.486 332.622 248.375C332.443 253.317 332.343 258.199 331.985 263.101C331.945 263.539 332.562 266.627 331.108 266.309C329.394 265.93 330.251 263.021 330.271 262.064C330.391 254.811 330.271 246.702 330.929 239.528C331.028 238.393 331.606 237.237 332.921 238.054V238.034Z" fill="#0A0C0C"/>
<path d="M335.711 259.295C336.01 257.86 337.384 257.86 337.922 259.135C338.142 259.673 337.823 265.133 337.584 265.611C337.125 266.567 335.711 266.348 335.711 265.79C335.711 264.097 335.412 260.729 335.711 259.314V259.295Z" fill="#0A0C0C"/>
<path d="M337.305 238.014C338.002 237.835 338.719 238.472 338.739 239.15C338.022 240.684 338.919 243.952 337.922 245.147C337.444 245.725 336.348 245.685 336.089 244.928C335.99 244.649 336.289 239.708 336.388 239.19C336.488 238.711 336.807 238.154 337.305 238.014Z" fill="#0A0C0C"/>
<path d="M246.563 182.102C247.479 182.879 246.005 186.546 245.407 186.745C242.916 187.582 244.371 184.573 243.016 184.115C242.358 183.895 237.217 183.955 236.241 184.075C235.085 184.194 234.308 184.414 234.507 185.788C234.926 188.379 236.978 192.165 237.735 194.815C237.815 196.11 236.221 196.728 235.464 195.931C235.065 195.512 232.096 186.466 231.738 185.171C231.001 182.56 230.841 181.923 233.85 181.664C235.504 181.524 245.865 181.504 246.563 182.102Z" fill="#0A0C0C"/>
</g>
</g>
<defs>
<clipPath id="clip0_609_5276">
<rect width="499" height="462" fill="white" transform="translate(0.166626)"/>
</clipPath>
<clipPath id="clip1_609_5276">
<rect width="544.134" height="462" fill="white" transform="translate(0.498657)"/>
</clipPath>
</defs>
</svg>
