<svg width="162" height="200" viewBox="0 0 162 200" fill="none" xmlns="http://www.w3.org/2000/svg">
<g clip-path="url(#clip0_531_2214)">
<path d="M150.804 58.8087C143.336 51.348 134.366 47.6199 123.883 47.6199V19.0498C123.887 13.8196 122.025 9.33602 118.287 5.60342C114.549 1.87082 110.061 0.0045166 104.82 0.0045166H19.0586C13.8216 0.00901371 9.33856 1.87531 5.60493 5.60342C1.86681 9.32703 0 13.8106 0 19.0498V171.43C0.00448753 176.674 1.87579 181.162 5.60493 184.885C9.33407 188.613 13.8171 190.475 19.0586 190.475H92.4342L76.4721 171.43H19.0586V19.0498H104.824V132.143L77.1901 118.332C73.5372 116.435 69.6465 115.841 65.518 116.552C61.3895 117.262 57.8937 119.048 55.0351 121.903L44.3144 132.854L92.4387 190.471C95.1402 193.493 98.3174 195.836 101.97 197.5C105.623 199.164 109.514 199.996 113.642 199.996H123.887C134.37 199.996 143.341 196.267 150.808 188.807C158.271 181.346 162.004 172.379 162.004 161.9V85.7104C162.004 75.2322 158.271 66.2649 150.808 58.8042L150.804 58.8087ZM142.941 161.905C142.95 167.302 141.084 171.826 137.35 175.477C133.616 179.129 129.124 180.955 123.883 180.955H113.638C112.211 180.959 110.86 180.685 109.586 180.127C108.316 179.57 107.203 178.733 106.251 177.622L73.3757 137.621L123.883 163.097V66.6697C129.129 66.6742 133.621 68.545 137.35 72.2686C141.079 75.9967 142.941 80.4803 142.941 85.715V161.905Z" fill="#F4F9F9"/>
<path d="M75.7137 57.1718C73.977 53.0569 72.1865 48.9961 70.3017 45.0251C70.2882 44.9936 70.2703 44.9532 70.2568 44.9217L69.3279 42.7181C69.0721 42.3089 68.7535 41.9536 68.4035 41.6478C68.39 41.6343 68.3721 41.6208 68.3586 41.6028C68.3003 41.5533 68.2419 41.4994 68.1791 41.4544C67.9413 41.252 67.69 41.0856 67.4072 40.9957C67.3085 40.9642 67.1604 40.9372 66.9854 40.9103C66.9002 40.8878 66.8194 40.8518 66.7296 40.8338C65.9937 40.7169 63.7679 40.6584 61.4792 40.6674C59.1906 40.6584 56.9648 40.7169 56.2288 40.8338C56.139 40.8473 56.0628 40.8878 55.973 40.9103C55.798 40.9372 55.6499 40.9642 55.5512 40.9957C55.2685 41.0856 55.0172 41.252 54.7793 41.4544C54.7165 41.4994 54.6626 41.5533 54.5998 41.6028C54.5864 41.6163 54.5684 41.6298 54.5549 41.6478C54.2004 41.9536 53.8863 42.3089 53.6305 42.7136L52.7061 44.9172C52.6926 44.9487 52.6747 44.9891 52.6567 45.0206C50.772 48.9916 48.9814 53.0569 47.2448 57.1673H75.7137V57.1718Z" fill="#F4F9F9"/>
<path d="M46.9576 57.8599C44.2336 64.3447 41.6308 70.942 39.0012 77.4853L28.0516 103.501C26.4361 106.294 24.8385 110.31 24.6994 111.465L24.6769 111.515C24.6769 111.564 24.6859 111.609 24.6904 111.659C24.6814 111.906 24.6994 112.144 24.7443 112.374C24.7622 112.468 24.7981 112.549 24.8205 112.639C24.8564 112.752 24.8789 112.869 24.9282 112.976C25.5161 114.528 27.1271 115.387 28.9536 115.387L46.9576 115.355V57.8689V57.8599Z" fill="#F4F9F9"/>
<path d="M98.2546 111.461C98.12 110.305 96.5224 106.289 94.9024 103.496L83.9528 77.4807C81.2558 70.7755 78.5947 64.0119 75.7945 57.3696L63.5525 69.6377V102.898L75.9695 115.342L94.0049 115.373C95.8313 115.373 97.4379 114.519 98.0302 112.963C98.0751 112.855 98.102 112.738 98.1379 112.626C98.1604 112.536 98.2007 112.455 98.2142 112.36C98.2591 112.135 98.277 111.897 98.2681 111.645C98.2681 111.596 98.2815 111.551 98.277 111.501L98.2546 111.452V111.461Z" fill="#F4F9F9"/>
</g>
<defs>
<clipPath id="clip0_531_2214">
<rect width="162" height="200" fill="white"/>
</clipPath>
</defs>
</svg>
