<svg width="276" height="57" viewBox="0 0 276 57" fill="none" xmlns="http://www.w3.org/2000/svg">
<g clip-path="url(#clip0_531_10078)">
<path d="M24 27.4656C24 21.4897 28.8511 16.6386 34.827 16.6386H36.3746V38.2926H34.827C28.8511 38.2926 24 33.4415 24 27.4656Z" fill="#49746F"/>
<path d="M62.6651 12H51.8381V16.6408H62.6651V12Z" fill="#49746F"/>
<path d="M51.8381 38.2904L56.4788 33.6518V21.2794L51.8381 16.6408V38.2904Z" fill="#49746F"/>
<path d="M64.2105 16.6408V38.2904H75.0375V23.2198C75.0375 19.5858 72.0925 16.6408 68.4585 16.6408H64.2127H64.2105Z" fill="#49746F"/>
<path d="M48.7471 16.6408H37.9201V38.2904H48.7471V16.6408Z" fill="#EA5A4C"/>
<path d="M51.8381 16.6408H62.6651V38.2926H51.8381L56.4788 33.6518V21.2794L51.8381 16.6408Z" fill="#2AB5B8"/>
<path d="M85.8624 35.6867H86.2895C86.839 35.6867 87.1138 35.5644 87.2984 35.0106L94.0492 16.6472H97.256L104.007 35.0106C104.189 35.5622 104.496 35.6867 105.016 35.6867H105.473V38.3269H103.762C102.234 38.3269 101.747 37.9577 101.257 36.5453L99.6387 32.0935H91.6966L90.0781 36.5453C89.5587 37.9577 89.0693 38.3269 87.5431 38.3269H85.8624V35.6867ZM98.8767 29.5155L96.5241 22.9129C96.127 21.7773 95.6698 19.8734 95.6698 19.8734H95.6097C95.6097 19.8734 95.1825 21.7773 94.7854 22.9129L92.4328 29.5155H98.8788H98.8767Z" fill="#EA5A4C"/>
<path d="M113.934 22.4213C117.508 22.4213 118.7 24.8168 118.7 24.8168H118.76C118.76 24.8168 118.7 24.3553 118.7 23.7736V19.8734C118.7 19.4119 118.455 19.1972 118.028 19.1972H116.776V16.6493H119.709C121.082 16.6493 121.664 17.2332 121.664 18.6155V35.105C121.664 35.5665 121.909 35.7812 122.336 35.7812H123.587V38.3291H120.747C119.404 38.3291 118.854 37.7152 118.854 36.6698C118.854 36.2083 118.884 35.8713 118.884 35.8713H118.824C118.824 35.8713 117.541 38.6961 113.754 38.6961C109.568 38.6961 106.943 35.3798 106.943 30.5587C106.943 25.7377 109.845 22.4213 113.939 22.4213H113.934ZM118.792 30.5287C118.792 27.764 117.356 25.0014 114.394 25.0014C111.981 25.0014 109.966 27.0277 109.966 30.5587C109.966 34.0897 111.769 36.116 114.334 36.116C116.624 36.116 118.794 34.489 118.794 30.5265L118.792 30.5287Z" fill="#EA5A4C"/>
<path d="M132.414 22.4213C135.988 22.4213 137.179 24.8168 137.179 24.8168H137.239C137.239 24.8168 137.179 24.3553 137.179 23.7736V19.8734C137.179 19.4119 136.934 19.1972 136.507 19.1972H135.256V16.6493H138.188C139.562 16.6493 140.143 17.2332 140.143 18.6155V35.105C140.143 35.5665 140.388 35.7812 140.815 35.7812H142.067V38.3291H139.227C137.883 38.3291 137.334 37.7152 137.334 36.6698C137.334 36.2083 137.364 35.8713 137.364 35.8713H137.303C137.303 35.8713 136.02 38.6961 132.233 38.6961C128.048 38.6961 125.423 35.3798 125.423 30.5587C125.423 25.7377 128.325 22.4213 132.418 22.4213H132.414ZM137.271 30.5287C137.271 27.764 135.835 25.0014 132.873 25.0014C130.46 25.0014 128.445 27.0277 128.445 30.5587C128.445 34.0897 130.248 36.116 132.813 36.116C135.103 36.116 137.273 34.489 137.273 30.5265L137.271 30.5287Z" fill="#EA5A4C"/>
<path d="M145.518 26.0146C145.518 25.5531 145.273 25.3384 144.846 25.3384H143.595V22.7905H146.497C147.871 22.7905 148.452 23.3744 148.452 24.7567V35.105C148.452 35.5665 148.697 35.7812 149.124 35.7812H150.376V38.3291H147.474C146.1 38.3291 145.518 37.7452 145.518 36.3629V26.0146ZM145.58 16.6472H148.238V19.7489H145.58V16.6472Z" fill="#EA5A4C"/>
<path d="M160.578 22.4213C162.441 22.4213 166.138 23.1898 166.138 25.83V27.427H163.45V26.5662C163.45 25.4608 161.709 24.9692 160.578 24.9692C157.554 24.9692 155.293 27.2424 155.293 30.5265C155.293 34.0575 157.858 36.0538 160.73 36.0538C163.602 36.0538 165.526 33.9051 165.526 33.9051L166.809 36.0237C166.809 36.0237 164.609 38.6961 160.516 38.6961C155.658 38.6961 152.269 35.2252 152.269 30.5587C152.269 25.8922 155.598 22.4213 160.578 22.4213Z" fill="#EA5A4C"/>
<path d="M170.169 25.1839H168.153V22.7884H170.231V18.519H173.133V22.7884H176.829V25.1839H173.133V32.3081C173.133 35.4098 175.271 35.8091 176.402 35.8091C176.829 35.8091 177.104 35.7468 177.104 35.7468V38.387C177.104 38.387 176.707 38.4493 176.065 38.4493C174.11 38.4493 170.169 37.8354 170.169 32.6451V25.1839Z" fill="#EA5A4C"/>
<path d="M189.565 19.9635C189.565 19.5021 189.32 19.2874 188.893 19.2874H187.579V16.6472H190.664C192.037 16.6472 192.619 17.231 192.619 18.6134V26.1992H203.585V18.6134C203.585 17.231 204.165 16.6472 205.541 16.6472H208.625V19.2874H207.312C206.885 19.2874 206.64 19.5021 206.64 19.9635V38.3269H203.585V28.8072H192.619V38.3269H189.565V19.9635Z" fill="#2AB5B8"/>
<path d="M218.491 22.4213C222.829 22.4213 225.149 25.6754 225.149 29.7001C225.149 30.0994 225.057 30.9279 225.057 30.9279H213.786C213.968 34.2443 216.351 36.1182 219.1 36.1182C221.85 36.1182 223.621 34.3065 223.621 34.3065L224.905 36.4251C224.905 36.4251 222.614 38.6983 218.948 38.6983C214.06 38.6983 210.731 35.1673 210.731 30.5609C210.731 25.6175 214.091 22.4234 218.491 22.4234V22.4213ZM222.097 28.7471C222.005 26.167 220.386 24.7868 218.463 24.7868C216.203 24.7868 214.37 26.1691 213.912 28.7471H222.099H222.097Z" fill="#2AB5B8"/>
<path d="M229.03 19.8712C229.03 19.4098 228.786 19.1951 228.358 19.1951H227.107V16.6472H230.039C231.413 16.6472 231.995 17.231 231.995 18.6134V35.1029C231.995 35.5644 232.239 35.779 232.666 35.779H233.918V38.3269H230.986C229.612 38.3269 229.03 37.7431 229.03 36.3607V19.8712Z" fill="#2AB5B8"/>
<path d="M237.277 26.0146C237.277 25.5531 237.032 25.3384 236.605 25.3384H235.354V22.7905H238.134C239.507 22.7905 240.027 23.3744 240.027 24.3575C240.027 24.819 239.997 25.186 239.997 25.186H240.057C240.057 25.186 241.34 22.4213 245.189 22.4213C249.343 22.4213 252 25.7377 252 30.5587C252 35.3798 249.006 38.6961 244.974 38.6961C241.553 38.6961 240.239 36.2083 240.239 36.2083H240.179C240.179 36.2083 240.239 36.76 240.239 37.5585V44.4681H237.277V26.0124V26.0146ZM244.515 36.1482C246.958 36.1482 248.976 34.1219 248.976 30.5909C248.976 27.0599 247.172 25.0336 244.607 25.0336C242.317 25.0336 240.147 26.6607 240.147 30.6231C240.147 33.3878 241.643 36.1504 244.515 36.1504V36.1482Z" fill="#2AB5B8"/>
</g>
<defs>
<clipPath id="clip0_531_10078">
<rect width="228" height="32.4702" fill="white" transform="translate(24 12)"/>
</clipPath>
</defs>
</svg>
