<svg width="351" height="462" viewBox="0 0 351 462" fill="none" xmlns="http://www.w3.org/2000/svg">
<path d="M326.033 46.8301C346.543 46.3301 369.323 42.5901 389.073 46.8301H326.033Z" fill="#0A0C0C"/>
<path d="M63.0633 332.32C63.8533 332.58 63.8333 332.88 63.0633 333.22L61.7433 334.79C56.6933 334.56 57.1333 335.54 63.0633 337.72C63.4933 338 63.4833 338.3 63.0633 338.62C54.2233 344.21 49.7133 330.84 63.0633 332.32Z" fill="#0A0C0C"/>
<path d="M63.0633 332.32C75.3333 333.68 65.4733 334.68 65.0233 335.18C64.3933 335.88 65.1033 337.33 63.0633 338.63V337.73C60.3733 337.66 60.5833 333.71 63.0633 333.23V332.33V332.32Z" fill="#49746F"/>
<path d="M408.883 311.6C417.813 321.3 415.653 335.38 413.273 347.06C412.603 350.34 407.653 360.19 407.913 361.44C408.043 362.05 413.673 366.43 415.373 371.31C420.353 385.56 416.883 400.77 415.193 415.17C409.843 415.11 383.643 416.08 381.163 414.97C378.993 413.99 355.123 382.45 350.443 378.54C358.873 365.83 362.513 378.84 368.323 376.9C370.413 376.2 396.613 348.96 396.163 346.47C395.783 344.34 390.503 342.62 390.983 339.27C391.213 337.64 406.283 316.93 408.883 311.6Z" fill="#F4F9F9"/>
<path d="M105.393 333.22C106.413 334.95 110.843 337.69 110.813 339.97C110.783 342.73 104.303 344.64 105.813 349.38C107.173 353.64 130.973 372.03 134.203 378.24C134.883 378.43 135.893 378.81 135.863 379.31C135.453 386.27 133.983 396.68 130.603 402.55C131.343 403.55 129.903 404.77 128.803 404.35L127.903 405.25C128.943 405.03 128.943 405.63 127.903 407.05C127.723 408.09 127.153 408.77 126.103 408.85C126.493 410.95 124.223 411.97 122.503 412.45C118.013 416.64 113.123 414.99 107.193 415.15C105.823 409.22 97.4833 406.1 94.6933 401.08C93.1733 398.35 94.1933 395.74 93.2833 393.49C88.9933 382.96 86.2533 400.29 85.5733 400.74C82.3333 402.87 67.7833 387.93 66.2133 383.63C61.6233 371.07 63.7933 365.01 72.5033 355.69C80.5233 347.12 82.1033 350.84 90.0633 348C95.1033 346.2 94.2833 332.08 105.393 333.2V333.22Z" fill="#F4F9F9"/>
<path d="M127.903 405.26C128.143 404.84 128.573 404.65 128.803 404.36L127.903 405.26Z" fill="#F4F9F9"/>
<path d="M136.013 399.86C138.463 397.44 153.993 380.4 155.373 380.28C157.233 380.12 182.093 394.76 188.693 397.17C196.203 399.91 203.883 402.08 211.663 403.92C215.283 404.77 229.033 405.53 229.683 406.16C230.003 406.48 230.003 414.86 229.683 415.18C225.893 418.97 134.983 412.26 122.503 415.17C123.593 414.38 122.483 412.61 122.503 412.47C123.343 408.53 125.233 409.72 126.103 408.87C127.063 408.72 127.663 408.12 127.903 407.07C129.393 403.93 132.903 401.45 136.013 399.87V399.86Z" fill="#2AB5B8"/>
<path d="M136.013 399.86C133.423 402.42 130.433 404.63 127.903 407.06C127.523 408.19 128.853 409.29 126.103 408.86C126.693 408.29 127.233 407.71 127.903 407.06C128.073 406.56 127.713 405.58 127.903 405.26L128.803 404.36C129.173 403.89 129.983 403.29 130.603 402.56C131.223 401.83 133.143 401.06 134.203 399.86H136.003H136.013Z" fill="#49746F"/>
<path d="M63.0633 333.22V337.72C55.7733 340.65 52.9633 330.91 63.0633 333.22Z" fill="#F4F9F9"/>
<path d="M133.303 87.3601C141.373 85.5901 138.753 92.0001 145.213 90.7701C146.713 90.4801 163.733 78.5001 167.823 76.4001C180.063 70.1401 191.903 65.3101 205.153 61.5001C209.163 60.3501 228.833 57.6801 229.643 56.7301C231.143 54.9701 226.653 45.0601 232.843 43.2701C234.753 42.7201 268.823 42.5201 270.503 43.3701C273.803 45.0301 270.913 55.4501 272.003 56.7301C272.743 57.6001 291.693 59.9901 294.503 60.3501C296.613 60.5701 298.113 61.1701 299.003 62.1501C310.003 65.4001 321.523 69.6701 331.743 74.8901C336.493 77.3101 356.013 91.2801 357.523 91.5401C360.993 92.1301 364.463 85.1401 367.433 85.9601C369.513 86.5301 396.673 114.81 396.133 117.32C395.793 118.91 390.773 122.31 390.863 124.76C390.923 126.57 394.383 128.9 395.363 130.59L397.163 133.29C400.133 138.52 404.513 144.53 407.073 149.5L407.973 151.3C412.793 161.07 416.733 171.69 419.913 182.13C421.343 186.83 424.873 209.17 425.873 210.21C427.483 211.9 435.753 209.73 438.013 210.86C439.853 211.78 440.323 249.66 439.363 251.58C437.663 254.96 428.033 251.83 426.093 253.18C424.893 254.02 421.563 277.09 420.123 281.88C417.343 291.11 413.063 302.99 408.873 311.6L409.613 314.02L392.833 339.47C394.763 341.83 396.443 344.25 397.883 346.74C397.863 350.47 371.763 378.25 367.753 378.85C366.193 379.09 364.623 378.47 363.303 377.7C359.163 374.53 356.433 373.01 352.973 378.07L381.953 413.39C392.583 413.77 403.233 413.76 413.913 413.37L415.183 415.17C422.973 415.26 430.803 415.1 438.593 415.17L436.433 417.8C382.223 417.7 327.513 415.1 273.323 416.89C271.423 416.95 271.783 419.61 269.773 419.69C257.903 420.17 243.743 420.25 231.893 419.75C229.913 419.67 230.763 417.01 227.483 416.9C173.403 415.16 118.973 418.34 64.8633 416.96C64.6733 414.72 64.6833 415.44 66.1933 415.16C76.1133 413.32 95.8533 415.47 107.183 415.16L108.293 413.35C112.883 414.17 116.973 413.64 120.553 411.75L122.493 412.46C155.103 413.13 187.813 413.8 220.643 414.5C227.353 415.46 229.723 413.15 227.763 407.56C201.033 406.81 178.303 394.7 155.733 382.25C149.653 388.01 143.793 394 138.153 400.23L136.003 399.85C134.953 400.61 134.353 400.61 134.203 399.85L133.553 397.89L150.783 379.1C150.893 378.61 143.643 373.26 142.333 375.19C138.883 379.39 136.173 380.41 134.213 378.24L133.043 378.61C125.493 371.24 117.703 363.92 109.683 356.66C102.563 350.71 101.783 346.18 109.053 339.9C105.933 337.3 104.713 335.07 105.393 333.21C90.9533 308.59 78.2733 282.3 76.5833 253.05C73.7333 252.44 64.7033 254.56 63.2033 251.58C62.2433 249.67 62.7133 211.78 64.5533 210.86C66.3933 209.94 75.7033 211.44 76.5633 210.71C77.5633 209.87 79.8333 189.73 81.1433 185.12C87.3233 163.34 97.5933 143.41 110.803 125.17C111.293 124.51 111.173 124.05 110.803 123.37C109.713 119.92 105.253 118.9 106.743 114.4C107.283 112.78 127.393 93.4001 130.613 90.0501C130.793 88.6701 131.693 87.7701 133.313 87.3501L133.303 87.3601Z" fill="#0A0C0C"/>
<path d="M247.683 46.8302L248.583 48.9202C240.273 61.7802 261.023 56.8902 254.483 49.6602L254.893 47.7302C255.143 45.4802 268.083 44.8402 268.733 45.1102C272.083 46.4802 268.763 56.8002 270.723 58.6502C271.773 59.6502 294.463 62.8502 299.183 64.2202C312.913 68.2102 325.713 74.2002 338.193 81.0502C341.513 82.8702 356.193 94.2802 357.353 94.3802C361.113 94.7102 361.283 92.6302 363.853 90.9602C365.853 89.3702 368.253 89.9702 371.053 92.7602C371.363 93.0302 371.673 93.3502 371.953 93.6602C373.973 95.4402 374.873 97.2402 374.653 99.0602L374.693 100.99C368.293 106.35 375.403 116.8 380.813 106.98C382.533 105.4 382.913 105.49 384.563 107.16C403.373 124.04 386.793 115.36 388.333 125.37C388.483 126.36 398.173 138.83 399.883 141.83C407.823 155.81 413.993 168.92 418.513 184.44C419.853 189.04 422.833 210.59 423.683 211.69C425.273 213.72 436.073 211.8 436.803 212.53C437.373 213.1 437.613 227.04 435.893 228.75L433.913 228.88C417.663 220.33 426.353 243.75 433.823 234.15H435.883C436.253 236.64 437.713 250.34 436.793 251.27C436.073 251.99 425.223 250.08 423.673 252.11C422.503 253.64 417.663 283.12 415.443 289.8C412.623 298.27 408.693 307 404.523 314.91C401.833 320.01 388.293 336.94 388.143 338.36C387.633 343.24 394.083 344.26 393.463 347.89C393.173 349.57 386.093 354.91 384.563 356.64L382.493 356.84C375.733 348.17 366.313 357.48 377.043 362.64L377.353 364.74C375.713 366.36 368.103 375.34 366.863 375.47C364.693 375.71 361.623 369.16 358.153 369.45C355.993 369.63 328.443 388.42 320.893 391.66C312.793 395.13 303.933 397.98 295.393 400.31C291.443 401.39 272.003 403.99 271.023 404.76C269.013 406.33 270.893 416.28 270.183 416.98C269.653 417.51 255.563 417.96 255.773 415.17L254.913 413.37C259.503 403.08 242.813 403.08 247.173 412.88L246.763 415.18C247.033 417.78 231.453 417.77 231.453 416.98V404.37C231.453 403.51 216.923 402.75 214.313 402.14C196.933 398.12 182.703 392.89 166.913 384.7C161.603 381.95 145.433 369.16 141.423 370.61C139.993 371.12 137.133 375.98 134.703 375.61C134.053 375.51 127.543 366.99 126.093 365.64L125.943 363.53C134.873 356.75 126.433 347.32 120.103 357.43L117.993 357.54C116.143 355.55 108.603 350.89 108.443 347.68C108.313 344.95 114.053 344.05 113.323 339.33C113.103 337.94 100.193 319.97 98.0233 315.81C91.0333 302.4 86.1233 289.38 82.4033 274.69C81.3733 270.61 79.5533 253.02 78.8633 252.11C77.3233 250.08 66.4633 252 65.7433 251.27C64.5633 250.09 66.7133 237.27 66.6533 235.05L68.6733 234.25C80.3933 240.95 79.9833 222.2 67.7833 228.82L65.7533 227.85C65.7733 226.34 64.6233 212.54 65.7533 212.54H78.3633C79.8133 212.54 82.4633 188.17 83.6433 184.05C87.8333 169.41 94.3533 155.17 101.953 142.02C103.833 138.76 114.123 126.46 114.283 125.44C114.903 121.63 107.543 118.58 108.213 115.91C108.693 113.99 116.173 108.21 117.973 106.27L120.073 106.29C126.283 115.63 134.353 106.72 125.903 100.26L126.073 98.1702C127.703 96.6602 134.353 88.4802 135.663 88.3402C138.093 88.0802 140.903 95.0202 144.343 94.4702C145.533 94.2802 160.463 82.9402 164.203 80.9102C176.953 73.9802 189.333 68.3102 203.333 64.2102C207.983 62.8502 231.393 59.6502 232.223 58.4402C237.173 51.3002 219.623 41.5902 247.653 46.8402L247.683 46.8302Z" fill="#49746F"/>
<path d="M368.363 334.12C370.073 335.69 370.673 337.19 370.163 338.62C370.643 339.01 371.003 339.36 370.933 339.54C369.303 343.88 360.863 351.16 357.553 353.93C356.583 357.76 348.623 348.74 348.743 348.11C348.973 346.92 365.313 331.9 366.943 332.32L368.353 334.12H368.363Z" fill="#49746F"/>
<path d="M294.513 60.3401C296.863 60.6401 299.683 59.1701 299.013 62.1401C297.443 61.6801 295.693 61.7201 294.513 60.3401Z" fill="#F4F9F9"/>
<path d="M133.303 87.3599C132.923 88.8599 131.343 89.2899 130.603 90.0599C130.063 86.1399 131.243 87.8099 133.303 87.3599Z" fill="#F4F9F9"/>
<path d="M378.263 415.16C365.913 413.25 275.783 418 271.993 414.27C271.783 414.06 271.803 409.02 271.993 408.41C272.883 405.67 290.603 404.09 295.243 402.85C313.823 397.89 332.183 390.06 348.093 379.16L378.253 415.16H378.263Z" fill="#2AB5B8"/>
<path d="M134.203 399.86C134.103 401.35 132.053 402.94 130.603 402.56L134.203 378.24C138.673 378.52 139.943 372.37 144.523 372.82C145.123 372.88 153.033 378.17 153.103 378.68C153.293 380.09 136.833 396.89 134.213 399.85L134.203 399.86Z" fill="#F4F9F9"/>
<path d="M110.793 125.18V123.38C110.923 123.78 112.413 124.15 110.793 125.18Z" fill="#F4F9F9"/>
<path d="M255.783 415.17C253.313 417.72 249.303 417.67 246.773 415.17C241.103 409.56 246.663 400.86 254.873 404.82C258.103 406.38 258.353 412.5 255.773 415.17H255.783Z" fill="#F4F9F9"/>
<path d="M126.103 365.64C122.733 362.49 121.173 360.96 117.993 357.53C125.413 343.06 139.543 356.47 126.103 365.64Z" fill="#F4F9F9"/>
<path d="M65.7633 227.85C84.2233 217.59 82.1633 246.35 66.6633 235.05C66.6133 233.41 65.7533 231.66 65.7633 230.55V229.65C65.7633 229.05 65.7633 228.45 65.7633 227.85Z" fill="#F4F9F9"/>
<path d="M254.883 47.7301C267.803 56.5701 235.653 67.6201 247.683 46.8301C249.873 47.2401 252.593 46.1601 254.883 47.7301Z" fill="#F4F9F9"/>
<path d="M117.993 106.27C120.693 103.38 123.193 100.86 126.103 98.1602C138.923 106.81 125.523 119.91 117.993 106.27Z" fill="#F4F9F9"/>
<path d="M128.793 123.39C129.843 126.86 121.643 125.09 121.603 123.83C121.573 122.89 127.753 123.59 128.793 123.39Z" fill="#0A0C0C"/>
<path d="M130.603 339.52C131.253 339.78 137.363 347.93 138.243 349.44C135.393 346.82 129.853 343.58 129.703 339.52C130.013 339.58 130.373 339.43 130.603 339.52Z" fill="#2AB5B8"/>
<path d="M131.493 125.18C125.753 124.22 137.293 116.73 138.273 115.3L131.493 125.18Z" fill="#2AB5B8"/>
<path d="M86.0233 243.16L86.4733 243.61L86.0233 244.06V243.16Z" fill="#0A0C0C"/>
<path d="M142.773 110.79V111.67L141.853 112.55L141.433 112.13L142.773 110.79Z" fill="#2AB5B8"/>
<path d="M144.113 353.93C144.183 354.17 144.083 354.52 144.113 354.83L140.533 351.67C141.223 351.38 144.053 353.73 144.113 353.93Z" fill="#2AB5B8"/>
<path d="M263.443 396.26L263.893 396.71L263.443 397.16V396.26Z" fill="#0A0C0C"/>
<path d="M136.913 132.39C139.823 128.35 152.013 116.72 152.153 115.6C152.713 110.96 145.503 110.98 145.143 110.66C143.443 109.14 142.053 96.0999 145.023 102.34C145.453 103.23 144.303 105.77 145.853 107.7C146.193 108.12 153.773 114.34 154.303 114.29C155.503 114.19 170.543 102.71 174.133 100.73C189.903 92.0199 204.803 86.3499 222.423 82.3799C224.873 81.8299 238.173 80.8099 238.673 80.1599C239.043 79.6799 237.373 69.1199 239.993 68.4899C242.023 67.9999 256.593 70.0899 260.523 69.4099C261.333 69.2699 262.583 65.1599 263.873 66.6599C264.733 67.6699 262.153 69.3699 262.233 69.9599C262.433 71.4499 263.723 72.3699 263.953 74.2899C264.243 76.5899 262.803 79.8999 262.963 80.1499C263.593 81.1199 278.693 81.6399 281.213 82.1799C299.443 86.0999 316.343 93.7499 332.233 103.21C335.013 104.86 346.323 114.23 347.253 114.35C347.793 114.42 355.863 108.53 356.203 108.11C357.443 106.53 355.263 101.49 359.333 101.79C358.583 103.66 358.413 108.62 357.533 109.89C357.813 110.76 357.513 111.06 356.633 110.79C355.893 111.53 347.753 112.27 350.273 116.68C350.783 117.57 364.263 130.46 365.283 130.57C367.563 130.8 369.113 126.04 371.043 125.2C371.193 123.25 372.333 123.28 372.843 125.2C371.053 124.95 371.083 123.82 372.843 123.4L380.053 123.86C380.543 126.11 373.363 125.33 372.843 125.2C372.743 127.7 366.393 131.52 366.603 133.63C366.703 134.62 377.273 146.53 378.963 149.25C386.973 162.13 392.893 175.06 397.083 189.67C398.423 194.34 401.643 216.09 402.623 217.46C404.063 219.46 413.553 217.74 416.073 219.78C417.643 221.05 413.603 221.93 413.353 223.8C412.773 228.09 411.973 241.79 416.053 243.65C409.713 240.56 412.933 245.71 412.013 245.91C410.853 246.16 402.943 243.78 402.583 244.09C401.933 244.67 401.073 258.95 400.553 261.43C397.163 277.5 391.673 292.45 383.793 306.81C380.083 313.57 367.413 328.48 368.353 334.15C364.603 332.76 350.543 347.05 350.413 348.24C350.263 349.72 355.163 354.65 357.543 353.96C359.213 353.79 359.313 354.45 358.443 355.76C358.243 357.5 360.563 361.39 358.013 361.15C358.893 358.51 348.893 349.68 348.103 349.64C346.843 349.58 331.023 361.89 327.383 363.87C316.783 369.62 304.713 374.88 293.093 378.21C288.273 379.59 265.463 382.55 264.413 383.57C263.763 384.2 263.503 394.7 262.073 395.4C260.643 396.1 240.723 391.29 238.213 397.17C239.003 395.56 239.103 384.22 238.673 383.69C237.713 382.5 213.613 379.64 208.563 378.21C195.603 374.56 180.763 367.64 169.043 361C166.343 359.47 155.033 349.79 154.103 349.82C152.313 349.88 142.703 359.05 143.653 362.05C140.763 361.69 144.273 356.56 144.123 354.86V353.96C146.853 353.33 152.203 351.04 150.523 347.2C150.133 346.3 137.463 333.56 136.483 333.49C135.093 333.38 130.533 337.45 130.623 339.56C130.403 340.33 130.103 340.31 129.723 339.56C126.923 339 124.303 340.73 121.623 340.02C125.443 339.71 134.643 334.35 135.123 330.56L139.533 332.53C159.173 352.38 183.503 367.13 210.483 374.52L214.373 377.39L216.173 378.29C216.473 377.51 216.773 377.51 217.073 378.29L217.973 379.19L221.163 377.94C233.683 379.97 246.433 380.66 259.103 380.24L262.103 381.9L265.703 381L269.573 378.79C395.723 363.56 444.193 207.45 350.063 121.46C289.153 65.8199 198.833 74.7599 141.373 130.56L136.923 132.44L135.773 137.18C108.383 176.05 94.6833 222.79 106.993 269.65C113.143 293.04 123.803 309.89 136.303 328.64C136.273 329.48 135.853 330.11 135.113 330.57C118.083 312.53 107.653 288.94 102.223 264.85C101.363 261.03 100.713 245.71 100.003 245.01C99.6933 244.7 93.6833 244.63 91.3633 244.2C90.6633 244.07 91.5133 246.47 90.1033 245.91C89.9233 245.84 90.4633 243.93 89.9333 243.35C89.4633 242.84 87.4433 243.35 87.3833 243.21C87.1933 242.72 88.3433 241.66 88.2933 241.42L87.3933 221.61C87.0133 220.15 84.6433 220.32 84.7033 218.92C92.2533 222.86 89.7133 218.05 90.1033 218C91.3133 217.85 98.5933 219.19 99.0633 218.89C100.153 218.19 102.473 197.72 103.683 193.31C109.883 170.71 120.403 149.25 136.933 132.45L136.913 132.39Z" fill="#0A0C0C"/>
<path d="M88.2733 241.36C87.0133 234.66 87.3233 228.28 87.3733 221.55C88.9733 227.69 88.3833 235.04 88.2733 241.36Z" fill="#2AB5B8"/>
<path d="M262.093 79.25H243.633C242.193 79.25 240.523 81.2 239.733 76.76C238.183 68.04 266.673 66.25 262.093 79.25Z" fill="#49746F"/>
<path d="M262.093 384.55C262.603 385.05 262.473 391.03 260.293 392.21C258.243 393.32 241.403 393.42 240.003 390.85C239.133 389.24 240.163 384.55 240.473 384.55C243.463 384.55 261.323 383.79 262.083 384.55H262.093Z" fill="#49746F"/>
<path d="M265.693 380.95C265.493 380.97 263.923 381.74 262.093 381.85L265.693 380.95Z" fill="#2AB5B8"/>
<path d="M216.163 378.25C214.993 377.99 214.463 377.37 214.363 377.35L216.163 378.25Z" fill="#2AB5B8"/>
<path d="M217.963 379.15C217.363 379.03 217.123 378.26 217.063 378.25L217.963 379.15Z" fill="#49746F"/>
<path d="M99.0833 241.81C98.2133 243.78 93.0533 243.73 91.4233 242.26C89.7933 240.79 89.6233 228.77 90.0133 226.44C91.4133 218.14 99.0833 220.37 99.0833 222C99.0833 225.1 99.6333 240.57 99.0833 241.81Z" fill="#49746F"/>
<path d="M265.693 380.95L262.093 381.85C248.683 382.64 231.153 381.71 217.963 379.15L217.063 378.25C216.773 378.19 216.453 378.31 216.163 378.25L214.363 377.35C183.583 369.82 156.793 353.48 135.113 330.52C135.313 328.95 120.573 308.09 118.283 303.67C87.3632 243.95 99.0932 184.85 136.913 132.39C199.773 68.46 301.013 62.49 362.513 131.48C444.303 223.23 388.733 369.92 265.693 380.95Z" fill="#F4F9F9"/>
<path d="M345.843 232.35H344.943C344.903 231.76 345.003 231.14 344.943 230.55C345.763 230.9 345.693 231.64 345.843 232.35Z" fill="#2AB5B8"/>
<path d="M284.603 241.36C288.333 241.33 291.203 240.63 293.203 239.27C293.493 239.88 293.783 240.35 294.103 240.37C296.073 240.47 301.753 240.81 301.283 243.08C297.223 244.32 299.693 246.77 302.613 247.67C303.713 244.71 307.233 246.88 305.313 249.47C305.903 250.2 305.903 251.1 305.313 252.17L304.803 255.4C304.373 256.06 290.383 259.35 289.593 259.3C288.803 259.25 286.963 258.08 286.403 257.57H285.503C285.133 258.64 283.663 258.67 283.053 257.89C282.133 256.7 281.063 246.77 282.803 244.97L284.603 241.37V241.36Z" fill="#2AB5B8"/>
<path d="M335.943 253.06C340.043 253.03 338.693 258.33 336.843 261.17C335.173 262.02 332.013 263.45 331.443 261.17C330.763 259.85 330.943 256.9 332.343 255.77C335.123 254.73 334.023 254.01 334.143 253.97C334.823 253.65 335.283 253.43 335.943 253.07V253.06Z" fill="#2AB5B8"/>
<path d="M292.713 205.33C293.493 205.09 295.213 204.08 295.423 204.89C295.563 205.41 295.063 215.69 292.713 215.24V216.14C293.023 217.7 292.483 219.86 292.723 221.54C293.563 221.79 294.243 220.33 294.513 219.74C295.683 218.5 297.483 217.9 299.913 217.94C301.693 216.39 302.283 213.92 305.313 211.64C307.653 211.93 311.303 217.03 308.913 218.84C309.323 219.33 309.623 219.33 309.813 218.84C309.983 218.03 310.283 218.06 310.713 218.84L312.513 217.04C314.003 214.24 315.023 211.22 315.213 208.03C315.473 207.24 315.773 207.26 316.113 208.03C316.983 208.2 317.883 207.9 318.813 207.13C320.333 206.91 323.553 206.94 325.113 207.13C330.753 206.65 335.793 211.36 339.523 215.24C340.213 216.3 340.773 217.68 341.323 218.84C342.313 223.06 343.213 227.26 344.023 231.45C344.253 231.82 344.573 232.11 344.923 232.35C345.553 242.29 345.173 247.94 335.913 253.06C335.213 253.06 334.623 253.76 334.113 253.96C328.753 256.44 311.043 262.95 309.793 255.76C309.193 252.63 308.893 249.33 308.893 245.85C306.793 243.55 308.893 242.05 315.193 241.35C318.713 239.59 322.743 237.07 322.493 232.63L324.203 231.44C324.843 229.87 324.543 229.87 323.303 231.44C322.593 232.31 321.973 232.53 321.483 231.75L321.123 220.51C320.793 218.21 320.623 218.1 320.593 220.18C321.123 223.31 321.383 226.77 321.373 230.56C322.733 232.3 322.933 232.78 320.593 233.69C324.213 236.65 318.163 239.92 315.193 241.34C311.113 243 307.043 243.1 303.003 241.65C300.933 242.91 299.903 242.75 299.923 241.14L292.283 240.04C293.493 237.75 293.653 232.24 293.423 229.22C293.423 229.18 293.093 229.37 292.683 229.63C292.223 231.45 289.483 230.49 289.083 228.73C287.253 231.58 286.353 234.88 286.383 238.64C287.803 239.66 287.003 240.13 285.483 240.44C285.933 240.75 285.623 241.05 284.583 241.34L282.783 244.94L281.333 250.46L280.083 250.34C281.363 251.6 280.803 252.12 279.183 251.24C278.053 252.65 276.853 253.25 275.583 253.04C275.513 254.36 273.953 254.59 272.883 253.94C270.163 251.83 268.063 249.13 266.583 245.83L263.883 240.43C261.303 237.19 267.373 233.92 270.183 233.23C270.423 232.18 271.323 231.28 272.883 230.53C276.823 229.12 280.303 223.35 279.013 219.58C281.353 218.64 281.843 216.09 281.563 213.8C282.563 211.54 284.683 207.34 287.293 208.92C287.883 206.83 290.723 204.93 292.693 205.32L292.713 205.33Z" fill="#2AB5B8"/>
<path d="M246.783 89.1596C249.823 86.3196 255.533 86.3096 258.493 89.1596C265.193 89.4796 275.163 91.3596 281.913 92.7596C282.893 93.6796 284.393 94.2796 286.413 94.5596C291.973 95.5496 295.023 97.3196 299.923 99.0596L302.623 99.9596C334.773 112.26 358.163 132.9 374.673 163C374.453 166 372.753 164.69 371.103 162.98L369.073 161.9C362.843 149.92 354.643 140.06 344.473 132.29C344.393 131.42 344.233 130.66 343.763 130.24C320.533 109.57 284.763 94.3396 253.513 94.1796C252.843 94.1796 252.173 94.6896 251.503 95.3496C250.833 94.7796 250.163 94.3496 249.503 94.3596C216.373 95.2596 183.703 108.02 158.803 129.85L156.663 130.51C153.463 132.72 151.713 132.48 154.023 128.77C165.633 117.89 176.483 110.33 190.943 103.55L193.643 102.65C202.613 98.6796 206.453 97.0396 216.153 94.5396L218.853 93.6396C228.033 91.4996 237.293 89.4296 246.773 89.1396L246.783 89.1596Z" fill="#EA5A4C"/>
<path d="M154.023 128.78C153.593 131.18 154.603 130.63 156.663 130.52L154.853 134.74C129.453 157.84 114.553 193.8 113.313 227.93C113.293 228.59 113.633 229.25 114.073 229.93C111.593 259.08 122.903 289.59 139.673 313.42L140.163 315.69C139.723 317.59 140.423 319.47 142.263 321.33L141.413 323.31C138.593 319.97 137.383 317.55 135.113 314.3L132.413 310.7C131.433 309.21 129.813 307.91 128.813 306.2L127.913 303.5C123.543 295.55 121.063 290.53 118.003 281.89L115.303 272.88C115.053 272.01 113.863 270.7 113.503 269.28L111.703 258.47C108.003 238.63 108.073 226.02 111.703 206.24V202.64C112.093 200.81 112.823 198.98 113.503 197.24C114.023 196.61 114.023 196.01 113.503 195.44C118.753 170.11 135.623 146.05 154.033 128.8L154.023 128.78Z" fill="#2AB5B8"/>
<path d="M297.213 366.54L294.513 367.44C293.603 367.73 292.773 368.06 291.813 368.34C288.003 369.95 285.053 367.92 289.093 365.59L292.233 362.76C315.313 354.92 337.563 342.17 353.643 323.94C354.043 323.49 354.183 322.81 354.253 322.07C354.993 321.9 355.643 321.67 356.033 321.21C376.663 296.48 390.343 262.22 387.823 229.9L389.503 226.03C390.133 225.98 390.643 226 390.743 226.21C392.473 229.76 389.853 229.48 390.643 225.1C390.703 224.76 391.183 224.49 391.783 224.25C392.043 223.46 392.343 223.48 392.683 224.25C395.563 289.79 359.283 345.19 297.223 366.54H297.213Z" fill="#EA5A4C"/>
<path d="M140.163 315.69C145.413 320.24 150.543 324.81 154.233 330.99L161.613 338.34L165.853 339.62C173.353 346.97 183.553 352.76 193.083 357.26C198.513 357.8 203.633 361.11 207.983 364.11C210.273 365.5 208.793 368 206.273 367.44C183.913 360.23 157.353 344.28 143.233 325.11L141.433 323.31C140.533 321.91 135.633 315.1 140.183 315.69H140.163Z" fill="#EA5A4C"/>
<path d="M289.093 365.58C288.833 368.54 288.903 368.61 291.813 368.33C290.583 368.69 289.283 369.64 287.313 370.13H284.613C278.763 371.45 273.583 373.1 267.503 373.73H263.003C254.493 374.31 250.093 374.73 241.393 373.73C236.903 372.85 232.403 372.55 227.883 372.83C226.883 372.68 226.243 371.96 226.083 371.93H223.383C223.083 371.88 222.713 371.08 222.483 371.03H218.883C214.743 370.08 210.323 368.73 206.273 367.43L207.983 364.1L210.353 363.79C233.633 370.32 258.893 370.54 282.613 366.5C284.993 365.18 287.163 364.87 289.113 365.57L289.093 365.58Z" fill="#2AB5B8"/>
<path d="M258.483 89.1598C254.653 88.9698 250.613 89.0398 246.773 89.1598C238.543 80.9598 263.653 81.1098 258.483 89.1598Z" fill="#F4F9F9"/>
<path d="M113.493 269.27C112.573 265.64 112.363 262.08 111.693 258.46L113.493 269.27Z" fill="#49746F"/>
<path d="M117.993 281.88L115.293 272.87C116.003 275.34 117.223 279.7 117.993 281.88Z" fill="#49746F"/>
<path d="M241.373 373.74C237.093 373.54 232.053 373.45 227.863 372.84C231.773 370.56 237.453 373.29 241.373 373.74Z" fill="#49746F"/>
<path d="M286.403 94.5598C284.133 94.1498 281.223 95.8198 281.903 92.7598C283.513 93.0898 285.203 93.2698 286.403 94.5598Z" fill="#2AB5B8"/>
<path d="M267.493 373.74C266.023 373.89 264.473 373.64 262.993 373.74H267.493Z" fill="#49746F"/>
<path d="M135.103 314.3L132.403 310.7C132.993 311.6 134.253 313.08 135.103 314.3Z" fill="#49746F"/>
<path d="M111.693 206.23C111.893 205.14 111.473 203.68 111.693 202.63V206.23Z" fill="#49746F"/>
<path d="M222.463 371.04C221.403 370.83 219.883 371.27 218.863 371.04H222.463Z" fill="#EA5A4C"/>
<path d="M141.413 323.31C141.483 323.42 141.953 323.4 143.213 325.11C142.263 324.82 141.973 323.97 141.413 323.31Z" fill="#49746F"/>
<path d="M218.863 93.6597L216.163 94.5597C216.803 94.3897 217.623 93.9497 218.863 93.6597Z" fill="#2AB5B8"/>
<path d="M302.613 99.9596L299.913 99.0596C300.823 99.3796 301.673 99.5996 302.613 99.9596Z" fill="#2AB5B8"/>
<path d="M297.213 366.54C296.283 366.86 295.463 367.14 294.513 367.44L297.213 366.54Z" fill="#2AB5B8"/>
<path d="M287.303 370.14C286.533 370.33 285.393 369.96 284.603 370.14H287.303Z" fill="#49746F"/>
<path d="M193.643 102.67L190.943 103.57C192.113 103.02 193.023 102.95 193.643 102.67Z" fill="#2AB5B8"/>
<path d="M226.063 371.94C225.213 371.8 224.193 372.1 223.363 371.94H226.063Z" fill="#49746F"/>
<path d="M113.493 195.43C115.803 196.27 113.613 196.93 113.493 197.23C113.573 196.66 113.383 195.98 113.493 195.43Z" fill="#49746F"/>
<path d="M128.803 306.2C128.473 305.63 128.393 304.39 127.903 303.5L128.803 306.2Z" fill="#49746F"/>
<path d="M280.103 250.36C280.483 249.7 281.673 248.86 281.723 248.96C282.093 249.66 284.533 260.44 281.903 259.37C284.193 260.69 284.183 261.65 281.903 262.97C282.433 295.83 285.123 328.76 286.493 361.6C285.963 367.07 279.093 365.85 275.593 366.54L274.223 366.34C271.553 357.67 269.013 348.73 266.593 339.53C266.913 326.77 268.813 303.24 267.493 291.8C267.493 291.37 267.513 290.96 267.663 290.6C270.563 283.7 273.343 271.46 271.093 263.88V262.98C271.793 260.9 272.053 260.9 273.793 262.08C273.163 259.16 273.163 256.75 273.793 254.88C274.503 254.14 275.593 253.48 276.493 253.98C277.003 252.98 277.903 252.08 279.193 251.28C279.443 250.96 279.883 250.71 280.093 250.38L280.103 250.36Z" fill="#F4F9F9"/>
<path d="M226.063 285.49C226.913 286.16 227.493 287.27 227.693 288.34L225.883 307.5C225.203 317.53 224.583 328.23 228.903 337.54L229.633 307.23L231.463 306.21C231.223 326.44 230.733 346.41 229.663 366.55C225.083 366.72 223.413 367.45 221.553 362.94L219.323 362.1C218.353 358.43 218.193 354.66 218.823 350.78C220.993 342.18 220.793 333.22 218.223 323.92L219.753 321.51C220.403 320.25 220.193 319.21 219.753 317.91C218.943 317.78 218.223 317.44 217.803 316.72C217.323 315.9 216.563 304.42 218.853 304.4L219.753 303.5C218.973 303.29 219.003 302.99 219.753 302.6C218.033 300.83 218.223 300.52 220.653 300.8C221.283 296.34 222.483 292.13 224.253 288.19C223.673 287.28 224.463 286.23 225.153 285.49C225.423 284.71 225.723 284.72 226.053 285.49H226.063Z" fill="#49746F"/>
<path d="M227.873 286.39C229.213 286.8 230.733 287.98 231.473 289.09C231.503 290.11 232.493 291.55 232.373 293.59L231.473 294.49C231.313 298.37 231.523 302.31 231.473 306.2L230.563 344.02C218.933 329.14 225.233 303.22 226.073 285.48C223.063 282.04 228.393 281.23 227.873 286.38V286.39Z" fill="#F4F9F9"/>
<path d="M273.793 262.07C273.163 263.1 272.123 263.02 271.093 262.97C269.683 255.12 263.483 254.82 257.583 252.16C259.613 250.64 265.733 248.06 267.493 250.36C272.433 250.6 271.803 258.94 273.793 262.07Z" fill="#49746F"/>
<path d="M218.863 249.46L220.663 251.26C221.973 250.1 222.463 250.62 221.563 252.16C223.313 253.34 224.813 254.54 226.063 255.76C228.373 257.85 227.193 258.37 226.963 260.26C224.623 262.67 223.513 266.94 223.363 270.17C223.103 275.78 224.893 279.33 224.263 285.48C224.913 286.28 224.363 287.22 223.363 287.28C222.783 291.68 221.883 296.18 220.663 300.79C220.503 301.22 220.053 301.89 219.763 302.59H215.263C215.263 299.89 215.243 297.18 215.263 294.48C216.403 293.36 216.403 292.16 215.263 290.88C215.263 289.98 215.283 289.08 215.263 288.18C215.043 278.28 214.393 269.2 213.463 259.36C211.993 255.64 210.783 248.7 212.563 244.95C212.263 243.43 212.563 242.83 213.463 243.15C215.713 244.31 217.523 246.41 218.863 249.45V249.46Z" fill="#F4F9F9"/>
<path d="M224.263 288.19C223.003 292.43 222.203 296.6 220.663 300.8C220.493 296.07 222.593 291.84 223.363 287.29C224.523 286.11 224.763 286.61 224.263 288.19Z" fill="#0A0C0C"/>
<path d="M225.163 285.49C225.553 286.68 224.453 287.55 224.263 288.19L223.363 287.29C223.483 286.56 224.233 285.77 224.263 285.49H225.163Z" fill="#2AB5B8"/>
<path d="M219.763 321.51C219.653 320.33 219.843 319.1 219.763 317.91C219.953 318.77 221.803 319.73 219.763 321.51Z" fill="#0A0C0C"/>
<path d="M218.863 304.4C218.923 304.02 219.403 303.65 219.763 303.5C219.643 303.88 219.193 304.19 218.863 304.4Z" fill="#2AB5B8"/>
<path d="M252.183 179.22V182.82C252.293 184.54 251.393 187.47 251.463 187.78C251.843 189.54 265.463 192.3 269.183 194.18C277.063 198.16 280.403 206.85 287.303 208.03C287.703 208.31 287.683 208.61 287.303 208.93C280.313 215.34 278.243 229.69 277.343 230.49C276.743 231.01 273.653 230.16 272.893 230.54L271.953 228.85L277.243 221.46C275.973 221.58 275.153 221.08 274.693 219.73C273.903 219.47 273.923 219.17 274.693 218.83L275.933 217.17C285.983 217.88 268.173 200.63 264.933 199.3L264.783 197.22C266.853 196.91 269.253 197.81 271.983 199.92C275.903 202.993 275.903 202.993 271.983 199.92C266.503 196.89 259.433 193.31 253.153 192.69C246.983 192.08 236.303 195.93 230.763 199.31C228.903 200.45 226.773 201.86 229.653 201.72L230.273 203.62L219.963 217.07L217.943 217.03L216.953 216.31C218.923 212.73 219.853 209.67 219.743 207.12C219.673 210.13 218.693 213.34 216.793 216.75L217.943 217.02C220.413 217.75 220.403 222.56 217.943 223.32C213.913 225.72 210.313 226.02 207.133 224.22C206.343 223.96 206.363 223.66 207.133 223.32C208.763 218.88 209.353 216.84 209.173 211.9C208.223 208.76 208.443 206.26 209.843 204.41C210.103 203.62 210.403 203.64 210.743 204.41C211.843 208.57 212.823 212.65 212.553 217.01C214.813 215.35 215.983 207.02 219.743 207.11C222.753 201.51 225.823 197.67 231.873 194.48C238.313 191.08 246.323 191.45 249.463 190L250.363 189.1C250.583 188.61 250.493 179.61 250.363 178.29C250.733 176.76 251.103 175.87 252.163 177.39C252.093 177.98 252.243 178.61 252.163 179.19L252.183 179.22Z" fill="#0A0C0C"/>
<path d="M249.483 190.02C249.613 189.96 250.333 189.24 250.383 189.12L249.483 190.02Z" fill="#2AB5B8"/>
<path d="M271.993 199.93C274.713 201.2 278.543 201.86 279.193 206.23C275.643 206.61 274.183 201.82 271.993 199.93Z" fill="#49746F"/>
<path d="M271.993 199.929C270.163 199.079 266.823 198.209 264.793 197.229C264.163 196.969 255.393 194.579 254.883 194.529C251.973 193.719 249.203 193.449 246.773 195.429C241.523 196.239 233.873 198.589 229.663 201.729C216.393 212.379 224.713 201.019 231.723 197.039C246.023 188.929 260.073 189.669 271.983 199.929H271.993Z" fill="#49746F"/>
<path d="M219.763 207.13C223.253 207.21 219.213 214.29 217.963 217.04C217.493 218.07 216.123 220.88 215.273 221.54C214.733 216.4 217.423 211.51 219.763 207.14V207.13Z" fill="#49746F"/>
<path d="M281.673 208.28C281.923 208.59 282.603 210.97 282.363 211.62L279.223 207.58C279.583 207.11 281.593 208.18 281.673 208.28Z" fill="#49746F"/>
<path d="M252.183 182.82V179.22C252.053 180.26 252.113 181.74 252.183 182.82Z" fill="#49746F"/>
<path d="M214.353 220.65C215.963 221.71 210.063 221.82 211.663 220.65C211.783 220.56 214.193 220.54 214.353 220.65Z" fill="#2AB5B8"/>
<path d="M226.963 227.85C228.243 228.38 228.223 229.1 226.963 229.65C227.663 236.47 231.003 246.01 238.673 247.66C239.973 248.21 239.983 248.95 238.673 249.46C239.153 253.62 232.743 256.02 229.663 253.96C227.353 254.1 224.563 250.61 224.263 248.56C221.403 246.39 217.013 239.66 216.113 235.94C216.063 235.73 216.493 235.41 217.053 235.05C217.703 233.5 218.683 233.01 219.983 233.59L224.253 231.45C224.493 231.03 224.093 229.48 224.253 228.75C223.463 228.49 223.483 228.19 224.253 227.85C225.143 227.87 226.063 227.78 226.953 227.85H226.963Z" fill="#F4F9F9"/>
<path d="M226.063 253.96L226.963 254.86C227.753 255.12 227.733 255.42 226.963 255.76C226.653 255.7 226.303 255.85 226.063 255.76C222.523 254.45 223.363 253.61 221.563 252.16C222.953 251.28 224.453 251.88 226.063 253.96Z" fill="#49746F"/>
<path d="M229.673 253.96C229.743 254.2 229.693 254.6 229.673 254.86C229.413 256.33 227.843 255.88 226.973 254.86L226.073 253.96C223.063 252.63 222.163 251.13 223.373 249.46C222.533 248.13 222.853 247.7 224.273 248.56C225.273 249.95 229.063 251.76 229.673 253.96Z" fill="#49746F"/>
<path d="M226.963 254.87C226.393 254.57 226.353 254.27 226.063 253.97C226.503 254.16 226.863 254.36 226.963 254.87Z" fill="#2AB5B8"/>
<path d="M223.363 249.46C224.363 250.68 225.763 253.65 226.063 253.96C224.903 253.45 222.743 253.79 221.563 252.16C221.233 251.9 220.973 251.54 220.663 251.26L219.763 249.46C217.823 248.08 211.193 238.72 211.263 237.97C211.553 234.59 212.633 234.44 215.903 235.47C218.303 240.36 220.793 245.02 223.373 249.47L223.363 249.46Z" fill="#2AB5B8"/>
<path d="M229.673 254.87C229.433 258.5 228.573 256.08 226.973 255.77V254.87C227.433 255.11 228.933 254.71 229.673 254.87Z" fill="#2AB5B8"/>
<path d="M228.773 229.65C230.883 230.41 232.233 232.42 232.823 235.69C233.603 214.26 268.713 219.57 260.203 239.64L253.433 249.07C256.403 249.3 257.783 250.33 257.583 252.16C263.233 252.59 272.683 254.45 272.143 262.09C272.123 262.4 271.673 262.69 271.093 262.96C271.143 263.25 271.053 263.57 271.093 263.86C264.223 248.89 237.543 251.39 226.963 261.16V260.26C225.393 259.55 225.093 258.05 226.063 255.76C226.283 254.99 226.583 255.01 226.963 255.76L229.663 254.86C228.883 254.69 228.923 254.39 229.663 253.96L231.103 252.69C233.773 253.02 236.293 251.94 238.673 249.45C239.643 249.74 240.243 250.94 240.473 253.05C240.743 252.28 241.043 252.28 241.373 253.05C242.223 250.69 247.653 250.73 249.483 252.15C249.493 250.35 249.493 248.55 249.483 246.75C247.623 248.62 242.773 250.76 241.373 247.65C241.153 248.43 240.853 248.41 240.473 247.65C240.203 250.07 239.673 249.83 238.673 247.65C235.913 250.95 231.303 245.54 229.463 242.85C227.483 239.96 223.773 231.97 226.963 229.64C227.093 227.96 228.513 227.85 228.763 229.64L228.773 229.65Z" fill="#0A0C0C"/>
<path d="M226.963 261.17C227.553 258.89 229.133 257.03 231.163 256.06C231.883 255.71 238.883 252.95 239.323 252.89C242.583 254.18 248.213 253.87 250.843 251.44C255.183 250.81 271.353 257.3 271.093 263.87C272.873 270.56 272.913 282.99 265.383 285.46C265.653 286.8 265.753 288.31 265.683 289.99C265.543 292.06 266.133 302.16 265.683 302.6C264.523 303.74 234.963 304.16 233.383 301.56C231.803 298.96 234.543 287.88 234.153 287.29C234.023 287.09 232.643 287.49 232.353 287.29C231.043 289.18 228.653 287.52 228.753 285.49C224.653 283.18 223.863 275.19 224.253 270.18C223.763 267.56 225.353 263.56 226.953 261.17H226.963Z" fill="#EA5A4C"/>
<path d="M267.493 291.79C267.393 290.93 265.843 289.01 266.583 287.29C265.063 287.05 265.763 288.98 265.693 289.99C260.573 282.36 266.593 284.39 268.023 281.96C271.443 276.16 272.013 270.66 271.103 263.87C274.943 272.23 271.663 279.06 270.253 288.68C269.953 290.7 270.013 291.78 267.503 291.79H267.493Z" fill="#49746F"/>
<path d="M228.773 285.49C230.903 288.23 231.863 286.92 232.373 287.29C232.433 287.91 231.463 288.92 231.473 289.09C229.203 289.13 228.933 287.56 227.873 286.39C227.773 285.51 227.873 285.19 228.773 285.49Z" fill="#49746F"/>
<path d="M228.773 285.49L227.873 286.39C227.583 286.07 227.713 284.16 226.513 283.69C225.573 283.62 226.303 285.21 226.063 285.49C225.963 285.6 225.463 285.42 225.163 285.49C224.903 286.28 224.603 286.26 224.263 285.49C222.423 285.08 221.123 272.11 221.533 271.5C221.973 270.84 222.623 270.44 223.363 270.18C223.623 269.39 223.923 269.41 224.263 270.18C224.133 273.39 226.993 283.22 228.763 285.49H228.773Z" fill="#0A0C0C"/>
<path d="M238.673 272.87C234.793 271.22 236.583 262.66 235.083 259.37C238.353 262.53 237.033 268.86 238.673 272.87Z" fill="#0A0C0C"/>
<path d="M226.963 261.17C226.623 263.36 224.283 269.66 224.263 270.18H223.363C219.823 269.07 223.433 258.52 226.963 260.27C226.923 260.57 227.013 260.88 226.963 261.17Z" fill="#49746F"/>
<path d="M256.683 272.87C254.973 274.99 254.533 270.94 255.803 269.28C257.293 268.9 256.803 272.72 256.683 272.87Z" fill="#0A0C0C"/>
<path d="M258.473 262.06C256.663 262.15 257.903 258.8 257.593 257.57C259.353 257.37 258.203 260.61 258.473 262.06Z" fill="#0A0C0C"/>
<path d="M249.483 246.76C249.933 248.6 249.933 250.4 249.483 252.16C248.223 253.42 242.913 253.46 241.373 253.06C240.583 252.11 240.703 249.05 241.373 247.66C243.093 247.94 247.903 245.86 249.483 246.76Z" fill="#EA5A4C"/>
<path d="M249.483 252.16C249.703 247.49 246.253 251.3 249.483 246.76C251.173 247.72 250.763 250.89 249.483 252.16Z" fill="#F4F9F9"/>
<path d="M240.473 247.66C241.263 248.61 241.143 251.67 240.473 253.06C239.943 252.81 238.853 250.16 238.673 249.46C238.543 248.95 238.763 248.22 238.673 247.66C239.213 247.78 239.903 247.57 240.473 247.66Z" fill="#49746F"/>
<path d="M241.373 253.06C241.073 252.98 240.693 253.16 240.473 253.06V247.66C240.763 247.71 241.083 247.61 241.373 247.66V253.06Z" fill="#F4F9F9"/>
<path d="M216.163 234.15C217.823 233.51 218.123 233.81 217.063 235.05C218.403 241.65 220.483 243.29 224.263 248.56L223.363 249.46C220.623 246.13 215.553 236.2 214.793 235.96C208.703 233.99 219.193 248.56 219.763 249.46H218.863C216.633 247.16 215.373 245.8 213.463 243.16C212.473 241.02 212.173 241.62 212.563 244.96C212.243 250.11 212.993 254.39 213.463 259.37C212.953 259.26 211.863 259.54 211.663 259.37C210.753 257.54 210.753 256.04 211.663 254.87C210.253 253.76 209.783 249.98 210.763 248.57V247.67C208.863 247.42 208.933 245.41 210.763 244.97L209.863 244.07C208.633 242.06 208.333 239.36 208.963 235.96C208.823 235.48 209.063 234.72 208.963 234.16C210.993 233.38 214.203 233.54 216.163 234.16V234.15Z" fill="#0A0C0C"/>
<path d="M215.263 290.89C217.943 289.9 218.173 295.32 215.263 294.49C215.263 293.29 215.263 292.09 215.263 290.89Z" fill="#F4F9F9"/>
<path d="M220.663 251.26C219.963 250.64 219.493 250.11 218.863 249.46H219.763C220.133 250.04 220.653 250.49 220.663 251.26Z" fill="#49746F"/>
<path d="M254.883 194.53C256.503 192.39 263.913 195.01 264.793 197.23C271.523 200.02 290.783 221.22 274.703 218.84C272.813 220.14 270.083 219.67 271.103 217.04C267.863 208.05 256.933 205.4 248.363 205.33L247.693 204.43C246.943 204.18 246.373 203.7 246.193 202.93C244.373 195.23 234.223 202.04 243.273 202.45L244.093 204.43C244.203 204.89 244.253 205.32 244.093 205.66C243.953 205.98 243.363 206.01 243.393 206.01C254.023 205.21 266.233 205.54 271.103 217.04C271.823 218.51 273.023 219.41 274.703 219.74C276.473 219.83 279.073 218.67 279.183 221.06C279.273 222.9 274.313 228.86 272.903 230.54C271.673 231.17 270.523 231.62 269.303 232.34C265.153 234.79 258.543 237.98 263.903 241.35C264.113 244.5 265.843 244.56 266.603 245.85C267.023 247.33 267.413 248.81 267.503 250.35C266.553 250.3 260.443 253.74 257.593 252.15C255.873 251.38 251.483 250.6 251.283 250.34C250.003 248.65 259.413 239.9 260.083 235.34C261.543 225.34 245.533 219.21 237.823 227.44C232.563 233.05 236.223 251.93 228.773 229.64C228.093 229.22 227.493 228.62 226.973 227.84C226.083 229.95 225.183 229.95 224.273 227.84C222.323 228.51 219.913 228.54 217.973 227.84C213.563 228.13 213.563 228.43 217.973 228.74C219.853 228 222.403 227.97 224.273 228.74C226.233 228.94 226.263 231.03 224.273 231.44C223.403 232.13 222.783 232.61 222.473 231.44C220.593 232.32 219.093 232.32 217.973 231.44V232.34C216.253 233.04 213.343 233.13 211.673 232.34C210.633 232.92 209.523 232.73 209.873 231.44H207.173C203.913 232.82 203.913 226.51 206.273 225.14C205.483 224.27 205.993 224.02 207.173 224.24C210.723 223.55 214.343 222.98 217.983 223.34C222.263 224.41 222.873 225.01 219.783 225.14C218.923 225.91 217.983 225.92 217.083 225.14C216.543 225.42 216.553 225.72 217.083 226.04C217.533 225.38 219.113 225.54 219.783 226.04C221.573 224.71 220.973 223.81 217.983 223.34C217.803 222.17 217.733 218.02 217.983 217.04C218.303 215.77 228.123 202.9 229.693 201.73C229.553 201.26 229.463 200.81 229.523 200.37C229.713 199.16 245.273 191.37 246.803 195.42C247.083 194.26 248.363 194.06 248.603 195.42L249.503 194.52C250.973 193.71 252.773 193.71 254.903 194.52L254.883 194.53Z" fill="#F4F9F9"/>
<path d="M270.193 233.249C267.703 236.199 264.573 235.179 263.893 240.449V241.349C255.573 242.579 263.743 229.279 269.293 232.339C270.663 231.819 270.933 231.899 270.193 233.239V233.249Z" fill="#0A0C0C"/>
<path d="M266.593 245.859C263.993 247.839 260.823 243.109 263.893 241.359C263.873 241.079 263.853 240.739 263.893 240.459C265.633 241.859 266.023 243.859 266.593 245.859Z" fill="#49746F"/>
<path d="M270.193 233.249L269.293 232.349C268.813 229.669 271.053 228.589 272.893 230.549C271.923 231.709 270.833 232.489 270.193 233.249Z" fill="#49746F"/>
<path d="M217.963 231.45C219.203 232.28 220.703 232.28 222.463 231.45C222.933 231.3 223.713 231.55 224.263 231.45C222.773 234.1 219.603 234.33 217.063 235.05C217.023 234.84 216.343 234.48 216.163 234.15L217.963 233.25C217.193 233.01 217.213 232.71 217.963 232.35V231.45Z" fill="#49746F"/>
<path d="M222.463 231.45C220.123 232.18 219.333 234.58 217.963 231.45H222.463Z" fill="#2AB5B8"/>
<path d="M217.963 232.349C217.893 232.649 218.073 233.149 217.963 233.249C215.683 233.969 212.923 234.069 210.763 233.249L211.663 232.349C213.703 232.599 215.903 232.179 217.963 232.349Z" fill="#0A0C0C"/>
<path d="M224.263 227.85V228.75C222.163 228.69 220.053 228.83 217.963 228.75C217.173 228.49 217.193 228.19 217.963 227.85C220.033 227.74 222.193 227.8 224.263 227.85Z" fill="#0A0C0C"/>
<path d="M217.963 223.35C223.083 223.85 226.633 224.87 219.763 226.05C218.973 225.79 218.993 225.49 219.763 225.15C222.303 223.94 218.143 224.52 217.963 223.35Z" fill="#49746F"/>
<path d="M219.763 225.149V226.049C217.593 226.429 218.953 226.319 217.063 226.049C216.273 225.789 216.293 225.489 217.063 225.149C217.963 225.149 218.863 225.149 219.763 225.149Z" fill="#2AB5B8"/>
<path d="M217.963 227.85V228.75C212.913 228.55 212.843 228.13 217.963 227.85Z" fill="#49746F"/>
<path d="M209.853 231.45H207.153C207.443 231.7 209.183 231.23 209.853 231.45Z" fill="#49746F"/>
<path d="M217.063 225.149V226.049C213.383 225.529 212.963 225.179 217.063 225.149Z" fill="#49746F"/>
<path d="M214.353 229.66H212.563V230.54H214.353V229.66Z" fill="#2AB5B8"/>
<path d="M274.703 218.84V219.74C274.303 219.72 271.013 221.77 267.503 219.73C269.353 217.18 270.443 220.89 271.103 217.04C272.413 217.83 272.963 218.58 274.703 218.84Z" fill="#49746F"/>
<path d="M226.963 227.85C227.063 227.85 228.213 226.34 228.753 226.95C229.003 227.23 228.543 228.98 228.753 229.65H226.953C226.893 229.06 226.993 228.44 226.953 227.85H226.963Z" fill="#49746F"/>
<path d="M247.683 204.43C253.963 203.93 272.463 209.05 271.103 217.04C268.783 215.63 267.713 212.06 266.523 211.26C250.093 200.35 232.673 207.51 227.883 226.04C225.343 218.14 237.413 205.92 244.083 204.43C244.743 201.76 246.863 201.91 247.683 204.43Z" fill="#0A0C0C"/>
<path d="M247.683 204.43C246.543 204.52 245.053 204.21 244.083 204.43C224.983 201.28 251.513 190.99 247.683 204.43Z" fill="#F4F9F9"/>
<path d="M254.883 194.53C253.213 194.37 251.183 194.47 249.483 194.53L248.583 195.43C247.993 195.48 247.353 195.34 246.783 195.43C245.703 192.55 252.793 193.08 254.893 194.53H254.883Z" fill="#0A0C0C"/>
<path d="M265.493 225.82C265.393 226.06 262.043 229.04 261.203 228.74C262.363 224.32 268.783 217.84 265.493 225.82Z" fill="#49746F"/>
<path d="M248.583 195.43L249.483 194.53C249.263 194.53 248.823 195.41 248.583 195.43Z" fill="#49746F"/>
<path d="M143.213 231.45C142.963 225.57 115.463 230.69 114.413 228.32C112.383 223.75 121.363 189.49 123.873 182.84C126.103 176.93 144.123 141.76 149.833 142.37C151.193 142.52 168.973 160.36 169.293 161.69C169.813 163.83 169.583 173.43 169.243 175.98C167.433 189.34 155.553 192.64 154.903 206.73C154.353 218.68 161.353 230.19 162.123 238.65C164.063 239.34 164.143 240.43 162.123 241.35C161.253 249.45 158.483 259.24 155.873 267.16C155.813 267.35 155.413 267.42 154.913 267.46C156.093 272.3 155.493 276.5 153.113 280.07V281.87C153.913 288.25 153.313 294.26 151.313 299.88C149.753 302.07 149.453 303.57 150.413 304.38C150.063 306.37 150.003 322.32 148.163 322.39C146.243 322.46 132.763 301.37 131.033 298.1C122.663 282.26 113.273 252.89 114.393 235.04C114.393 233.22 115.513 232.35 117.723 232.44C127.153 232.77 135.653 232.44 143.213 231.44V231.45Z" fill="#F4F9F9"/>
<path d="M252.183 119.78C251.563 124.89 257.963 116.95 263.403 117.05C268.083 117.13 271.793 121.55 273.323 121.59C277.263 121.68 292.563 111.27 293.663 129.24C294.073 136.03 271.373 174.76 267.923 175.61C264.933 176.35 265.133 155.88 263.843 152.93C262.443 149.75 255.803 146.12 253.083 137.8C251.293 138.38 250.803 137.27 252.183 136C251.243 131.96 251.413 130.03 251.283 126.09C251.193 123.4 252.173 120.97 252.183 119.79V119.78Z" fill="#EA5A4C"/>
<path d="M219.763 302.599C219.663 302.849 219.853 303.219 219.763 303.499L218.863 304.399C218.233 308.579 218.833 313.749 219.763 317.909C220.213 319.109 220.453 320.329 219.763 321.509C220.393 327.989 222.243 335.009 222.313 341.819C222.373 347.459 217.853 353.919 221.563 362.939C223.073 367.159 217.523 365.619 217.033 364.119C216.283 361.809 217.273 352.939 217.063 349.439C215.623 349.069 215.893 347.469 217.063 346.739C215.083 336.489 214.583 325.549 216.163 315.219L215.263 304.409C214.613 303.839 214.593 303.199 215.263 302.609C215.333 299.919 219.283 300.129 219.763 302.609V302.599Z" fill="#F4F9F9"/>
<path d="M335.943 317.91C340.333 317.98 343.613 322.92 343.143 326.91L335.043 322.41C335.213 320.32 335.793 319.12 335.943 317.91Z" fill="#F4F9F9"/>
<path d="M182.843 170.21C184.443 163.25 196.093 166.57 195.453 173.81C195.383 174.4 195.523 175.02 195.453 175.61C192.403 176.28 189.483 177.43 186.443 175.61C185.063 176.43 183.983 175.1 183.743 173.81C183.673 172.7 182.813 171.19 182.843 170.21Z" fill="#F4F9F9"/>
<path d="M206.253 179.22C204.873 177.25 199.403 171.01 199.243 170.47C196.443 160.91 203.783 146.33 184.223 145.84C177.483 145.67 174.833 149.47 174.283 149.47C173.073 149.46 157.873 133.9 158.923 131.49C162.733 122.72 204.303 103.38 214.563 100.62C219.223 99.36 248.603 93.68 250.393 95.46C250.623 95.69 250.283 100.49 250.393 101.77C247.303 106.77 247.283 112.99 250.393 117.98C250.303 120.46 247.423 126.76 251.293 126.09C253.943 126.94 254.323 134.47 252.193 136C251.153 145.05 250.883 154.38 251.353 163.99L250.383 164.82C249.213 167.13 247.883 166.44 247.683 163.92C246.723 165.28 245.133 164.77 242.933 162.41C240.643 161.18 237.873 166.52 243.853 165.22L244.983 167.53C247.553 166.32 250.613 168.23 249.483 171.13L250.383 172.03C252.663 172.42 252.663 174.52 250.383 178.33C250.893 178.33 251.283 178.36 251.293 178.4C251.403 180 251.683 188.13 251.453 188.59C251.313 188.88 250.883 189.03 250.383 189.13L249.483 190.03L249.413 190.86C238.983 192.08 225.003 195.91 222.053 206.73L219.763 207.15C217.193 210.42 215.033 213.97 213.303 217.79L211.873 217.73C211.743 213.23 211.363 208.8 210.753 204.45C209.313 201.21 207.813 197.91 206.253 194.54C204.593 192 202.833 189.63 200.853 187.34C199.623 187.83 198.383 186.81 198.153 185.54C197.183 183.7 196.273 181.9 195.453 180.14C193.723 179.63 193.723 178.85 195.453 178.34C195.473 177.46 195.353 176.51 195.453 175.64C198.583 174.96 197.653 172.78 199.033 172.95C199.403 172.99 202.443 178 203.603 178.78C204.613 179.46 206.053 179.09 206.253 179.24C208.713 182.76 210.753 185.04 213.453 188.25C213.813 189.35 214.413 190.25 215.253 190.95C216.213 191.06 219.143 193.4 218.843 190.51C215.033 186.11 210.933 182.68 206.243 179.24L206.253 179.22Z" fill="#F4F9F9"/>
<path d="M250.383 101.77C250.793 106.62 250.563 113.02 250.383 117.98C245.293 119.88 244.583 100.44 250.383 101.77Z" fill="#F4F9F9"/>
<path d="M247.683 163.91C248.323 166.64 246.963 166.5 244.983 167.51C240.663 165.54 238.353 167.58 240.023 171.99C241.693 176.4 249.643 173.41 248.573 176.05C247.503 178.69 237.473 178.89 236.833 171.55C236.663 169.55 238.843 161.56 240.483 160.71C243.713 159.03 246.353 163.37 247.683 163.91Z" fill="#2AB5B8"/>
<path d="M191.843 141.38C191.333 140.99 200.833 135.73 193.433 130.81C193.093 130.58 182.653 129.75 189.683 128.01C200.013 125.45 198.923 146.88 191.843 141.39V141.38Z" fill="#F4F9F9"/>
<path d="M187.333 130.59C188.183 131.44 184.973 134.29 184.743 135.75C184.403 137.92 188.413 140.37 185.103 140.48C181.543 139.24 185.043 128.3 187.333 130.59Z" fill="#F4F9F9"/>
<path d="M215.263 190.92C214.233 190.81 211.093 194.49 213.463 188.22C214.073 188.94 215.493 189.16 215.263 190.92Z" fill="#F4F9F9"/>
<path d="M250.383 172.01C250.293 171.75 249.673 171.45 249.483 171.11L250.383 172.01Z" fill="#2AB5B8"/>
<path d="M200.853 187.32C202.813 188.57 205.043 189.91 207.153 190.94C207.603 192.32 205.413 191.74 205.463 191.91C205.723 192.77 205.973 193.67 206.263 194.53V195.43C202.983 196.59 199.813 190.95 199.963 188.23C198.773 186.96 199.273 186.5 200.863 187.33L200.853 187.32Z" fill="#0A0C0C"/>
<path d="M195.443 180.12C199.663 180.24 198.003 184.49 198.143 185.52C196.173 187.29 195.433 185.93 195.443 183.72V180.12Z" fill="#F4F9F9"/>
<path d="M210.753 204.43H209.853C207.133 203.78 204.013 197.63 206.253 195.42C206.163 195.15 206.343 194.79 206.253 194.52C208.763 196.96 209.893 201.14 210.753 204.43Z" fill="#49746F"/>
<path d="M200.853 187.32L199.953 188.22C199.593 189.4 198.993 189.1 198.153 187.32C196.453 186.79 196.473 186.09 198.153 185.52C199.123 186.1 199.933 186.73 200.853 187.32Z" fill="#49746F"/>
<path d="M153.123 281.88V280.08C153.053 280.67 153.183 281.29 153.123 281.88Z" fill="#F4F9F9"/>
<path d="M280.103 190.02C285.033 190.43 288.903 189.92 293.423 187.13L295.413 188.22C296.613 190.39 296.913 193.09 296.313 196.33C297.563 196.18 299.223 196.99 299.913 198.13C300.173 197.58 300.473 197.6 300.813 198.13L301.713 199.03L302.613 198.13C303.813 197.5 305.053 197.44 306.213 198.13C306.803 198.4 306.793 198.7 306.213 199.03C307.123 200.58 305.713 201.21 304.413 199.93H303.513C303.213 200.71 302.913 200.71 302.613 199.93C298.873 201.24 295.313 202.62 291.803 204.43C290.483 205.68 288.983 206.88 287.303 208.03C285.613 211.1 280.053 207.19 279.753 204.77C272.663 195.68 261.473 192.04 250.633 189.55C250.483 189.22 251.263 182.94 252.183 182.81V179.21C250.753 179.11 251.153 178.24 252.183 177.41C251.383 177.24 251.413 176.94 252.183 176.51V175.61C250.353 172.33 254.103 171.8 256.783 173.25C271.193 183.13 259.033 168.42 252.293 166.86L252.193 164.81C251.703 164.72 251.323 164.62 251.313 164.51C251.173 161.35 250.843 139.16 251.873 138.35C252.213 138.08 252.643 137.92 253.093 137.8L255.263 138.51C258.093 143.43 261.503 148 265.493 152.2C266.383 159.13 267.263 166.07 268.123 173.01C273.943 165.77 278.733 157.54 283.163 149.32C291.063 134.68 301.513 113.59 273.153 123.35C265.703 118.71 262.473 116.9 254.823 122.76C252.223 123.99 251.763 122.29 252.183 119.8C252.213 116.44 251.313 96.3398 252.183 95.4798C257.073 90.5998 302.323 105.42 310.143 109.12C314.813 111.33 343.433 128.91 344.043 131.99C344.523 134.39 313.513 165.32 310.273 167.53C305.513 170.79 295.323 172.85 292.203 174.68C290.303 175.8 278.163 187.75 280.093 190.04L280.103 190.02Z" fill="#F4F9F9"/>
<path d="M250.383 164.81C250.803 162.46 251.253 162.58 252.183 164.81C255.843 166.55 269.123 173.26 263.883 178.32C261.553 180.57 254.093 170.76 252.183 175.61V176.51C252.123 176.79 252.223 177.12 252.183 177.41L250.383 178.31C250.213 176.56 250.793 173.24 250.383 172.01L249.483 171.11C249.303 170.78 245.423 167.71 244.983 167.51C244.523 166.02 245.423 164.82 247.683 163.91C248.613 164.29 249.673 164.5 250.383 164.81Z" fill="#49746F"/>
<path d="M252.183 135.99C252.243 136.27 252.843 137.06 253.083 137.79L252.183 164.81C251.783 164.62 250.803 165 250.383 164.81C251.293 157.92 249.533 150.21 249.503 143.65C249.503 142.57 249.763 135.56 252.183 135.99Z" fill="#0A0C0C"/>
<path d="M306.813 120.79C310.263 119.22 316.833 125.12 313.013 127.99C309.853 130.36 301.683 123.12 306.813 120.79Z" fill="#F4F9F9"/>
<path d="M303.303 128.999C307.653 131.439 302.973 138.259 300.823 136.879C300.293 136.539 296.413 125.139 303.303 128.999Z" fill="#F4F9F9"/>
<path d="M252.183 176.509V175.609C252.093 175.839 252.243 176.199 252.183 176.509Z" fill="#0A0C0C"/>
<path d="M292.713 205.33C291.603 205.67 288.313 208.01 287.313 208.93V208.03C286.913 206.06 290.343 205.19 291.813 204.43L292.713 205.33Z" fill="#49746F"/>
<path d="M304.413 199.93H303.513C304.153 199.72 304.373 199.94 304.413 199.93Z" fill="#2AB5B8"/>
<path d="M213.463 243.16C212.663 243.49 212.613 244.22 212.563 244.96L211.673 240.46C213.053 240.29 212.813 242.26 213.463 243.16Z" fill="#2AB5B8"/>
<path d="M344.943 135.09C355.553 133.44 379.363 184.57 382.123 194.73C383.333 199.17 388.963 227.06 387.283 228.76C386.303 229.75 361.133 227.62 359.353 228.76C359.243 228.83 359.233 230.99 359.353 231.46L360.253 232.36C368.593 232.49 377.263 232.39 385.743 232.24L387.273 234.16C388.963 249.26 381.083 275.77 374.823 289.7C372.893 294 358.073 319.87 355.233 320.58C353.213 321.08 343.663 309.57 341.353 308.01C340.133 309.22 339.643 308.69 340.453 307.11C334.063 296.2 338.653 299.44 338.653 289.55V276.04C338.653 272.6 339.233 265.79 339.553 262.08V260.28C339.753 258.06 339.013 254.7 339.753 252.82C343.023 244.45 349.253 248.59 345.863 232.36C345.463 232.18 345.163 231.58 344.963 230.56C344.933 230.26 345.003 229.95 344.963 229.66C342.923 226.83 341.723 223.23 341.363 218.85C338.833 219.4 337.663 216.94 339.563 215.25C335.863 211.4 331.663 208.4 326.953 206.24C325.433 205.77 319.043 204.34 317.943 204.44C317.623 202.26 315.103 199.8 315.443 197.81C315.583 196.99 319.953 192.83 320.943 189.88C327.653 169.83 311.773 171.08 311.653 169.78C311.583 169.07 320.263 160.85 321.553 159.42L326.013 157.33L344.973 135.11L344.943 135.09Z" fill="#F4F9F9"/>
<path d="M344.943 135.09L326.783 159.25L321.523 159.41C324.073 156.59 343.273 135.35 344.943 135.09Z" fill="#F4F9F9"/>
<path d="M330.663 200.7C326.803 191.06 359.993 183.35 351.673 205.31C347.803 215.53 332.213 204.56 330.663 200.7Z" fill="#F4F9F9"/>
<path d="M341.123 192.92C355.253 190.77 352.023 211.6 341.373 207.57C340.833 207.37 333.343 200.01 333.233 199.45C332.803 197.29 339.063 193.23 341.123 192.92Z" fill="#F4F9F9"/>
<path d="M339.543 202.63C337.753 200.9 343.373 196.38 344.033 199.5C344.733 202.82 340.253 203.31 339.543 202.63Z" fill="#F4F9F9"/>
<path d="M339.543 262.07C339.553 261.93 339.443 261.33 339.543 260.27V262.07Z" fill="#2AB5B8"/>
<path d="M339.543 215.24C335.423 212.48 330.323 207.76 325.133 207.13L326.933 206.23C333.433 208.24 335.883 209.62 339.543 215.24Z" fill="#49746F"/>
<path d="M344.943 229.65L344.043 231.45C342.753 229.34 340.113 221.54 341.343 218.84C342.513 221.31 344.583 227.03 344.943 229.65Z" fill="#49746F"/>
<path d="M310.723 198.13C309.553 200.6 310.053 199.439 308.023 200.829L308.363 202.039C306.313 203.229 304.393 204.629 302.623 206.229C301.823 206.219 301.313 205.959 300.823 205.329C300.293 203.849 300.033 202.309 301.723 201.729C302.503 201.179 302.803 201.019 302.623 199.929C302.893 199.839 303.253 200.019 303.523 199.929H304.423C305.193 199.699 305.923 199.099 306.223 199.029C306.523 198.439 306.823 198.439 307.123 199.029C308.743 198.659 310.103 197.359 310.723 197.229V198.13Z" fill="#49746F"/>
<path d="M306.223 256.67L307.123 257.12L306.673 257.57L306.223 257.12V256.67Z" fill="#0A0C0C"/>
<path d="M282.803 244.96C283.073 244.56 283.493 243.07 284.603 241.36C284.423 241.44 282.853 244.77 282.803 244.96Z" fill="#0A0C0C"/>
<path d="M285.503 257.57H286.403C291.543 258.45 302.883 256.72 305.313 252.17C307.653 252.17 308.283 254.69 306.213 255.77C306.143 256.07 306.323 256.62 306.213 256.67C303.253 258.2 288.913 255.82 289.083 262.97C289.393 257.07 286.953 259.91 281.893 259.38C281.843 256.46 283.103 249.47 280.093 250.37C281.163 248.71 281.613 246.73 282.793 244.97C281.933 248.3 281.793 256.42 285.493 257.58L285.503 257.57Z" fill="#0A0C0C"/>
<path d="M315.223 241.36C317.863 239.35 320.623 236.34 320.623 233.71V220.2C320.623 220.08 319.073 218.71 319.733 217.95C323.753 213.3 319.673 231.97 323.323 231.46H324.223C324.963 237.5 321.473 239.86 315.213 241.37C310.293 245.11 310.003 240.77 308.913 245.87C308.713 246.79 309.263 248.02 308.013 248.57C305.443 248.42 305.393 245.6 307.113 244.07C306.113 243.47 305.813 243.47 306.213 244.07C306.413 245.75 305.373 246.34 303.113 245.85L302.613 247.67C294.923 247 300.643 241.94 299.903 241.37C299.293 240.9 285.293 241.05 284.603 241.37C284.823 241.03 285.263 240.8 285.503 240.47C286.793 238.83 288.173 238.52 289.103 240.47C291.353 238.71 292.143 236 291.473 232.35L292.713 231.47C290.913 231.26 290.983 230.36 292.713 229.67C292.773 228.34 291.913 224.48 293.603 224.27C295.623 227.61 292.093 238.26 294.463 240.08C295.483 240.86 312.373 242.06 315.233 241.37L315.223 241.36Z" fill="#0A0C0C"/>
<path d="M272.893 253.96C273.983 253.86 274.283 254.16 273.793 254.86C274.403 256.5 274.883 260.28 273.793 262.06L272.573 262.34C271.083 258.19 269.383 254.19 267.493 250.35C264.993 249.94 264.383 247.17 266.593 245.85C267.733 247.79 271.933 251.8 272.893 253.96Z" fill="#0A0C0C"/>
<path d="M289.103 228.75C290.563 229.63 290.893 230.26 289.103 230.55C289.443 232.75 288.973 236.24 287.303 237.75C287.543 238.59 287.243 238.89 286.403 238.65C287.003 234.57 284.323 230.18 289.103 228.74V228.75Z" fill="#0A0C0C"/>
<path d="M289.103 240.46C287.903 240.49 286.703 240.44 285.503 240.46C285.783 240.08 285.773 239.27 286.403 238.66C286.703 238.37 286.993 238.03 287.303 237.76C287.213 235.86 288.353 235.45 290.003 235.96C292.313 237.27 291.403 239.78 289.103 240.46Z" fill="#49746F"/>
<path d="M299.013 217.94H299.913C298.323 219.33 296.533 219.65 294.513 219.74C294.573 219.6 295.373 217.21 295.413 217.04C296.233 214.49 298.993 215.36 299.013 217.94Z" fill="#49746F"/>
<path d="M279.203 251.26C278.123 252.63 279.863 252.49 276.503 253.96C275.243 254.44 274.933 254.31 275.603 253.06C276.773 252.45 277.703 251.3 279.203 251.26Z" fill="#0A0C0C"/>
<path d="M318.823 207.13C318.563 207.17 316.863 213.349 316.123 208.029C316.843 207.689 317.733 207.009 317.923 206.229L318.823 207.13Z" fill="#49746F"/>
<path d="M292.713 229.65C292.683 230.25 292.753 230.86 292.713 231.45C292.653 234.03 290.623 233.91 290.013 231.45C289.123 232.55 288.823 232.25 289.113 230.55C289.273 230.13 289.003 229.3 289.113 228.75C289.293 228.7 291.793 230.01 292.713 229.65Z" fill="#49746F"/>
<path d="M276.503 253.96C275.693 254.32 275.033 255.15 273.803 254.86C273.703 254.59 273.053 254.3 272.903 253.96C273.863 253.83 274.743 253.51 275.603 253.06L276.503 253.96Z" fill="#49746F"/>
<path d="M312.523 217.04C311.793 218.41 313.793 218.2 310.723 218.84C310.753 218.16 311.503 217.5 311.623 217.04H312.523Z" fill="#49746F"/>
<path d="M292.713 215.24C292.753 215.53 292.653 215.85 292.713 216.14V215.24Z" fill="#49746F"/>
<path d="M324.233 231.45H323.333C326.103 227.85 324.183 231.01 324.233 231.45Z" fill="#49746F"/>
<path d="M308.923 218.84H309.823C309.693 220.21 309.443 219.99 308.923 218.84Z" fill="#49746F"/>
<path d="M328.733 257.57C330.083 257.59 330.053 259.03 328.733 259.37C330.053 260.22 330.053 261.22 328.733 262.07C326.003 261.99 325.023 261.27 323.333 261.17L321.543 259.38C323.663 258.58 326.813 258.44 328.743 257.56L328.733 257.57Z" fill="#2AB5B8"/>
<path d="M332.333 255.77L331.433 261.17C331.143 261.21 330.823 261.12 330.533 261.17C329.183 261.15 329.213 259.71 330.533 259.37C329.023 259.43 329.393 257.5 330.533 256.67C331.073 256.44 331.573 256.05 332.333 255.77Z" fill="#F4F9F9"/>
<path d="M330.533 259.37V261.17C329.963 261.26 330.953 262.13 328.733 262.07V259.37C328.893 257.84 330.373 257.64 330.533 259.37Z" fill="#0A0C0C"/>
<path d="M308.923 257.57L308.023 259.37C306.143 256.41 308.093 258.14 308.923 257.57Z" fill="#2AB5B8"/>
<path d="M317.923 204.43C317.993 204.89 318.023 205.83 317.923 206.23C318.563 207.44 317.383 209.15 316.123 208.03H315.223C315.263 207.43 315.223 206.83 315.223 206.23C316.223 204.82 316.033 204.59 317.923 204.43Z" fill="#F4F9F9"/>
<path d="M311.623 197.229C312.043 197.159 313.953 195.759 314.313 196.329C314.703 196.939 314.083 201.139 314.313 202.629C313.933 202.159 312.113 203.159 311.613 203.529C309.913 205.579 306.913 203.129 308.013 200.829C307.863 199.549 309.523 198.649 310.713 198.129C310.863 197.809 311.563 197.489 311.613 197.229H311.623Z" fill="#F4F9F9"/>
<path d="M315.223 206.229C314.033 207.899 312.283 214.589 311.623 217.039C312.153 217.699 311.853 218.299 310.723 218.839C310.433 218.899 310.113 218.799 309.823 218.839C309.553 219.399 309.253 219.389 308.923 218.839C307.693 216.129 305.833 214.489 305.323 211.639C305.683 211.369 303.893 208.399 308.923 210.739C310.017 212.159 310.017 212.159 308.923 210.739C308.843 205.929 315.573 204.189 314.323 202.629C314.463 203.549 315.243 204.119 315.223 206.229Z" fill="#F4F9F9"/>
<path d="M297.213 182.82C304.063 183.01 306.403 183.18 310.723 188.22C313.023 188.49 312.353 191.05 311.623 192.72C311.733 193.87 311.823 196.2 311.623 197.22C311.333 197.27 311.003 197.16 310.723 197.22C310.003 198.7 308.433 200.42 307.123 199.02C306.533 198.75 306.543 198.45 307.123 198.12L306.223 197.22C304.643 197.91 301.633 198.12 299.923 197.22C298.773 197.85 297.333 196.51 297.223 195.42C295.843 192.08 295.923 186.37 297.223 182.81L297.213 182.82Z" fill="#F4F9F9"/>
<path d="M297.213 195.429C298.533 196.749 298.033 197.229 296.313 196.329C294.723 193.479 295.813 190.919 295.413 188.219C295.123 186.269 296.443 183.989 296.313 182.819H297.213C296.803 186.759 297.783 191.649 297.213 195.429Z" fill="#49746F"/>
<path d="M310.723 188.219C310.963 188.509 316.493 187.019 311.623 192.719C311.493 191.309 310.633 189.749 310.723 188.219Z" fill="#2AB5B8"/>
<path d="M299.913 197.229C300.703 197.489 300.683 197.789 299.913 198.129C298.283 197.639 297.643 198.719 296.313 196.329C296.673 196.179 297.153 195.809 297.213 195.429C298.663 195.009 299.753 197.189 299.913 197.229Z" fill="#2AB5B8"/>
<path d="M306.223 197.229C306.983 197.489 306.963 197.789 306.223 198.129C305.023 198.129 303.823 198.129 302.623 198.129C302.423 198.679 302.113 198.649 301.723 198.129C301.483 198.709 301.183 198.689 300.823 198.129C300.533 198.069 300.193 198.209 299.923 198.129V197.229C301.503 197.619 304.323 197.059 306.223 197.229Z" fill="#0A0C0C"/>
<path d="M307.123 199.029C306.833 199.099 306.503 198.959 306.223 199.029V198.129C306.483 197.339 306.783 197.359 307.123 198.129V199.029Z" fill="#2AB5B8"/>
<path d="M301.713 199.029C301.153 198.759 301.173 198.459 301.713 198.129C302.013 198.149 302.313 198.129 302.613 198.129C302.693 198.839 302.393 199.029 301.713 199.029Z" fill="#2AB5B8"/>
<path d="M301.713 199.029C301.033 199.029 300.733 198.839 300.813 198.129C301.093 198.189 301.423 198.109 301.713 198.129V199.029Z" fill="#F4F9F9"/>
<path d="M306.223 197.229C306.323 197.229 306.743 195.879 308.023 196.339L307.123 198.129H306.223V197.229Z" fill="#49746F"/>
<path d="M300.373 185.54V186.42L299.453 187.3L299.033 186.88L300.373 185.54Z" fill="#2AB5B8"/>
<path d="M308.923 210.74C308.923 210.9 311.423 211.73 310.713 213.44C309.163 213.66 309.563 211.04 308.923 210.74Z" fill="#49746F"/>
<path d="M302.613 208.94C301.913 212.09 302.943 213.83 299.013 217.95L295.413 217.05C295.823 215.13 295.793 204.41 297.223 203.54C298.323 202.88 301.183 208.61 302.613 208.94Z" fill="#F4F9F9"/>
<path d="M308.023 200.83L311.623 203.53C310.103 204.67 307.203 209.98 302.613 208.93C302.783 208.18 302.533 207.09 302.613 206.23C303.413 197.97 303.803 203.71 308.013 200.83H308.023Z" fill="#F4F9F9"/>
<path d="M301.713 201.729L300.813 205.329C297.633 201.259 301.273 202.039 301.713 201.729Z" fill="#F4F9F9"/>
<path d="M306.223 244.06C306.493 243.51 306.793 243.53 307.123 244.06C307.973 245.84 307.843 246.77 308.023 248.56C308.383 252.07 310.673 256.93 306.223 255.76C306.263 255.58 305.543 253.28 305.323 252.16C305.873 251.14 305.873 250.24 305.323 249.46C304.383 247.56 302.803 247.89 302.623 247.66C302.153 247.07 298.713 245 299.923 244.06C300.423 243.67 304.913 244.31 306.223 244.06Z" fill="#F4F9F9"/>
<path d="M292.713 231.45C292.313 237.65 295.223 240.28 289.113 240.46C289.013 238.93 289.903 237.32 290.013 235.96C287.853 235.78 288.703 232.63 290.013 231.46H292.713V231.45Z" fill="#2AB5B8"/>
<path d="M307.123 244.06H306.223L301.723 243.15C303.463 241.07 305.993 241.68 307.123 244.06Z" fill="#49746F"/>
<path d="M330.533 256.67V259.37H328.733V257.57C329.343 257.29 329.893 256.94 330.533 256.67Z" fill="#49746F"/>
<path d="M290.013 231.45C290.193 232.62 290.113 234.7 290.013 235.95C289.713 237.59 287.593 237.51 287.313 237.75C286.603 234.65 288.203 232.91 289.113 230.55C289.473 230.7 289.953 231.07 290.013 231.45Z" fill="#F4F9F9"/>
<path d="M285.503 257.57C285.763 257.65 286.103 257.52 286.403 257.57H285.503Z" fill="#49746F"/>
<path d="M305.323 252.16C305.173 251.38 305.553 249.92 305.323 249.46C307.163 250.65 305.863 251.15 305.323 252.16Z" fill="#49746F"/>
<path d="M299.283 250.97C300.333 251.63 302.043 250.6 301.713 252.15L298.123 250.79C298.623 247.39 298.923 250.74 299.283 250.97Z" fill="#0A0C0C"/>
<path d="M310.723 198.13C310.103 197.87 310.113 197.57 310.723 197.23C311.023 196.44 311.323 196.44 311.623 197.23C312.773 198.6 312.243 199.09 310.723 198.13Z" fill="#0A0C0C"/>
<path d="M208.053 242.26V244.96C209.863 245.17 209.783 246.07 208.053 246.76C208.203 248.2 207.213 248.81 205.063 248.57L205.343 269.77L203.553 271.07C203.293 271.86 202.993 271.84 202.653 271.07C201.883 262.35 201.883 253.65 202.653 244.95C201.853 244.73 201.873 244.43 202.653 244.05C201.543 242.97 202.093 242.54 203.553 243.15C204.773 243.17 205.983 242.87 207.153 242.25C206.753 240.83 206.283 238.95 208.053 239.55C209.233 240.41 209.243 241.39 208.053 242.25V242.26Z" fill="#0A0C0C"/>
<path d="M302.613 199.93C304.633 200.68 303.383 201.87 301.713 201.73C300.513 202.59 300.213 203.79 300.813 205.33C302.053 203.92 302.503 204.46 302.613 206.23C305.083 207 305.143 208.23 302.613 208.93C301.083 210.18 299.563 209.41 298.073 206.62L297.333 216.14L295.403 217.03C298.003 217.91 296.613 218.94 294.503 219.73C297.353 221.35 294.003 223.96 291.863 222.5C290.193 221.36 290.413 216.77 292.693 216.13V215.23C293.253 211.54 293.253 208.24 292.693 205.32C291.173 205.86 290.973 205.91 291.793 204.42C293.143 200.47 298.853 198.5 302.603 199.92L302.613 199.93Z" fill="#0A0C0C"/>
<path d="M314.323 202.63C315.223 205.82 311.323 209.18 308.923 210.74C307.543 211.48 306.343 211.78 305.323 211.64C305.783 214.29 302.763 219.04 299.923 217.94H299.023C298.453 215.9 300.473 209.64 302.623 208.93C305.023 207.26 307.333 205.29 309.553 203.04L311.633 203.53C310.433 200.88 313.253 199.9 314.333 202.63H314.323Z" fill="#0A0C0C"/>
<path d="M334.133 253.96C337.303 255 334.703 258.18 332.333 255.76C331.823 257.22 331.223 257.52 330.533 256.66C330.193 258.33 330.023 258.82 328.733 257.56C328.263 259.88 326.133 260.73 322.333 260.09C323.313 258.73 324.373 259.68 323.333 261.16C322.393 264.48 307.423 263.07 307.623 260.7C307.663 260.24 307.823 259.8 308.023 259.36C307.663 258.3 307.843 257.86 308.923 257.56C307.293 256.74 308.223 255.99 309.823 255.76C317.053 257.89 324.513 256.92 332.203 252.85L334.143 253.96H334.133Z" fill="#0A0C0C"/>
<path d="M315.223 208.04C317.403 210.92 316.523 216.61 312.523 217.05C312.263 217.84 311.963 217.82 311.623 217.05C309.593 216.4 309.713 214.51 311.543 213.69C311.373 210.89 311.773 205.69 315.223 206.24C316.913 206.45 316.713 207.12 315.223 208.04Z" fill="#0A0C0C"/>
<path d="M335.943 253.06C336.653 255.43 335.923 255.6 334.143 253.96C333.263 251.62 334.173 251.26 335.943 253.06Z" fill="#0A0C0C"/>
<path d="M344.943 230.55C345.403 231.19 345.553 231.81 344.943 232.35C343.613 233.59 343.103 233.06 344.043 231.45C343.573 229.78 343.873 229.18 344.943 229.65C345.743 229.87 345.723 230.17 344.943 230.55Z" fill="#0A0C0C"/>
<path d="M195.443 175.61C197.833 176.18 197.603 177.18 195.443 178.31C194.943 180.97 191.663 180.67 190.943 178.31C189.193 181.59 184.513 178.63 186.443 175.61C188.453 174.37 193.603 173.75 195.453 175.61H195.443Z" fill="#0A0C0C"/>
<path d="M156.663 130.52C187.623 101.83 229.963 88.7997 271.693 95.1097C313.423 101.43 350.013 126.41 371.093 162.98C381.883 181.69 388.143 202.66 389.393 224.22C391.133 224.64 391.173 225.43 389.483 226.02C392.363 290.17 350.823 347.91 289.083 365.58C262.503 373.19 234.243 372.67 207.953 364.11C190.983 358.58 175.243 349.83 161.593 338.33C161.833 336.09 166.613 336.57 168.103 337.13C171.793 341.98 176.613 345.65 182.563 348.13L182.823 350.31C183.213 349.02 184.763 349.55 185.913 350.03C189.233 352.87 192.113 353.86 194.533 353.01L195.433 346.71C192.843 342.78 192.243 333.19 195.433 329.6C195.043 328.7 194.693 327.78 194.463 326.84C193.473 322.72 196.663 296.58 198.503 292.5C198.903 291.62 199.403 290.79 199.933 289.98L200.833 288.18C198.513 282.97 198.833 275.94 201.733 271.07C201.993 270.28 202.293 270.3 202.633 271.07C203.453 272.36 203.283 274.16 202.633 275.57C203.503 276.81 204.043 278.17 204.233 279.67C201.033 306.15 200.843 332.43 203.663 358.51L214.383 362.07L215.243 363.82C216.123 360.02 215.953 355.93 215.243 352.11C212.663 352.05 212.783 350.02 215.243 349.41C215.253 347.53 216.683 347.56 217.043 349.41C218.733 350.5 219.213 352.6 218.493 355.71C217.833 362.74 218.853 365.14 221.553 362.92C223.673 364.32 225.813 364.95 227.983 364.81L228.443 365.78C227.503 356.5 228.263 347.62 230.723 339.12L231.453 306.18C228.763 303.07 228.643 297.45 231.453 294.47L232.353 293.57C229.993 292.65 229.183 290.57 231.453 289.07C229.823 287.63 230.123 287.03 232.353 287.27C232.553 284.1 235.693 285.49 235.923 288.44C235.113 292.4 234.743 296.37 234.813 300.34C235.783 301.82 263.053 302.28 264.053 300.77L263.853 291.05L265.673 289.97C263.053 282.69 271.003 287.3 267.473 291.77L269.423 293.18C269.783 308.06 269.453 322.95 268.423 337.84L266.573 339.5C268.683 344.67 268.883 352.04 265.673 356.61C265.013 361.18 265.613 364.79 267.473 367.42C268.123 364.98 274.473 364.2 275.583 366.52L276.533 364.57C280.963 365 283.683 363.97 284.693 361.48L280.303 272.86C280.433 269.49 280.963 266.19 281.883 262.95C282.003 262.51 282.153 262.11 282.413 261.8C283.273 260.81 292.793 262.84 292.233 264.75C292.423 264.04 292.723 263 293.283 262.95C299.233 262.39 316.013 262.09 321.533 262.95L322.853 264.75L324.483 263.02C328.663 263.41 332.773 262.78 336.813 261.15L335.803 259.3C337.053 257.1 337.033 255.21 335.913 253.04L336.263 250.75C342.873 247.23 343.893 240.71 343.213 233.84L344.923 232.32C345.183 231.53 345.483 231.55 345.823 232.32C349.893 234.31 349.083 242.69 346.893 246.32C342.463 249.75 340.613 253.86 341.343 258.67L339.513 260.24V262.04L341.223 263.18C341.453 266.29 341.053 274.45 338.613 276C341.603 276.87 341.373 288.11 338.613 289.51C340.733 291.08 340.803 294.2 338.813 298.85C340.413 302.08 340.953 304.82 340.413 307.07C340.633 308.23 339.433 308.83 336.813 308.87C338.803 310.58 338.863 317.6 335.913 317.88C338.273 319.11 337.533 322.07 335.013 322.38L336.523 323.99C336.053 328.59 336.043 332.88 336.523 336.87L351.023 323.37C350.513 321.8 350.583 320.57 351.233 319.68C350.813 319.83 350.403 319.94 349.993 319.92C349.213 319.88 339.573 309.48 341.333 307.98L343.003 307C346.793 311.09 350.783 314.93 354.973 318.52C372.803 295.07 385.233 266.13 385.623 236.03L387.263 234.13C386.143 234.13 385.403 233.43 385.063 232.04C376.553 232.68 368.273 232.47 360.243 231.43C359.963 231.84 359.663 231.83 359.343 231.43C356.343 230.88 357.053 227.97 359.583 226.79L385.773 227.08C384.333 213.67 382.513 199.39 377.283 186.9C369.643 168.65 359.713 147.88 344.923 135.06L325.243 157.94L321.513 159.38C322.173 159.84 322.453 160.43 322.283 161.19L314.793 168.95C328.883 172.71 325.583 190.29 317.093 198.23C319.113 201.01 319.393 203.07 317.913 204.42C318.033 201.3 327.063 203.28 326.923 206.22C327.523 206.88 326.923 207.18 325.123 207.12C324.653 209.69 319.773 209.51 318.823 207.12C317.553 208.31 317.093 207.81 317.923 206.22C316.203 206.38 316.503 205.1 317.923 204.42C317.803 205.6 316.343 206.83 315.223 206.22C313.503 206.44 313.203 205.24 314.323 202.62C312.503 202.37 311.943 200.84 312.643 198.03L311.623 197.22C309.073 196.91 309.263 193.36 311.623 192.72C312.223 190.85 311.703 189.81 310.723 188.22C308.743 188.32 306.513 187.35 304.033 185.3C300.623 185.37 298.353 184.54 297.223 182.82C296.963 183.61 296.663 183.59 296.323 182.82C294.883 183.3 293.503 182.42 292.173 180.19L282.313 190.35L280.113 190.03C279.223 189.91 278.133 189.45 278.193 188.76C278.963 180.69 296.413 168.9 304.513 168.36C310.753 166.1 342.963 134.57 342.013 132.13C340.983 129.47 313.163 112.44 308.493 110.34C301.573 107.23 256.903 92.9497 253.753 96.5797L253.973 118.51L252.183 119.79C253.733 120.07 253.703 120.32 252.133 120.53C253.953 122.36 254.163 125.31 251.283 126.09C247.153 131.15 245.813 118.87 250.383 117.98C247.803 114.51 247.893 105.29 250.383 101.77C248.613 101.71 248.043 100.14 248.663 97.0597C230.393 97.9997 213.533 101.81 196.903 109.67C191.933 112.02 160.363 127.68 160.703 131.88C160.843 133.58 173.223 147.29 174.253 147.28C190.053 138.33 203.043 147.89 200.373 166.12C200.933 170.13 203.123 173.79 206.923 177.1L206.263 179.22C209.873 177.92 220.453 188.16 220.543 190.6C220.683 194.45 214.663 194.77 215.263 190.93C213.753 191.11 213.133 189.69 213.463 188.23C210.213 188.77 204.903 182.29 206.263 179.22C204.353 183.58 200.573 178.35 198.933 175.71C197.653 177.08 196.743 177.18 195.453 175.61C193.733 175.1 193.723 174.31 195.453 173.81C193.863 171.15 194.383 167.31 196.263 165.34L196.353 161.21L194.423 160.71C195.803 154.35 184.923 159.51 184.823 163.58L182.843 163.91C184.823 165.54 185.003 168.67 182.843 170.21C185.373 170.22 186.133 172.59 183.743 173.81C185.693 176 186.093 179.15 184.923 183.27C186.903 185.54 187.713 187.49 187.343 189.12C188.533 190.39 188.033 190.85 186.443 190.02C185.003 191.05 183.313 190.8 181.363 189.25C184.483 196.11 179.203 195.54 175.663 190.84C164.793 190.29 161.743 192.29 159.653 202.64L157.623 203.53L156.723 211.64L158.653 213.29C159.483 215.43 164.733 235.29 164.453 236.45C164.233 237.35 163.763 238.08 163.023 238.65C162.763 239.44 162.463 239.42 162.123 238.65L160.163 237.53C152.853 218.47 148.153 200.55 164.053 184.71C167.203 181.02 169.183 166.83 167.633 162.62C167.013 160.93 151.043 144.8 149.723 144.42C145.823 143.29 128.143 177.03 125.963 182.46C123.783 187.89 113.813 225.67 116.013 227.09L133.863 226.69C137.313 226.66 146.663 227.19 143.213 231.45C142.793 232.45 141.573 232.8 139.543 232.51L116.253 232.05C116.283 233.76 116.253 234.35 114.393 235.05L116.113 237.11C117.363 266.86 128.913 296.09 147.153 319C148.103 314.68 148.563 310.08 148.523 305.18L150.413 304.39C146.893 303.14 152.383 298.8 153.923 302.27L153.093 318.16C152.533 325.32 156.183 331.15 161.483 335.79L161.603 338.33C153.623 331.61 146.433 324.02 140.153 315.69C97.3533 258.87 104.483 178.88 156.653 130.52H156.663Z" fill="#0A0C0C"/>
<path d="M336.843 308.9C337.153 307.77 338.083 307.65 339.643 308.55C343.063 313.4 346.933 317.12 351.253 319.7C352.153 321.41 353.543 321.65 352.643 324.17C352.233 325.31 335.763 340.69 334.583 340.41C333.533 340.16 334.873 324.4 335.043 322.4L335.683 321.38C342.013 324.65 342.103 323.49 335.943 317.89C336.343 314.74 335.833 312.43 336.843 308.88V308.9Z" fill="#F4F9F9"/>
<path d="M170.223 158.5C169.113 159.27 150.443 141.39 150.443 140.04C150.443 139.63 155.863 134.21 156.273 134.21C157.393 134.21 171.303 149.39 171.593 150.47C171.953 151.84 170.563 158.27 170.223 158.5Z" fill="#F4F9F9"/>
<path d="M296.313 182.82C296.833 184.35 296.723 187.32 295.413 188.22C291.363 189.86 284.163 194.82 280.103 190.02L294.073 175.63C292.393 178.92 296.163 181.4 296.313 182.81V182.82Z" fill="#F4F9F9"/>
<path d="M143.213 231.45C143.243 232.24 143.633 232.93 142.663 233.27C136.173 235.54 121.533 232.43 114.393 235.05C114.453 234.06 114.213 230.7 114.393 230.54C115.463 229.57 139.563 230.78 143.213 231.45Z" fill="#F4F9F9"/>
<path d="M340.443 307.1C340.533 307.25 341.033 307.55 341.343 308C344.273 312.36 349.503 316.39 351.253 319.71C348.353 324.78 341.673 310.07 336.843 308.9C337.003 308.33 336.633 306.37 336.853 306.2C337.033 306.05 339.443 307.49 340.443 307.1Z" fill="#F4F9F9"/>
<path d="M309.823 255.77C309.263 256.1 309.093 257.46 308.923 257.57L308.023 259.37C309.693 262 318.343 260.88 323.333 261.17C324.493 258.95 328.043 259.65 328.733 262.07C328.523 260.45 329.363 260.61 330.533 261.17C330.753 260.37 331.053 260.39 331.433 261.17C333.153 260.94 335.083 261.33 336.833 261.17C334.703 264.44 327.083 264.77 322.873 264.77H292.253C289.963 264.77 284.613 263.25 281.893 262.97C281.873 261.77 281.913 260.57 281.893 259.37L283.333 257.64C290.293 258.96 297.433 258.17 304.743 255.24L306.203 256.66C305.423 256.44 305.443 256.14 306.203 255.76L307.333 253.99C306.653 251.54 306.873 249.73 308.003 248.56C308.173 247.41 308.473 246.51 308.903 245.86C310.943 248.54 309.283 252.76 309.803 255.77H309.823Z" fill="#49746F"/>
<path d="M307.123 309.8C307.323 312.78 309.253 317.19 307.573 320.62C306.893 317.07 306.603 313.41 306.223 309.8C306.483 309.01 306.783 309.03 307.123 309.8Z" fill="#2AB5B8"/>
<path d="M308.923 326.91H308.023V339.52H308.923V326.91Z" fill="#49746F"/>
<path d="M306.223 297.19C305.963 297.98 305.663 297.96 305.323 297.19C305.253 296.5 303.173 293.9 304.873 292.68C305.683 293.79 305.923 295.78 306.223 297.19Z" fill="#49746F"/>
<path d="M307.123 309.8H306.223C306.003 307.74 306.413 305.56 306.223 303.5C306.483 302.71 306.783 302.73 307.123 303.5C307.373 305.51 306.983 307.75 307.123 309.8Z" fill="#F4F9F9"/>
<path d="M307.123 303.5H306.223C306.203 303.23 305.443 302.16 305.323 300.8C305.583 300.01 305.883 300.03 306.223 300.8C306.283 301.23 306.953 302.15 307.123 303.5Z" fill="#2AB5B8"/>
<path d="M306.223 300.8H305.323C305.223 299.62 305.433 298.38 305.323 297.2H306.223C306.443 298.23 306.053 299.69 306.223 300.8Z" fill="#F4F9F9"/>
<path d="M195.443 173.81C191.113 168.27 189.263 166.09 182.833 170.21C182.903 167.52 181.833 167.62 182.833 163.91C184.073 163.17 185.783 163.03 187.953 163.48C190.963 161.13 192.633 161.01 196.343 161.21C198.083 168.49 196.093 168.29 195.443 173.82V173.81Z" fill="#F4F9F9"/>
<path d="M215.263 363.84C215.263 359.95 215.263 356.02 215.263 352.13C216.733 353.89 216.743 363.01 215.263 363.84Z" fill="#49746F"/>
<path d="M194.543 353.03L195.443 346.73C195.283 349.6 195.223 350.25 194.543 353.03Z" fill="#F4F9F9"/>
<path d="M266.593 339.52C272.903 345.91 272.203 358.39 275.603 366.54C272.513 367.15 270.733 367.43 267.493 367.44C266.713 367.5 265.913 367.29 265.883 366.7C265.713 363.35 265.693 359.99 265.693 356.63C265.793 350.92 266.453 345.11 266.593 339.52Z" fill="#F4F9F9"/>
<path d="M249.483 358.43C249.483 359.33 249.483 360.23 249.483 361.13H247.683C247.783 360.25 247.613 359.32 247.683 358.43H249.483Z" fill="#49746F"/>
<path d="M247.683 358.43C249.113 358.7 248.973 360.44 247.683 361.13C247.393 363.77 247.893 366.58 247.683 369.23C245.983 369.49 245.223 368.56 244.983 366.99C244.443 363.47 248.293 334.35 249.493 329.61C249.143 339.25 248.453 348.82 247.693 358.43H247.683Z" fill="#2AB5B8"/>
<path d="M250.383 346.73V347.63C250.563 349.46 253.143 375.67 248.583 369.25C247.613 367.88 249.483 362.76 249.483 361.14C248.183 360.28 248.163 359.28 249.483 358.44C249.493 354.28 249.253 349.98 249.483 345.83C249.743 345.04 250.043 345.06 250.383 345.83C250.423 346.13 250.343 346.44 250.383 346.73Z" fill="#F4F9F9"/>
<path d="M267.493 367.44C267.193 367.44 265.163 368.88 264.803 368.34C263.543 366.45 265.653 358.89 265.693 356.64L267.493 367.45V367.44Z" fill="#49746F"/>
<path d="M250.383 345.82H249.483C249.773 340.62 249.763 340.94 250.383 345.82Z" fill="#2AB5B8"/>
<path d="M249.483 329.61C249.723 328.65 248.723 326.69 250.373 326.91C250.863 328.03 249.493 329.31 249.483 329.61Z" fill="#49746F"/>
<path d="M231.473 294.49L232.373 293.59C232.343 294.17 231.473 294.43 231.473 294.49Z" fill="#49746F"/>
<path d="M250.383 347.63V346.73C250.463 347.29 250.373 347.5 250.383 347.63Z" fill="#2AB5B8"/>
<path d="M208.053 246.76L210.003 257.55C211.953 260.83 213.453 264.66 211.653 268.37C212.313 270.3 212.313 272.1 211.653 273.77C213.833 274.07 214.293 278.25 212.553 279.17C214.423 285.97 215.023 292.73 214.353 299.43C214.953 308.09 215.213 317.67 215.333 326.75L214.353 327.35C216.083 333.02 216.513 340.89 215.253 346.71C216.573 347.55 216.563 348.55 215.253 349.41V352.11C215.983 356 216.043 359.94 215.253 363.82C213.933 364.56 204.643 360.29 202.343 360.07C196.763 332.74 201.403 303.5 202.643 275.56C202.963 273.98 203.263 272.48 203.543 271.06C203.593 267.56 202.703 247.62 203.543 246.74C203.693 246.58 207.853 246.64 208.053 246.74V246.76Z" fill="#2AB5B8"/>
<path d="M217.063 346.73C217.113 347.63 217.013 348.54 217.063 349.43H215.263C215.263 348.53 215.263 347.63 215.263 346.73C215.553 344.34 216.383 344.44 217.063 346.73Z" fill="#49746F"/>
<path d="M203.553 243.16C203.223 243.35 202.703 243.71 202.653 244.06C202.073 243.88 201.353 243.22 200.853 243.16C200.273 243.09 199.643 243.18 199.053 243.16C204.843 241.87 201.663 240.97 202.653 238.66C205.373 237.69 206.353 242.73 203.553 243.16Z" fill="#49746F"/>
<path d="M164.823 241.36C165.523 240.93 166.113 240.67 166.623 241.36L168.423 242.26C171.073 240.67 175.243 241.35 178.333 242.26H179.233C185.823 241.84 192.563 241.86 199.043 243.16H200.843C202.033 243.96 201.993 245.38 200.723 247.43C196.853 248.47 200.073 251.5 201.743 253.06C202.373 258.97 202.693 265.2 201.743 271.07C201.523 276.72 201.303 282.55 200.843 288.18L199.943 289.98C198.833 303.19 196.483 316.37 195.443 329.61C194.183 328.99 192.743 329.18 192.513 330.82L191.033 343.96C190.403 349.46 187.793 350.33 182.833 350.32C177.253 347.28 169.363 343.71 166.603 337.72L165.703 339.51C164.913 338.53 162.883 338.33 161.593 338.32C147.013 325.52 152.123 319.41 152.193 301.69C151.323 301.34 150.463 304.04 150.403 304.39C138.853 306.08 149.523 301.41 151.303 299.89C152.973 293.38 153.873 286.77 154.003 280.08C153.483 277 154.893 274.74 157.923 277.15C160.313 277.71 162.613 278.39 164.813 279.18C166.873 278.8 170.713 278.51 172.013 280.08C174.043 278.74 179.813 278.88 181.923 280.08C181.963 278.7 183.163 278.84 183.723 280.08L185.523 279.18C188.983 275.71 190.493 270.78 190.033 264.41L190.923 263.87C191.563 262.16 191.773 260.14 190.923 258.47C190.173 262.98 189.653 267.53 189.343 272.11C189.193 276.68 186.033 281.09 181.913 278.28C179.943 280 174.073 279.85 172.003 278.28C170.863 279.83 166.523 279.1 164.803 278.28C163.173 278.77 155.753 277.1 155.173 276.41C154.593 275.72 154.953 267.74 156.703 267.47C155.943 266.68 155.863 265.64 156.463 264.34L163.013 241.35C163.283 239.64 163.993 239.74 164.813 241.35L164.823 241.36Z" fill="#F4F9F9"/>
<path d="M182.843 350.329C182.293 346.919 185.943 349.649 187.813 347.649C190.693 344.559 188.903 331.649 191.753 328.399C192.583 327.449 196.123 326.779 195.443 329.619C195.003 335.249 195.763 341.079 195.443 346.729L194.543 353.029C194.293 354.039 195.093 356.339 194.103 356.619C193.483 356.799 184.363 351.159 182.833 350.319L182.843 350.329Z" fill="#F4F9F9"/>
<path d="M202.653 275.58C202.723 274.08 202.613 272.57 202.653 271.08H203.553C203.533 272.53 204.103 274.63 202.653 275.58Z" fill="#49746F"/>
<path d="M202.653 271.079H201.753C201.983 265.119 201.723 259.039 201.753 253.069C198.423 251.409 199.133 245.789 202.653 244.959C202.243 253.609 202.913 262.409 202.653 271.079Z" fill="#49746F"/>
<path d="M199.953 289.989L200.853 288.189C200.733 289.629 199.963 289.889 199.953 289.989Z" fill="#2AB5B8"/>
<path d="M156.723 267.47C156.183 269.82 155.683 269.8 154.923 267.47C156.163 260.68 161.863 246.24 162.123 241.35C162.383 240.56 162.683 240.58 163.023 241.35C162.373 250.11 157.983 258.97 156.723 267.47Z" fill="#0A0C0C"/>
<path d="M156.723 267.47C155.483 275.8 155.153 276.75 164.833 278.28C165.623 278.54 165.603 278.84 164.833 279.18C159.903 278.83 155.173 275.44 154.023 280.08C153.763 280.87 153.463 280.85 153.123 280.08C153.623 275.81 154.153 271.71 154.923 267.47H156.723Z" fill="#49746F"/>
<path d="M154.023 280.08C152.363 286.78 156.773 295.23 151.323 299.89C152.213 293.93 152.513 287.87 153.123 281.88V280.08H154.023Z" fill="#0A0C0C"/>
<path d="M190.943 263.87C190.873 270.22 191.203 276.52 185.543 279.18L183.743 280.08C183.203 280.19 182.523 280.01 181.943 280.08C179.553 279.79 179.653 278.96 181.943 278.28C183.233 278.17 186.793 278.62 187.293 278.22C188.073 277.59 189.073 258.22 190.953 258.47C191.773 260.2 191.633 262.12 190.953 263.87H190.943Z" fill="#0A0C0C"/>
<path d="M202.653 244.06C202.613 244.35 202.663 244.66 202.653 244.96C201.003 246.98 201.763 250.56 201.753 253.07C195.323 253.02 198.253 250.78 197.253 248.3C196.853 247.32 195.483 247.75 195.473 247.65C194.753 243.39 202.183 248.73 200.853 243.16C202.683 241.44 202.923 241.51 202.653 244.06Z" fill="#F4F9F9"/>
<path d="M158.523 314.3C158.263 315.09 157.963 315.07 157.623 314.3C156.663 306.63 155.823 299.35 158.073 291.77C157.583 299.41 157.933 306.64 158.523 314.3Z" fill="#2AB5B8"/>
<path d="M181.943 278.28V280.08C179.113 280.42 175.013 280.18 172.033 280.08C169.643 279.79 169.743 278.96 172.033 278.28C175.093 278.4 178.953 278.54 181.943 278.28Z" fill="#49746F"/>
<path d="M172.033 278.28V280.08C169.373 279.99 167.253 279.35 164.833 279.18V278.28C166.913 278.61 169.773 278.19 172.033 278.28Z" fill="#0A0C0C"/>
<path d="M159.423 320.61C159.163 321.4 158.863 321.38 158.523 320.61C157.963 317.96 157.933 316.79 157.623 314.31H158.523C158.703 316.66 159.073 318.38 159.423 320.61Z" fill="#49746F"/>
<path d="M159.423 323.31C160.153 325.87 162.243 328.52 162.113 331.41C159.373 329.88 159.873 325.81 159.423 323.31Z" fill="#49746F"/>
<path d="M162.133 332.32C163.483 332.2 164.913 336.65 164.383 336.8C163.793 336.97 161.363 333.5 162.133 332.32Z" fill="#49746F"/>
<path d="M190.943 263.87C190.963 262.07 190.933 260.27 190.943 258.47C192.453 258.67 192.313 263.06 190.943 263.87Z" fill="#2AB5B8"/>
<path d="M159.413 287.279C158.353 288.889 158.243 282.989 159.413 284.589C159.503 284.709 159.523 287.119 159.413 287.279Z" fill="#2AB5B8"/>
<path d="M159.423 323.31C159.193 322.49 158.793 321.9 158.523 320.61H159.423C159.553 321.46 159.273 322.47 159.423 323.31Z" fill="#0A0C0C"/>
<path d="M185.543 279.18C184.923 279.47 184.473 279.93 183.743 280.08L185.543 279.18Z" fill="#49746F"/>
<path d="M178.333 242.26C178.633 242.28 178.933 242.24 179.233 242.26H178.333Z" fill="#49746F"/>
<path d="M198.153 185.52C198.233 186.09 198.033 186.79 198.153 187.32C203.643 195.02 206.723 205.85 206.453 215.35L204.453 217.03C204.193 217.75 203.893 217.74 203.553 217.03L202.643 216.75C201.913 210.24 200.583 203.81 197.993 197.79L196.353 198.12C194.773 193.84 195.733 187.88 194.553 183.71H195.453C196.383 184.26 197.223 184.96 198.153 185.51V185.52Z" fill="#0A0C0C"/>
<path d="M208.953 249.46L209.853 252.16C210.963 252.7 211.123 254.49 209.853 254.86C210.863 255.66 211.463 257.16 211.653 259.36C211.823 256.97 212.543 257.18 213.453 259.36C217.143 267.54 217.973 279.62 215.253 288.18H214.343L212.553 279.17C212.443 277.82 211.703 276.25 211.653 273.77C212.303 272.1 212.303 270.3 211.653 268.37C210.013 261.1 208.603 254.24 208.053 246.76C210.193 245.64 210.613 248.61 208.953 249.46Z" fill="#49746F"/>
<path d="M212.563 279.18L215.263 288.19C217.013 289.01 217.013 290.07 215.263 290.89C216.743 292.05 216.753 293.34 215.263 294.49C217.013 297.16 217.023 299.93 215.263 302.6C215.263 303.2 215.263 303.8 215.263 304.4L216.163 315.21C216.193 325.79 216.523 336.19 217.063 346.73H215.263C215.233 340.32 214.363 333.62 214.363 327.37V299.45C214.363 294.16 213.033 285.1 212.563 279.19V279.18Z" fill="#0A0C0C"/>
<path d="M211.653 273.78C211.613 271.98 211.683 270.18 211.653 268.38C212.003 269.92 213.923 272.05 211.653 273.78Z" fill="#0A0C0C"/>
<path d="M216.163 315.2C214.483 312.24 215.273 307.76 215.263 304.39C216.943 307.35 216.153 311.83 216.163 315.2Z" fill="#2AB5B8"/>
<path d="M182.843 163.91C183.733 160.6 185.343 157.84 188.893 156.9C197.553 154.6 195.393 157.19 196.353 161.21L195.443 165.71C191.463 157.41 191.743 169.32 182.843 163.91Z" fill="#F4F9F9"/>
<path d="M195.433 158.51H194.553V160.3H195.433V158.51Z" fill="#2AB5B8"/>
<path d="M199.953 188.22C203.093 190.36 203.433 193.29 206.253 195.42C207.193 198.29 209.463 202.25 209.853 204.43C210.853 210.03 213.153 220.78 207.153 223.34C206.813 224.54 205.433 224.64 204.453 224.24C204.193 225.03 203.893 225.01 203.553 224.24C203.773 222.51 203.403 220.59 203.553 218.84C202.313 218.08 202.613 217.48 204.453 217.04C206.083 205.58 200.463 197.73 198.153 187.32C198.723 187.66 199.413 187.85 199.953 188.22Z" fill="#F4F9F9"/>
<path d="M207.153 223.35V224.25L206.253 225.15C205.653 227.86 203.663 227 204.453 224.25C205.243 223.69 206.333 223.7 207.153 223.35Z" fill="#49746F"/>
<path d="M204.453 224.25C204.743 225.02 206.203 225.06 206.253 225.15C207.143 226.64 205.823 230.32 207.153 231.45H209.853C210.493 231.66 211.473 232.33 211.653 232.35C212.123 232.75 211.823 233.05 210.753 233.25C209.983 233.61 209.083 233.91 208.053 234.15C207.593 236.33 205.793 236.63 202.653 235.05C201.753 231.71 203.133 227.5 203.553 224.24H204.453V224.25Z" fill="#2AB5B8"/>
<path d="M205.353 236.85C206.883 236.87 207.483 238.67 207.153 242.25C206.713 247.62 205.303 248.37 203.553 243.15C203.203 242.09 204.333 239.55 202.653 238.65C203.193 237.39 201.473 236.39 205.353 236.85Z" fill="#2AB5B8"/>
<path d="M208.053 234.15H208.953C210.673 234.68 210.673 235.49 208.953 235.95C208.983 237.53 208.683 238.73 208.053 239.55C207.273 240.32 207.233 241.24 207.153 242.25C205.823 240.63 206.533 239.08 205.353 236.85C205.093 236.35 202.843 235.78 202.653 235.05C204.413 234.4 206.193 234.26 208.053 234.15Z" fill="#49746F"/>
<path d="M186.443 175.61C188.393 177.57 187.303 177.91 190.943 178.31C193.053 178.84 195.313 181.48 194.543 183.71C198.143 186.86 197.543 194.25 196.343 198.12C198.513 199.22 198.213 201.32 195.443 204.42C195.09 205.26 195.09 205.26 195.443 204.42C198.403 192.73 203.503 213.23 202.573 215.94C202.433 216.35 202.113 216.7 201.753 217.03C203.563 217.22 203.453 218.1 201.753 218.83C201.363 221.32 200.953 221.01 199.953 218.83C198.443 218.45 197.673 215.77 198.153 214.33C196.263 213.4 195.083 210.89 194.553 208.93C192.673 206.65 190.873 204.25 189.153 201.73C186.207 198.07 186.207 198.07 189.153 201.73C191.113 203.95 192.613 206.35 193.653 208.93C195.003 210.11 197.033 212.67 196.353 214.33C197.063 217.12 196.763 219.15 193.473 218.97C187.063 217.25 183.223 218.1 181.943 221.54C181.853 223.3 179.923 223.46 178.703 222.45C178.053 221.91 175.753 208.21 175.643 206.23C174.723 207.09 174.093 204.88 174.153 204.98C174.743 205.92 175.113 206.93 174.743 208.03C176.533 212.13 177.813 216.71 178.563 221.76C180.563 223.13 183.913 223.84 188.633 223.87L189.153 225.14L191.083 225.72C191.413 233.87 194.173 237.69 199.373 237.18L200.863 238.65C202.133 238.73 202.023 240.06 200.863 240.45L199.063 241.35L198.993 242.27C192.843 242.58 186.873 242.27 181.053 241.35L174.753 240.45C173.033 242.3 168.213 241.56 165.743 240.45C164.443 241.03 162.543 240.39 163.043 238.65C161.683 230.16 157.113 220.13 156.743 211.63L157.643 203.52C158.223 200.34 160.673 192.33 163.293 190.62C164.793 189.64 174.713 188.82 176.053 189.09C178.593 189.59 179.673 194.16 181.053 192.71C181.563 192.17 172.203 181.34 186.463 190.01C189.183 191.33 189.483 191.03 187.363 189.11C180.313 182.71 184.353 183.72 183.763 173.8C185.583 173.61 185.683 174.82 186.463 175.6L186.443 175.61Z" fill="#F4F9F9"/>
<path d="M195.443 178.32C195.433 178.92 195.443 179.52 195.443 180.12C197.243 180.84 197.563 183.34 195.443 183.72C195.183 184.51 194.883 184.49 194.543 183.72C194.213 182.56 190.343 181.07 190.943 178.32C192.413 178.48 193.963 178.21 195.443 178.32Z" fill="#49746F"/>
<path d="M165.723 240.46C166.213 240.87 165.913 241.17 164.823 241.36C164.223 241.33 163.623 241.38 163.023 241.36H162.123C162.173 240.49 162.203 239.52 162.123 238.66H163.023C164.013 238.6 165.493 240.42 165.723 240.46Z" fill="#49746F"/>
<path d="M175.633 206.229C177.573 209.789 178.743 220.929 179.263 221.519C179.533 221.839 181.293 221.329 181.943 221.539C181.983 220.779 182.303 220.229 182.963 219.929L196.733 221.539C195.793 218.709 195.963 216.309 197.253 214.329C197.513 213.699 197.813 213.709 198.153 214.329C198.893 215.859 199.333 217.289 199.953 218.829C200.813 219.709 201.413 220.31 201.753 220.63C202.033 218.84 202.633 218.239 203.553 218.829C206.173 219.429 206.243 223.669 203.553 224.229C205.913 225.669 204.603 233.579 202.653 235.039C205.153 234.949 206.053 235.549 205.353 236.839C204.803 238.099 204.043 238.809 202.653 238.639C203.863 242.409 202.963 243.369 199.053 243.139C192.413 242.879 185.863 242.58 179.243 242.24H178.343C175.073 242.05 171.693 242.51 168.433 242.24L166.633 241.339C166.053 241.269 165.423 241.369 164.833 241.339L165.733 240.439C168.103 240.859 172.063 240.419 174.743 240.439L181.043 241.339C184.873 241.369 196.413 242.109 199.053 241.339L200.853 240.439C201.033 240.16 200.713 239.179 200.853 238.639C198.303 238.259 198.393 233.92 200.853 233.24V232.339C198.113 232.009 198.433 226.789 200.853 226.039L199.953 225.139C198.423 227.549 189.993 228.129 189.143 225.139C187.063 224.849 178.923 224.399 178.473 224.109C177.773 223.669 175.233 210.249 174.743 208.029C174.093 206.079 174.393 205.479 175.643 206.229H175.633Z" fill="#0A0C0C"/>
<path d="M168.433 242.26C167.693 242.2 166.963 242.18 166.633 241.36C167.373 241.45 168.093 241.44 168.433 242.26Z" fill="#49746F"/>
<path d="M199.953 225.15L200.853 226.05C201.213 226.86 200.733 230.81 200.853 232.35V233.25C200.833 234.76 201.153 237.48 200.853 238.65C191.303 241.52 190.433 232.46 189.143 225.14C191.713 225.5 198.453 224.5 199.953 225.14V225.15Z" fill="#F4F9F9"/>
<path d="M197.253 214.34C196.563 216.01 200.323 223.04 199.953 223.33C199.253 223.9 183.723 222.12 181.943 221.54C178.553 213.72 191.293 217.79 194.873 217.09C195.563 216.95 195.483 215.22 196.353 214.33C196.603 213.52 196.903 213.53 197.253 214.33V214.34Z" fill="#F4F9F9"/>
<path d="M195.443 204.43C195.133 204.79 196.163 206.58 194.553 206.22C194.173 205.2 195.413 204.59 195.443 204.43Z" fill="#2AB5B8"/>
<path d="M203.553 217.04C203.433 218.8 202.053 218.86 201.753 217.04C201.293 211.89 199.423 206.72 198.133 201.74C197.213 201.99 196.173 203.58 195.443 204.43C195.823 202.51 195.983 199.39 196.343 198.13C199.613 186.85 203.643 213.37 203.543 217.04H203.553Z" fill="#2AB5B8"/>
<path d="M194.543 208.94C194.273 209.51 193.973 209.5 193.643 208.94C192.173 206.66 190.563 203.82 189.143 201.74C192.313 205.34 191.993 204.99 194.543 208.94Z" fill="#0A0C0C"/>
<path d="M198.153 214.339H197.253C196.973 214.419 196.473 214.219 196.353 214.339C195.343 212.629 194.723 210.589 193.653 208.939H194.553C195.783 210.839 196.913 211.769 198.153 214.339Z" fill="#49746F"/>
<path d="M175.633 206.229L174.733 208.029C174.483 206.909 172.403 205.319 172.933 203.529C175.433 203.079 175.003 205.069 175.633 206.229Z" fill="#49746F"/>
<path d="M187.343 189.12C188.413 190.09 191.423 190.09 190.933 192.72C189.183 192.28 187.903 190.91 186.443 190.02L187.343 189.12Z" fill="#49746F"/>
<path d="M156.723 211.64C156.563 208.09 157.043 206.71 157.623 203.53L156.723 211.64Z" fill="#49746F"/>
<path d="M181.033 241.36C179.083 241.34 176.173 242.04 174.733 240.46C176.683 240.48 179.593 239.78 181.033 241.36Z" fill="#49746F"/>
<path d="M189.143 201.73C187.223 199.55 184.323 197.44 183.283 194.55C186.103 196.47 187.333 199.08 189.143 201.73Z" fill="#49746F"/>
<path d="M200.853 240.459L199.053 241.359C199.153 241.329 200.803 240.539 200.853 240.459Z" fill="#49746F"/>
<path d="M193.633 195.43H192.753V197.22H193.633V195.43Z" fill="#49746F"/>
<path d="M191.393 193.63L191.843 194.08L191.393 194.53V193.63Z" fill="#49746F"/>
<path d="M203.553 217.04H204.453C204.293 218.14 203.863 218.25 203.553 218.84C203.243 219.43 202.213 220.03 201.753 220.64C200.683 220.22 200.813 219.54 201.753 218.84C201.723 218.24 201.803 217.63 201.753 217.04H203.553Z" fill="#49746F"/>
<path d="M201.753 218.84C201.783 219.42 201.793 220.06 201.753 220.64C201.683 221.64 202.393 223.57 200.863 223.34C200.653 221.88 200.503 220.21 199.953 218.84H201.753Z" fill="#2AB5B8"/>
<path d="M200.853 226.05L199.953 225.15C200.663 225.46 200.543 225.36 200.853 226.05Z" fill="#49746F"/>
<path d="M200.853 233.25C200.853 232.95 200.873 232.64 200.853 232.35V233.25Z" fill="#49746F"/>
<path d="M209.853 244.06L210.753 244.96C210.893 245.76 210.713 246.79 210.753 247.66V248.56C210.953 250.77 211.393 252.74 211.653 254.86C211.363 257.17 210.723 256.96 209.853 254.86C209.683 254.1 209.943 253.02 209.853 252.16L208.953 249.46C208.773 248.4 209.373 247.47 208.053 246.76C208.013 246.17 208.073 245.56 208.053 244.96V242.26C208.053 241.36 208.083 240.46 208.053 239.56C208.013 238.34 207.713 236.69 208.953 235.96C210.063 239.67 209.403 241.03 209.853 244.07V244.06Z" fill="#F4F9F9"/>
<path d="M211.653 254.87C211.833 256.33 211.533 257.9 211.653 259.37C210.723 258.59 210.133 256.14 209.853 254.87H211.653Z" fill="#2AB5B8"/>
<path d="M209.853 252.16C208.643 251.56 209.123 250.43 208.953 249.46C209.763 250.22 209.743 251.15 209.853 252.16Z" fill="#2AB5B8"/>
<path d="M208.053 244.96V242.26C208.053 242.91 208.033 244.47 208.053 244.96Z" fill="#2AB5B8"/>
<path d="M210.753 233.25C213.143 233.14 215.563 233.33 217.953 233.25C217.123 234 217.633 233.93 216.153 234.15C214.053 234.47 211.223 234.06 208.953 234.15C208.653 234.16 208.353 234.13 208.053 234.15C208.583 233.02 209.743 233.3 210.753 233.25Z" fill="#F4F9F9"/>
<path d="M210.753 248.56V247.66C210.773 247.96 210.723 248.26 210.753 248.56Z" fill="#2AB5B8"/>
<path d="M210.753 244.96C210.393 244.81 209.913 244.44 209.853 244.06C210.213 244.22 210.683 244.58 210.753 244.96Z" fill="#2AB5B8"/>
</svg>
