<svg width="159" height="201" viewBox="0 0 159 201" fill="none" xmlns="http://www.w3.org/2000/svg">
<path d="M43.6845 129.122H115.316C139.097 129.122 158.294 148.251 158.294 171.949V200.5H0.705811V171.949C0.705811 148.251 19.9029 129.122 43.6845 129.122ZM43.6845 43.4688H115.316V79.1576C115.316 88.6229 111.542 97.7005 104.825 104.393C98.1087 111.086 88.9989 114.846 79.5 114.846C70.0011 114.846 60.8913 111.086 54.1746 104.393C47.4579 97.7005 43.6845 88.6229 43.6845 79.1576V43.4688ZM115.316 43.4688C123.195 43.4688 129.642 49.8927 129.642 57.7443C129.642 65.5958 123.195 72.0198 115.316 72.0198V43.4688ZM43.6845 72.0198C35.805 72.0198 29.3582 65.5958 29.3582 57.7443C29.3582 49.8927 35.805 43.4688 43.6845 43.4688V72.0198Z" fill="#F4F9F9"/>
<path d="M45.4038 45.1824H38.2407C27.496 36.3316 29.3584 22.7698 29.3584 11.3494C29.3584 -0.071022 36.5215 7.63777 43.6846 7.63777C50.8477 7.63777 58.0109 14.7755 58.0109 14.7755C45.4038 14.7755 43.6846 0.5 43.6846 0.5H86.6633C102.422 0.5 115.316 13.348 115.316 29.0511H122.479C122.479 29.0511 126.06 39.7577 120.76 46.8955L45.547 45.1824H45.4038Z" fill="#F4F9F9"/>
</svg>
