<svg width="130" height="120" viewBox="0 0 130 120" fill="none" xmlns="http://www.w3.org/2000/svg">
<path d="M122.526 62.3663C126.932 55.7732 130 48.25 130 39.5355C130 29.2053 125.969 19.479 118.674 12.1842C111.363 4.87317 101.653 0.858605 91.3231 0.858605C80.993 0.858605 73.0128 3.6329 65.0163 10.2422C56.9872 3.61658 49.0233 0.842285 38.6932 0.842285C28.363 0.842285 18.6367 4.87317 11.3256 12.1679C4.03088 19.479 0 29.2053 0 39.5355C0 55.3653 9.87321 67.0499 19.4527 76.3193L60.3816 117.248C61.6545 118.521 63.3354 119.158 65 119.158C66.6646 119.158 68.3455 118.521 69.6184 117.248L110.531 76.3356C114.431 72.5169 118.364 68.3065 121.661 63.6065C122.004 63.2149 122.281 62.8069 122.526 62.3663ZM109.454 21.4047C114.301 26.2515 116.961 32.6814 116.961 39.5355C116.961 42.8157 116.259 45.9164 115.051 48.8702L103.905 38.8501C99.6623 34.9987 94.1627 32.8772 88.4346 32.8772C82.7065 32.8772 77.2069 34.9987 72.9312 38.8664L60.8875 49.9309C58.358 52.1993 54.6698 52.134 52.3035 49.7514C51.7324 49.1802 51.2754 48.4948 50.9653 47.7441C50.6553 46.9934 50.4921 46.1938 50.4921 45.3778C50.4921 44.5618 50.6553 43.7622 50.9653 43.0115C51.2754 42.2608 51.7324 41.5754 52.3362 40.9879L69.6347 23.6894C76.9458 16.3783 82.4291 13.8978 91.3394 13.8978C98.1936 13.8978 104.623 16.5578 109.47 21.4047H109.454ZM65 103.393L28.6078 67.001C20.5298 59.184 13.0555 50.4531 13.0555 39.5355C13.0555 32.6814 15.7155 26.2515 20.5624 21.4047C25.4092 16.5578 31.8391 13.8978 38.6932 13.8978C45.5473 13.8978 50.3452 15.3665 55.5021 19.3321L43.0994 31.7348C41.288 33.53 39.8845 35.6352 38.889 37.9851C37.9099 40.3351 37.4203 42.8157 37.4203 45.3778C37.4203 47.94 37.9099 50.4042 38.889 52.7705C39.8682 55.1205 41.288 57.2257 43.0668 59.0045C50.2963 66.2339 61.932 66.5114 69.6347 59.6083L81.711 48.5274C83.5551 46.8629 85.9214 45.949 88.4019 45.949C90.8825 45.949 93.2651 46.8629 95.1255 48.5601L107.92 60.0652C105.88 62.4805 103.644 64.7978 101.343 67.0499C101.343 67.0499 101.311 67.0826 101.294 67.0989L100.07 68.3228L92.9877 61.2402C90.4419 58.6944 86.3131 58.6944 83.7509 61.2402C81.2051 63.786 81.2051 67.9148 83.7509 70.477L90.8335 77.5596L82.527 85.8661L75.4444 78.7835C72.8986 76.2377 68.7698 76.2377 66.2076 78.7835C63.6618 81.3294 63.6618 85.4581 66.2076 88.0203L73.2902 95.1029L64.9837 103.409L65 103.393Z" fill="#0A0C0C"/>
</svg>
