<svg width="118" height="130" viewBox="0 0 118 130" fill="none" xmlns="http://www.w3.org/2000/svg">
<path d="M26.55 11.8182C22.125 11.8182 18.5614 14.2803 15.8592 19.2045C13.157 24.1288 11.8039 29.5455 11.8 35.4545C11.8 41.6591 12.6614 47.1506 14.3842 51.9291C16.107 56.7076 17.7039 60.2767 19.175 62.6364L35.4 59.3864C36.6783 56.2349 37.9822 52.6402 39.3117 48.6023C40.6412 44.5644 41.3039 40.1818 41.3 35.4545C41.3 29.5455 39.9489 24.1288 37.2467 19.2045C34.5445 14.2803 30.9789 11.8182 26.55 11.8182ZM34.6625 88.6364C36.5308 88.6364 38.1042 87.947 39.3825 86.5682C40.6608 85.1894 41.3 83.2689 41.3 80.8068C41.3 79.1326 40.9067 77.4091 40.12 75.6364C39.3333 73.8636 38.5467 72.2879 37.76 70.9091L23.6 73.8636C23.6 77.803 24.4614 81.25 26.1842 84.2046C27.907 87.1591 30.7331 88.6364 34.6625 88.6364ZM91.45 41.3636C87.025 41.3636 83.4614 43.8258 80.7592 48.75C78.057 53.6742 76.7039 59.0909 76.7 65C76.7 69.7273 77.3647 74.0862 78.6942 78.0768C80.0237 82.0674 81.3256 85.6858 82.6 88.9318L98.825 92.1818C100.3 89.8182 101.899 86.2727 103.622 81.5455C105.345 76.8182 106.204 71.303 106.2 65C106.2 59.0909 104.849 53.6742 102.147 48.75C99.4445 43.8258 95.8789 41.3636 91.45 41.3636ZM83.3375 118.182C87.2708 118.182 90.0989 116.705 91.8217 113.75C93.5445 110.795 94.4039 107.348 94.4 103.409L80.24 100.455C79.4533 101.833 78.6667 103.409 77.88 105.182C77.0933 106.955 76.7 108.678 76.7 110.352C76.7 112.322 77.3156 114.12 78.5467 115.747C79.7778 117.374 81.3748 118.186 83.3375 118.182ZM34.6625 100.455C27.0908 100.455 21.3383 97.6477 17.405 92.0341C13.4717 86.4205 11.6033 80.1174 11.8 73.125L9.14501 69.1364C8.06334 67.4621 6.26778 63.6705 3.75831 57.7614C1.24884 51.8523 -0.0039241 44.4167 9.23317e-06 35.4545C9.23317e-06 25.3106 2.50751 16.8645 7.52251 10.1164C12.5375 3.36819 18.88 -0.00393595 26.55 3.44754e-06C34.9083 3.44754e-06 41.4239 3.71879 46.0967 11.1564C50.7695 18.5939 53.1039 26.6933 53.1 35.4545C53.1 41.1667 52.3133 46.4356 50.74 51.2614C49.1667 56.0871 47.79 59.9773 46.61 62.9318L47.79 64.8523C48.5767 66.2311 49.6583 68.4233 51.035 71.4291C52.4117 74.4349 53.1 77.5608 53.1 80.8068C53.1 86.4205 51.3536 91.0985 47.8608 94.8409C44.368 98.5833 39.9646 100.455 34.6625 100.455ZM83.3434 130C78.0334 130 73.632 128.129 70.1392 124.386C66.6464 120.644 64.9 115.966 64.9 110.352C64.9 107.102 65.5883 103.974 66.965 100.969C68.3417 97.9629 69.4233 95.7726 70.21 94.3977L71.39 92.4773C70.21 89.5227 68.8333 85.6326 67.26 80.8068C65.6867 75.9811 64.9 70.7121 64.9 65C64.9 56.2349 67.2364 48.1355 71.9092 40.7018C76.582 33.2682 83.0956 29.5494 91.45 29.5455C99.12 29.5455 105.463 32.9195 110.478 39.6677C115.493 46.4159 118 54.86 118 65C118 73.9621 116.745 81.3741 114.236 87.2359C111.726 93.0977 109.933 96.8638 108.855 98.5341L106.2 102.67C106.298 109.663 104.406 115.966 100.524 121.58C96.642 127.193 90.919 130 83.3434 130Z" fill="#0A0C0C"/>
</svg>
