<svg width="200" height="182" viewBox="0 0 200 182" fill="none" xmlns="http://www.w3.org/2000/svg">
<path d="M190.909 90.9999V163.727C190.909 168.549 188.993 173.174 185.584 176.584C182.174 179.993 177.549 181.909 172.727 181.909H27.2727C22.4506 181.909 17.826 179.993 14.4162 176.584C11.0065 173.174 9.09091 168.549 9.09091 163.727V90.9999C6.67985 90.9999 4.36754 90.0421 2.66267 88.3372C0.957789 86.6323 0 84.32 0 81.909V54.6363C0 49.8141 1.91558 45.1895 5.32533 41.7798C8.73508 38.37 13.3597 36.4544 18.1818 36.4544H47C45.9726 33.5338 45.45 30.4596 45.4545 27.3635C45.4545 20.1304 48.3279 13.1934 53.4425 8.07882C58.5572 2.96419 65.4941 0.0908203 72.7273 0.0908203C81.8182 0.0908203 89.8182 4.63627 94.8182 11.3635V11.2726L100 18.2726L105.182 11.2726V11.3635C110.182 4.63627 118.182 0.0908203 127.273 0.0908203C134.506 0.0908203 141.443 2.96419 146.557 8.07882C151.672 13.1934 154.545 20.1304 154.545 27.3635C154.55 30.4596 154.027 33.5338 153 36.4544H181.818C186.64 36.4544 191.265 38.37 194.675 41.7798C198.084 45.1895 200 49.8141 200 54.6363V81.909C200 84.32 199.042 86.6323 197.337 88.3372C195.632 90.0421 193.32 90.9999 190.909 90.9999ZM27.2727 163.727H90.9091V90.9999H27.2727V163.727ZM172.727 163.727V90.9999H109.091V163.727H172.727ZM72.7273 18.2726C70.3162 18.2726 68.0039 19.2304 66.299 20.9353C64.5942 22.6402 63.6364 24.9525 63.6364 27.3635C63.6364 29.7746 64.5942 32.0869 66.299 33.7918C68.0039 35.4967 70.3162 36.4544 72.7273 36.4544C75.1383 36.4544 77.4506 35.4967 79.1555 33.7918C80.8604 32.0869 81.8182 29.7746 81.8182 27.3635C81.8182 24.9525 80.8604 22.6402 79.1555 20.9353C77.4506 19.2304 75.1383 18.2726 72.7273 18.2726ZM127.273 18.2726C124.862 18.2726 122.549 19.2304 120.844 20.9353C119.14 22.6402 118.182 24.9525 118.182 27.3635C118.182 29.7746 119.14 32.0869 120.844 33.7918C122.549 35.4967 124.862 36.4544 127.273 36.4544C129.684 36.4544 131.996 35.4967 133.701 33.7918C135.406 32.0869 136.364 29.7746 136.364 27.3635C136.364 24.9525 135.406 22.6402 133.701 20.9353C131.996 19.2304 129.684 18.2726 127.273 18.2726ZM18.1818 54.6363V72.8181H90.9091V54.6363H18.1818ZM109.091 54.6363V72.8181H181.818V54.6363H109.091Z" fill="#F4F9F9"/>
</svg>
