<svg width="40" height="40" viewBox="0 0 40 40" fill="none" xmlns="http://www.w3.org/2000/svg">
<g clip-path="url(#clip0_588_8997)">
<path d="M22.5 0H27.45C27.81 1.7875 28.8 4.0425 30.5375 6.28C32.2375 8.4725 34.4925 10 37.5 10V15C33.1175 15 29.825 12.965 27.5 10.4275V27.5C27.5 29.9723 26.7669 32.389 25.3934 34.4446C24.0199 36.5002 22.0676 38.1024 19.7836 39.0485C17.4995 39.9946 14.9861 40.2421 12.5614 39.7598C10.1366 39.2775 7.90933 38.087 6.16117 36.3388C4.41301 34.5907 3.2225 32.3634 2.74019 29.9386C2.25787 27.5139 2.50542 25.0005 3.45151 22.7165C4.39761 20.4324 5.99976 18.4801 8.05538 17.1066C10.111 15.7331 12.5277 15 15 15V20C13.5166 20 12.0666 20.4399 10.8332 21.264C9.59986 22.0881 8.63857 23.2594 8.07091 24.6299C7.50325 26.0003 7.35473 27.5083 7.64412 28.9632C7.93351 30.418 8.64781 31.7544 9.6967 32.8033C10.7456 33.8522 12.082 34.5665 13.5368 34.8559C14.9917 35.1453 16.4997 34.9968 17.8701 34.4291C19.2406 33.8614 20.4119 32.9001 21.236 31.6668C22.0601 30.4334 22.5 28.9834 22.5 27.5V0Z" fill="#F4F9F9"/>
</g>
<defs>
<clipPath id="clip0_588_8997">
<rect width="40" height="40" fill="white"/>
</clipPath>
</defs>
</svg>
